%TF.GenerationSoftware,KiCad,Pcbnew,9.0.2*%
%TF.CreationDate,2025-05-18T01:46:19+02:00*%
%TF.ProjectId,EasyBMS,45617379-424d-4532-9e6b-696361645f70,rev?*%
%TF.SameCoordinates,Original*%
%TF.FileFunction,Soldermask,Top*%
%TF.FilePolarity,Negative*%
%FSLAX46Y46*%
G04 Gerber Fmt 4.6, Leading zero omitted, Abs format (unit mm)*
G04 Created by KiCad (PCBNEW 9.0.2) date 2025-05-18 01:46:19*
%MOMM*%
%LPD*%
G01*
G04 APERTURE LIST*
G04 Aperture macros list*
%AMRoundRect*
0 Rectangle with rounded corners*
0 $1 Rounding radius*
0 $2 $3 $4 $5 $6 $7 $8 $9 X,Y pos of 4 corners*
0 Add a 4 corners polygon primitive as box body*
4,1,4,$2,$3,$4,$5,$6,$7,$8,$9,$2,$3,0*
0 Add four circle primitives for the rounded corners*
1,1,$1+$1,$2,$3*
1,1,$1+$1,$4,$5*
1,1,$1+$1,$6,$7*
1,1,$1+$1,$8,$9*
0 Add four rect primitives between the rounded corners*
20,1,$1+$1,$2,$3,$4,$5,0*
20,1,$1+$1,$4,$5,$6,$7,0*
20,1,$1+$1,$6,$7,$8,$9,0*
20,1,$1+$1,$8,$9,$2,$3,0*%
%AMHorizOval*
0 Thick line with rounded ends*
0 $1 width*
0 $2 $3 position (X,Y) of the first rounded end (center of the circle)*
0 $4 $5 position (X,Y) of the second rounded end (center of the circle)*
0 Add line between two ends*
20,1,$1,$2,$3,$4,$5,0*
0 Add two circle primitives to create the rounded ends*
1,1,$1,$2,$3*
1,1,$1,$4,$5*%
%AMFreePoly0*
4,1,19,0.784719,0.807196,0.821627,0.756396,0.826600,0.725000,0.826600,-0.725000,0.807196,-0.784719,0.756396,-0.821627,0.725000,-0.826600,-0.725000,-0.826600,-0.784719,-0.807196,-0.821627,-0.756396,-0.826600,-0.725000,-0.826600,0.130500,-0.807196,0.190219,-0.796842,0.202342,-0.202342,0.796842,-0.146394,0.825349,-0.130500,0.826600,0.725000,0.826600,0.784719,0.807196,0.784719,0.807196,
$1*%
G04 Aperture macros list end*
%ADD10C,0.000000*%
%ADD11RoundRect,0.101600X-0.300000X-0.350000X0.300000X-0.350000X0.300000X0.350000X-0.300000X0.350000X0*%
%ADD12RoundRect,0.101600X-0.750000X0.650000X-0.750000X-0.650000X0.750000X-0.650000X0.750000X0.650000X0*%
%ADD13RoundRect,0.101600X0.391950X-0.563600X0.391950X0.563600X-0.391950X0.563600X-0.391950X-0.563600X0*%
%ADD14RoundRect,0.101600X-0.900000X-0.850000X0.900000X-0.850000X0.900000X0.850000X-0.900000X0.850000X0*%
%ADD15C,2.032000*%
%ADD16RoundRect,0.101600X0.300000X0.350000X-0.300000X0.350000X-0.300000X-0.350000X0.300000X-0.350000X0*%
%ADD17RoundRect,0.101600X-0.550000X0.500000X-0.550000X-0.500000X0.550000X-0.500000X0.550000X0.500000X0*%
%ADD18RoundRect,0.101600X0.800000X0.901500X-0.800000X0.901500X-0.800000X-0.901500X0.800000X-0.901500X0*%
%ADD19RoundRect,0.101600X0.900000X-0.700000X0.900000X0.700000X-0.900000X0.700000X-0.900000X-0.700000X0*%
%ADD20RoundRect,0.101600X-0.500000X-0.550000X0.500000X-0.550000X0.500000X0.550000X-0.500000X0.550000X0*%
%ADD21RoundRect,0.101600X0.450000X-0.350000X0.450000X0.350000X-0.450000X0.350000X-0.450000X-0.350000X0*%
%ADD22RoundRect,0.101600X-0.500000X0.900000X-0.500000X-0.900000X0.500000X-0.900000X0.500000X0.900000X0*%
%ADD23RoundRect,0.101600X-0.450000X-0.400000X0.450000X-0.400000X0.450000X0.400000X-0.450000X0.400000X0*%
%ADD24RoundRect,0.101600X0.500000X0.400000X-0.500000X0.400000X-0.500000X-0.400000X0.500000X-0.400000X0*%
%ADD25RoundRect,0.101600X-0.350000X0.300000X-0.350000X-0.300000X0.350000X-0.300000X0.350000X0.300000X0*%
%ADD26C,3.403200*%
%ADD27O,3.860800X2.032000*%
%ADD28RoundRect,0.299560X0.314540X0.502040X-0.314540X0.502040X-0.314540X-0.502040X0.314540X-0.502040X0*%
%ADD29RoundRect,0.101600X0.650000X0.750000X-0.650000X0.750000X-0.650000X-0.750000X0.650000X-0.750000X0*%
%ADD30RoundRect,0.101600X-0.584200X-0.800100X0.584200X-0.800100X0.584200X0.800100X-0.584200X0.800100X0*%
%ADD31RoundRect,0.101600X-0.450000X0.350000X-0.450000X-0.350000X0.450000X-0.350000X0.450000X0.350000X0*%
%ADD32RoundRect,0.101600X-0.800000X-0.901500X0.800000X-0.901500X0.800000X0.901500X-0.800000X0.901500X0*%
%ADD33RoundRect,0.101600X0.450000X0.400000X-0.450000X0.400000X-0.450000X-0.400000X0.450000X-0.400000X0*%
%ADD34RoundRect,0.101600X0.800100X-0.584200X0.800100X0.584200X-0.800100X0.584200X-0.800100X-0.584200X0*%
%ADD35RoundRect,0.101600X-0.650000X-0.750000X0.650000X-0.750000X0.650000X0.750000X-0.650000X0.750000X0*%
%ADD36RoundRect,0.101600X-0.800100X0.584200X-0.800100X-0.584200X0.800100X-0.584200X0.800100X0.584200X0*%
%ADD37C,0.803200*%
%ADD38O,1.203200X2.303200*%
%ADD39O,1.203200X1.803200*%
%ADD40RoundRect,0.101600X-0.350000X-0.450000X0.350000X-0.450000X0.350000X0.450000X-0.350000X0.450000X0*%
%ADD41RoundRect,0.101600X0.900000X0.150000X-0.900000X0.150000X-0.900000X-0.150000X0.900000X-0.150000X0*%
%ADD42RoundRect,0.101600X0.550000X-0.500000X0.550000X0.500000X-0.550000X0.500000X-0.550000X-0.500000X0*%
%ADD43RoundRect,0.101600X0.750000X-0.650000X0.750000X0.650000X-0.750000X0.650000X-0.750000X-0.650000X0*%
%ADD44RoundRect,0.200800X-0.800800X-0.200800X0.800800X-0.200800X0.800800X0.200800X-0.800800X0.200800X0*%
%ADD45RoundRect,0.101600X0.900000X0.850000X-0.900000X0.850000X-0.900000X-0.850000X0.900000X-0.850000X0*%
%ADD46RoundRect,0.101600X0.350000X0.450000X-0.350000X0.450000X-0.350000X-0.450000X0.350000X-0.450000X0*%
%ADD47RoundRect,0.101600X-1.750000X-0.800000X1.750000X-0.800000X1.750000X0.800000X-1.750000X0.800000X0*%
%ADD48RoundRect,0.101600X1.003300X-0.749300X1.003300X0.749300X-1.003300X0.749300X-1.003300X-0.749300X0*%
%ADD49RoundRect,0.101600X1.003300X-1.905000X1.003300X1.905000X-1.003300X1.905000X-1.003300X-1.905000X0*%
%ADD50RoundRect,0.101600X0.350000X-0.300000X0.350000X0.300000X-0.350000X0.300000X-0.350000X-0.300000X0*%
%ADD51RoundRect,0.101600X0.500000X0.550000X-0.500000X0.550000X-0.500000X-0.550000X0.500000X-0.550000X0*%
%ADD52C,3.453200*%
%ADD53RoundRect,0.101600X0.380000X1.800000X-0.380000X1.800000X-0.380000X-1.800000X0.380000X-1.800000X0*%
%ADD54RoundRect,0.101600X1.560000X1.270000X-1.560000X1.270000X-1.560000X-1.270000X1.560000X-1.270000X0*%
%ADD55RoundRect,0.101600X0.300000X0.200000X-0.300000X0.200000X-0.300000X-0.200000X0.300000X-0.200000X0*%
%ADD56RoundRect,0.101600X-0.300000X-0.200000X0.300000X-0.200000X0.300000X0.200000X-0.300000X0.200000X0*%
%ADD57RoundRect,0.200800X-0.875800X-0.200800X0.875800X-0.200800X0.875800X0.200800X-0.875800X0.200800X0*%
%ADD58RoundRect,0.101600X-0.901500X0.800000X-0.901500X-0.800000X0.901500X-0.800000X0.901500X0.800000X0*%
%ADD59RoundRect,0.425800X-0.425800X0.675800X-0.425800X-0.675800X0.425800X-0.675800X0.425800X0.675800X0*%
%ADD60RoundRect,0.550800X-1.450800X0.550800X-1.450800X-0.550800X1.450800X-0.550800X1.450800X0.550800X0*%
%ADD61RoundRect,0.101600X-0.900000X0.700000X-0.900000X-0.700000X0.900000X-0.700000X0.900000X0.700000X0*%
%ADD62RoundRect,0.101600X-0.200000X0.300000X-0.200000X-0.300000X0.200000X-0.300000X0.200000X0.300000X0*%
%ADD63RoundRect,0.101600X0.200000X-0.300000X0.200000X0.300000X-0.200000X0.300000X-0.200000X-0.300000X0*%
%ADD64RoundRect,0.295155X-0.368945X-0.681445X0.368945X-0.681445X0.368945X0.681445X-0.368945X0.681445X0*%
%ADD65RoundRect,0.101600X3.750000X-1.500000X3.750000X1.500000X-3.750000X1.500000X-3.750000X-1.500000X0*%
%ADD66C,1.103200*%
%ADD67C,13.203200*%
%ADD68RoundRect,0.101600X0.900000X-0.800000X0.900000X0.800000X-0.900000X0.800000X-0.900000X-0.800000X0*%
%ADD69RoundRect,1.371600X-0.000010X-0.000010X0.000010X-0.000010X0.000010X0.000010X-0.000010X0.000010X0*%
%ADD70RoundRect,0.101600X0.500000X-0.550000X0.500000X0.550000X-0.500000X0.550000X-0.500000X-0.550000X0*%
%ADD71RoundRect,0.274191X0.877409X-0.877409X0.877409X0.877409X-0.877409X0.877409X-0.877409X-0.877409X0*%
%ADD72C,2.303200*%
%ADD73RoundRect,0.101600X-0.400000X-0.200000X0.400000X-0.200000X0.400000X0.200000X-0.400000X0.200000X0*%
%ADD74RoundRect,0.101600X-0.200000X-0.400000X0.200000X-0.400000X0.200000X0.400000X-0.200000X0.400000X0*%
%ADD75FreePoly0,0.000000*%
%ADD76RoundRect,0.101600X-0.725000X-0.725000X0.725000X-0.725000X0.725000X0.725000X-0.725000X0.725000X0*%
%ADD77RoundRect,0.101600X-0.350000X-0.350000X0.350000X-0.350000X0.350000X0.350000X-0.350000X0.350000X0*%
%ADD78RoundRect,0.101600X-0.550000X-0.500000X0.550000X-0.500000X0.550000X0.500000X-0.550000X0.500000X0*%
%ADD79RoundRect,0.300800X0.300800X0.525800X-0.300800X0.525800X-0.300800X-0.525800X0.300800X-0.525800X0*%
%ADD80RoundRect,0.101600X-0.900000X-0.150000X0.900000X-0.150000X0.900000X0.150000X-0.900000X0.150000X0*%
%ADD81RoundRect,0.101600X0.584200X0.800100X-0.584200X0.800100X-0.584200X-0.800100X0.584200X-0.800100X0*%
%ADD82RoundRect,0.101600X0.325000X-0.400000X0.325000X0.400000X-0.325000X0.400000X-0.325000X-0.400000X0*%
%ADD83RoundRect,0.101600X-0.650000X-0.300000X0.650000X-0.300000X0.650000X0.300000X-0.650000X0.300000X0*%
%ADD84RoundRect,0.101600X-1.250000X-1.750000X1.250000X-1.750000X1.250000X1.750000X-1.250000X1.750000X0*%
%ADD85RoundRect,0.101600X0.800000X-0.800000X0.800000X0.800000X-0.800000X0.800000X-0.800000X-0.800000X0*%
%ADD86C,1.803200*%
%ADD87RoundRect,0.101600X0.800000X-1.750000X0.800000X1.750000X-0.800000X1.750000X-0.800000X-1.750000X0*%
%ADD88RoundRect,0.101600X-0.750000X-0.750000X0.750000X-0.750000X0.750000X0.750000X-0.750000X0.750000X0*%
%ADD89C,1.703200*%
%ADD90HorizOval,1.003200X0.000000X0.000000X0.000000X0.000000X0*%
%ADD91HorizOval,1.003200X0.000000X0.000000X0.000000X0.000000X0*%
%ADD92C,1.003200*%
%ADD93O,9.203200X6.203200*%
G04 APERTURE END LIST*
D10*
%TO.C,GND1*%
G36*
X159216900Y-67345754D02*
G01*
X159064500Y-67345754D01*
X159064500Y-65516954D01*
X159216900Y-65516954D01*
X159216900Y-67345754D01*
G37*
%TO.C,RS485-GNDPWR1*%
G36*
X147589400Y-54614200D02*
G01*
X145760600Y-54614200D01*
X145760600Y-54461800D01*
X147589400Y-54461800D01*
X147589400Y-54614200D01*
G37*
%TO.C,IP-/GND1*%
G36*
X124864200Y-129289400D02*
G01*
X124711800Y-129289400D01*
X124711800Y-127460600D01*
X124864200Y-127460600D01*
X124864200Y-129289400D01*
G37*
%TO.C,CAN-GNDP1*%
G36*
X173889400Y-58064200D02*
G01*
X172060600Y-58064200D01*
X172060600Y-57911800D01*
X173889400Y-57911800D01*
X173889400Y-58064200D01*
G37*
%TO.C,CAN-LV1*%
G36*
X169464400Y-58052200D02*
G01*
X167635600Y-58052200D01*
X167635600Y-57899800D01*
X169464400Y-57899800D01*
X169464400Y-58052200D01*
G37*
%TO.C,J1*%
G36*
X116951000Y-44943200D02*
G01*
X116251000Y-44943200D01*
X116251000Y-43703200D01*
X116951000Y-43703200D01*
X116951000Y-44943200D01*
G37*
G36*
X117751000Y-44943200D02*
G01*
X117051000Y-44943200D01*
X117051000Y-43703200D01*
X117751000Y-43703200D01*
X117751000Y-44943200D01*
G37*
G36*
X118251000Y-44943200D02*
G01*
X117851000Y-44943200D01*
X117851000Y-43703200D01*
X118251000Y-43703200D01*
X118251000Y-44943200D01*
G37*
G36*
X118751000Y-44943200D02*
G01*
X118351000Y-44943200D01*
X118351000Y-43703200D01*
X118751000Y-43703200D01*
X118751000Y-44943200D01*
G37*
G36*
X119251000Y-44943200D02*
G01*
X118851000Y-44943200D01*
X118851000Y-43703200D01*
X119251000Y-43703200D01*
X119251000Y-44943200D01*
G37*
G36*
X119751000Y-44943200D02*
G01*
X119351000Y-44943200D01*
X119351000Y-43703200D01*
X119751000Y-43703200D01*
X119751000Y-44943200D01*
G37*
G36*
X120251000Y-44943200D02*
G01*
X119851000Y-44943200D01*
X119851000Y-43703200D01*
X120251000Y-43703200D01*
X120251000Y-44943200D01*
G37*
G36*
X120751000Y-44943200D02*
G01*
X120351000Y-44943200D01*
X120351000Y-43703200D01*
X120751000Y-43703200D01*
X120751000Y-44943200D01*
G37*
G36*
X121251000Y-44943200D02*
G01*
X120851000Y-44943200D01*
X120851000Y-43703200D01*
X121251000Y-43703200D01*
X121251000Y-44943200D01*
G37*
G36*
X121751000Y-44943200D02*
G01*
X121351000Y-44943200D01*
X121351000Y-43703200D01*
X121751000Y-43703200D01*
X121751000Y-44943200D01*
G37*
G36*
X122551000Y-44943200D02*
G01*
X121851000Y-44943200D01*
X121851000Y-43703200D01*
X122551000Y-43703200D01*
X122551000Y-44943200D01*
G37*
G36*
X123351000Y-44943200D02*
G01*
X122651000Y-44943200D01*
X122651000Y-43703200D01*
X123351000Y-43703200D01*
X123351000Y-44943200D01*
G37*
%TO.C,RS485-VDD1*%
G36*
X146801200Y-58314400D02*
G01*
X146648800Y-58314400D01*
X146648800Y-56485600D01*
X146801200Y-56485600D01*
X146801200Y-58314400D01*
G37*
%TO.C,CAN-GNDV1*%
G36*
X180514400Y-58064200D02*
G01*
X178685600Y-58064200D01*
X178685600Y-57911800D01*
X180514400Y-57911800D01*
X180514400Y-58064200D01*
G37*
%TO.C,CAN-HP1*%
G36*
X178289400Y-58077200D02*
G01*
X176460600Y-58077200D01*
X176460600Y-57924800D01*
X178289400Y-57924800D01*
X178289400Y-58077200D01*
G37*
%TO.C,CAN-HV1*%
G36*
X171689400Y-58077200D02*
G01*
X169860600Y-58077200D01*
X169860600Y-57924800D01*
X171689400Y-57924800D01*
X171689400Y-58077200D01*
G37*
%TO.C,TERM0*%
G36*
X162339400Y-54614200D02*
G01*
X160510600Y-54614200D01*
X160510600Y-54461800D01*
X162339400Y-54461800D01*
X162339400Y-54614200D01*
G37*
%TO.C,CAN-LP1*%
G36*
X176089400Y-58052200D02*
G01*
X174260600Y-58052200D01*
X174260600Y-57899800D01*
X176089400Y-57899800D01*
X176089400Y-58052200D01*
G37*
%TO.C,GND2*%
G36*
X121126200Y-136839400D02*
G01*
X120973800Y-136839400D01*
X120973800Y-135010600D01*
X121126200Y-135010600D01*
X121126200Y-136839400D01*
G37*
%TD*%
D11*
%TO.C,R50*%
X165227800Y-129259754D03*
X166227800Y-129259754D03*
%TD*%
D12*
%TO.C,C21*%
X123682800Y-59763400D03*
X123682800Y-61663400D03*
%TD*%
D13*
%TO.C,D15*%
X113700000Y-44943000D03*
X113700000Y-41500000D03*
%TD*%
D14*
%TO.C,D33*%
X158040700Y-68806354D03*
X153940700Y-68806354D03*
%TD*%
D11*
%TO.C,R75*%
X165227800Y-83759954D03*
X166227800Y-83759954D03*
%TD*%
D15*
%TO.C,JP24*%
X187517800Y-78509954D03*
X184977800Y-78509954D03*
%TD*%
D16*
%TO.C,R5*%
X133940400Y-48469800D03*
X132940400Y-48469800D03*
%TD*%
D17*
%TO.C,R91*%
X143325000Y-106925000D03*
X143325000Y-108625000D03*
%TD*%
D18*
%TO.C,R28*%
X180049800Y-115359954D03*
X177205800Y-115359954D03*
%TD*%
D11*
%TO.C,R20*%
X96064000Y-55225000D03*
X97064000Y-55225000D03*
%TD*%
D19*
%TO.C,D30*%
X162627800Y-81659754D03*
X162627800Y-78259754D03*
%TD*%
D20*
%TO.C,R92*%
X144051700Y-105100000D03*
X145751700Y-105100000D03*
%TD*%
D21*
%TO.C,C50*%
X164927800Y-68809954D03*
X164927800Y-67509954D03*
%TD*%
D22*
%TO.C,Y1*%
X97664000Y-56675000D03*
X95164000Y-56675000D03*
%TD*%
D18*
%TO.C,R29*%
X180049811Y-109459975D03*
X177205811Y-109459975D03*
%TD*%
%TO.C,R48*%
X172846800Y-68159954D03*
X170002800Y-68159954D03*
%TD*%
D23*
%TO.C,Q24*%
X113712889Y-100021600D03*
X113712889Y-98021600D03*
X111712889Y-99021600D03*
%TD*%
D24*
%TO.C,D35*%
X161625000Y-58700000D03*
X161625000Y-56800000D03*
X159325000Y-57750000D03*
%TD*%
D18*
%TO.C,R45*%
X172849800Y-85859954D03*
X170005800Y-85859954D03*
%TD*%
%TO.C,R38*%
X172849800Y-127159754D03*
X170005800Y-127159754D03*
%TD*%
D25*
%TO.C,R55*%
X128383600Y-50559000D03*
X128383600Y-51559000D03*
%TD*%
D18*
%TO.C,R37*%
X172849800Y-133059954D03*
X170005800Y-133059954D03*
%TD*%
D26*
%TO.C,H1*%
X92864000Y-134875000D03*
%TD*%
D11*
%TO.C,R85*%
X145065700Y-95931354D03*
X146065700Y-95931354D03*
%TD*%
D18*
%TO.C,R26*%
X180049800Y-127159754D03*
X177205800Y-127159754D03*
%TD*%
D27*
%TO.C,RST0*%
X93962800Y-59414400D03*
X100465200Y-59414400D03*
X93962800Y-63935600D03*
X100465200Y-63935600D03*
%TD*%
D28*
%TO.C,L2*%
X141462500Y-72375000D03*
X139637500Y-72375000D03*
%TD*%
D29*
%TO.C,C12*%
X130625000Y-89550000D03*
X128725000Y-89550000D03*
%TD*%
D30*
%TO.C,GND1*%
X158378700Y-66431354D03*
X159902700Y-66431354D03*
%TD*%
D31*
%TO.C,C39*%
X115212889Y-92471379D03*
X115212889Y-93771379D03*
%TD*%
D15*
%TO.C,JP10*%
X95162900Y-115071400D03*
X92622900Y-115071400D03*
%TD*%
D32*
%TO.C,R145*%
X107290889Y-93121379D03*
X110134889Y-93121379D03*
%TD*%
D33*
%TO.C,Q9*%
X166427800Y-84859954D03*
X166427800Y-86859954D03*
X168427800Y-85859954D03*
%TD*%
D11*
%TO.C,R69*%
X165227800Y-119159954D03*
X166227800Y-119159954D03*
%TD*%
D16*
%TO.C,R139*%
X114912889Y-96921600D03*
X113912889Y-96921600D03*
%TD*%
D33*
%TO.C,Q12*%
X166427800Y-67159954D03*
X166427800Y-69159954D03*
X168427800Y-68159954D03*
%TD*%
D34*
%TO.C,RS485-GNDPWR1*%
X146675000Y-55300000D03*
X146675000Y-53776000D03*
%TD*%
D30*
%TO.C,IP-/GND1*%
X124026000Y-128375000D03*
X125550000Y-128375000D03*
%TD*%
D15*
%TO.C,JP22*%
X184977800Y-84509954D03*
X187517800Y-84509954D03*
%TD*%
D33*
%TO.C,Q1*%
X166427800Y-132059954D03*
X166427800Y-134059954D03*
X168427800Y-133059954D03*
%TD*%
D15*
%TO.C,JP14*%
X187517800Y-108509954D03*
X184977800Y-108509954D03*
%TD*%
D19*
%TO.C,D25*%
X162627811Y-111159975D03*
X162627811Y-107759975D03*
%TD*%
D16*
%TO.C,R163*%
X114912900Y-79221400D03*
X113912900Y-79221400D03*
%TD*%
D25*
%TO.C,R60*%
X120362900Y-133021400D03*
X120362900Y-134021400D03*
%TD*%
D18*
%TO.C,R44*%
X172849703Y-91759960D03*
X170005703Y-91759960D03*
%TD*%
D35*
%TO.C,C20*%
X122512900Y-92671400D03*
X124412900Y-92671400D03*
%TD*%
D16*
%TO.C,R107*%
X114912900Y-120521600D03*
X113912900Y-120521600D03*
%TD*%
D11*
%TO.C,R65*%
X165227800Y-76159754D03*
X166227800Y-76159754D03*
%TD*%
D32*
%TO.C,R105*%
X107290900Y-122621600D03*
X110134900Y-122621600D03*
%TD*%
D36*
%TO.C,CAN-GNDP1*%
X172975000Y-57226000D03*
X172975000Y-58750000D03*
%TD*%
%TO.C,CAN-LV1*%
X168550000Y-57214000D03*
X168550000Y-58738000D03*
%TD*%
D29*
%TO.C,C52*%
X157627800Y-109909954D03*
X155727800Y-109909954D03*
%TD*%
D27*
%TO.C,JP1*%
X135464600Y-71531000D03*
X135464600Y-74071000D03*
X135464600Y-76611000D03*
X135464600Y-79151000D03*
X135464600Y-81691000D03*
X135464600Y-84231000D03*
X135464600Y-86771000D03*
X135464600Y-89311000D03*
%TD*%
D32*
%TO.C,R96*%
X107293900Y-134421400D03*
X110137900Y-134421400D03*
%TD*%
%TO.C,R176*%
X100090900Y-69521400D03*
X102934900Y-69521400D03*
%TD*%
D12*
%TO.C,C65*%
X143800000Y-41600000D03*
X143800000Y-43500000D03*
%TD*%
D18*
%TO.C,R43*%
X172849800Y-97659954D03*
X170005800Y-97659954D03*
%TD*%
D11*
%TO.C,R11*%
X115614000Y-45775000D03*
X116614000Y-45775000D03*
%TD*%
D32*
%TO.C,R121*%
X107290997Y-110821394D03*
X110134997Y-110821394D03*
%TD*%
D37*
%TO.C,J1*%
X122691000Y-43253200D03*
X116911000Y-43253200D03*
D38*
X124121000Y-43745200D03*
D39*
X124121000Y-39575200D03*
X115481000Y-39575200D03*
D38*
X115471000Y-43735200D03*
%TD*%
D40*
%TO.C,C23*%
X133925000Y-107775000D03*
X135225000Y-107775000D03*
%TD*%
D41*
%TO.C,IC5*%
X155551500Y-106374815D03*
X155551500Y-105874815D03*
X155551500Y-105374815D03*
X155551500Y-104874815D03*
X155551500Y-104374815D03*
X155551500Y-103874815D03*
X155551500Y-103374815D03*
X155551500Y-102874815D03*
X155551500Y-102374815D03*
X155551500Y-101874815D03*
X155551500Y-101374815D03*
X155551500Y-100874815D03*
X155551500Y-100374815D03*
X155551500Y-99874815D03*
X155551500Y-99374815D03*
X155551500Y-98874815D03*
X155551500Y-98374815D03*
X155551500Y-97874815D03*
X155551500Y-97374815D03*
X155551500Y-96874815D03*
X155551500Y-96374815D03*
X155551500Y-95874815D03*
X155551500Y-95374815D03*
X155551500Y-94874815D03*
X148451500Y-94874815D03*
X148451500Y-95374815D03*
X148451500Y-95874815D03*
X148451500Y-96374815D03*
X148451500Y-96874815D03*
X148451500Y-97374815D03*
X148451500Y-97874815D03*
X148451500Y-98374815D03*
X148451500Y-98874815D03*
X148451500Y-99374815D03*
X148451500Y-99874815D03*
X148451500Y-100374815D03*
X148451500Y-100874815D03*
X148451500Y-101374815D03*
X148451500Y-101874815D03*
X148451500Y-102374815D03*
X148451500Y-102874815D03*
X148451500Y-103374815D03*
X148451500Y-103874815D03*
X148451500Y-104374815D03*
X148451500Y-104874815D03*
X148451500Y-105374815D03*
X148451500Y-105874815D03*
X148451500Y-106374815D03*
%TD*%
D31*
%TO.C,C5*%
X127264000Y-50425000D03*
X127264000Y-51725000D03*
%TD*%
D42*
%TO.C,R17*%
X136000000Y-98500000D03*
X136000000Y-96800000D03*
%TD*%
D43*
%TO.C,C14*%
X91664000Y-47875000D03*
X91664000Y-45975000D03*
%TD*%
D32*
%TO.C,R161*%
X107290900Y-81321400D03*
X110134900Y-81321400D03*
%TD*%
D44*
%TO.C,U5*%
X139500000Y-59595000D03*
X139500000Y-60865000D03*
X139500000Y-62135000D03*
X139500000Y-63405000D03*
X150150000Y-63405000D03*
X150150000Y-62135000D03*
X150150000Y-60865000D03*
X150150000Y-59595000D03*
%TD*%
D45*
%TO.C,D3*%
X127067800Y-59604000D03*
X131167800Y-59604000D03*
%TD*%
D46*
%TO.C,C53*%
X146102800Y-98834954D03*
X144802800Y-98834954D03*
%TD*%
D11*
%TO.C,R88*%
X155690700Y-108181354D03*
X156690700Y-108181354D03*
%TD*%
%TO.C,R64*%
X165227800Y-82059754D03*
X166227800Y-82059754D03*
%TD*%
D47*
%TO.C,C24*%
X131036000Y-46032800D03*
X125636000Y-46032800D03*
%TD*%
D48*
%TO.C,IC6*%
X141674600Y-43135600D03*
X141674600Y-40849600D03*
X141674600Y-38563600D03*
D49*
X135375400Y-40875000D03*
%TD*%
D50*
%TO.C,R2*%
X132630600Y-72831200D03*
X132630600Y-71831200D03*
%TD*%
D51*
%TO.C,R90*%
X145751700Y-110431354D03*
X144051700Y-110431354D03*
%TD*%
D17*
%TO.C,R87*%
X182165700Y-75556354D03*
X182165700Y-77256354D03*
%TD*%
D11*
%TO.C,R49*%
X165227800Y-135159954D03*
X166227800Y-135159954D03*
%TD*%
D32*
%TO.C,R136*%
X100090889Y-99021600D03*
X102934889Y-99021600D03*
%TD*%
D46*
%TO.C,C42*%
X139350000Y-94950000D03*
X138050000Y-94950000D03*
%TD*%
D50*
%TO.C,R6*%
X129464000Y-51575000D03*
X129464000Y-50575000D03*
%TD*%
D30*
%TO.C,RS485-VDD1*%
X145963000Y-57400000D03*
X147487000Y-57400000D03*
%TD*%
D50*
%TO.C,R13*%
X93414000Y-50575000D03*
X93414000Y-49575000D03*
%TD*%
D32*
%TO.C,R129*%
X107290900Y-104921400D03*
X110134900Y-104921400D03*
%TD*%
%TO.C,R177*%
X107290900Y-69521400D03*
X110134900Y-69521400D03*
%TD*%
%TO.C,R100*%
X100087900Y-128521400D03*
X102931900Y-128521400D03*
%TD*%
D31*
%TO.C,C9*%
X93887900Y-55525000D03*
X93887900Y-56825000D03*
%TD*%
D23*
%TO.C,Q30*%
X113712900Y-82321400D03*
X113712900Y-80321400D03*
X111712900Y-81321400D03*
%TD*%
D21*
%TO.C,C34*%
X164927800Y-116009954D03*
X164927800Y-114709954D03*
%TD*%
D16*
%TO.C,R178*%
X114912900Y-71621400D03*
X113912900Y-71621400D03*
%TD*%
D32*
%TO.C,R113*%
X107290900Y-116721400D03*
X110134900Y-116721400D03*
%TD*%
D52*
%TO.C,RJ2*%
X178295000Y-42165000D03*
X166865000Y-42165000D03*
D53*
X177015000Y-54035000D03*
X175745000Y-54035000D03*
X174475000Y-54035000D03*
X173205000Y-54035000D03*
X171945000Y-54035000D03*
X170675000Y-54035000D03*
X169395000Y-54035000D03*
X168135000Y-54035000D03*
D54*
X164405000Y-39115000D03*
X180745000Y-39115000D03*
%TD*%
D40*
%TO.C,C1*%
X134037900Y-102496400D03*
X135337900Y-102496400D03*
%TD*%
D16*
%TO.C,R114*%
X114912900Y-118821400D03*
X113912900Y-118821400D03*
%TD*%
D18*
%TO.C,R46*%
X172849800Y-79959754D03*
X170005800Y-79959754D03*
%TD*%
D11*
%TO.C,R53*%
X165227811Y-111559975D03*
X166227811Y-111559975D03*
%TD*%
D31*
%TO.C,C29*%
X115212900Y-121971600D03*
X115212900Y-123271600D03*
%TD*%
D23*
%TO.C,Q34*%
X113712900Y-70521400D03*
X113712900Y-68521400D03*
X111712900Y-69521400D03*
%TD*%
D40*
%TO.C,C62*%
X145200000Y-77825000D03*
X146500000Y-77825000D03*
%TD*%
D15*
%TO.C,JP5*%
X95162900Y-103071400D03*
X92622900Y-103071400D03*
%TD*%
D33*
%TO.C,Q2*%
X166427800Y-126159754D03*
X166427800Y-128159754D03*
X168427800Y-127159754D03*
%TD*%
D31*
%TO.C,C28*%
X115212900Y-127871600D03*
X115212900Y-129171600D03*
%TD*%
D26*
%TO.C,H6*%
X187875000Y-134975000D03*
%TD*%
D32*
%TO.C,R152*%
X100090900Y-87221400D03*
X102934900Y-87221400D03*
%TD*%
D11*
%TO.C,R52*%
X165227800Y-117459954D03*
X166227800Y-117459954D03*
%TD*%
D29*
%TO.C,C59*%
X156826700Y-114831354D03*
X154926700Y-114831354D03*
%TD*%
D11*
%TO.C,R67*%
X165227800Y-130959954D03*
X166227800Y-130959954D03*
%TD*%
D15*
%TO.C,JP19*%
X184977800Y-93509954D03*
X187517800Y-93509954D03*
%TD*%
D36*
%TO.C,CAN-GNDV1*%
X179600000Y-57226000D03*
X179600000Y-58750000D03*
%TD*%
D55*
%TO.C,D11*%
X121450000Y-45825000D03*
D56*
X119950000Y-45825000D03*
%TD*%
D11*
%TO.C,R51*%
X165227800Y-123359954D03*
X166227800Y-123359954D03*
%TD*%
D21*
%TO.C,C30*%
X164927800Y-127809754D03*
X164927800Y-126509754D03*
%TD*%
D16*
%TO.C,R171*%
X114912900Y-73321600D03*
X113912900Y-73321600D03*
%TD*%
D40*
%TO.C,C66*%
X133225000Y-93350000D03*
X134525000Y-93350000D03*
%TD*%
D42*
%TO.C,R81*%
X182090700Y-128881354D03*
X182090700Y-127181354D03*
%TD*%
D12*
%TO.C,C7*%
X121350000Y-48200000D03*
X121350000Y-50100000D03*
%TD*%
D21*
%TO.C,C46*%
X164927800Y-86509954D03*
X164927800Y-85209954D03*
%TD*%
D32*
%TO.C,R169*%
X107290900Y-75421600D03*
X110134900Y-75421600D03*
%TD*%
D21*
%TO.C,C49*%
X164927800Y-74709754D03*
X164927800Y-73409754D03*
%TD*%
D15*
%TO.C,JP4*%
X95162900Y-100071400D03*
X92622900Y-100071400D03*
%TD*%
D57*
%TO.C,U3*%
X139950000Y-79160000D03*
X139950000Y-80430000D03*
X139950000Y-81700000D03*
X139950000Y-82970000D03*
X144900000Y-82970000D03*
X144900000Y-81700000D03*
X144900000Y-80430000D03*
X144900000Y-79160000D03*
%TD*%
D46*
%TO.C,C11*%
X150500000Y-57725000D03*
X149200000Y-57725000D03*
%TD*%
D11*
%TO.C,R24*%
X140750000Y-94950000D03*
X141750000Y-94950000D03*
%TD*%
D25*
%TO.C,R21*%
X112264000Y-42075000D03*
X112264000Y-43075000D03*
%TD*%
D48*
%TO.C,IC4*%
X118813600Y-51735600D03*
X118813600Y-49449600D03*
X118813600Y-47163600D03*
D49*
X112514400Y-49475000D03*
%TD*%
D51*
%TO.C,R1*%
X133300000Y-94925000D03*
X131600000Y-94925000D03*
%TD*%
D11*
%TO.C,R76*%
X165227800Y-77859754D03*
X166227800Y-77859754D03*
%TD*%
D12*
%TO.C,C18*%
X152375000Y-58975000D03*
X152375000Y-60875000D03*
%TD*%
D32*
%TO.C,R137*%
X107290889Y-99021600D03*
X110134889Y-99021600D03*
%TD*%
D21*
%TO.C,C48*%
X164927800Y-80609754D03*
X164927800Y-79309754D03*
%TD*%
D18*
%TO.C,R35*%
X180052800Y-74059954D03*
X177208800Y-74059954D03*
%TD*%
D23*
%TO.C,Q22*%
X113712900Y-105921400D03*
X113712900Y-103921400D03*
X111712900Y-104921400D03*
%TD*%
D16*
%TO.C,R170*%
X114912900Y-77521600D03*
X113912900Y-77521600D03*
%TD*%
D12*
%TO.C,C64*%
X143775000Y-45625000D03*
X143775000Y-47525000D03*
%TD*%
D11*
%TO.C,R74*%
X165227703Y-89659960D03*
X166227703Y-89659960D03*
%TD*%
D51*
%TO.C,R22*%
X136300000Y-94925000D03*
X134600000Y-94925000D03*
%TD*%
D19*
%TO.C,D31*%
X162627800Y-75759754D03*
X162627800Y-72359754D03*
%TD*%
D58*
%TO.C,R18*%
X134719000Y-63892800D03*
X134719000Y-66736800D03*
%TD*%
D19*
%TO.C,D27*%
X162627800Y-99359954D03*
X162627800Y-95959954D03*
%TD*%
D59*
%TO.C,Q13*%
X152401700Y-108806354D03*
X150101700Y-108806354D03*
X147801700Y-108806354D03*
D60*
X150101700Y-115106354D03*
%TD*%
D23*
%TO.C,Q20*%
X113712997Y-111821394D03*
X113712997Y-109821394D03*
X111712997Y-110821394D03*
%TD*%
D15*
%TO.C,JP18*%
X184977800Y-96509954D03*
X187517800Y-96509954D03*
%TD*%
D16*
%TO.C,R147*%
X114912889Y-91021379D03*
X113912889Y-91021379D03*
%TD*%
D46*
%TO.C,C55*%
X146077800Y-101334954D03*
X144777800Y-101334954D03*
%TD*%
D31*
%TO.C,C47*%
X115212900Y-68871400D03*
X115212900Y-70171400D03*
%TD*%
D61*
%TO.C,D12*%
X117512900Y-103221400D03*
X117512900Y-106621400D03*
%TD*%
D11*
%TO.C,R84*%
X145065700Y-96956354D03*
X146065700Y-96956354D03*
%TD*%
D62*
%TO.C,D37*%
X182225000Y-54225000D03*
D63*
X182225000Y-55725000D03*
%TD*%
D32*
%TO.C,R128*%
X100090900Y-104921400D03*
X102934900Y-104921400D03*
%TD*%
D16*
%TO.C,R106*%
X114912900Y-124721600D03*
X113912900Y-124721600D03*
%TD*%
%TO.C,R122*%
X114912997Y-112921394D03*
X113912997Y-112921394D03*
%TD*%
D58*
%TO.C,R19*%
X114610400Y-61136000D03*
X114610400Y-63980000D03*
%TD*%
D11*
%TO.C,R66*%
X165227800Y-70259954D03*
X166227800Y-70259954D03*
%TD*%
D33*
%TO.C,Q11*%
X166427800Y-73059754D03*
X166427800Y-75059754D03*
X168427800Y-74059754D03*
%TD*%
D31*
%TO.C,C45*%
X115212900Y-74771600D03*
X115212900Y-76071600D03*
%TD*%
D11*
%TO.C,R63*%
X165227800Y-87959954D03*
X166227800Y-87959954D03*
%TD*%
D23*
%TO.C,Q16*%
X113712900Y-123621600D03*
X113712900Y-121621600D03*
X111712900Y-122621600D03*
%TD*%
D15*
%TO.C,JP8*%
X95162900Y-109071400D03*
X92622900Y-109071400D03*
%TD*%
D64*
%TO.C,F2*%
X163625000Y-53900000D03*
X166550000Y-53900000D03*
%TD*%
D42*
%TO.C,R89*%
X145375000Y-108625000D03*
X145375000Y-106925000D03*
%TD*%
D31*
%TO.C,C25*%
X115212900Y-133771400D03*
X115212900Y-135071400D03*
%TD*%
D16*
%TO.C,R115*%
X114912900Y-114621400D03*
X113912900Y-114621400D03*
%TD*%
D11*
%TO.C,R56*%
X165227800Y-99759954D03*
X166227800Y-99759954D03*
%TD*%
D65*
%TO.C,L1*%
X135091200Y-56312800D03*
X135091200Y-51312800D03*
%TD*%
D33*
%TO.C,Q10*%
X166427800Y-78959754D03*
X166427800Y-80959754D03*
X168427800Y-79959754D03*
%TD*%
%TO.C,Q4*%
X166427800Y-114359954D03*
X166427800Y-116359954D03*
X168427800Y-115359954D03*
%TD*%
D19*
%TO.C,D32*%
X162627800Y-69859954D03*
X162627800Y-66459954D03*
%TD*%
D33*
%TO.C,Q6*%
X166427811Y-102559754D03*
X166427811Y-104559754D03*
X168427811Y-103559754D03*
%TD*%
D31*
%TO.C,C41*%
X115212900Y-86571400D03*
X115212900Y-87871400D03*
%TD*%
D33*
%TO.C,Q7*%
X166427800Y-96659954D03*
X166427800Y-98659954D03*
X168427800Y-97659954D03*
%TD*%
D21*
%TO.C,C36*%
X164927811Y-110109975D03*
X164927811Y-108809975D03*
%TD*%
D11*
%TO.C,R14*%
X107964000Y-54125000D03*
X108964000Y-54125000D03*
%TD*%
D15*
%TO.C,JP12*%
X92622900Y-121071400D03*
X95162900Y-121071400D03*
%TD*%
D32*
%TO.C,R104*%
X100090900Y-122621600D03*
X102934900Y-122621600D03*
%TD*%
D66*
%TO.C,H4*%
X146727854Y-130300000D03*
X148155708Y-126852854D03*
X148155708Y-133747146D03*
X151602854Y-125425000D03*
D67*
X151602854Y-130300000D03*
D66*
X151602854Y-135175000D03*
X155050000Y-126852854D03*
X155050000Y-133747146D03*
X156477854Y-130300000D03*
%TD*%
D21*
%TO.C,C15*%
X93364000Y-47125000D03*
X93364000Y-45825000D03*
%TD*%
D15*
%TO.C,JP2*%
X92622900Y-94071400D03*
X95162900Y-94071400D03*
%TD*%
D64*
%TO.C,F1*%
X163625000Y-56275000D03*
X166550000Y-56275000D03*
%TD*%
D23*
%TO.C,Q15*%
X113712900Y-129521600D03*
X113712900Y-127521600D03*
X111712900Y-128521600D03*
%TD*%
D42*
%TO.C,R83*%
X182090700Y-132556354D03*
X182090700Y-130856354D03*
%TD*%
D61*
%TO.C,D18*%
X117512900Y-85521400D03*
X117512900Y-88921400D03*
%TD*%
D35*
%TO.C,C58*%
X140125000Y-102200000D03*
X142025000Y-102200000D03*
%TD*%
D32*
%TO.C,R168*%
X100090900Y-75421600D03*
X102934900Y-75421600D03*
%TD*%
D18*
%TO.C,R31*%
X180049800Y-97659954D03*
X177205800Y-97659954D03*
%TD*%
D15*
%TO.C,JP17*%
X184977800Y-99509954D03*
X187517800Y-99509954D03*
%TD*%
D31*
%TO.C,C43*%
X115212900Y-80671400D03*
X115212900Y-81971400D03*
%TD*%
D32*
%TO.C,R160*%
X100090900Y-81321400D03*
X102934900Y-81321400D03*
%TD*%
D35*
%TO.C,C57*%
X140125000Y-100225000D03*
X142025000Y-100225000D03*
%TD*%
D26*
%TO.C,H3*%
X125100000Y-69125000D03*
%TD*%
D31*
%TO.C,C13*%
X93414000Y-52375000D03*
X93414000Y-53675000D03*
%TD*%
D61*
%TO.C,D10*%
X117512997Y-109121394D03*
X117512997Y-112521394D03*
%TD*%
D11*
%TO.C,R70*%
X165227800Y-113259954D03*
X166227800Y-113259954D03*
%TD*%
D42*
%TO.C,R8*%
X97975000Y-127025000D03*
X97975000Y-125325000D03*
%TD*%
D23*
%TO.C,Q14*%
X113712900Y-135421400D03*
X113712900Y-133421400D03*
X111712900Y-134421400D03*
%TD*%
D11*
%TO.C,R62*%
X165227703Y-93859960D03*
X166227703Y-93859960D03*
%TD*%
%TO.C,R73*%
X165227800Y-95559954D03*
X166227800Y-95559954D03*
%TD*%
D17*
%TO.C,R3*%
X98050000Y-73700000D03*
X98050000Y-75400000D03*
%TD*%
D21*
%TO.C,C10*%
X140300000Y-58150000D03*
X140300000Y-56850000D03*
%TD*%
D68*
%TO.C,C60*%
X163700000Y-49150000D03*
X163700000Y-46350000D03*
%TD*%
D61*
%TO.C,D16*%
X117512889Y-91421379D03*
X117512889Y-94821379D03*
%TD*%
D11*
%TO.C,R78*%
X165227800Y-66059954D03*
X166227800Y-66059954D03*
%TD*%
D36*
%TO.C,CAN-HP1*%
X177375000Y-57239000D03*
X177375000Y-58763000D03*
%TD*%
D19*
%TO.C,D21*%
X162627800Y-122959954D03*
X162627800Y-119559954D03*
%TD*%
D15*
%TO.C,JP23*%
X187517800Y-81509954D03*
X184977800Y-81509954D03*
%TD*%
D32*
%TO.C,R101*%
X107290900Y-128521600D03*
X110134900Y-128521600D03*
%TD*%
D69*
%TO.C,TX0*%
X110264000Y-62275000D03*
%TD*%
D17*
%TO.C,R23*%
X133950000Y-96825000D03*
X133950000Y-98525000D03*
%TD*%
D19*
%TO.C,D19*%
X162627800Y-128859754D03*
X162627800Y-125459754D03*
%TD*%
D66*
%TO.C,H5*%
X130700000Y-130350000D03*
X132127854Y-126902854D03*
X132127854Y-133797146D03*
X135575000Y-125475000D03*
D67*
X135575000Y-130350000D03*
D66*
X135575000Y-135225000D03*
X139022146Y-126902854D03*
X139022146Y-133797146D03*
X140450000Y-130350000D03*
%TD*%
D16*
%TO.C,R102*%
X114912900Y-130621600D03*
X113912900Y-130621600D03*
%TD*%
D61*
%TO.C,D8*%
X117512900Y-115021400D03*
X117512900Y-118421400D03*
%TD*%
D17*
%TO.C,R4*%
X98050000Y-70025000D03*
X98050000Y-71725000D03*
%TD*%
D15*
%TO.C,JP16*%
X184977800Y-102509954D03*
X187517800Y-102509954D03*
%TD*%
D11*
%TO.C,R54*%
X165227811Y-105659754D03*
X166227811Y-105659754D03*
%TD*%
D16*
%TO.C,R131*%
X114912900Y-102821400D03*
X113912900Y-102821400D03*
%TD*%
D18*
%TO.C,R59*%
X157795700Y-112706354D03*
X154951700Y-112706354D03*
%TD*%
D19*
%TO.C,D17*%
X162627800Y-134759954D03*
X162627800Y-131359954D03*
%TD*%
D36*
%TO.C,CAN-HV1*%
X170775000Y-57239000D03*
X170775000Y-58763000D03*
%TD*%
D40*
%TO.C,C19*%
X134062900Y-101246400D03*
X135362900Y-101246400D03*
%TD*%
D42*
%TO.C,R7*%
X97975000Y-123800000D03*
X97975000Y-122100000D03*
%TD*%
D32*
%TO.C,R144*%
X100090889Y-93121379D03*
X102934889Y-93121379D03*
%TD*%
D16*
%TO.C,R130*%
X114912900Y-107021400D03*
X113912900Y-107021400D03*
%TD*%
D70*
%TO.C,C27*%
X121480600Y-55661400D03*
X121480600Y-53961400D03*
%TD*%
D15*
%TO.C,JP9*%
X95162900Y-112071400D03*
X92622900Y-112071400D03*
%TD*%
D16*
%TO.C,R57*%
X135075000Y-105625000D03*
X134075000Y-105625000D03*
%TD*%
D71*
%TO.C,J2*%
X186475000Y-55405000D03*
D72*
X186475000Y-52865000D03*
X186475000Y-50325000D03*
X186475000Y-47785000D03*
%TD*%
D21*
%TO.C,C32*%
X164927800Y-121909954D03*
X164927800Y-120609954D03*
%TD*%
D18*
%TO.C,R33*%
X180049800Y-85859954D03*
X177205800Y-85859954D03*
%TD*%
D21*
%TO.C,C40*%
X164927800Y-98309954D03*
X164927800Y-97009954D03*
%TD*%
D18*
%TO.C,R40*%
X172849800Y-115359954D03*
X170005800Y-115359954D03*
%TD*%
D61*
%TO.C,D14*%
X117512889Y-97321600D03*
X117512889Y-100721600D03*
%TD*%
D23*
%TO.C,Q32*%
X113712900Y-76421600D03*
X113712900Y-74421600D03*
X111712900Y-75421600D03*
%TD*%
D73*
%TO.C,U1*%
X94914000Y-44775000D03*
X94914000Y-45575000D03*
X94914000Y-46375000D03*
X94914000Y-47175000D03*
X94914000Y-47975000D03*
X94914000Y-48775000D03*
X94914000Y-49575000D03*
X94914000Y-50375000D03*
X94914000Y-51175000D03*
X94914000Y-51975000D03*
X94914000Y-52775000D03*
D74*
X96014000Y-53675000D03*
X96814000Y-53675000D03*
X97614000Y-53675000D03*
X98414000Y-53675000D03*
X99214000Y-53675000D03*
X100014000Y-53675000D03*
X100814000Y-53675000D03*
X101614000Y-53675000D03*
X102414000Y-53675000D03*
X103214000Y-53675000D03*
X104014000Y-53675000D03*
X104814000Y-53675000D03*
X105614000Y-53675000D03*
D73*
X106714000Y-52775000D03*
X106714000Y-51975000D03*
X106714000Y-51175000D03*
X106714000Y-50375000D03*
X106714000Y-49575000D03*
X106714000Y-48775000D03*
X106714000Y-47975000D03*
X106714000Y-47175000D03*
X106714000Y-46375000D03*
X106714000Y-45575000D03*
X106714000Y-44775000D03*
D74*
X105614000Y-43875000D03*
X104814000Y-43875000D03*
X104014000Y-43875000D03*
X103214000Y-43875000D03*
X102414000Y-43875000D03*
X101614000Y-43875000D03*
X100814000Y-43875000D03*
X100014000Y-43875000D03*
X99214000Y-43875000D03*
X98414000Y-43875000D03*
X97614000Y-43875000D03*
X96814000Y-43875000D03*
X96014000Y-43875000D03*
D75*
X98834000Y-46795000D03*
D76*
X100814000Y-46800000D03*
X102789000Y-46800000D03*
X98839000Y-48775000D03*
X100814000Y-48775000D03*
X102789000Y-48775000D03*
X98839000Y-50750000D03*
X100814000Y-50750000D03*
X102789000Y-50750000D03*
D77*
X106764000Y-43825000D03*
X106764000Y-53725000D03*
X94864000Y-53725000D03*
X94864000Y-43825000D03*
%TD*%
D31*
%TO.C,C6*%
X130514000Y-50425000D03*
X130514000Y-51725000D03*
%TD*%
%TO.C,C17*%
X112100000Y-39225000D03*
X112100000Y-40525000D03*
%TD*%
%TO.C,C31*%
X115212900Y-116071400D03*
X115212900Y-117371400D03*
%TD*%
D69*
%TO.C,RX0*%
X107364000Y-62325000D03*
%TD*%
D61*
%TO.C,D22*%
X117512900Y-73721600D03*
X117512900Y-77121600D03*
%TD*%
D16*
%TO.C,R103*%
X114912900Y-126421600D03*
X113912900Y-126421600D03*
%TD*%
D18*
%TO.C,R39*%
X172849800Y-121259954D03*
X170005800Y-121259954D03*
%TD*%
D16*
%TO.C,R9*%
X124450000Y-94400000D03*
X123450000Y-94400000D03*
%TD*%
D19*
%TO.C,D29*%
X162627800Y-87559954D03*
X162627800Y-84159954D03*
%TD*%
D33*
%TO.C,Q5*%
X166427811Y-108459975D03*
X166427811Y-110459975D03*
X168427811Y-109459975D03*
%TD*%
D15*
%TO.C,JP13*%
X92622900Y-124071400D03*
X95162900Y-124071400D03*
%TD*%
D78*
%TO.C,C8*%
X114564000Y-53525000D03*
X116264000Y-53525000D03*
%TD*%
D18*
%TO.C,R34*%
X180049800Y-79959754D03*
X177205800Y-79959754D03*
%TD*%
D16*
%TO.C,R58*%
X135075000Y-106650000D03*
X134075000Y-106650000D03*
%TD*%
D18*
%TO.C,R27*%
X180049800Y-121259954D03*
X177205800Y-121259954D03*
%TD*%
D15*
%TO.C,BOOT0*%
X105394000Y-56525000D03*
X107934000Y-56525000D03*
%TD*%
D31*
%TO.C,C33*%
X115212997Y-110171394D03*
X115212997Y-111471394D03*
%TD*%
D15*
%TO.C,JP6*%
X95162900Y-106071400D03*
X92622900Y-106071400D03*
%TD*%
D31*
%TO.C,C35*%
X115212900Y-104271400D03*
X115212900Y-105571400D03*
%TD*%
D46*
%TO.C,C22*%
X139325000Y-96100000D03*
X138025000Y-96100000D03*
%TD*%
D16*
%TO.C,R146*%
X114912889Y-95221379D03*
X113912889Y-95221379D03*
%TD*%
D34*
%TO.C,TERM0*%
X161425000Y-55300000D03*
X161425000Y-53776000D03*
%TD*%
D36*
%TO.C,CAN-LP1*%
X175175000Y-57214000D03*
X175175000Y-58738000D03*
%TD*%
D32*
%TO.C,R82*%
X100087900Y-134421400D03*
X102931900Y-134421400D03*
%TD*%
%TO.C,R112*%
X100090900Y-116721400D03*
X102934900Y-116721400D03*
%TD*%
D16*
%TO.C,R138*%
X114912889Y-101121600D03*
X113912889Y-101121600D03*
%TD*%
D18*
%TO.C,R41*%
X172849811Y-109459975D03*
X170005811Y-109459975D03*
%TD*%
D46*
%TO.C,C54*%
X146102800Y-100084954D03*
X144802800Y-100084954D03*
%TD*%
D45*
%TO.C,D7*%
X122100000Y-133775000D03*
X126200000Y-133775000D03*
%TD*%
D50*
%TO.C,R80*%
X159777800Y-69559954D03*
X159777800Y-68559954D03*
%TD*%
D18*
%TO.C,R32*%
X180049703Y-91759960D03*
X177205703Y-91759960D03*
%TD*%
D79*
%TO.C,C2*%
X141500000Y-74375000D03*
X139600000Y-74375000D03*
%TD*%
D11*
%TO.C,R72*%
X165227811Y-101459754D03*
X166227811Y-101459754D03*
%TD*%
D15*
%TO.C,JP20*%
X184977800Y-90509954D03*
X187517800Y-90509954D03*
%TD*%
D46*
%TO.C,C61*%
X140850000Y-77705000D03*
X139550000Y-77705000D03*
%TD*%
D11*
%TO.C,R68*%
X165227800Y-125059754D03*
X166227800Y-125059754D03*
%TD*%
D21*
%TO.C,C3*%
X164927800Y-133709954D03*
X164927800Y-132409954D03*
%TD*%
D61*
%TO.C,D6*%
X117512900Y-120921600D03*
X117512900Y-124321600D03*
%TD*%
D15*
%TO.C,JP21*%
X184977800Y-87509954D03*
X187517800Y-87509954D03*
%TD*%
D16*
%TO.C,R98*%
X114912900Y-132321400D03*
X113912900Y-132321400D03*
%TD*%
D80*
%TO.C,IC2*%
X124562900Y-96221400D03*
X124562900Y-96721400D03*
X124562900Y-97221400D03*
X124562900Y-97721400D03*
X124562900Y-98221400D03*
X124562900Y-98721400D03*
X124562900Y-99221400D03*
X124562900Y-99721400D03*
X124562900Y-100221400D03*
X124562900Y-100721400D03*
X124562900Y-101221400D03*
X124562900Y-101721400D03*
X124562900Y-102221400D03*
X124562900Y-102721400D03*
X124562900Y-103221400D03*
X124562900Y-103721400D03*
X124562900Y-104221400D03*
X124562900Y-104721400D03*
X124562900Y-105221400D03*
X124562900Y-105721400D03*
X124562900Y-106221400D03*
X124562900Y-106721400D03*
X124562900Y-107221400D03*
X124562900Y-107721400D03*
X131662900Y-107721400D03*
X131662900Y-107221400D03*
X131662900Y-106721400D03*
X131662900Y-106221400D03*
X131662900Y-105721400D03*
X131662900Y-105221400D03*
X131662900Y-104721400D03*
X131662900Y-104221400D03*
X131662900Y-103721400D03*
X131662900Y-103221400D03*
X131662900Y-102721400D03*
X131662900Y-102221400D03*
X131662900Y-101721400D03*
X131662900Y-101221400D03*
X131662900Y-100721400D03*
X131662900Y-100221400D03*
X131662900Y-99721400D03*
X131662900Y-99221400D03*
X131662900Y-98721400D03*
X131662900Y-98221400D03*
X131662900Y-97721400D03*
X131662900Y-97221400D03*
X131662900Y-96721400D03*
X131662900Y-96221400D03*
%TD*%
D33*
%TO.C,Q3*%
X166427800Y-120259954D03*
X166427800Y-122259954D03*
X168427800Y-121259954D03*
%TD*%
D56*
%TO.C,D13*%
X117575000Y-45850000D03*
D55*
X119075000Y-45850000D03*
%TD*%
D52*
%TO.C,RJ1*%
X158550000Y-42175000D03*
X147120000Y-42175000D03*
D53*
X157270000Y-54045000D03*
X156000000Y-54045000D03*
X154730000Y-54045000D03*
X153460000Y-54045000D03*
X152200000Y-54045000D03*
X150930000Y-54045000D03*
X149650000Y-54045000D03*
X148390000Y-54045000D03*
D54*
X144660000Y-39125000D03*
X161000000Y-39125000D03*
%TD*%
D23*
%TO.C,Q28*%
X113712900Y-88221400D03*
X113712900Y-86221400D03*
X111712900Y-87221400D03*
%TD*%
D51*
%TO.C,R93*%
X145750000Y-103125000D03*
X144050000Y-103125000D03*
%TD*%
D16*
%TO.C,R179*%
X114912900Y-67421400D03*
X113912900Y-67421400D03*
%TD*%
D61*
%TO.C,D4*%
X117512900Y-132721400D03*
X117512900Y-136121400D03*
%TD*%
D42*
%TO.C,R16*%
X91687900Y-51271400D03*
X91687900Y-49571400D03*
%TD*%
D21*
%TO.C,C44*%
X164927703Y-92409960D03*
X164927703Y-91109960D03*
%TD*%
D23*
%TO.C,Q18*%
X113712900Y-117721400D03*
X113712900Y-115721400D03*
X111712900Y-116721400D03*
%TD*%
D61*
%TO.C,D5*%
X117512900Y-126821600D03*
X117512900Y-130221600D03*
%TD*%
D81*
%TO.C,GND2*%
X121812000Y-135925000D03*
X120288000Y-135925000D03*
%TD*%
D16*
%TO.C,R10*%
X123364000Y-45775000D03*
X122364000Y-45775000D03*
%TD*%
D31*
%TO.C,C16*%
X98864000Y-55525000D03*
X98864000Y-56825000D03*
%TD*%
D17*
%TO.C,R15*%
X91687900Y-53021400D03*
X91687900Y-54721400D03*
%TD*%
D18*
%TO.C,R36*%
X180052800Y-68159954D03*
X177208800Y-68159954D03*
%TD*%
D16*
%TO.C,R154*%
X114912900Y-89321400D03*
X113912900Y-89321400D03*
%TD*%
D18*
%TO.C,R25*%
X180049800Y-133059954D03*
X177205800Y-133059954D03*
%TD*%
D46*
%TO.C,C51*%
X146215700Y-94831354D03*
X144915700Y-94831354D03*
%TD*%
D45*
%TO.C,D34*%
X153915700Y-71306354D03*
X158015700Y-71306354D03*
%TD*%
D32*
%TO.C,R153*%
X107290900Y-87221400D03*
X110134900Y-87221400D03*
%TD*%
D16*
%TO.C,R123*%
X114912997Y-108721394D03*
X113912997Y-108721394D03*
%TD*%
D19*
%TO.C,D26*%
X162627811Y-105259754D03*
X162627811Y-101859754D03*
%TD*%
D21*
%TO.C,C38*%
X164927811Y-104209754D03*
X164927811Y-102909754D03*
%TD*%
D26*
%TO.C,H2*%
X187875000Y-39975000D03*
%TD*%
D55*
%TO.C,D9*%
X127475000Y-38975000D03*
D56*
X125975000Y-38975000D03*
%TD*%
D11*
%TO.C,R77*%
X165227800Y-71959754D03*
X166227800Y-71959754D03*
%TD*%
D16*
%TO.C,R12*%
X162925000Y-52075000D03*
X161925000Y-52075000D03*
%TD*%
D82*
%TO.C,LED2*%
X113350000Y-38725000D03*
X113350000Y-40225000D03*
X114250000Y-40225000D03*
X114250000Y-38725000D03*
%TD*%
D16*
%TO.C,R97*%
X114912900Y-136521400D03*
X113912900Y-136521400D03*
%TD*%
D14*
%TO.C,D1*%
X126225000Y-131275000D03*
X122125000Y-131275000D03*
%TD*%
D61*
%TO.C,D20*%
X117512900Y-79621400D03*
X117512900Y-83021400D03*
%TD*%
D15*
%TO.C,JP15*%
X184977800Y-105509954D03*
X187517800Y-105509954D03*
%TD*%
D31*
%TO.C,C56*%
X142850000Y-104100000D03*
X142850000Y-105400000D03*
%TD*%
D33*
%TO.C,Q8*%
X166427703Y-90759960D03*
X166427703Y-92759960D03*
X168427703Y-91759960D03*
%TD*%
D45*
%TO.C,D2*%
X125904800Y-40870600D03*
X130004800Y-40870600D03*
%TD*%
D40*
%TO.C,C4*%
X134037900Y-103746400D03*
X135337900Y-103746400D03*
%TD*%
D32*
%TO.C,R120*%
X100090997Y-110821394D03*
X102934997Y-110821394D03*
%TD*%
D17*
%TO.C,R86*%
X182165700Y-78781354D03*
X182165700Y-80481354D03*
%TD*%
D19*
%TO.C,D28*%
X162627703Y-93459960D03*
X162627703Y-90059960D03*
%TD*%
D23*
%TO.C,Q26*%
X113712889Y-94121379D03*
X113712889Y-92121379D03*
X111712889Y-93121379D03*
%TD*%
D31*
%TO.C,C37*%
X115212889Y-98371600D03*
X115212889Y-99671600D03*
%TD*%
D18*
%TO.C,R42*%
X172849811Y-103559754D03*
X170005811Y-103559754D03*
%TD*%
D15*
%TO.C,JP11*%
X95162900Y-118071400D03*
X92622900Y-118071400D03*
%TD*%
D83*
%TO.C,IC1*%
X123753600Y-53535600D03*
X123753600Y-54815600D03*
X123753600Y-56085600D03*
X123753600Y-57355600D03*
X129153600Y-57355600D03*
X129153600Y-56085600D03*
X129153600Y-54815600D03*
X129153600Y-53535600D03*
D84*
X126453600Y-55445600D03*
%TD*%
D11*
%TO.C,R71*%
X165227811Y-107359975D03*
X166227811Y-107359975D03*
%TD*%
D85*
%TO.C,U7*%
X139405000Y-69450000D03*
D86*
X141945000Y-69450000D03*
X144485000Y-69450000D03*
X147025000Y-69450000D03*
%TD*%
D15*
%TO.C,JP3*%
X95162900Y-97071400D03*
X92622900Y-97071400D03*
%TD*%
D16*
%TO.C,R162*%
X114912900Y-83421400D03*
X113912900Y-83421400D03*
%TD*%
D61*
%TO.C,D24*%
X117512900Y-67821400D03*
X117512900Y-71221400D03*
%TD*%
D18*
%TO.C,R30*%
X180049811Y-103559754D03*
X177205811Y-103559754D03*
%TD*%
D87*
%TO.C,C26*%
X119173600Y-57270000D03*
X119173600Y-62670000D03*
%TD*%
D16*
%TO.C,R155*%
X114912900Y-85121400D03*
X113912900Y-85121400D03*
%TD*%
D58*
%TO.C,R61*%
X161725000Y-46328000D03*
X161725000Y-49172000D03*
%TD*%
D18*
%TO.C,R47*%
X172849800Y-74059754D03*
X170005800Y-74059754D03*
%TD*%
D19*
%TO.C,D23*%
X162627800Y-117059954D03*
X162627800Y-113659954D03*
%TD*%
D88*
%TO.C,U2*%
X137950000Y-98350000D03*
D89*
X139860000Y-98350000D03*
X141770000Y-98350000D03*
D90*
X140910000Y-119120000D03*
D91*
X140910000Y-120380000D03*
D92*
X141660000Y-118090000D03*
X141660000Y-121410000D03*
X142860000Y-117700000D03*
X142860000Y-121800000D03*
X144190000Y-117700000D03*
X144190000Y-121800000D03*
D93*
X144860000Y-119750000D03*
D92*
X145530000Y-117700000D03*
X145530000Y-121800000D03*
X146860000Y-117700000D03*
X146860000Y-121800000D03*
X148060000Y-118090000D03*
X148060000Y-121410000D03*
X148810000Y-119120000D03*
X148810000Y-120380000D03*
X130910000Y-119120000D03*
X130910000Y-120380000D03*
X131660000Y-118090000D03*
X131660000Y-121410000D03*
X132860000Y-117700000D03*
X132860000Y-121800000D03*
X134190000Y-117700000D03*
X134190000Y-121800000D03*
D93*
X134860000Y-119750000D03*
D92*
X135530000Y-117700000D03*
X135530000Y-121800000D03*
X136860000Y-117700000D03*
X136860000Y-121800000D03*
X138060000Y-118090000D03*
X138060000Y-121410000D03*
D91*
X138810000Y-119120000D03*
D90*
X138810000Y-120380000D03*
%TD*%
M02*
