%TF.GenerationSoftware,KiCad,Pcbnew,9.0.2*%
%TF.CreationDate,2025-05-18T01:46:19+02:00*%
%TF.ProjectId,EasyBMS,45617379-424d-4532-9e6b-696361645f70,rev?*%
%TF.SameCoordinates,Original*%
%TF.FileFunction,Soldermask,Bot*%
%TF.FilePolarity,Negative*%
%FSLAX46Y46*%
G04 Gerber Fmt 4.6, Leading zero omitted, Abs format (unit mm)*
G04 Created by KiCad (PCBNEW 9.0.2) date 2025-05-18 01:46:19*
%MOMM*%
%LPD*%
G01*
G04 APERTURE LIST*
G04 Aperture macros list*
%AMRoundRect*
0 Rectangle with rounded corners*
0 $1 Rounding radius*
0 $2 $3 $4 $5 $6 $7 $8 $9 X,Y pos of 4 corners*
0 Add a 4 corners polygon primitive as box body*
4,1,4,$2,$3,$4,$5,$6,$7,$8,$9,$2,$3,0*
0 Add four circle primitives for the rounded corners*
1,1,$1+$1,$2,$3*
1,1,$1+$1,$4,$5*
1,1,$1+$1,$6,$7*
1,1,$1+$1,$8,$9*
0 Add four rect primitives between the rounded corners*
20,1,$1+$1,$2,$3,$4,$5,0*
20,1,$1+$1,$4,$5,$6,$7,0*
20,1,$1+$1,$6,$7,$8,$9,0*
20,1,$1+$1,$8,$9,$2,$3,0*%
%AMHorizOval*
0 Thick line with rounded ends*
0 $1 width*
0 $2 $3 position (X,Y) of the first rounded end (center of the circle)*
0 $4 $5 position (X,Y) of the second rounded end (center of the circle)*
0 Add line between two ends*
20,1,$1,$2,$3,$4,$5,0*
0 Add two circle primitives to create the rounded ends*
1,1,$1,$2,$3*
1,1,$1,$4,$5*%
G04 Aperture macros list end*
%ADD10C,0.000000*%
%ADD11C,2.032000*%
%ADD12C,3.403200*%
%ADD13O,3.860800X2.032000*%
%ADD14C,0.803200*%
%ADD15O,1.203200X2.303200*%
%ADD16O,1.203200X1.803200*%
%ADD17C,3.453200*%
%ADD18C,1.103200*%
%ADD19C,13.203200*%
%ADD20RoundRect,0.274191X0.877409X-0.877409X0.877409X0.877409X-0.877409X0.877409X-0.877409X-0.877409X0*%
%ADD21C,2.303200*%
%ADD22RoundRect,0.101600X0.800000X-0.800000X0.800000X0.800000X-0.800000X0.800000X-0.800000X-0.800000X0*%
%ADD23C,1.803200*%
%ADD24RoundRect,0.101600X0.584200X0.800100X-0.584200X0.800100X-0.584200X-0.800100X0.584200X-0.800100X0*%
%ADD25RoundRect,0.101600X-3.225800X-1.625600X3.225800X-1.625600X3.225800X1.625600X-3.225800X1.625600X0*%
%ADD26RoundRect,0.101600X-1.905000X-0.825500X1.905000X-0.825500X1.905000X0.825500X-1.905000X0.825500X0*%
%ADD27RoundRect,0.101600X-0.750000X-0.750000X0.750000X-0.750000X0.750000X0.750000X-0.750000X0.750000X0*%
%ADD28C,1.703200*%
%ADD29HorizOval,1.003200X0.000000X0.000000X0.000000X0.000000X0*%
%ADD30HorizOval,1.003200X0.000000X0.000000X0.000000X0.000000X0*%
%ADD31C,1.003200*%
%ADD32O,9.203200X6.203200*%
G04 APERTURE END LIST*
D10*
%TO.C,RS485-AP1*%
G36*
X172339200Y-43389400D02*
G01*
X172186800Y-43389400D01*
X172186800Y-41560600D01*
X172339200Y-41560600D01*
X172339200Y-43389400D01*
G37*
%TO.C,RS485-BP1*%
G36*
X172389200Y-41114400D02*
G01*
X172236800Y-41114400D01*
X172236800Y-39285600D01*
X172389200Y-39285600D01*
X172389200Y-41114400D01*
G37*
%TD*%
D11*
%TO.C,JP24*%
X187517800Y-78509954D03*
X184977800Y-78509954D03*
%TD*%
D12*
%TO.C,H1*%
X92864000Y-134875000D03*
%TD*%
D13*
%TO.C,RST0*%
X93962800Y-59414400D03*
X100465200Y-59414400D03*
X93962800Y-63935600D03*
X100465200Y-63935600D03*
%TD*%
D11*
%TO.C,JP10*%
X95162900Y-115071400D03*
X92622900Y-115071400D03*
%TD*%
%TO.C,JP22*%
X184977800Y-84509954D03*
X187517800Y-84509954D03*
%TD*%
%TO.C,JP14*%
X187517800Y-108509954D03*
X184977800Y-108509954D03*
%TD*%
D13*
%TO.C,JP1*%
X135464600Y-71531000D03*
X135464600Y-74071000D03*
X135464600Y-76611000D03*
X135464600Y-79151000D03*
X135464600Y-81691000D03*
X135464600Y-84231000D03*
X135464600Y-86771000D03*
X135464600Y-89311000D03*
%TD*%
D14*
%TO.C,J1*%
X122691000Y-43253200D03*
X116911000Y-43253200D03*
D15*
X124121000Y-43745200D03*
D16*
X124121000Y-39575200D03*
X115481000Y-39575200D03*
D15*
X115471000Y-43735200D03*
%TD*%
D17*
%TO.C,RJ2*%
X178295000Y-42165000D03*
X166865000Y-42165000D03*
%TD*%
D11*
%TO.C,JP5*%
X95162900Y-103071400D03*
X92622900Y-103071400D03*
%TD*%
D12*
%TO.C,H6*%
X187875000Y-134975000D03*
%TD*%
D11*
%TO.C,JP19*%
X184977800Y-93509954D03*
X187517800Y-93509954D03*
%TD*%
%TO.C,JP4*%
X95162900Y-100071400D03*
X92622900Y-100071400D03*
%TD*%
%TO.C,JP18*%
X184977800Y-96509954D03*
X187517800Y-96509954D03*
%TD*%
%TO.C,JP8*%
X95162900Y-109071400D03*
X92622900Y-109071400D03*
%TD*%
%TO.C,JP12*%
X92622900Y-121071400D03*
X95162900Y-121071400D03*
%TD*%
D18*
%TO.C,H4*%
X146727854Y-130300000D03*
X148155708Y-126852854D03*
X148155708Y-133747146D03*
X151602854Y-125425000D03*
D19*
X151602854Y-130300000D03*
D18*
X151602854Y-135175000D03*
X155050000Y-126852854D03*
X155050000Y-133747146D03*
X156477854Y-130300000D03*
%TD*%
D11*
%TO.C,JP2*%
X92622900Y-94071400D03*
X95162900Y-94071400D03*
%TD*%
%TO.C,JP17*%
X184977800Y-99509954D03*
X187517800Y-99509954D03*
%TD*%
D12*
%TO.C,H3*%
X125100000Y-69125000D03*
%TD*%
D11*
%TO.C,JP23*%
X187517800Y-81509954D03*
X184977800Y-81509954D03*
%TD*%
D18*
%TO.C,H5*%
X130700000Y-130350000D03*
X132127854Y-126902854D03*
X132127854Y-133797146D03*
X135575000Y-125475000D03*
D19*
X135575000Y-130350000D03*
D18*
X135575000Y-135225000D03*
X139022146Y-126902854D03*
X139022146Y-133797146D03*
X140450000Y-130350000D03*
%TD*%
D11*
%TO.C,JP16*%
X184977800Y-102509954D03*
X187517800Y-102509954D03*
%TD*%
%TO.C,JP9*%
X95162900Y-112071400D03*
X92622900Y-112071400D03*
%TD*%
D20*
%TO.C,J2*%
X186475000Y-55405000D03*
D21*
X186475000Y-52865000D03*
X186475000Y-50325000D03*
X186475000Y-47785000D03*
%TD*%
D11*
%TO.C,JP13*%
X92622900Y-124071400D03*
X95162900Y-124071400D03*
%TD*%
%TO.C,BOOT0*%
X105394000Y-56525000D03*
X107934000Y-56525000D03*
%TD*%
%TO.C,JP6*%
X95162900Y-106071400D03*
X92622900Y-106071400D03*
%TD*%
%TO.C,JP20*%
X184977800Y-90509954D03*
X187517800Y-90509954D03*
%TD*%
%TO.C,JP21*%
X184977800Y-87509954D03*
X187517800Y-87509954D03*
%TD*%
D17*
%TO.C,RJ1*%
X158550000Y-42175000D03*
X147120000Y-42175000D03*
%TD*%
D12*
%TO.C,H2*%
X187875000Y-39975000D03*
%TD*%
D11*
%TO.C,JP15*%
X184977800Y-105509954D03*
X187517800Y-105509954D03*
%TD*%
%TO.C,JP11*%
X95162900Y-118071400D03*
X92622900Y-118071400D03*
%TD*%
D22*
%TO.C,U7*%
X139405000Y-69450000D03*
D23*
X141945000Y-69450000D03*
X144485000Y-69450000D03*
X147025000Y-69450000D03*
%TD*%
D11*
%TO.C,JP3*%
X95162900Y-97071400D03*
X92622900Y-97071400D03*
%TD*%
D24*
%TO.C,RS485-AP1*%
X173025000Y-42475000D03*
X171501000Y-42475000D03*
%TD*%
%TO.C,RS485-BP1*%
X173075000Y-40200000D03*
X171551000Y-40200000D03*
%TD*%
D25*
%TO.C,B1*%
X179450000Y-47925000D03*
X179450000Y-58085000D03*
X179450000Y-53005000D03*
D26*
X138810000Y-49195000D03*
X138810000Y-51735000D03*
X138810000Y-54275000D03*
X138810000Y-56815000D03*
%TD*%
D27*
%TO.C,U2*%
X137950000Y-98350000D03*
D28*
X139860000Y-98350000D03*
X141770000Y-98350000D03*
D29*
X140910000Y-119120000D03*
D30*
X140910000Y-120380000D03*
D31*
X141660000Y-118090000D03*
X141660000Y-121410000D03*
X142860000Y-117700000D03*
X142860000Y-121800000D03*
X144190000Y-117700000D03*
X144190000Y-121800000D03*
D32*
X144860000Y-119750000D03*
D31*
X145530000Y-117700000D03*
X145530000Y-121800000D03*
X146860000Y-117700000D03*
X146860000Y-121800000D03*
X148060000Y-118090000D03*
X148060000Y-121410000D03*
X148810000Y-119120000D03*
X148810000Y-120380000D03*
X130910000Y-119120000D03*
X130910000Y-120380000D03*
X131660000Y-118090000D03*
X131660000Y-121410000D03*
X132860000Y-117700000D03*
X132860000Y-121800000D03*
X134190000Y-117700000D03*
X134190000Y-121800000D03*
D32*
X134860000Y-119750000D03*
D31*
X135530000Y-117700000D03*
X135530000Y-121800000D03*
X136860000Y-117700000D03*
X136860000Y-121800000D03*
X138060000Y-118090000D03*
X138060000Y-121410000D03*
D30*
X138810000Y-119120000D03*
D29*
X138810000Y-120380000D03*
%TD*%
M02*
