M48
; DRILL file {KiCad 9.0.2} date 2025-05-18T01:46:19+0200
; FORMAT={-:-/ absolute / inch / decimal}
; #@! TF.CreationDate,2025-05-18T01:46:19+02:00
; #@! TF.GenerationSoftware,Kicad,Pcbnew,9.0.2
; #@! TF.FileFunction,Plated,1,2,PTH
FMAT,2
INCH
; #@! TA.AperFunction,Plated,PTH,ViaDrill
T1C0.0118
; #@! TA.AperFunction,Plated,PTH,ViaDrill
T2C0.0138
; #@! TA.AperFunction,Plated,PTH,ViaDrill
T3C0.0157
; #@! TA.AperFunction,Plated,PTH,ComponentDrill
T4C0.0197
; #@! TA.AperFunction,Plated,PTH,ComponentDrill
T5C0.0236
; #@! TA.AperFunction,Plated,PTH,ViaDrill
T6C0.0256
; #@! TA.AperFunction,Plated,PTH,ComponentDrill
T7C0.0315
; #@! TA.AperFunction,Plated,PTH,ComponentDrill
T8C0.0394
; #@! TA.AperFunction,Plated,PTH,ComponentDrill
T9C0.0400
; #@! TA.AperFunction,Plated,PTH,ComponentDrill
T10C0.0433
; #@! TA.AperFunction,Plated,PTH,ComponentDrill
T11C0.0787
; #@! TA.AperFunction,Plated,PTH,ComponentDrill
T12C0.1280
; #@! TA.AperFunction,Plated,PTH,ComponentDrill
T13C0.2559
%
G90
G05
T1
X3.6368Y-2.0443
X4.0163Y-3.6033
X4.0163Y-3.7293
X4.0163Y-3.8356
X4.0163Y-3.9616
X4.0163Y-2.6742
X4.0163Y-2.8002
X4.0163Y-2.9065
X4.0163Y-3.0325
X4.0163Y-3.1388
X4.0163Y-3.2648
X4.0163Y-3.3711
X4.0163Y-3.497
X4.0163Y-4.0679
X4.0163Y-4.1939
X4.0163Y-4.5325
X4.0163Y-4.6585
X4.0163Y-4.7648
X4.0163Y-4.8908
X4.0163Y-4.9971
X4.0163Y-5.123
X4.0163Y-5.2293
X4.0163Y-5.3553
X4.0163Y-4.3002
X4.0163Y-4.4262
X4.0478Y-3.6033
X4.0478Y-3.7293
X4.0478Y-3.8356
X4.0478Y-3.9616
X4.0478Y-2.6742
X4.0478Y-2.8002
X4.0478Y-2.9065
X4.0478Y-3.0325
X4.0478Y-3.1388
X4.0478Y-3.2648
X4.0478Y-3.3711
X4.0478Y-3.497
X4.0478Y-4.0679
X4.0478Y-4.1939
X4.0478Y-4.5325
X4.0478Y-4.6585
X4.0478Y-4.7648
X4.0478Y-4.8908
X4.0478Y-4.9971
X4.0478Y-5.123
X4.0478Y-5.2293
X4.0478Y-5.3553
X4.0478Y-4.3002
X4.0478Y-4.4262
X4.0793Y-3.6033
X4.0793Y-3.7293
X4.0793Y-3.8356
X4.0793Y-3.9616
X4.0793Y-2.6742
X4.0793Y-2.8002
X4.0793Y-2.9065
X4.0793Y-3.0325
X4.0793Y-3.1388
X4.0793Y-3.2648
X4.0793Y-3.3711
X4.0793Y-3.497
X4.0793Y-4.0679
X4.0793Y-4.1939
X4.0793Y-4.5325
X4.0793Y-4.6585
X4.0793Y-4.7648
X4.0793Y-4.8908
X4.0793Y-4.9971
X4.0793Y-5.123
X4.0793Y-5.2293
X4.0793Y-5.3553
X4.0793Y-4.3002
X4.0793Y-4.4262
X4.1108Y-3.6033
X4.1108Y-3.6348
X4.1108Y-3.6663
X4.1108Y-3.6978
X4.1108Y-3.7293
X4.1108Y-3.8356
X4.1108Y-3.8671
X4.1108Y-3.8986
X4.1108Y-3.9301
X4.1108Y-3.9616
X4.1108Y-2.6742
X4.1108Y-2.7057
X4.1108Y-2.7372
X4.1108Y-2.7687
X4.1108Y-2.8002
X4.1108Y-2.9065
X4.1108Y-2.938
X4.1108Y-2.9695
X4.1108Y-3.001
X4.1108Y-3.0325
X4.1108Y-3.1388
X4.1108Y-3.1703
X4.1108Y-3.2018
X4.1108Y-3.2333
X4.1108Y-3.2648
X4.1108Y-3.3711
X4.1108Y-3.4026
X4.1108Y-3.4341
X4.1108Y-3.4656
X4.1108Y-3.497
X4.1108Y-4.0679
X4.1108Y-4.0994
X4.1108Y-4.1309
X4.1108Y-4.1624
X4.1108Y-4.1939
X4.1108Y-4.5325
X4.1108Y-4.564
X4.1108Y-4.5955
X4.1108Y-4.627
X4.1108Y-4.6585
X4.1108Y-4.7648
X4.1108Y-4.7963
X4.1108Y-4.8278
X4.1108Y-4.8593
X4.1108Y-4.8908
X4.1108Y-4.9971
X4.1108Y-5.0286
X4.1108Y-5.06
X4.1108Y-5.0915
X4.1108Y-5.123
X4.1108Y-5.2293
X4.1108Y-5.2608
X4.1108Y-5.2923
X4.1108Y-5.3238
X4.1108Y-5.3553
X4.1108Y-4.3002
X4.1108Y-4.3317
X4.1108Y-4.3632
X4.1108Y-4.3947
X4.1108Y-4.4262
X4.1659Y-3.6033
X4.1659Y-3.6348
X4.1659Y-3.6663
X4.1659Y-3.6978
X4.1659Y-3.7293
X4.1659Y-3.8356
X4.1659Y-3.8671
X4.1659Y-3.8986
X4.1659Y-3.9301
X4.1659Y-3.9616
X4.1659Y-2.6742
X4.1659Y-2.7057
X4.1659Y-2.7372
X4.1659Y-2.7687
X4.1659Y-2.8002
X4.1659Y-2.9065
X4.1659Y-2.938
X4.1659Y-2.9695
X4.1659Y-3.001
X4.1659Y-3.0325
X4.1659Y-3.1388
X4.1659Y-3.1703
X4.1659Y-3.2018
X4.1659Y-3.2333
X4.1659Y-3.2648
X4.1659Y-3.3711
X4.1659Y-3.4026
X4.1659Y-3.4341
X4.1659Y-3.4656
X4.1659Y-3.497
X4.1659Y-4.0679
X4.1659Y-4.0994
X4.1659Y-4.1309
X4.1659Y-4.1624
X4.1659Y-4.1939
X4.1659Y-4.5325
X4.1659Y-4.564
X4.1659Y-4.5955
X4.1659Y-4.627
X4.1659Y-4.6585
X4.1659Y-4.7648
X4.1659Y-4.7963
X4.1659Y-4.8278
X4.1659Y-4.8593
X4.1659Y-4.8908
X4.1659Y-4.9971
X4.1659Y-5.0286
X4.1659Y-5.06
X4.1659Y-5.0915
X4.1659Y-5.123
X4.1659Y-5.2293
X4.1659Y-5.2608
X4.1659Y-5.2923
X4.1659Y-5.3238
X4.1659Y-5.3553
X4.1659Y-4.3002
X4.1659Y-4.3317
X4.1659Y-4.3632
X4.1659Y-4.3947
X4.1659Y-4.4262
X4.1974Y-3.6033
X4.1974Y-3.7293
X4.1974Y-3.8356
X4.1974Y-3.9616
X4.1974Y-2.6742
X4.1974Y-2.8002
X4.1974Y-2.9065
X4.1974Y-3.0325
X4.1974Y-3.1388
X4.1974Y-3.2648
X4.1974Y-3.3711
X4.1974Y-3.497
X4.1974Y-4.0679
X4.1974Y-4.1939
X4.1974Y-4.5325
X4.1974Y-4.6585
X4.1974Y-4.7648
X4.1974Y-4.8908
X4.1974Y-4.9971
X4.1974Y-5.123
X4.1974Y-5.2293
X4.1974Y-5.3553
X4.1974Y-4.3002
X4.1974Y-4.4262
X4.2116Y-2.565
X4.2289Y-3.6033
X4.2289Y-3.7293
X4.2289Y-3.8356
X4.2289Y-3.9616
X4.2289Y-2.6742
X4.2289Y-2.8002
X4.2289Y-2.9065
X4.2289Y-3.0325
X4.2289Y-3.1388
X4.2289Y-3.2648
X4.2289Y-3.3711
X4.2289Y-3.497
X4.2289Y-4.0679
X4.2289Y-4.1939
X4.2289Y-4.5325
X4.2289Y-4.6585
X4.2289Y-4.7648
X4.2289Y-4.8908
X4.2289Y-4.9971
X4.2289Y-5.123
X4.2289Y-5.2293
X4.2289Y-5.3553
X4.2289Y-4.3002
X4.2289Y-4.4262
X4.2519Y-2.004
X4.2604Y-3.6033
X4.2604Y-3.7293
X4.2604Y-3.8356
X4.2604Y-3.9616
X4.2604Y-2.6742
X4.2604Y-2.8002
X4.2604Y-2.9065
X4.2604Y-3.0325
X4.2604Y-3.1388
X4.2604Y-3.2648
X4.2604Y-3.3711
X4.2604Y-3.497
X4.2604Y-4.0679
X4.2604Y-4.1939
X4.2604Y-4.5325
X4.2604Y-4.6585
X4.2604Y-4.7648
X4.2604Y-4.8908
X4.2604Y-4.9971
X4.2604Y-5.123
X4.2604Y-5.2293
X4.2604Y-5.3553
X4.2604Y-4.3002
X4.2604Y-4.4262
X4.2783Y-2.0152
X4.5344Y-2.5817
X4.8514Y-4.6545
X4.8543Y-4.8455
X4.8671Y-4.5187
X4.9281Y-2.2746
X4.9429Y-2.2992
X4.9478Y-4.3976
X4.9685Y-2.2972
X5.0069Y-2.2982
X5.0433Y-2.2972
X5.0531Y-2.1821
X5.0728Y-4.3159
X5.1294Y-2.1819
X5.1417Y-2.1112
X5.1874Y-2.3977
X5.2077Y-2.418
X5.2131Y-3.766
X5.2293Y-4.3159
X5.2421Y-4.2028
X5.3209Y-3.5965
X5.3209Y-3.8543
X5.3661Y-2.4134
X5.378Y-2.75
X5.3858Y-3.7756
X5.3974Y-2.771
X5.4045Y-4.1939
X5.4183Y-2.4124
X5.4232Y-4.0591
X5.4232Y-4.1329
X5.4321Y-2.4961
X5.4528Y-3.5719
X5.4528Y-3.9421
X5.4587Y-2.9459
X5.4596Y-2.9075
X5.4616Y-4.3041
X5.4626Y-4.0089
X5.4656Y-2.8494
X5.4685Y-3.3012
X5.4724Y-3.0256
X5.4744Y-3.9232
X5.4783Y-3.685
X5.4872Y-2.5335
X5.4902Y-3.4291
X5.5089Y-3.0236
X5.5098Y-3.6368
X5.5118Y-3.3002
X5.5118Y-4.0955
X5.5118Y-4.1909
X5.5197Y-3.7835
X5.5207Y-1.5197
X5.5234Y-1.7426
X5.5453Y-2.8091
X5.5483Y-3.7825
X5.5974Y-4.1791
X5.5984Y-4.2411
X5.6132Y-1.8661
X5.6201Y-4.3356
X5.6752Y-4.185
X5.6762Y-4.2333
X5.7023Y-1.6746
X5.7096Y-2.25
X5.7096Y-3.0295
X5.7156Y-1.6112
X5.7411Y-3.6781
X5.7579Y-3.2116
X5.7608Y-3.1575
X5.7608Y-4.4793
X5.764Y-3.0236
X5.7672Y-2.0773
X5.7874Y-1.5
X5.7874Y-1.5669
X5.7894Y-2.5269
X5.7958Y-2.4119
X5.8041Y-4.3642
X5.8327Y-4.2195
X5.8366Y-1.7618
X5.8947Y-2.313
X5.9488Y-3.6781
X5.9527Y-2.4203
X5.9537Y-1.6801
X5.9547Y-4.3829
X5.9567Y-4.188
X5.9626Y-1.5551
X5.9848Y-1.8332
X5.9941Y-2.0276
X5.9941Y-4.6348
X6.0266Y-4.3524
X6.0266Y-4.4478
X6.0354Y-1.7795
X6.0423Y-3.9665
X6.0443Y-2.0285
X6.0472Y-4.1201
X6.0502Y-2.8858
X6.0589Y-2.37
X6.061Y-3.5945
X6.0709Y-4.373
X6.0719Y-3.3081
X6.0955Y-4.5935
X6.1024Y-1.8228
X6.1191Y-4.7215
X6.122Y-1.5728
X6.1378Y-2.3691
X6.1437Y-1.7018
X6.1752Y-3.1801
X6.1801Y-3.4872
X6.188Y-1.81
X6.2303Y-4.6673
X6.2313Y-4.8238
X6.2392Y-2.5679
X6.2461Y-1.5669
X6.247Y-1.502
X6.2844Y-1.7805
X6.2844Y-5.3829
X6.3238Y-1.623
X6.3267Y-2.2106
X6.3632Y-2.2766
X6.4636Y-1.7008
X6.4656Y-1.6161
X6.5325Y-1.7785
X6.5364Y-2.3307
X6.562Y-1.501
X6.5669Y-1.564
X6.5728Y-1.8376
X6.5906Y-2.312
X6.6191Y-1.9557
X6.6191Y-2.0443
X6.6585Y-1.5827
X6.6683Y-1.9547
X6.6693Y-2.0443
X6.688Y-1.6732
X6.7303Y-1.5157
X6.7402Y-1.7785
X6.7402Y-1.8366
X6.7688Y-3.5495
X6.7688Y-3.6754
X6.7688Y-2.6203
X6.7688Y-2.7463
X6.7688Y-2.8526
X6.7688Y-2.9786
X6.7688Y-3.0849
X6.7688Y-3.2109
X6.7688Y-3.3172
X6.7688Y-3.4432
X6.7688Y-3.7817
X6.7688Y-3.9077
X6.7688Y-4.4786
X6.7688Y-4.6046
X6.7688Y-4.7109
X6.7688Y-4.8369
X6.7688Y-4.9432
X6.7688Y-5.0691
X6.7688Y-5.1754
X6.7688Y-5.3014
X6.7688Y-4.014
X6.7688Y-4.14
X6.7688Y-4.2463
X6.7688Y-4.3723
X6.8003Y-3.5495
X6.8003Y-3.6754
X6.8003Y-2.6203
X6.8003Y-2.7463
X6.8003Y-2.8526
X6.8003Y-2.9786
X6.8003Y-3.0849
X6.8003Y-3.2109
X6.8003Y-3.3172
X6.8003Y-3.4432
X6.8003Y-3.7817
X6.8003Y-3.9077
X6.8003Y-4.4786
X6.8003Y-4.6046
X6.8003Y-4.7109
X6.8003Y-4.8369
X6.8003Y-4.9432
X6.8003Y-5.0691
X6.8003Y-5.1754
X6.8003Y-5.3014
X6.8003Y-4.014
X6.8003Y-4.14
X6.8003Y-4.2463
X6.8003Y-4.3723
X6.8318Y-3.5495
X6.8318Y-3.6754
X6.8318Y-2.6203
X6.8318Y-2.7463
X6.8318Y-2.8526
X6.8318Y-2.9786
X6.8318Y-3.0849
X6.8318Y-3.2109
X6.8318Y-3.3172
X6.8318Y-3.4432
X6.8318Y-3.7817
X6.8318Y-3.9077
X6.8318Y-4.4786
X6.8318Y-4.6046
X6.8318Y-4.7109
X6.8318Y-4.8369
X6.8318Y-4.9432
X6.8318Y-5.0691
X6.8318Y-5.1754
X6.8318Y-5.3014
X6.8318Y-4.014
X6.8318Y-4.14
X6.8318Y-4.2463
X6.8318Y-4.3723
X6.8406Y-1.8346
X6.8415Y-1.751
X6.8495Y-2.3416
X6.8633Y-3.5495
X6.8633Y-3.581
X6.8633Y-3.6125
X6.8633Y-3.644
X6.8633Y-3.6754
X6.8633Y-2.6203
X6.8633Y-2.6518
X6.8633Y-2.6833
X6.8633Y-2.7148
X6.8633Y-2.7463
X6.8633Y-2.8526
X6.8633Y-2.8841
X6.8633Y-2.9156
X6.8633Y-2.9471
X6.8633Y-2.9786
X6.8633Y-3.0849
X6.8633Y-3.1164
X6.8633Y-3.1479
X6.8633Y-3.1794
X6.8633Y-3.2109
X6.8633Y-3.3172
X6.8633Y-3.3487
X6.8633Y-3.3802
X6.8633Y-3.4117
X6.8633Y-3.4432
X6.8633Y-3.7817
X6.8633Y-3.8132
X6.8633Y-3.8447
X6.8633Y-3.8762
X6.8633Y-3.9077
X6.8633Y-4.4786
X6.8633Y-4.5101
X6.8633Y-4.5416
X6.8633Y-4.5731
X6.8633Y-4.6046
X6.8633Y-4.7109
X6.8633Y-4.7424
X6.8633Y-4.7739
X6.8633Y-4.8054
X6.8633Y-4.8369
X6.8633Y-4.9432
X6.8633Y-4.9747
X6.8633Y-5.0061
X6.8633Y-5.0376
X6.8633Y-5.0691
X6.8633Y-5.1754
X6.8633Y-5.2069
X6.8633Y-5.2384
X6.8633Y-5.2699
X6.8633Y-5.3014
X6.8633Y-4.014
X6.8633Y-4.0455
X6.8633Y-4.077
X6.8633Y-4.1085
X6.8633Y-4.14
X6.8633Y-4.2463
X6.8633Y-4.2778
X6.8633Y-4.3093
X6.8633Y-4.3408
X6.8633Y-4.3723
X6.8927Y-1.5758
X6.8937Y-2.3416
X6.9184Y-3.5495
X6.9184Y-3.581
X6.9184Y-3.6125
X6.9184Y-3.644
X6.9184Y-3.6754
X6.9184Y-2.6203
X6.9184Y-2.6518
X6.9184Y-2.6833
X6.9184Y-2.7148
X6.9184Y-2.7463
X6.9184Y-2.8526
X6.9184Y-2.8841
X6.9184Y-2.9156
X6.9184Y-2.9471
X6.9184Y-2.9786
X6.9184Y-3.0849
X6.9184Y-3.1164
X6.9184Y-3.1479
X6.9184Y-3.1794
X6.9184Y-3.2109
X6.9184Y-3.3172
X6.9184Y-3.3487
X6.9184Y-3.3802
X6.9184Y-3.4117
X6.9184Y-3.4432
X6.9184Y-3.7817
X6.9184Y-3.8132
X6.9184Y-3.8447
X6.9184Y-3.8762
X6.9184Y-3.9077
X6.9184Y-4.4786
X6.9184Y-4.5101
X6.9184Y-4.5416
X6.9184Y-4.5731
X6.9184Y-4.6046
X6.9184Y-4.7109
X6.9184Y-4.7424
X6.9184Y-4.7739
X6.9184Y-4.8054
X6.9184Y-4.8369
X6.9184Y-4.9432
X6.9184Y-4.9747
X6.9184Y-5.0061
X6.9184Y-5.0376
X6.9184Y-5.0691
X6.9184Y-5.1754
X6.9184Y-5.2069
X6.9184Y-5.2384
X6.9184Y-5.2699
X6.9184Y-5.3014
X6.9184Y-4.014
X6.9184Y-4.0455
X6.9184Y-4.077
X6.9184Y-4.1085
X6.9184Y-4.14
X6.9184Y-4.2463
X6.9184Y-4.2778
X6.9184Y-4.3093
X6.9184Y-4.3408
X6.9184Y-4.3723
X6.9291Y-1.6959
X6.9459Y-1.7844
X6.9499Y-3.5495
X6.9499Y-3.6754
X6.9499Y-2.6203
X6.9499Y-2.7463
X6.9499Y-2.8526
X6.9499Y-2.9786
X6.9499Y-3.0849
X6.9499Y-3.2109
X6.9499Y-3.3172
X6.9499Y-3.4432
X6.9499Y-3.7817
X6.9499Y-3.9077
X6.9499Y-4.4786
X6.9499Y-4.6046
X6.9499Y-4.7109
X6.9499Y-4.8369
X6.9499Y-4.9432
X6.9499Y-5.0691
X6.9499Y-5.1754
X6.9499Y-5.3014
X6.9499Y-4.014
X6.9499Y-4.14
X6.9499Y-4.2463
X6.9499Y-4.3723
X6.9814Y-3.5495
X6.9814Y-3.6754
X6.9814Y-2.6203
X6.9814Y-2.7463
X6.9814Y-2.8526
X6.9814Y-2.9786
X6.9814Y-3.0849
X6.9814Y-3.2109
X6.9814Y-3.3172
X6.9814Y-3.4432
X6.9814Y-3.7817
X6.9814Y-3.9077
X6.9814Y-4.4786
X6.9814Y-4.6046
X6.9814Y-4.7109
X6.9814Y-4.8369
X6.9814Y-4.9432
X6.9814Y-5.0691
X6.9814Y-5.1754
X6.9814Y-5.3014
X6.9814Y-4.014
X6.9814Y-4.14
X6.9814Y-4.2463
X6.9814Y-4.3723
X7.0129Y-3.5495
X7.0129Y-3.6754
X7.0129Y-2.6203
X7.0129Y-2.7463
X7.0129Y-2.8526
X7.0129Y-2.9786
X7.0129Y-3.0849
X7.0129Y-3.2109
X7.0129Y-3.3172
X7.0129Y-3.4432
X7.0129Y-3.7817
X7.0129Y-3.9077
X7.0129Y-4.4786
X7.0129Y-4.6046
X7.0129Y-4.7109
X7.0129Y-4.8369
X7.0129Y-4.9432
X7.0129Y-5.0691
X7.0129Y-5.1754
X7.0129Y-5.3014
X7.0129Y-4.014
X7.0129Y-4.14
X7.0129Y-4.2463
X7.0129Y-4.3723
X7.0266Y-2.188
X7.0285Y-1.5049
X7.0295Y-1.5659
X7.1014Y-1.6112
X7.1388Y-1.7923
X7.1398Y-1.6683
X7.1604Y-1.6102
X7.1683Y-5.1929
X7.1713Y-2.564
X7.1919Y-2.6457
X7.1998Y-5.376
X7.2036Y-2.1672
X7.3278Y-2.7431
X7.4459Y-2.9055
X7.4478Y-2.6309
T2
X3.5793Y-1.7234
X3.5911Y-4.5856
X3.597Y-4.6998
X3.599Y-4.8258
X3.6063Y-2.2008
X3.6069Y-2.2825
X3.6088Y-1.7254
X3.6206Y-2.7864
X3.6206Y-2.9577
X3.6226Y-2.6427
X3.6285Y-3.1427
X3.6285Y-3.3533
X3.6285Y-3.5049
X3.6305Y-3.6093
X3.6423Y-1.7254
X3.6541Y-1.8868
X3.6659Y-2.4301
X3.6738Y-1.7254
X3.6757Y-2.1467
X3.6864Y-1.9262
X3.6876Y-2.0325
X3.6974Y-4.2352
X3.6974Y-4.7077
X3.6974Y-4.8258
X3.6988Y-2.2776
X3.6994Y-4.9537
X3.6994Y-5.0581
X3.7033Y-1.7234
X3.7033Y-2.7864
X3.7033Y-2.9518
X3.7033Y-3.1407
X3.7033Y-3.3415
X3.7053Y-1.8907
X3.7053Y-3.5404
X3.7387Y-2.1683
X3.7624Y-4.9518
X3.7624Y-4.9951
X3.7685Y-2.0519
X3.7801Y-1.9006
X3.7801Y-1.9675
X3.786Y-2.4144
X3.788Y-2.0285
X3.7958Y-1.749
X3.7958Y-2.2569
X3.7958Y-2.6112
X3.8012Y-3.6152
X3.8175Y-4.5856
X3.8234Y-1.9006
X3.8234Y-1.9656
X3.8234Y-2.7569
X3.8273Y-1.749
X3.8278Y-2.372
X3.8293Y-2.0285
X3.8297Y-5.1526
X3.8332Y-4.1703
X3.8352Y-4.0581
X3.8372Y-4.3238
X3.8411Y-1.8435
X3.845Y-4.7726
X3.8577Y-5.3622
X3.8588Y-1.749
X3.8593Y-5.2933
X3.8622Y-2.8632
X3.8661Y-5.1929
X3.8667Y-5.0364
X3.872Y-5.1093
X3.8799Y-2.2894
X3.8883Y-4.9065
X3.8903Y-1.749
X3.9002Y-2.0808
X3.9207Y-2.0552
X3.9218Y-1.749
X3.9238Y-2.4104
X3.9317Y-2.2068
X3.9415Y-2.0758
X3.9429Y-2.2776
X3.9513Y-2.1683
X3.9533Y-1.749
X3.9848Y-1.749
X4.0104Y-2.064
X4.0163Y-1.749
X4.0222Y-2.1585
X4.0478Y-1.749
X4.0557Y-2.06
X4.0616Y-2.4065
X4.0793Y-1.749
X4.0911Y-2.2254
X4.0931Y-2.1585
X4.0931Y-2.5167
X4.1069Y-1.9695
X4.1069Y-2.0128
X4.1069Y-2.0581
X4.1073Y-1.937
X4.1108Y-1.749
X4.1423Y-1.749
X4.1476Y-1.9783
X4.1506Y-2.0128
X4.1548Y-2.4117
X4.16Y-2.0561
X4.1639Y-1.8671
X4.1644Y-1.8346
X4.1644Y-2.4749
X4.1703Y-2.3041
X4.2427Y-2.0974
X4.2506Y-1.7175
X4.2507Y-1.9773
X4.252Y-1.9518
X4.2525Y-2.3632
X4.2702Y-2.0974
X4.2722Y-1.8356
X4.2761Y-1.7175
X4.2919Y-2.1585
X4.3017Y-1.7175
X4.3273Y-1.7175
X4.345Y-1.8789
X4.3509Y-1.7175
X4.3622Y-1.9528
X4.3706Y-2.3081
X4.376Y-2.1969
X4.3962Y-1.503
X4.4213Y-1.6201
X4.4238Y-2.3612
X4.4297Y-1.8415
X4.4331Y-2.252
X4.4336Y-2.4459
X4.4406Y-1.7431
X4.4498Y-5.3652
X4.4518Y-2.06
X4.4577Y-1.4931
X4.4631Y-1.7018
X4.4911Y-2.313
X4.5226Y-1.8287
X4.5305Y-2.3465
X4.5344Y-1.8868
X4.5404Y-2.1496
X4.5419Y-1.9754
X4.5561Y-1.8287
X4.5591Y-2.1663
X4.5596Y-3.749
X4.5596Y-3.9813
X4.5596Y-2.8199
X4.5596Y-3.0522
X4.5596Y-3.2844
X4.5596Y-3.5167
X4.5596Y-4.2136
X4.5596Y-4.6781
X4.5596Y-4.9104
X4.5596Y-5.1427
X4.5596Y-4.4459
X4.5669Y-5.3673
X4.6029Y-2.436
X4.6088Y-1.6565
X4.6324Y-5.3081
X4.6443Y-2.125
X4.6777Y-1.6033
X4.6836Y-1.5049
X4.7053Y-1.688
X4.7092Y-5.1624
X4.7191Y-4.9144
X4.7269Y-2.125
X4.7328Y-4.6978
X4.7446Y-4.4518
X4.7525Y-1.7825
X4.7624Y-1.686
X4.7717Y-2.6073
X4.7726Y-2.9272
X4.7746Y-2.0246
X4.7923Y-1.8474
X4.7978Y-3.4596
X4.8017Y-3.5915
X4.8135Y-1.5994
X4.8313Y-1.9636
X4.8352Y-4.3219
X4.8411Y-2.0482
X4.847Y-4.9754
X4.8509Y-5.1053
X4.8529Y-3.8278
X4.8529Y-3.866
X4.8529Y-3.9065
X4.8529Y-3.9459
X4.8529Y-3.9852
X4.8529Y-4.0246
X4.8529Y-4.064
X4.8529Y-4.1033
X4.8529Y-4.1427
X4.8529Y-4.1821
X4.8529Y-4.2215
X4.8608Y-3.3238
X4.8612Y-5.2175
X4.8628Y-1.8533
X4.8652Y-5.3081
X4.8706Y-4.2766
X4.8746Y-3.0364
X4.8785Y-2.0817
X4.8957Y-1.999
X4.9041Y-1.9045
X4.9319Y-2.0953
X4.9376Y-1.6841
X4.9415Y-1.503
X4.971Y-3.7608
X4.971Y-4.1467
X4.9724Y-2.0679
X4.9789Y-4.0659
X4.9927Y-1.751
X5.0148Y-3.5108
X5.0148Y-3.5512
X5.0163Y-4.1407
X5.0301Y-2.9321
X5.038Y-3.1407
X5.0394Y-2.0669
X5.0399Y-4.0659
X5.0517Y-1.5305
X5.0596Y-1.6742
X5.0694Y-1.9557
X5.0719Y-3.6585
X5.0852Y-3.938
X5.0866Y-4.1222
X5.0871Y-2.0796
X5.0891Y-3.2195
X5.0931Y-3.3652
X5.0965Y-4.1713
X5.099Y-4.06
X5.1161Y-4.1565
X5.1309Y-4.0866
X5.1319Y-4.24
X5.1764Y-3.1014
X5.1817Y-3.0719
X5.1876Y-3.0404
X5.192Y-3.0093
X5.1949Y-2.9744
X5.1978Y-2.9065
X5.1998Y-3.685
X5.2037Y-2.5748
X5.2047Y-2.686
X5.2313Y-2.7854
X5.2387Y-4.0935
X5.2407Y-2.9734
X5.2431Y-2.9419
X5.2431Y-4.1378
X5.247Y-3.2746
X5.2569Y-3.5984
X5.2604Y-3.9281
X5.2795Y-2.752
X5.3346Y-3.69
X5.3445Y-3.9213
X5.3549Y-2.5487
X5.3573Y-4.1496
X5.3573Y-4.2087
X5.3573Y-4.2451
X5.3671Y-4.0837
X5.3681Y-4.0354
X5.3726Y-3.991
X5.374Y-3.688
X5.3829Y-3.5955
X5.6546Y-3.892
X5.6556Y-3.9394
X5.6594Y-3.9783
X5.6742Y-3.7365
X5.6762Y-3.7739
X5.6762Y-3.8152
X5.7844Y-3.8415
X5.7904Y-3.8821
X5.7944Y-3.7345
X5.893Y-3.8785
X5.9124Y-3.8209
X5.9302Y-3.9156
X5.9341Y-3.8081
X5.9537Y-3.8535
X5.9567Y-4.0394
X5.9892Y-3.9097
X6.0129Y-3.8349
X6.0503Y-3.9097
X6.0581Y-3.829
X6.0581Y-4.2148
X6.1585Y-3.6991
X6.164Y-2.6676
X6.1654Y-2.7569
X6.1752Y-4.378
X6.1762Y-3.7542
X6.1762Y-3.7936
X6.1762Y-3.8329
X6.1762Y-3.8723
X6.1762Y-3.9117
X6.1762Y-3.951
X6.1762Y-3.9904
X6.1762Y-4.0298
X6.1762Y-4.0691
X6.1762Y-4.1097
X6.1762Y-4.1479
X6.1782Y-2.8703
X6.1822Y-3.0003
X6.194Y-3.6538
X6.2333Y-4.5
X6.2352Y-4.5433
X6.2372Y-4.375
X6.2845Y-3.5239
X6.2963Y-3.2778
X6.3101Y-3.0613
X6.3199Y-2.8132
X6.3967Y-2.6676
X6.4656Y-2.6057
X6.4696Y-3.5298
X6.4696Y-2.8329
X6.4696Y-3.0652
X6.4696Y-3.2975
X6.4696Y-3.7621
X6.4696Y-4.4589
X6.4696Y-4.6912
X6.4696Y-4.9235
X6.4696Y-5.1558
X6.4696Y-3.9943
X6.4696Y-4.2266
X6.5975Y-2.6046
X7.1408Y-3.0691
X7.1575Y-2.8681
X7.1604Y-2.7835
X7.1625Y-2.9392
X7.1663Y-5.1132
X7.1841Y-3.203
X7.192Y-3.6518
X7.194Y-3.9176
X7.1959Y-2.8238
X7.1959Y-3.8054
X7.2117Y-3.39
X7.2274Y-4.3583
X7.2668Y-2.9806
X7.2668Y-3.0239
X7.3239Y-4.4353
X7.3259Y-4.6341
X7.3259Y-4.8349
X7.3259Y-5.0239
X7.3298Y-2.9176
X7.3298Y-3.0219
X7.3318Y-3.1499
X7.3318Y-3.268
X7.3318Y-3.7404
X7.3987Y-4.3664
X7.4007Y-4.4707
X7.4007Y-4.6223
X7.4007Y-4.8329
X7.4085Y-5.018
X7.4302Y-3.1499
X7.4322Y-3.2758
X7.4381Y-3.39
T3
X3.7276Y-3.6093
X7.3016Y-4.3664
T4
X5.1539Y-4.6898
X5.1539Y-4.7394
X5.1835Y-4.6492
X5.1835Y-4.7799
X5.2307Y-4.6339
X5.2307Y-4.7953
X5.2831Y-4.6339
X5.2831Y-4.7953
X5.3358Y-4.6339
X5.3358Y-4.7953
X5.3882Y-4.6339
X5.3882Y-4.7953
X5.4354Y-4.6492
X5.4354Y-4.7799
X5.465Y-4.6898
X5.465Y-4.7394
X5.5476Y-4.6898
X5.5476Y-4.7394
X5.5772Y-4.6492
X5.5772Y-4.7799
X5.6244Y-4.6339
X5.6244Y-4.7953
X5.6768Y-4.6339
X5.6768Y-4.7953
X5.7295Y-4.6339
X5.7295Y-4.7953
X5.7819Y-4.6339
X5.7819Y-4.7953
X5.8291Y-4.6492
X5.8291Y-4.7799
X5.8587Y-4.6898
X5.8587Y-4.7394
T5
X5.1457Y-5.1319
X5.2019Y-4.9962
X5.2019Y-5.2676
X5.3376Y-4.94
X5.3376Y-5.3238
X5.4733Y-4.9962
X5.4733Y-5.2676
X5.5295Y-5.1319
X5.7767Y-5.1299
X5.8329Y-4.9942
X5.8329Y-5.2656
X5.9686Y-4.938
X5.9686Y-5.3219
X6.1043Y-4.9942
X6.1043Y-5.2656
X6.1605Y-5.1299
T6
X4.1206Y-1.8774
X4.4257Y-2.1762
X4.8313Y-1.9006
X5.0217Y-1.9419
X5.1226Y-3.997
X5.1443Y-3.5974
X5.9066Y-4.3585
X5.9075Y-3.956
T7
X5.4311Y-3.872
X5.5063Y-3.872
X5.5815Y-3.872
T8
X5.4884Y-2.7343
X5.5884Y-2.7343
X5.6884Y-2.7343
X5.7884Y-2.7343
T9
X3.6466Y-3.7036
X3.6466Y-3.8217
X3.6466Y-3.9398
X3.6466Y-4.0579
X3.6466Y-4.176
X3.6466Y-4.2941
X3.6466Y-4.4123
X3.6466Y-4.5304
X3.6466Y-4.6485
X3.6466Y-4.7666
X3.6466Y-4.8847
X3.6993Y-2.3391
X3.6993Y-2.5171
X3.7466Y-3.7036
X3.7466Y-3.8217
X3.7466Y-3.9398
X3.7466Y-4.0579
X3.7466Y-4.176
X3.7466Y-4.2941
X3.7466Y-4.4123
X3.7466Y-4.5304
X3.7466Y-4.6485
X3.7466Y-4.7666
X3.7466Y-4.8847
X3.9553Y-2.3391
X3.9553Y-2.5171
X4.1494Y-2.2254
X4.2494Y-2.2254
X5.3333Y-2.8162
X5.3333Y-2.9162
X5.3333Y-3.0162
X5.3333Y-3.1162
X5.3333Y-3.2162
X5.3333Y-3.3162
X5.3333Y-3.4162
X5.3333Y-3.5162
X7.2826Y-3.0909
X7.2826Y-3.2091
X7.2826Y-3.3272
X7.2826Y-3.4453
X7.2826Y-3.5634
X7.2826Y-3.6815
X7.2826Y-3.7996
X7.2826Y-3.9177
X7.2826Y-4.0358
X7.2826Y-4.1539
X7.2826Y-4.272
X7.3826Y-3.0909
X7.3826Y-3.2091
X7.3826Y-3.3272
X7.3826Y-3.4453
X7.3826Y-3.5634
X7.3826Y-3.6815
X7.3826Y-3.7996
X7.3826Y-3.9177
X7.3826Y-4.0358
X7.3826Y-4.1539
X7.3826Y-4.272
T10
X7.3415Y-1.8813
X7.3415Y-1.9813
X7.3415Y-2.0813
X7.3415Y-2.1813
T12
X5.7921Y-1.6604
X6.2421Y-1.6604
X6.5695Y-1.66
X7.0195Y-1.66
T13
X5.3376Y-5.1319
X5.9686Y-5.1299
T5
G00X4.5461Y-1.7435
M15
G01X4.5461Y-1.7002
M16
G05
G00X4.5465Y-1.5699
M15
G01X4.5465Y-1.5463
M16
G05
G00X4.8867Y-1.5699
M15
G01X4.8867Y-1.5463
M16
G05
G00X4.8867Y-1.7439
M15
G01X4.8867Y-1.7006
M16
G05
T11
G00X5.2307Y-4.7146
M15
G01X5.3882Y-4.7146
M16
G05
G00X5.6244Y-4.7146
M15
G01X5.7819Y-4.7146
M16
G05
M30
