M48
; DRILL file {KiCad 9.0.2} date 2025-05-18T01:54:37+0200
; FORMAT={-:-/ absolute / inch / decimal}
; #@! TF.CreationDate,2025-05-18T01:54:37+02:00
; #@! TF.GenerationSoftware,Kicad,Pcbnew,9.0.2
; #@! TF.FileFunction,Plated,1,2,PTH
FMAT,2
INCH
; #@! TA.AperFunction,Plated,PTH,ViaDrill
T1C0.0118
; #@! TA.AperFunction,Plated,PTH,ComponentDrill
T2C0.0394
; #@! TA.AperFunction,Plated,PTH,ComponentDrill
T3C0.1280
%
G90
G05
T1
X2.6772Y-1.9656
X2.6811Y-1.5581
X2.686Y-2.3819
X2.687Y-2.7431
X2.7776Y-1.6102
X2.7785Y-2.4173
X2.7795Y-1.9124
X2.7805Y-2.5561
X2.7815Y-2.7156
X2.7884Y-1.7608
X2.8337Y-2.2254
X2.8386Y-2.9862
X2.8671Y-1.3632
X2.9774Y-2.0295
X2.9803Y-1.497
X2.9872Y-2.8268
X3.0148Y-2.3809
X3.0886Y-1.7559
X3.1388Y-2.9764
X3.1752Y-1.3661
X3.1821Y-2.5965
X3.2087Y-2.8337
X3.2283Y-1.4843
X3.2736Y-2.2293
X3.3071Y-2.0531
X3.3337Y-1.9833
X3.3622Y-2.1437
X3.3652Y-2.3179
X3.4045Y-1.9911
X3.4606Y-1.4862
X3.4695Y-1.9026
X3.501Y-2.0079
X3.5246Y-2.9646
X3.5413Y-1.3563
X3.6132Y-2.8386
X3.7549Y-1.3848
X3.7835Y-1.7215
X3.7854Y-2.9429
X3.7884Y-2.4419
X3.7894Y-2.0433
X3.812Y-2.7766
T2
X3.5909Y-1.6535
X3.5909Y-1.7717
X3.5909Y-1.8898
X3.5909Y-2.0079
X3.5909Y-2.126
X3.5909Y-2.2441
X3.5909Y-2.3622
X3.5909Y-2.4803
X3.5925Y-1.5354
X3.5925Y-2.5984
X3.5925Y-2.7165
X3.6909Y-1.6535
X3.6909Y-1.7717
X3.6909Y-1.8898
X3.6909Y-2.0079
X3.6909Y-2.126
X3.6909Y-2.2441
X3.6909Y-2.3622
X3.6909Y-2.4803
X3.6925Y-1.5354
X3.6925Y-2.5984
X3.6925Y-2.7165
T3
X2.851Y-1.5392
X2.851Y-1.9892
X2.851Y-2.3447
X2.851Y-2.7947
M30
