%TF.GenerationSoftware,KiCad,Pcbnew,9.0.2*%
%TF.CreationDate,2025-05-18T01:54:37+02:00*%
%TF.ProjectId,RJ45 Adapter,524a3435-2041-4646-9170-7465722e6b69,rev?*%
%TF.SameCoordinates,Original*%
%TF.FileFunction,Copper,L1,Top*%
%TF.FilePolarity,Positive*%
%FSLAX46Y46*%
G04 Gerber Fmt 4.6, Leading zero omitted, Abs format (unit mm)*
G04 Created by KiCad (PCBNEW 9.0.2) date 2025-05-18 01:54:37*
%MOMM*%
%LPD*%
G01*
G04 APERTURE LIST*
%TA.AperFunction,ComponentPad*%
%ADD10R,1.700000X1.700000*%
%TD*%
%TA.AperFunction,ComponentPad*%
%ADD11C,1.700000*%
%TD*%
%TA.AperFunction,ComponentPad*%
%ADD12C,3.250000*%
%TD*%
%TA.AperFunction,SMDPad,CuDef*%
%ADD13R,3.600000X0.760000*%
%TD*%
%TA.AperFunction,SMDPad,CuDef*%
%ADD14R,2.540000X3.120000*%
%TD*%
%TA.AperFunction,ViaPad*%
%ADD15C,0.600000*%
%TD*%
%TA.AperFunction,Conductor*%
%ADD16C,0.500000*%
%TD*%
%TA.AperFunction,Conductor*%
%ADD17C,0.200000*%
%TD*%
G04 APERTURE END LIST*
D10*
%TO.P,JP3,1,1*%
%TO.N,/C8+*%
X93750000Y-45000000D03*
D11*
%TO.P,JP3,2,2*%
%TO.N,/C9+*%
X91210000Y-45000000D03*
%TD*%
D10*
%TO.P,JP1,1,1*%
%TO.N,/C12+POWER*%
X91250000Y-39000000D03*
D11*
%TO.P,JP1,2,2*%
%TO.N,/C12+*%
X93790000Y-39000000D03*
%TD*%
D10*
%TO.P,JP4,1,1*%
%TO.N,/C6+*%
X93750000Y-48000000D03*
D11*
%TO.P,JP4,2,2*%
%TO.N,/C7+*%
X91210000Y-48000000D03*
%TD*%
D10*
%TO.P,JP5,1,1*%
%TO.N,unconnected-(JP5-Pad1)*%
X93750000Y-51000000D03*
D11*
%TO.P,JP5,2,2*%
%TO.N,/C5+*%
X91210000Y-51000000D03*
%TD*%
D10*
%TO.P,JP7,1,1*%
%TO.N,/C2+*%
X93750000Y-57000000D03*
D11*
%TO.P,JP7,2,2*%
%TO.N,/C3+*%
X91210000Y-57000000D03*
%TD*%
D10*
%TO.P,JP9,1,1*%
%TO.N,/C1-*%
X93750000Y-63000000D03*
D11*
%TO.P,JP9,2,2*%
%TO.N,unconnected-(JP9-Pad2)*%
X91210000Y-63000000D03*
%TD*%
D10*
%TO.P,JP10,1,1*%
%TO.N,/VREF2*%
X91250000Y-66000000D03*
D11*
%TO.P,JP10,2,2*%
X93790000Y-66000000D03*
%TD*%
D10*
%TO.P,JP2,1,1*%
%TO.N,/C10+*%
X93750000Y-42000000D03*
D11*
%TO.P,JP2,2,2*%
%TO.N,/C11+*%
X91210000Y-42000000D03*
%TD*%
D12*
%TO.P,RJ2,*%
%TO.N,*%
X72415000Y-39095000D03*
X72415000Y-50525000D03*
D13*
%TO.P,RJ2,1,1*%
%TO.N,/C12+*%
X84285000Y-40375000D03*
%TO.P,RJ2,2,2*%
%TO.N,/C11+*%
X84285000Y-41645000D03*
%TO.P,RJ2,3,3*%
%TO.N,/C10+*%
X84285000Y-42915000D03*
%TO.P,RJ2,4,4*%
%TO.N,/C9+*%
X84285000Y-44185000D03*
%TO.P,RJ2,5,5*%
%TO.N,/C8+*%
X84285000Y-45445000D03*
%TO.P,RJ2,6,6*%
%TO.N,/C7+*%
X84285000Y-46715000D03*
%TO.P,RJ2,7,7*%
%TO.N,/VREF2*%
X84285000Y-47995000D03*
%TO.P,RJ2,8,8*%
%TO.N,/VTEMP2*%
X84285000Y-49255000D03*
D14*
%TO.P,RJ2,9,9*%
%TO.N,/C12+POWER*%
X69365000Y-52985000D03*
%TO.P,RJ2,10,10*%
X69365000Y-36645000D03*
%TD*%
D10*
%TO.P,JP11,1,1*%
%TO.N,/VTEMP1*%
X91250000Y-69000000D03*
D11*
%TO.P,JP11,2,2*%
%TO.N,/VTEMP2*%
X93790000Y-69000000D03*
%TD*%
D10*
%TO.P,JP8,1,1*%
%TO.N,GND*%
X93750000Y-60000000D03*
D11*
%TO.P,JP8,2,2*%
%TO.N,/C1+*%
X91210000Y-60000000D03*
%TD*%
D10*
%TO.P,JP6,1,1*%
%TO.N,/C4+*%
X93750000Y-54000000D03*
D11*
%TO.P,JP6,2,2*%
%TO.N,unconnected-(JP6-Pad2)*%
X91210000Y-54000000D03*
%TD*%
D12*
%TO.P,RJ1,*%
%TO.N,*%
X72415000Y-59555000D03*
X72415000Y-70985000D03*
D13*
%TO.P,RJ1,1,1*%
%TO.N,/C6+*%
X84285000Y-60835000D03*
%TO.P,RJ1,2,2*%
%TO.N,/C5+*%
X84285000Y-62105000D03*
%TO.P,RJ1,3,3*%
%TO.N,/C4+*%
X84285000Y-63375000D03*
%TO.P,RJ1,4,4*%
%TO.N,/C3+*%
X84285000Y-64645000D03*
%TO.P,RJ1,5,5*%
%TO.N,/C2+*%
X84285000Y-65905000D03*
%TO.P,RJ1,6,6*%
%TO.N,/C1+*%
X84285000Y-67175000D03*
%TO.P,RJ1,7,7*%
%TO.N,/VREF2*%
X84285000Y-68455000D03*
%TO.P,RJ1,8,8*%
%TO.N,/VTEMP1*%
X84285000Y-69715000D03*
D14*
%TO.P,RJ1,9,9*%
%TO.N,/C1-*%
X69365000Y-73445000D03*
%TO.P,RJ1,10,10*%
X69365000Y-57105000D03*
%TD*%
D15*
%TO.N,GND*%
X70550000Y-40900000D03*
X72825000Y-34625000D03*
X81500000Y-71975000D03*
X80825000Y-65950000D03*
X91775000Y-72100000D03*
X82000000Y-37700000D03*
X75625000Y-51550000D03*
X96150000Y-74750000D03*
X71975000Y-56525000D03*
X68250000Y-69675000D03*
X89525000Y-75300000D03*
X70600000Y-48575000D03*
X75700000Y-38025000D03*
X68225000Y-60500000D03*
X88925000Y-51000000D03*
X70625000Y-64925000D03*
X87900000Y-37750000D03*
X70575000Y-61400000D03*
X85475000Y-58875000D03*
X85400000Y-54450000D03*
X72100000Y-75850000D03*
X89950000Y-34450000D03*
X96100000Y-43725000D03*
X95375000Y-35175000D03*
X68100000Y-39575000D03*
X78450000Y-44600000D03*
X79725000Y-75600000D03*
X76575000Y-60475000D03*
X96225000Y-62025000D03*
X70650000Y-68975000D03*
X80650000Y-34700000D03*
X75875000Y-71800000D03*
X68000000Y-49925000D03*
X70825000Y-44725000D03*
X96250000Y-51900000D03*
X88125000Y-48325000D03*
X84000000Y-52150000D03*
X83150000Y-56625000D03*
X96825000Y-70525000D03*
%TO.N,/VREF2*%
X86475000Y-50575000D03*
%TO.N,/VTEMP2*%
X84675000Y-50375000D03*
%TD*%
D16*
%TO.N,/C12+POWER*%
X69365000Y-36645000D02*
X88895000Y-36645000D01*
X69365000Y-52985000D02*
X69365000Y-36645000D01*
X88895000Y-36645000D02*
X91250000Y-39000000D01*
D17*
%TO.N,/C12+*%
X84285000Y-40375000D02*
X92415000Y-40375000D01*
X92415000Y-40375000D02*
X93790000Y-39000000D01*
%TO.N,/C11+*%
X84285000Y-41645000D02*
X90855000Y-41645000D01*
X90855000Y-41645000D02*
X91210000Y-42000000D01*
%TO.N,/C10+*%
X92599000Y-43151000D02*
X93750000Y-42000000D01*
X84521000Y-43151000D02*
X92599000Y-43151000D01*
X84285000Y-42915000D02*
X84521000Y-43151000D01*
%TO.N,/C9+*%
X84285000Y-44185000D02*
X90395000Y-44185000D01*
X90395000Y-44185000D02*
X91210000Y-45000000D01*
%TO.N,/C8+*%
X84285000Y-45445000D02*
X85705000Y-45445000D01*
X85705000Y-45445000D02*
X86411000Y-46151000D01*
X86411000Y-46151000D02*
X92599000Y-46151000D01*
X92599000Y-46151000D02*
X93750000Y-45000000D01*
%TO.N,/C6+*%
X84285000Y-60835000D02*
X84285000Y-54040000D01*
X88875000Y-49450000D02*
X92300000Y-49450000D01*
X84285000Y-54040000D02*
X88875000Y-49450000D01*
X92300000Y-49450000D02*
X93750000Y-48000000D01*
%TO.N,/C7+*%
X89925000Y-46715000D02*
X91210000Y-48000000D01*
X84285000Y-46715000D02*
X89925000Y-46715000D01*
%TO.N,/C5+*%
X85705000Y-62105000D02*
X86825000Y-60985000D01*
X86825000Y-55385000D02*
X91210000Y-51000000D01*
X84285000Y-62105000D02*
X85705000Y-62105000D01*
X86825000Y-60985000D02*
X86825000Y-55385000D01*
%TO.N,/C4+*%
X87226000Y-56075000D02*
X88150000Y-55151000D01*
X88150000Y-55151000D02*
X92599000Y-55151000D01*
X84285000Y-63375000D02*
X85705000Y-63375000D01*
X92599000Y-55151000D02*
X93750000Y-54000000D01*
X85705000Y-63375000D02*
X87226000Y-61854000D01*
X87226000Y-61854000D02*
X87226000Y-56075000D01*
%TO.N,/C2+*%
X88076000Y-63534000D02*
X88076000Y-60025000D01*
X91901000Y-58849000D02*
X93750000Y-57000000D01*
X88076000Y-60025000D02*
X89252000Y-58849000D01*
X89252000Y-58849000D02*
X91901000Y-58849000D01*
X85705000Y-65905000D02*
X88076000Y-63534000D01*
X84285000Y-65905000D02*
X85705000Y-65905000D01*
%TO.N,/C3+*%
X87675000Y-58600000D02*
X89275000Y-57000000D01*
X84285000Y-64645000D02*
X85705000Y-64645000D01*
X87675000Y-62675000D02*
X87675000Y-58600000D01*
X85705000Y-64645000D02*
X87675000Y-62675000D01*
X89275000Y-57000000D02*
X91210000Y-57000000D01*
%TO.N,/C1+*%
X88700000Y-64180000D02*
X88700000Y-60475000D01*
X88700000Y-60475000D02*
X89175000Y-60000000D01*
X85705000Y-67175000D02*
X88700000Y-64180000D01*
X84285000Y-67175000D02*
X85705000Y-67175000D01*
X89175000Y-60000000D02*
X91210000Y-60000000D01*
D16*
%TO.N,/C1-*%
X94075000Y-63000000D02*
X93750000Y-63000000D01*
X95550000Y-64475000D02*
X94075000Y-63000000D01*
X69365000Y-57105000D02*
X69365000Y-73445000D01*
X69365000Y-73445000D02*
X93055000Y-73445000D01*
X95550000Y-70950000D02*
X95550000Y-64475000D01*
X93055000Y-73445000D02*
X95550000Y-70950000D01*
D17*
%TO.N,/VREF2*%
X84285000Y-68455000D02*
X85745000Y-68455000D01*
X86525000Y-50425000D02*
X86525000Y-50525000D01*
X86525000Y-50525000D02*
X86475000Y-50575000D01*
X88200000Y-66000000D02*
X91250000Y-66000000D01*
X86525000Y-48815000D02*
X86525000Y-50425000D01*
X84285000Y-47995000D02*
X85705000Y-47995000D01*
X85705000Y-47995000D02*
X86525000Y-48815000D01*
X85745000Y-68455000D02*
X88200000Y-66000000D01*
X91250000Y-66000000D02*
X93790000Y-66000000D01*
%TO.N,/VTEMP2*%
X84675000Y-50375000D02*
X84675000Y-49645000D01*
X84675000Y-49645000D02*
X84285000Y-49255000D01*
%TO.N,/VTEMP1*%
X90535000Y-69715000D02*
X91250000Y-69000000D01*
X84285000Y-69715000D02*
X90535000Y-69715000D01*
%TD*%
%TA.AperFunction,Conductor*%
%TO.N,GND*%
G36*
X97192539Y-33495185D02*
G01*
X97238294Y-33547989D01*
X97249500Y-33599500D01*
X97249500Y-76750500D01*
X97229815Y-76817539D01*
X97177011Y-76863294D01*
X97125500Y-76874500D01*
X67649500Y-76874500D01*
X67582461Y-76854815D01*
X67536706Y-76802011D01*
X67525500Y-76750500D01*
X67525500Y-75449954D01*
X67545185Y-75382915D01*
X67597989Y-75337160D01*
X67667147Y-75327216D01*
X67730703Y-75356241D01*
X67737181Y-75362273D01*
X67737455Y-75362547D01*
X67852664Y-75448793D01*
X67852671Y-75448797D01*
X67987517Y-75499091D01*
X67987516Y-75499091D01*
X67994444Y-75499835D01*
X68047127Y-75505500D01*
X70682872Y-75505499D01*
X70742483Y-75499091D01*
X70877331Y-75448796D01*
X70992546Y-75362546D01*
X71078796Y-75247331D01*
X71129091Y-75112483D01*
X71135500Y-75052873D01*
X71135500Y-74319500D01*
X71155185Y-74252461D01*
X71207989Y-74206706D01*
X71259500Y-74195500D01*
X93128920Y-74195500D01*
X93226462Y-74176096D01*
X93273913Y-74166658D01*
X93410495Y-74110084D01*
X93459729Y-74077186D01*
X93533416Y-74027952D01*
X96132952Y-71428416D01*
X96182186Y-71354729D01*
X96215084Y-71305495D01*
X96271658Y-71168913D01*
X96300500Y-71023918D01*
X96300500Y-64401082D01*
X96300500Y-64401079D01*
X96271659Y-64256092D01*
X96271658Y-64256091D01*
X96271658Y-64256087D01*
X96229808Y-64155051D01*
X96215086Y-64119509D01*
X96215085Y-64119507D01*
X96202680Y-64100942D01*
X96182186Y-64070270D01*
X96170869Y-64053332D01*
X96132956Y-63996589D01*
X96132952Y-63996584D01*
X95136818Y-63000450D01*
X95103333Y-62939127D01*
X95100499Y-62912769D01*
X95100499Y-62102129D01*
X95100498Y-62102123D01*
X95094091Y-62042516D01*
X95043797Y-61907671D01*
X95043793Y-61907664D01*
X94957547Y-61792455D01*
X94957544Y-61792452D01*
X94842335Y-61706206D01*
X94842328Y-61706202D01*
X94707482Y-61655908D01*
X94707483Y-61655908D01*
X94647883Y-61649501D01*
X94647881Y-61649500D01*
X94647873Y-61649500D01*
X94647864Y-61649500D01*
X92852129Y-61649500D01*
X92852123Y-61649501D01*
X92792516Y-61655908D01*
X92657671Y-61706202D01*
X92657664Y-61706206D01*
X92542455Y-61792452D01*
X92542452Y-61792455D01*
X92456206Y-61907664D01*
X92456203Y-61907669D01*
X92407189Y-62039083D01*
X92365317Y-62095016D01*
X92299853Y-62119433D01*
X92231580Y-62104581D01*
X92203326Y-62083430D01*
X92089786Y-61969890D01*
X91917820Y-61844951D01*
X91728414Y-61748444D01*
X91728413Y-61748443D01*
X91728412Y-61748443D01*
X91526243Y-61682754D01*
X91526241Y-61682753D01*
X91526240Y-61682753D01*
X91364957Y-61657208D01*
X91316287Y-61649500D01*
X91103713Y-61649500D01*
X91055042Y-61657208D01*
X90893760Y-61682753D01*
X90691585Y-61748444D01*
X90502179Y-61844951D01*
X90330213Y-61969890D01*
X90179890Y-62120213D01*
X90054951Y-62292179D01*
X89958444Y-62481585D01*
X89892753Y-62683760D01*
X89859500Y-62893713D01*
X89859500Y-63106286D01*
X89892753Y-63316239D01*
X89958444Y-63518414D01*
X90054951Y-63707820D01*
X90179890Y-63879786D01*
X90330213Y-64030109D01*
X90502179Y-64155048D01*
X90502181Y-64155049D01*
X90502184Y-64155051D01*
X90691588Y-64251557D01*
X90893757Y-64317246D01*
X91103713Y-64350500D01*
X91103714Y-64350500D01*
X91316286Y-64350500D01*
X91316287Y-64350500D01*
X91526243Y-64317246D01*
X91728412Y-64251557D01*
X91917816Y-64155051D01*
X92089792Y-64030104D01*
X92203329Y-63916566D01*
X92264648Y-63883084D01*
X92334340Y-63888068D01*
X92390274Y-63929939D01*
X92407189Y-63960917D01*
X92456202Y-64092328D01*
X92456206Y-64092335D01*
X92542452Y-64207544D01*
X92542455Y-64207547D01*
X92657664Y-64293793D01*
X92657671Y-64293797D01*
X92792517Y-64344091D01*
X92792516Y-64344091D01*
X92799444Y-64344835D01*
X92852127Y-64350500D01*
X94312769Y-64350499D01*
X94379808Y-64370184D01*
X94400450Y-64386818D01*
X94702992Y-64689360D01*
X94736477Y-64750683D01*
X94731493Y-64820375D01*
X94689621Y-64876308D01*
X94624157Y-64900725D01*
X94555884Y-64885873D01*
X94542426Y-64877359D01*
X94497820Y-64844951D01*
X94308414Y-64748444D01*
X94308413Y-64748443D01*
X94308412Y-64748443D01*
X94106243Y-64682754D01*
X94106241Y-64682753D01*
X94106240Y-64682753D01*
X93944957Y-64657208D01*
X93896287Y-64649500D01*
X93683713Y-64649500D01*
X93635042Y-64657208D01*
X93473760Y-64682753D01*
X93271585Y-64748444D01*
X93082179Y-64844951D01*
X92910215Y-64969889D01*
X92796673Y-65083431D01*
X92735350Y-65116915D01*
X92665658Y-65111931D01*
X92609725Y-65070059D01*
X92592810Y-65039082D01*
X92543797Y-64907671D01*
X92543793Y-64907664D01*
X92457547Y-64792455D01*
X92457544Y-64792452D01*
X92342335Y-64706206D01*
X92342328Y-64706202D01*
X92207482Y-64655908D01*
X92207483Y-64655908D01*
X92147883Y-64649501D01*
X92147881Y-64649500D01*
X92147873Y-64649500D01*
X92147864Y-64649500D01*
X90352129Y-64649500D01*
X90352123Y-64649501D01*
X90292516Y-64655908D01*
X90157671Y-64706202D01*
X90157664Y-64706206D01*
X90042455Y-64792452D01*
X90042452Y-64792455D01*
X89956206Y-64907664D01*
X89956202Y-64907671D01*
X89905908Y-65042517D01*
X89899501Y-65102116D01*
X89899500Y-65102135D01*
X89899500Y-65275500D01*
X89879815Y-65342539D01*
X89827011Y-65388294D01*
X89775500Y-65399500D01*
X88629098Y-65399500D01*
X88562059Y-65379815D01*
X88516304Y-65327011D01*
X88506360Y-65257853D01*
X88535385Y-65194297D01*
X88541417Y-65187819D01*
X88852928Y-64876308D01*
X89180520Y-64548716D01*
X89259577Y-64411784D01*
X89300501Y-64259057D01*
X89300501Y-64100942D01*
X89300501Y-64093347D01*
X89300500Y-64093329D01*
X89300500Y-60775097D01*
X89309144Y-60745656D01*
X89315668Y-60715670D01*
X89319422Y-60710654D01*
X89320185Y-60708058D01*
X89336819Y-60687416D01*
X89387416Y-60636819D01*
X89448739Y-60603334D01*
X89475097Y-60600500D01*
X89924281Y-60600500D01*
X89991320Y-60620185D01*
X90034765Y-60668205D01*
X90054947Y-60707814D01*
X90054948Y-60707815D01*
X90179890Y-60879786D01*
X90330213Y-61030109D01*
X90502179Y-61155048D01*
X90502181Y-61155049D01*
X90502184Y-61155051D01*
X90691588Y-61251557D01*
X90893757Y-61317246D01*
X91103713Y-61350500D01*
X91103714Y-61350500D01*
X91316286Y-61350500D01*
X91316287Y-61350500D01*
X91526243Y-61317246D01*
X91728412Y-61251557D01*
X91917816Y-61155051D01*
X92004478Y-61092088D01*
X92089784Y-61030110D01*
X92089784Y-61030109D01*
X92089792Y-61030104D01*
X92203717Y-60916178D01*
X92265036Y-60882696D01*
X92334728Y-60887680D01*
X92390662Y-60929551D01*
X92407577Y-60960528D01*
X92456646Y-61092088D01*
X92456649Y-61092093D01*
X92542809Y-61207187D01*
X92542812Y-61207190D01*
X92657906Y-61293350D01*
X92657913Y-61293354D01*
X92792620Y-61343596D01*
X92792627Y-61343598D01*
X92852155Y-61349999D01*
X92852172Y-61350000D01*
X93500000Y-61350000D01*
X93500000Y-60433012D01*
X93557007Y-60465925D01*
X93684174Y-60500000D01*
X93815826Y-60500000D01*
X93942993Y-60465925D01*
X94000000Y-60433012D01*
X94000000Y-61350000D01*
X94647828Y-61350000D01*
X94647844Y-61349999D01*
X94707372Y-61343598D01*
X94707379Y-61343596D01*
X94842086Y-61293354D01*
X94842093Y-61293350D01*
X94957187Y-61207190D01*
X94957190Y-61207187D01*
X95043350Y-61092093D01*
X95043354Y-61092086D01*
X95093596Y-60957379D01*
X95093598Y-60957372D01*
X95099999Y-60897844D01*
X95100000Y-60897827D01*
X95100000Y-60250000D01*
X94183012Y-60250000D01*
X94215925Y-60192993D01*
X94250000Y-60065826D01*
X94250000Y-59934174D01*
X94215925Y-59807007D01*
X94183012Y-59750000D01*
X95100000Y-59750000D01*
X95100000Y-59102172D01*
X95099999Y-59102155D01*
X95093598Y-59042627D01*
X95093596Y-59042620D01*
X95043354Y-58907913D01*
X95043350Y-58907906D01*
X94957190Y-58792812D01*
X94957187Y-58792809D01*
X94842093Y-58706649D01*
X94842086Y-58706645D01*
X94707379Y-58656403D01*
X94707372Y-58656401D01*
X94647844Y-58650000D01*
X94000000Y-58650000D01*
X94000000Y-59566988D01*
X93942993Y-59534075D01*
X93815826Y-59500000D01*
X93684174Y-59500000D01*
X93557007Y-59534075D01*
X93500000Y-59566988D01*
X93500000Y-58650000D01*
X93248596Y-58650000D01*
X93227350Y-58643761D01*
X93205262Y-58642182D01*
X93194478Y-58634109D01*
X93181557Y-58630315D01*
X93167057Y-58613581D01*
X93149329Y-58600310D01*
X93144621Y-58587689D01*
X93135802Y-58577511D01*
X93132650Y-58555593D01*
X93124912Y-58534846D01*
X93127774Y-58521685D01*
X93125858Y-58508353D01*
X93135057Y-58488209D01*
X93139764Y-58466573D01*
X93153032Y-58448847D01*
X93154883Y-58444797D01*
X93160915Y-58438319D01*
X93212416Y-58386818D01*
X93273739Y-58353333D01*
X93300097Y-58350499D01*
X94647871Y-58350499D01*
X94647872Y-58350499D01*
X94707483Y-58344091D01*
X94842331Y-58293796D01*
X94957546Y-58207546D01*
X95043796Y-58092331D01*
X95094091Y-57957483D01*
X95100500Y-57897873D01*
X95100499Y-56102128D01*
X95094091Y-56042517D01*
X95067004Y-55969894D01*
X95043797Y-55907671D01*
X95043793Y-55907664D01*
X94957547Y-55792455D01*
X94957544Y-55792452D01*
X94842335Y-55706206D01*
X94842328Y-55706202D01*
X94707482Y-55655908D01*
X94707483Y-55655908D01*
X94647883Y-55649501D01*
X94647881Y-55649500D01*
X94647873Y-55649500D01*
X94647865Y-55649500D01*
X93249096Y-55649500D01*
X93227850Y-55643261D01*
X93205762Y-55641682D01*
X93194978Y-55633609D01*
X93182057Y-55629815D01*
X93167557Y-55613081D01*
X93149829Y-55599810D01*
X93145121Y-55587189D01*
X93136302Y-55577011D01*
X93133150Y-55555093D01*
X93125412Y-55534346D01*
X93128274Y-55521185D01*
X93126358Y-55507853D01*
X93135557Y-55487709D01*
X93140264Y-55466073D01*
X93153532Y-55448347D01*
X93155383Y-55444297D01*
X93161415Y-55437819D01*
X93212416Y-55386818D01*
X93273739Y-55353333D01*
X93300097Y-55350499D01*
X94647871Y-55350499D01*
X94647872Y-55350499D01*
X94707483Y-55344091D01*
X94842331Y-55293796D01*
X94957546Y-55207546D01*
X95043796Y-55092331D01*
X95094091Y-54957483D01*
X95100500Y-54897873D01*
X95100499Y-53102128D01*
X95094091Y-53042517D01*
X95092810Y-53039083D01*
X95043797Y-52907671D01*
X95043793Y-52907664D01*
X94957547Y-52792455D01*
X94957544Y-52792452D01*
X94842335Y-52706206D01*
X94842328Y-52706202D01*
X94707482Y-52655908D01*
X94707483Y-52655908D01*
X94647883Y-52649501D01*
X94647881Y-52649500D01*
X94647873Y-52649500D01*
X94647864Y-52649500D01*
X92852129Y-52649500D01*
X92852123Y-52649501D01*
X92792516Y-52655908D01*
X92657671Y-52706202D01*
X92657664Y-52706206D01*
X92542455Y-52792452D01*
X92542452Y-52792455D01*
X92456206Y-52907664D01*
X92456203Y-52907669D01*
X92407189Y-53039083D01*
X92365317Y-53095016D01*
X92299853Y-53119433D01*
X92231580Y-53104581D01*
X92203326Y-53083430D01*
X92089786Y-52969890D01*
X91917820Y-52844951D01*
X91728414Y-52748444D01*
X91728413Y-52748443D01*
X91728412Y-52748443D01*
X91526243Y-52682754D01*
X91526241Y-52682753D01*
X91526240Y-52682753D01*
X91364957Y-52657208D01*
X91316287Y-52649500D01*
X91103713Y-52649500D01*
X91055042Y-52657208D01*
X90893760Y-52682753D01*
X90691585Y-52748444D01*
X90612777Y-52788599D01*
X90544108Y-52801495D01*
X90479367Y-52775219D01*
X90439110Y-52718112D01*
X90436118Y-52648307D01*
X90468801Y-52590433D01*
X90517219Y-52542015D01*
X90725478Y-52333755D01*
X90786799Y-52300272D01*
X90851473Y-52303506D01*
X90893757Y-52317246D01*
X91103713Y-52350500D01*
X91103714Y-52350500D01*
X91316286Y-52350500D01*
X91316287Y-52350500D01*
X91526243Y-52317246D01*
X91728412Y-52251557D01*
X91917816Y-52155051D01*
X92089792Y-52030104D01*
X92203329Y-51916566D01*
X92264648Y-51883084D01*
X92334340Y-51888068D01*
X92390274Y-51929939D01*
X92407189Y-51960917D01*
X92456202Y-52092328D01*
X92456206Y-52092335D01*
X92542452Y-52207544D01*
X92542455Y-52207547D01*
X92657664Y-52293793D01*
X92657671Y-52293797D01*
X92792517Y-52344091D01*
X92792516Y-52344091D01*
X92799444Y-52344835D01*
X92852127Y-52350500D01*
X94647872Y-52350499D01*
X94707483Y-52344091D01*
X94842331Y-52293796D01*
X94957546Y-52207546D01*
X95043796Y-52092331D01*
X95094091Y-51957483D01*
X95100500Y-51897873D01*
X95100499Y-50102128D01*
X95094091Y-50042517D01*
X95075453Y-49992547D01*
X95043797Y-49907671D01*
X95043793Y-49907664D01*
X94957547Y-49792455D01*
X94957544Y-49792452D01*
X94842335Y-49706206D01*
X94842328Y-49706202D01*
X94707482Y-49655908D01*
X94707483Y-49655908D01*
X94647883Y-49649501D01*
X94647881Y-49649500D01*
X94647873Y-49649500D01*
X94647865Y-49649500D01*
X93249096Y-49649500D01*
X93227850Y-49643261D01*
X93205762Y-49641682D01*
X93194978Y-49633609D01*
X93182057Y-49629815D01*
X93167557Y-49613081D01*
X93149829Y-49599810D01*
X93145121Y-49587189D01*
X93136302Y-49577011D01*
X93133150Y-49555093D01*
X93125412Y-49534346D01*
X93128274Y-49521185D01*
X93126358Y-49507853D01*
X93135557Y-49487709D01*
X93140264Y-49466073D01*
X93153532Y-49448347D01*
X93155383Y-49444297D01*
X93161415Y-49437819D01*
X93212416Y-49386818D01*
X93273739Y-49353333D01*
X93300097Y-49350499D01*
X94647871Y-49350499D01*
X94647872Y-49350499D01*
X94707483Y-49344091D01*
X94842331Y-49293796D01*
X94957546Y-49207546D01*
X95043796Y-49092331D01*
X95094091Y-48957483D01*
X95100500Y-48897873D01*
X95100499Y-47102128D01*
X95094091Y-47042517D01*
X95043796Y-46907669D01*
X95043795Y-46907668D01*
X95043793Y-46907664D01*
X94957547Y-46792455D01*
X94957544Y-46792452D01*
X94842335Y-46706206D01*
X94842328Y-46706202D01*
X94707482Y-46655908D01*
X94707483Y-46655908D01*
X94647883Y-46649501D01*
X94647881Y-46649500D01*
X94647873Y-46649500D01*
X94647865Y-46649500D01*
X93249096Y-46649500D01*
X93227850Y-46643261D01*
X93205762Y-46641682D01*
X93194978Y-46633609D01*
X93182057Y-46629815D01*
X93167557Y-46613081D01*
X93149829Y-46599810D01*
X93145121Y-46587189D01*
X93136302Y-46577011D01*
X93133150Y-46555093D01*
X93125412Y-46534346D01*
X93128274Y-46521185D01*
X93126358Y-46507853D01*
X93135557Y-46487709D01*
X93140264Y-46466073D01*
X93153532Y-46448347D01*
X93155383Y-46444297D01*
X93161415Y-46437819D01*
X93212416Y-46386818D01*
X93273739Y-46353333D01*
X93300097Y-46350499D01*
X94647871Y-46350499D01*
X94647872Y-46350499D01*
X94707483Y-46344091D01*
X94842331Y-46293796D01*
X94957546Y-46207546D01*
X95043796Y-46092331D01*
X95094091Y-45957483D01*
X95100500Y-45897873D01*
X95100499Y-44102128D01*
X95094091Y-44042517D01*
X95043796Y-43907669D01*
X95043795Y-43907668D01*
X95043793Y-43907664D01*
X94957547Y-43792455D01*
X94957544Y-43792452D01*
X94842335Y-43706206D01*
X94842328Y-43706202D01*
X94707482Y-43655908D01*
X94707483Y-43655908D01*
X94647883Y-43649501D01*
X94647881Y-43649500D01*
X94647873Y-43649500D01*
X94647865Y-43649500D01*
X93249096Y-43649500D01*
X93227850Y-43643261D01*
X93205762Y-43641682D01*
X93194978Y-43633609D01*
X93182057Y-43629815D01*
X93167557Y-43613081D01*
X93149829Y-43599810D01*
X93145121Y-43587189D01*
X93136302Y-43577011D01*
X93133150Y-43555093D01*
X93125412Y-43534346D01*
X93128274Y-43521185D01*
X93126358Y-43507853D01*
X93135557Y-43487709D01*
X93140264Y-43466073D01*
X93153532Y-43448347D01*
X93155383Y-43444297D01*
X93161415Y-43437819D01*
X93212416Y-43386818D01*
X93273739Y-43353333D01*
X93300097Y-43350499D01*
X94647871Y-43350499D01*
X94647872Y-43350499D01*
X94707483Y-43344091D01*
X94842331Y-43293796D01*
X94957546Y-43207546D01*
X95043796Y-43092331D01*
X95094091Y-42957483D01*
X95100500Y-42897873D01*
X95100499Y-41102128D01*
X95094091Y-41042517D01*
X95091794Y-41036359D01*
X95043797Y-40907671D01*
X95043793Y-40907664D01*
X94957547Y-40792455D01*
X94957544Y-40792452D01*
X94842335Y-40706206D01*
X94842328Y-40706202D01*
X94707482Y-40655908D01*
X94707483Y-40655908D01*
X94647883Y-40649501D01*
X94647881Y-40649500D01*
X94647873Y-40649500D01*
X94647865Y-40649500D01*
X93289096Y-40649500D01*
X93222057Y-40629815D01*
X93176302Y-40577011D01*
X93166358Y-40507853D01*
X93195383Y-40444297D01*
X93201400Y-40437833D01*
X93305479Y-40333754D01*
X93366798Y-40300272D01*
X93431473Y-40303506D01*
X93473757Y-40317246D01*
X93683713Y-40350500D01*
X93683714Y-40350500D01*
X93896286Y-40350500D01*
X93896287Y-40350500D01*
X94106243Y-40317246D01*
X94308412Y-40251557D01*
X94497816Y-40155051D01*
X94519789Y-40139086D01*
X94669786Y-40030109D01*
X94669788Y-40030106D01*
X94669792Y-40030104D01*
X94820104Y-39879792D01*
X94820106Y-39879788D01*
X94820109Y-39879786D01*
X94945048Y-39707820D01*
X94945047Y-39707820D01*
X94945051Y-39707816D01*
X95041557Y-39518412D01*
X95107246Y-39316243D01*
X95140500Y-39106287D01*
X95140500Y-38893713D01*
X95107246Y-38683757D01*
X95041557Y-38481588D01*
X94945051Y-38292184D01*
X94945049Y-38292181D01*
X94945048Y-38292179D01*
X94820109Y-38120213D01*
X94669786Y-37969890D01*
X94497820Y-37844951D01*
X94308414Y-37748444D01*
X94308413Y-37748443D01*
X94308412Y-37748443D01*
X94106243Y-37682754D01*
X94106241Y-37682753D01*
X94106240Y-37682753D01*
X93944957Y-37657208D01*
X93896287Y-37649500D01*
X93683713Y-37649500D01*
X93635042Y-37657208D01*
X93473760Y-37682753D01*
X93271585Y-37748444D01*
X93082179Y-37844951D01*
X92910215Y-37969889D01*
X92796673Y-38083431D01*
X92735350Y-38116915D01*
X92665658Y-38111931D01*
X92609725Y-38070059D01*
X92592810Y-38039082D01*
X92543797Y-37907671D01*
X92543793Y-37907664D01*
X92457547Y-37792455D01*
X92457544Y-37792452D01*
X92342335Y-37706206D01*
X92342328Y-37706202D01*
X92207482Y-37655908D01*
X92207483Y-37655908D01*
X92147883Y-37649501D01*
X92147881Y-37649500D01*
X92147873Y-37649500D01*
X92147865Y-37649500D01*
X91012230Y-37649500D01*
X90945191Y-37629815D01*
X90924549Y-37613181D01*
X89373421Y-36062052D01*
X89373414Y-36062046D01*
X89299729Y-36012812D01*
X89299729Y-36012813D01*
X89250491Y-35979913D01*
X89113917Y-35923343D01*
X89113907Y-35923340D01*
X88968920Y-35894500D01*
X88968918Y-35894500D01*
X71259499Y-35894500D01*
X71192460Y-35874815D01*
X71146705Y-35822011D01*
X71135499Y-35770500D01*
X71135499Y-35037129D01*
X71135498Y-35037123D01*
X71129091Y-34977516D01*
X71078797Y-34842671D01*
X71078793Y-34842664D01*
X70992547Y-34727455D01*
X70992544Y-34727452D01*
X70877335Y-34641206D01*
X70877328Y-34641202D01*
X70742482Y-34590908D01*
X70742483Y-34590908D01*
X70682883Y-34584501D01*
X70682881Y-34584500D01*
X70682873Y-34584500D01*
X70682864Y-34584500D01*
X68047129Y-34584500D01*
X68047123Y-34584501D01*
X67987516Y-34590908D01*
X67852671Y-34641202D01*
X67852664Y-34641206D01*
X67737455Y-34727452D01*
X67737181Y-34727727D01*
X67736840Y-34727912D01*
X67730355Y-34732768D01*
X67729656Y-34731835D01*
X67675858Y-34761212D01*
X67606166Y-34756228D01*
X67550233Y-34714356D01*
X67525816Y-34648892D01*
X67525500Y-34640046D01*
X67525500Y-33599500D01*
X67545185Y-33532461D01*
X67597989Y-33486706D01*
X67649500Y-33475500D01*
X97125500Y-33475500D01*
X97192539Y-33495185D01*
G37*
%TD.AperFunction*%
%TA.AperFunction,Conductor*%
G36*
X88599809Y-37415185D02*
G01*
X88620451Y-37431819D01*
X89863181Y-38674549D01*
X89896666Y-38735872D01*
X89899500Y-38762230D01*
X89899500Y-39234322D01*
X89899501Y-39650500D01*
X89879817Y-39717539D01*
X89827013Y-39763294D01*
X89775501Y-39774500D01*
X86607208Y-39774500D01*
X86540169Y-39754815D01*
X86507941Y-39724811D01*
X86442546Y-39637454D01*
X86392892Y-39600283D01*
X86327335Y-39551206D01*
X86327328Y-39551202D01*
X86192482Y-39500908D01*
X86192483Y-39500908D01*
X86132883Y-39494501D01*
X86132881Y-39494500D01*
X86132873Y-39494500D01*
X86132864Y-39494500D01*
X82437129Y-39494500D01*
X82437123Y-39494501D01*
X82377516Y-39500908D01*
X82242671Y-39551202D01*
X82242664Y-39551206D01*
X82127455Y-39637452D01*
X82127452Y-39637455D01*
X82041206Y-39752664D01*
X82041202Y-39752671D01*
X81990908Y-39887517D01*
X81984501Y-39947116D01*
X81984500Y-39947135D01*
X81984500Y-40802870D01*
X81984501Y-40802876D01*
X81990909Y-40862484D01*
X82029766Y-40966668D01*
X82034750Y-41036359D01*
X82029766Y-41053332D01*
X81990909Y-41157514D01*
X81990908Y-41157516D01*
X81984501Y-41217116D01*
X81984500Y-41217135D01*
X81984500Y-42072870D01*
X81984501Y-42072876D01*
X81990909Y-42132484D01*
X82029766Y-42236668D01*
X82034750Y-42306359D01*
X82029766Y-42323332D01*
X81990909Y-42427514D01*
X81990908Y-42427516D01*
X81984501Y-42487116D01*
X81984500Y-42487135D01*
X81984500Y-43342870D01*
X81984501Y-43342876D01*
X81990909Y-43402484D01*
X82029766Y-43506668D01*
X82034750Y-43576359D01*
X82029766Y-43593332D01*
X81990909Y-43697514D01*
X81990908Y-43697516D01*
X81984501Y-43757116D01*
X81984500Y-43757135D01*
X81984500Y-44612870D01*
X81984501Y-44612876D01*
X81990909Y-44672484D01*
X82027901Y-44771668D01*
X82032885Y-44841360D01*
X82027901Y-44858332D01*
X81990909Y-44957514D01*
X81990908Y-44957516D01*
X81984501Y-45017116D01*
X81984501Y-45017123D01*
X81984500Y-45017135D01*
X81984500Y-45872870D01*
X81984501Y-45872876D01*
X81990909Y-45932484D01*
X82029766Y-46036668D01*
X82034750Y-46106359D01*
X82029766Y-46123332D01*
X81990909Y-46227514D01*
X81990908Y-46227516D01*
X81984501Y-46287116D01*
X81984500Y-46287135D01*
X81984500Y-47142870D01*
X81984501Y-47142876D01*
X81990909Y-47202484D01*
X82031631Y-47311668D01*
X82036615Y-47381359D01*
X82031631Y-47398332D01*
X81990909Y-47507514D01*
X81990908Y-47507516D01*
X81984501Y-47567116D01*
X81984501Y-47567123D01*
X81984500Y-47567135D01*
X81984500Y-48422870D01*
X81984501Y-48422876D01*
X81990909Y-48482484D01*
X82027901Y-48581668D01*
X82032885Y-48651360D01*
X82027901Y-48668332D01*
X81990909Y-48767514D01*
X81990908Y-48767516D01*
X81984501Y-48827116D01*
X81984500Y-48827135D01*
X81984500Y-49682870D01*
X81984501Y-49682876D01*
X81990908Y-49742483D01*
X82041202Y-49877328D01*
X82041206Y-49877335D01*
X82127452Y-49992544D01*
X82127455Y-49992547D01*
X82242664Y-50078793D01*
X82242671Y-50078797D01*
X82377517Y-50129091D01*
X82377516Y-50129091D01*
X82384444Y-50129835D01*
X82437127Y-50135500D01*
X83755362Y-50135499D01*
X83822401Y-50155184D01*
X83868156Y-50207987D01*
X83878100Y-50277146D01*
X83876980Y-50283688D01*
X83874500Y-50296156D01*
X83874500Y-50453846D01*
X83905261Y-50608489D01*
X83905264Y-50608501D01*
X83965602Y-50754172D01*
X83965609Y-50754185D01*
X84053210Y-50885288D01*
X84053213Y-50885292D01*
X84164707Y-50996786D01*
X84164711Y-50996789D01*
X84295814Y-51084390D01*
X84295827Y-51084397D01*
X84441498Y-51144735D01*
X84441503Y-51144737D01*
X84596153Y-51175499D01*
X84596156Y-51175500D01*
X84596158Y-51175500D01*
X84753844Y-51175500D01*
X84753845Y-51175499D01*
X84908497Y-51144737D01*
X85054179Y-51084394D01*
X85185289Y-50996789D01*
X85296789Y-50885289D01*
X85384394Y-50754179D01*
X85421614Y-50664322D01*
X85437435Y-50626126D01*
X85481275Y-50571722D01*
X85547569Y-50549657D01*
X85615269Y-50566936D01*
X85662880Y-50618073D01*
X85673613Y-50649386D01*
X85705261Y-50808491D01*
X85705264Y-50808501D01*
X85765602Y-50954172D01*
X85765609Y-50954185D01*
X85853210Y-51085288D01*
X85853213Y-51085292D01*
X85964707Y-51196786D01*
X85964715Y-51196792D01*
X86027467Y-51238722D01*
X86072273Y-51292334D01*
X86080980Y-51361659D01*
X86050826Y-51424686D01*
X86046258Y-51429505D01*
X83916286Y-53559478D01*
X83804481Y-53671282D01*
X83804475Y-53671290D01*
X83767405Y-53735499D01*
X83767405Y-53735500D01*
X83725423Y-53808215D01*
X83684499Y-53960943D01*
X83684499Y-53960945D01*
X83684499Y-54129046D01*
X83684500Y-54129059D01*
X83684500Y-59830500D01*
X83664815Y-59897539D01*
X83612011Y-59943294D01*
X83560500Y-59954500D01*
X82437129Y-59954500D01*
X82437123Y-59954501D01*
X82377516Y-59960908D01*
X82242671Y-60011202D01*
X82242664Y-60011206D01*
X82127455Y-60097452D01*
X82127452Y-60097455D01*
X82041206Y-60212664D01*
X82041202Y-60212671D01*
X81990908Y-60347517D01*
X81984501Y-60407116D01*
X81984500Y-60407135D01*
X81984500Y-61262870D01*
X81984501Y-61262876D01*
X81990909Y-61322484D01*
X82029766Y-61426668D01*
X82034750Y-61496359D01*
X82029766Y-61513332D01*
X81990909Y-61617514D01*
X81990908Y-61617516D01*
X81984501Y-61677116D01*
X81984500Y-61677135D01*
X81984500Y-62532870D01*
X81984501Y-62532876D01*
X81990909Y-62592484D01*
X82029766Y-62696668D01*
X82034750Y-62766359D01*
X82029766Y-62783332D01*
X81990909Y-62887514D01*
X81990908Y-62887516D01*
X81984501Y-62947116D01*
X81984500Y-62947135D01*
X81984500Y-63802870D01*
X81984501Y-63802876D01*
X81990909Y-63862484D01*
X82029766Y-63966668D01*
X82034750Y-64036359D01*
X82029766Y-64053332D01*
X81990909Y-64157514D01*
X81990908Y-64157516D01*
X81984501Y-64217116D01*
X81984500Y-64217135D01*
X81984500Y-65072870D01*
X81984501Y-65072876D01*
X81990909Y-65132484D01*
X82027901Y-65231668D01*
X82032885Y-65301360D01*
X82027901Y-65318332D01*
X81990909Y-65417514D01*
X81990908Y-65417516D01*
X81984501Y-65477116D01*
X81984500Y-65477135D01*
X81984500Y-66332870D01*
X81984501Y-66332876D01*
X81990909Y-66392484D01*
X82029766Y-66496668D01*
X82034750Y-66566359D01*
X82029766Y-66583332D01*
X81990909Y-66687514D01*
X81990908Y-66687516D01*
X81984501Y-66747116D01*
X81984500Y-66747135D01*
X81984500Y-67602870D01*
X81984501Y-67602876D01*
X81990909Y-67662484D01*
X82031631Y-67771668D01*
X82036615Y-67841359D01*
X82031631Y-67858332D01*
X81990909Y-67967514D01*
X81990908Y-67967516D01*
X81984501Y-68027116D01*
X81984500Y-68027135D01*
X81984500Y-68882870D01*
X81984501Y-68882876D01*
X81990909Y-68942484D01*
X82027901Y-69041668D01*
X82032885Y-69111360D01*
X82027901Y-69128332D01*
X81990909Y-69227514D01*
X81990908Y-69227516D01*
X81984501Y-69287116D01*
X81984500Y-69287135D01*
X81984500Y-70142870D01*
X81984501Y-70142876D01*
X81990908Y-70202483D01*
X82041202Y-70337328D01*
X82041206Y-70337335D01*
X82127452Y-70452544D01*
X82127455Y-70452547D01*
X82242664Y-70538793D01*
X82242671Y-70538797D01*
X82377517Y-70589091D01*
X82377516Y-70589091D01*
X82384444Y-70589835D01*
X82437127Y-70595500D01*
X86132872Y-70595499D01*
X86192483Y-70589091D01*
X86327331Y-70538796D01*
X86442546Y-70452546D01*
X86507942Y-70365188D01*
X86563875Y-70323318D01*
X86607208Y-70315500D01*
X90193488Y-70315500D01*
X90236821Y-70323318D01*
X90292517Y-70344091D01*
X90292516Y-70344091D01*
X90299444Y-70344835D01*
X90352127Y-70350500D01*
X92147872Y-70350499D01*
X92207483Y-70344091D01*
X92342331Y-70293796D01*
X92457546Y-70207546D01*
X92543796Y-70092331D01*
X92592810Y-69960916D01*
X92634681Y-69904984D01*
X92700145Y-69880566D01*
X92768418Y-69895417D01*
X92796673Y-69916569D01*
X92910213Y-70030109D01*
X93082179Y-70155048D01*
X93082181Y-70155049D01*
X93082184Y-70155051D01*
X93271588Y-70251557D01*
X93473757Y-70317246D01*
X93683713Y-70350500D01*
X93683714Y-70350500D01*
X93896286Y-70350500D01*
X93896287Y-70350500D01*
X94106243Y-70317246D01*
X94308412Y-70251557D01*
X94497816Y-70155051D01*
X94584138Y-70092335D01*
X94602615Y-70078911D01*
X94668421Y-70055431D01*
X94736475Y-70071257D01*
X94785170Y-70121362D01*
X94799500Y-70179229D01*
X94799500Y-70587770D01*
X94779815Y-70654809D01*
X94763181Y-70675451D01*
X92780451Y-72658181D01*
X92719128Y-72691666D01*
X92692770Y-72694500D01*
X74010775Y-72694500D01*
X73943736Y-72674815D01*
X73897981Y-72622011D01*
X73888037Y-72552853D01*
X73917062Y-72489297D01*
X73923094Y-72482819D01*
X74016460Y-72389452D01*
X74016465Y-72389447D01*
X74186081Y-72168398D01*
X74325394Y-71927102D01*
X74432019Y-71669686D01*
X74504132Y-71400554D01*
X74540500Y-71124313D01*
X74540500Y-70845687D01*
X74504132Y-70569446D01*
X74432019Y-70300314D01*
X74325394Y-70042898D01*
X74325392Y-70042895D01*
X74325390Y-70042890D01*
X74186085Y-69801609D01*
X74186081Y-69801602D01*
X74114117Y-69707816D01*
X74016466Y-69580554D01*
X74016460Y-69580547D01*
X73819452Y-69383539D01*
X73819445Y-69383533D01*
X73598406Y-69213925D01*
X73598404Y-69213923D01*
X73598398Y-69213919D01*
X73598393Y-69213916D01*
X73598390Y-69213914D01*
X73357109Y-69074609D01*
X73357098Y-69074604D01*
X73099695Y-68967984D01*
X73099688Y-68967982D01*
X73099686Y-68967981D01*
X72830554Y-68895868D01*
X72830548Y-68895867D01*
X72830543Y-68895866D01*
X72554322Y-68859501D01*
X72554319Y-68859500D01*
X72554313Y-68859500D01*
X72275687Y-68859500D01*
X72275681Y-68859500D01*
X72275677Y-68859501D01*
X71999456Y-68895866D01*
X71999449Y-68895867D01*
X71999446Y-68895868D01*
X71825475Y-68942483D01*
X71730314Y-68967981D01*
X71730304Y-68967984D01*
X71472901Y-69074604D01*
X71472890Y-69074609D01*
X71231609Y-69213914D01*
X71231593Y-69213925D01*
X71010554Y-69383533D01*
X71010547Y-69383539D01*
X70813539Y-69580547D01*
X70813533Y-69580554D01*
X70643925Y-69801593D01*
X70643914Y-69801609D01*
X70504609Y-70042890D01*
X70504604Y-70042901D01*
X70397984Y-70300304D01*
X70397981Y-70300314D01*
X70384535Y-70350498D01*
X70359275Y-70444770D01*
X70322910Y-70504431D01*
X70260063Y-70534960D01*
X70190688Y-70526665D01*
X70136810Y-70482180D01*
X70115535Y-70415628D01*
X70115500Y-70412677D01*
X70115500Y-60127322D01*
X70135185Y-60060283D01*
X70187989Y-60014528D01*
X70257147Y-60004584D01*
X70320703Y-60033609D01*
X70358477Y-60092387D01*
X70359258Y-60095169D01*
X70397981Y-60239685D01*
X70397984Y-60239695D01*
X70504604Y-60497098D01*
X70504609Y-60497109D01*
X70643914Y-60738390D01*
X70643925Y-60738406D01*
X70813533Y-60959445D01*
X70813539Y-60959452D01*
X71010547Y-61156460D01*
X71010554Y-61156466D01*
X71076659Y-61207190D01*
X71231602Y-61326081D01*
X71231609Y-61326085D01*
X71472890Y-61465390D01*
X71472895Y-61465392D01*
X71472898Y-61465394D01*
X71730314Y-61572019D01*
X71999446Y-61644132D01*
X72275687Y-61680500D01*
X72275694Y-61680500D01*
X72554306Y-61680500D01*
X72554313Y-61680500D01*
X72830554Y-61644132D01*
X73099686Y-61572019D01*
X73357102Y-61465394D01*
X73598398Y-61326081D01*
X73819447Y-61156465D01*
X74016465Y-60959447D01*
X74186081Y-60738398D01*
X74325394Y-60497102D01*
X74432019Y-60239686D01*
X74504132Y-59970554D01*
X74540500Y-59694313D01*
X74540500Y-59415687D01*
X74504132Y-59139446D01*
X74432019Y-58870314D01*
X74325394Y-58612898D01*
X74325392Y-58612895D01*
X74325390Y-58612890D01*
X74186085Y-58371609D01*
X74186081Y-58371602D01*
X74091622Y-58248500D01*
X74016466Y-58150554D01*
X74016460Y-58150547D01*
X73819452Y-57953539D01*
X73819445Y-57953533D01*
X73598406Y-57783925D01*
X73598404Y-57783923D01*
X73598398Y-57783919D01*
X73598393Y-57783916D01*
X73598390Y-57783914D01*
X73357109Y-57644609D01*
X73357098Y-57644604D01*
X73099695Y-57537984D01*
X73099688Y-57537982D01*
X73099686Y-57537981D01*
X72830554Y-57465868D01*
X72830548Y-57465867D01*
X72830543Y-57465866D01*
X72554322Y-57429501D01*
X72554319Y-57429500D01*
X72554313Y-57429500D01*
X72275687Y-57429500D01*
X72275681Y-57429500D01*
X72275677Y-57429501D01*
X71999456Y-57465866D01*
X71999449Y-57465867D01*
X71999446Y-57465868D01*
X71730314Y-57537981D01*
X71730304Y-57537984D01*
X71472901Y-57644604D01*
X71472890Y-57644609D01*
X71321499Y-57732016D01*
X71253599Y-57748489D01*
X71187572Y-57725637D01*
X71144381Y-57670715D01*
X71135499Y-57624629D01*
X71135499Y-55497129D01*
X71135498Y-55497123D01*
X71129091Y-55437516D01*
X71078797Y-55302671D01*
X71078793Y-55302664D01*
X71027123Y-55233643D01*
X70992546Y-55187454D01*
X70934854Y-55144265D01*
X70892984Y-55088333D01*
X70888000Y-55018641D01*
X70921485Y-54957318D01*
X70934850Y-54945736D01*
X70992546Y-54902546D01*
X71078796Y-54787331D01*
X71129091Y-54652483D01*
X71135500Y-54592873D01*
X71135499Y-52455369D01*
X71155184Y-52388331D01*
X71207987Y-52342576D01*
X71277146Y-52332632D01*
X71321496Y-52347981D01*
X71472898Y-52435394D01*
X71730314Y-52542019D01*
X71999446Y-52614132D01*
X72275687Y-52650500D01*
X72275694Y-52650500D01*
X72554306Y-52650500D01*
X72554313Y-52650500D01*
X72830554Y-52614132D01*
X73099686Y-52542019D01*
X73357102Y-52435394D01*
X73598398Y-52296081D01*
X73819447Y-52126465D01*
X74016465Y-51929447D01*
X74186081Y-51708398D01*
X74325394Y-51467102D01*
X74432019Y-51209686D01*
X74504132Y-50940554D01*
X74540500Y-50664313D01*
X74540500Y-50385687D01*
X74504132Y-50109446D01*
X74432019Y-49840314D01*
X74325394Y-49582898D01*
X74325392Y-49582895D01*
X74325390Y-49582890D01*
X74186085Y-49341609D01*
X74186081Y-49341602D01*
X74016465Y-49120553D01*
X74016460Y-49120547D01*
X73819452Y-48923539D01*
X73819445Y-48923533D01*
X73598406Y-48753925D01*
X73598404Y-48753923D01*
X73598398Y-48753919D01*
X73598393Y-48753916D01*
X73598390Y-48753914D01*
X73357109Y-48614609D01*
X73357098Y-48614604D01*
X73099695Y-48507984D01*
X73099688Y-48507982D01*
X73099686Y-48507981D01*
X72830554Y-48435868D01*
X72830548Y-48435867D01*
X72830543Y-48435866D01*
X72554322Y-48399501D01*
X72554319Y-48399500D01*
X72554313Y-48399500D01*
X72275687Y-48399500D01*
X72275681Y-48399500D01*
X72275677Y-48399501D01*
X71999456Y-48435866D01*
X71999449Y-48435867D01*
X71999446Y-48435868D01*
X71825475Y-48482483D01*
X71730314Y-48507981D01*
X71730304Y-48507984D01*
X71472901Y-48614604D01*
X71472890Y-48614609D01*
X71231609Y-48753914D01*
X71231593Y-48753925D01*
X71010554Y-48923533D01*
X71010547Y-48923539D01*
X70813539Y-49120547D01*
X70813533Y-49120554D01*
X70643925Y-49341593D01*
X70643914Y-49341609D01*
X70504609Y-49582890D01*
X70504604Y-49582901D01*
X70397984Y-49840304D01*
X70397981Y-49840314D01*
X70379934Y-49907669D01*
X70359275Y-49984770D01*
X70322910Y-50044431D01*
X70260063Y-50074960D01*
X70190688Y-50066665D01*
X70136810Y-50022180D01*
X70115535Y-49955628D01*
X70115500Y-49952677D01*
X70115500Y-39667322D01*
X70135185Y-39600283D01*
X70187989Y-39554528D01*
X70257147Y-39544584D01*
X70320703Y-39573609D01*
X70358477Y-39632387D01*
X70359258Y-39635169D01*
X70397981Y-39779685D01*
X70397984Y-39779695D01*
X70504604Y-40037098D01*
X70504609Y-40037109D01*
X70643914Y-40278390D01*
X70643925Y-40278406D01*
X70813533Y-40499445D01*
X70813539Y-40499452D01*
X71010547Y-40696460D01*
X71010554Y-40696466D01*
X71023245Y-40706204D01*
X71231602Y-40866081D01*
X71231609Y-40866085D01*
X71472890Y-41005390D01*
X71472895Y-41005392D01*
X71472898Y-41005394D01*
X71588631Y-41053332D01*
X71706432Y-41102127D01*
X71730314Y-41112019D01*
X71999446Y-41184132D01*
X72275687Y-41220500D01*
X72275694Y-41220500D01*
X72554306Y-41220500D01*
X72554313Y-41220500D01*
X72830554Y-41184132D01*
X73099686Y-41112019D01*
X73357102Y-41005394D01*
X73598398Y-40866081D01*
X73819447Y-40696465D01*
X74016465Y-40499447D01*
X74186081Y-40278398D01*
X74325394Y-40037102D01*
X74432019Y-39779686D01*
X74504132Y-39510554D01*
X74540500Y-39234313D01*
X74540500Y-38955687D01*
X74504132Y-38679446D01*
X74432019Y-38410314D01*
X74325394Y-38152898D01*
X74325392Y-38152895D01*
X74325390Y-38152890D01*
X74186085Y-37911609D01*
X74186081Y-37911602D01*
X74094656Y-37792454D01*
X74016466Y-37690554D01*
X74016460Y-37690547D01*
X73933094Y-37607181D01*
X73899609Y-37545858D01*
X73904593Y-37476166D01*
X73946465Y-37420233D01*
X74011929Y-37395816D01*
X74020775Y-37395500D01*
X88532770Y-37395500D01*
X88599809Y-37415185D01*
G37*
%TD.AperFunction*%
%TA.AperFunction,Conductor*%
G36*
X67730703Y-59016241D02*
G01*
X67737181Y-59022273D01*
X67737455Y-59022547D01*
X67852664Y-59108793D01*
X67852671Y-59108797D01*
X67897618Y-59125561D01*
X67987517Y-59159091D01*
X68047127Y-59165500D01*
X68490500Y-59165499D01*
X68557539Y-59185183D01*
X68603294Y-59237987D01*
X68614500Y-59289499D01*
X68614500Y-71260500D01*
X68594815Y-71327539D01*
X68542011Y-71373294D01*
X68490500Y-71384500D01*
X68047129Y-71384500D01*
X68047123Y-71384501D01*
X67987516Y-71390908D01*
X67852671Y-71441202D01*
X67852664Y-71441206D01*
X67737455Y-71527452D01*
X67737181Y-71527727D01*
X67736840Y-71527912D01*
X67730355Y-71532768D01*
X67729656Y-71531835D01*
X67675858Y-71561212D01*
X67606166Y-71556228D01*
X67550233Y-71514356D01*
X67525816Y-71448892D01*
X67525500Y-71440046D01*
X67525500Y-59109954D01*
X67545185Y-59042915D01*
X67597989Y-58997160D01*
X67667147Y-58987216D01*
X67730703Y-59016241D01*
G37*
%TD.AperFunction*%
%TA.AperFunction,Conductor*%
G36*
X90054217Y-50070185D02*
G01*
X90099972Y-50122989D01*
X90109916Y-50192147D01*
X90087497Y-50247384D01*
X90054950Y-50292181D01*
X89958444Y-50481585D01*
X89892753Y-50683760D01*
X89859500Y-50893713D01*
X89859500Y-51106286D01*
X89892754Y-51316244D01*
X89892754Y-51316247D01*
X89906491Y-51358523D01*
X89908486Y-51428364D01*
X89876241Y-51484522D01*
X86456286Y-54904478D01*
X86344481Y-55016282D01*
X86344479Y-55016285D01*
X86312347Y-55071941D01*
X86312346Y-55071943D01*
X86265423Y-55153214D01*
X86256248Y-55187456D01*
X86224499Y-55305943D01*
X86224499Y-55305945D01*
X86224499Y-55474046D01*
X86224500Y-55474059D01*
X86224500Y-59830500D01*
X86204815Y-59897539D01*
X86152011Y-59943294D01*
X86100500Y-59954500D01*
X85009500Y-59954500D01*
X84942461Y-59934815D01*
X84896706Y-59882011D01*
X84885500Y-59830500D01*
X84885500Y-54340097D01*
X84905185Y-54273058D01*
X84921819Y-54252416D01*
X89087416Y-50086819D01*
X89148739Y-50053334D01*
X89175097Y-50050500D01*
X89987178Y-50050500D01*
X90054217Y-50070185D01*
G37*
%TD.AperFunction*%
%TA.AperFunction,Conductor*%
G36*
X67730703Y-38556241D02*
G01*
X67737181Y-38562273D01*
X67737455Y-38562547D01*
X67852664Y-38648793D01*
X67852671Y-38648797D01*
X67897618Y-38665561D01*
X67987517Y-38699091D01*
X68047127Y-38705500D01*
X68490500Y-38705499D01*
X68557539Y-38725183D01*
X68603294Y-38777987D01*
X68614500Y-38829499D01*
X68614500Y-50800500D01*
X68594815Y-50867539D01*
X68542011Y-50913294D01*
X68490500Y-50924500D01*
X68047129Y-50924500D01*
X68047123Y-50924501D01*
X67987516Y-50930908D01*
X67852671Y-50981202D01*
X67852664Y-50981206D01*
X67737455Y-51067452D01*
X67737181Y-51067727D01*
X67736840Y-51067912D01*
X67730355Y-51072768D01*
X67729656Y-51071835D01*
X67675858Y-51101212D01*
X67606166Y-51096228D01*
X67550233Y-51054356D01*
X67525816Y-50988892D01*
X67525500Y-50980046D01*
X67525500Y-38649954D01*
X67545185Y-38582915D01*
X67597989Y-38537160D01*
X67667147Y-38527216D01*
X67730703Y-38556241D01*
G37*
%TD.AperFunction*%
%TA.AperFunction,Conductor*%
G36*
X89654343Y-47324144D02*
G01*
X89684330Y-47330668D01*
X89689345Y-47334422D01*
X89691942Y-47335185D01*
X89712583Y-47351818D01*
X89876241Y-47515476D01*
X89909726Y-47576799D01*
X89906492Y-47641473D01*
X89892753Y-47683757D01*
X89859500Y-47893713D01*
X89859500Y-48106287D01*
X89892754Y-48316243D01*
X89958443Y-48518412D01*
X90026183Y-48651360D01*
X90035276Y-48669205D01*
X90048172Y-48737874D01*
X90021896Y-48802615D01*
X89964789Y-48842872D01*
X89924791Y-48849500D01*
X88954057Y-48849500D01*
X88795942Y-48849500D01*
X88643215Y-48890423D01*
X88643214Y-48890423D01*
X88643212Y-48890424D01*
X88643209Y-48890425D01*
X88593096Y-48919359D01*
X88593095Y-48919360D01*
X88585864Y-48923535D01*
X88506285Y-48969479D01*
X88506282Y-48969481D01*
X87337181Y-50138583D01*
X87275858Y-50172068D01*
X87206166Y-50167084D01*
X87150233Y-50125212D01*
X87125816Y-50059748D01*
X87125500Y-50050902D01*
X87125500Y-48735945D01*
X87125500Y-48735943D01*
X87089208Y-48600500D01*
X87084577Y-48583215D01*
X87047163Y-48518412D01*
X87026420Y-48482484D01*
X87005524Y-48446290D01*
X87005521Y-48446286D01*
X87005520Y-48446284D01*
X86893716Y-48334480D01*
X86893715Y-48334479D01*
X86889385Y-48330149D01*
X86889374Y-48330139D01*
X86621818Y-48062583D01*
X86588333Y-48001260D01*
X86585499Y-47974902D01*
X86585499Y-47567129D01*
X86585498Y-47567123D01*
X86579091Y-47507517D01*
X86579090Y-47507514D01*
X86569885Y-47482832D01*
X86564901Y-47413140D01*
X86598387Y-47351818D01*
X86659711Y-47318333D01*
X86686067Y-47315500D01*
X89624903Y-47315500D01*
X89654343Y-47324144D01*
G37*
%TD.AperFunction*%
%TD*%
M02*
