%TF.GenerationSoftware,KiCad,Pcbnew,9.0.2*%
%TF.CreationDate,2025-05-18T01:54:37+02:00*%
%TF.ProjectId,RJ45 Adapter,524a3435-2041-4646-9170-7465722e6b69,rev?*%
%TF.SameCoordinates,Original*%
%TF.FileFunction,Copper,L2,Bot*%
%TF.FilePolarity,Positive*%
%FSLAX46Y46*%
G04 Gerber Fmt 4.6, Leading zero omitted, Abs format (unit mm)*
G04 Created by KiCad (PCBNEW 9.0.2) date 2025-05-18 01:54:37*
%MOMM*%
%LPD*%
G01*
G04 APERTURE LIST*
%TA.AperFunction,ComponentPad*%
%ADD10R,1.700000X1.700000*%
%TD*%
%TA.AperFunction,ComponentPad*%
%ADD11C,1.700000*%
%TD*%
%TA.AperFunction,ComponentPad*%
%ADD12C,3.250000*%
%TD*%
%TA.AperFunction,ViaPad*%
%ADD13C,0.600000*%
%TD*%
%TA.AperFunction,Conductor*%
%ADD14C,0.200000*%
%TD*%
G04 APERTURE END LIST*
D10*
%TO.P,JP3,1,1*%
%TO.N,/C8+*%
X93750000Y-45000000D03*
D11*
%TO.P,JP3,2,2*%
%TO.N,/C9+*%
X91210000Y-45000000D03*
%TD*%
D10*
%TO.P,JP1,1,1*%
%TO.N,/C12+POWER*%
X91250000Y-39000000D03*
D11*
%TO.P,JP1,2,2*%
%TO.N,/C12+*%
X93790000Y-39000000D03*
%TD*%
D10*
%TO.P,JP4,1,1*%
%TO.N,/C6+*%
X93750000Y-48000000D03*
D11*
%TO.P,JP4,2,2*%
%TO.N,/C7+*%
X91210000Y-48000000D03*
%TD*%
D10*
%TO.P,JP5,1,1*%
%TO.N,unconnected-(JP5-Pad1)*%
X93750000Y-51000000D03*
D11*
%TO.P,JP5,2,2*%
%TO.N,/C5+*%
X91210000Y-51000000D03*
%TD*%
D10*
%TO.P,JP7,1,1*%
%TO.N,/C2+*%
X93750000Y-57000000D03*
D11*
%TO.P,JP7,2,2*%
%TO.N,/C3+*%
X91210000Y-57000000D03*
%TD*%
D10*
%TO.P,JP9,1,1*%
%TO.N,/C1-*%
X93750000Y-63000000D03*
D11*
%TO.P,JP9,2,2*%
%TO.N,unconnected-(JP9-Pad2)*%
X91210000Y-63000000D03*
%TD*%
D10*
%TO.P,JP10,1,1*%
%TO.N,/VREF2*%
X91250000Y-66000000D03*
D11*
%TO.P,JP10,2,2*%
X93790000Y-66000000D03*
%TD*%
D10*
%TO.P,JP2,1,1*%
%TO.N,/C10+*%
X93750000Y-42000000D03*
D11*
%TO.P,JP2,2,2*%
%TO.N,/C11+*%
X91210000Y-42000000D03*
%TD*%
D12*
%TO.P,RJ2,*%
%TO.N,*%
X72415000Y-39095000D03*
X72415000Y-50525000D03*
%TD*%
D10*
%TO.P,JP11,1,1*%
%TO.N,/VTEMP1*%
X91250000Y-69000000D03*
D11*
%TO.P,JP11,2,2*%
%TO.N,/VTEMP2*%
X93790000Y-69000000D03*
%TD*%
D10*
%TO.P,JP8,1,1*%
%TO.N,GND*%
X93750000Y-60000000D03*
D11*
%TO.P,JP8,2,2*%
%TO.N,/C1+*%
X91210000Y-60000000D03*
%TD*%
D10*
%TO.P,JP6,1,1*%
%TO.N,/C4+*%
X93750000Y-54000000D03*
D11*
%TO.P,JP6,2,2*%
%TO.N,unconnected-(JP6-Pad2)*%
X91210000Y-54000000D03*
%TD*%
D12*
%TO.P,RJ1,*%
%TO.N,*%
X72415000Y-59555000D03*
X72415000Y-70985000D03*
%TD*%
D13*
%TO.N,GND*%
X70550000Y-40900000D03*
X72825000Y-34625000D03*
X81500000Y-71975000D03*
X80825000Y-65950000D03*
X91775000Y-72100000D03*
X82000000Y-37700000D03*
X75625000Y-51550000D03*
X96150000Y-74750000D03*
X71975000Y-56525000D03*
X68250000Y-69675000D03*
X89525000Y-75300000D03*
X70600000Y-48575000D03*
X75700000Y-38025000D03*
X68225000Y-60500000D03*
X88925000Y-51000000D03*
X70625000Y-64925000D03*
X87900000Y-37750000D03*
X70575000Y-61400000D03*
X85475000Y-58875000D03*
X85400000Y-54450000D03*
X72100000Y-75850000D03*
X89950000Y-34450000D03*
X96100000Y-43725000D03*
X95375000Y-35175000D03*
X68100000Y-39575000D03*
X78450000Y-44600000D03*
X79725000Y-75600000D03*
X76575000Y-60475000D03*
X96225000Y-62025000D03*
X70650000Y-68975000D03*
X80650000Y-34700000D03*
X75875000Y-71800000D03*
X68000000Y-49925000D03*
X70825000Y-44725000D03*
X96250000Y-51900000D03*
X88125000Y-48325000D03*
X84000000Y-52150000D03*
X83150000Y-56625000D03*
X96825000Y-70525000D03*
%TO.N,/VREF2*%
X86475000Y-50575000D03*
%TO.N,/VTEMP2*%
X84675000Y-50375000D03*
%TD*%
D14*
%TO.N,/VREF2*%
X89050000Y-66000000D02*
X91250000Y-66000000D01*
X88225000Y-65175000D02*
X89050000Y-66000000D01*
X88200000Y-65175000D02*
X88225000Y-65175000D01*
X88200000Y-52300000D02*
X88200000Y-65175000D01*
X86475000Y-50575000D02*
X88200000Y-52300000D01*
%TO.N,/VTEMP2*%
X89275000Y-67600000D02*
X87100000Y-65425000D01*
X87100000Y-52800000D02*
X84675000Y-50375000D01*
X87100000Y-55950000D02*
X87100000Y-52800000D01*
X87100000Y-65425000D02*
X87100000Y-55950000D01*
X84675000Y-50375000D02*
X84725000Y-50325000D01*
X92390000Y-67600000D02*
X89275000Y-67600000D01*
X93790000Y-69000000D02*
X92390000Y-67600000D01*
%TD*%
%TA.AperFunction,Conductor*%
%TO.N,GND*%
G36*
X97192539Y-33495185D02*
G01*
X97238294Y-33547989D01*
X97249500Y-33599500D01*
X97249500Y-76750500D01*
X97229815Y-76817539D01*
X97177011Y-76863294D01*
X97125500Y-76874500D01*
X67649500Y-76874500D01*
X67582461Y-76854815D01*
X67536706Y-76802011D01*
X67525500Y-76750500D01*
X67525500Y-70845693D01*
X70289500Y-70845693D01*
X70289500Y-71124306D01*
X70289501Y-71124322D01*
X70325866Y-71400543D01*
X70325867Y-71400548D01*
X70325868Y-71400554D01*
X70325869Y-71400556D01*
X70397981Y-71669685D01*
X70397984Y-71669695D01*
X70504604Y-71927098D01*
X70504609Y-71927109D01*
X70643914Y-72168390D01*
X70643925Y-72168406D01*
X70813533Y-72389445D01*
X70813539Y-72389452D01*
X71010547Y-72586460D01*
X71010553Y-72586465D01*
X71231602Y-72756081D01*
X71231609Y-72756085D01*
X71472890Y-72895390D01*
X71472895Y-72895392D01*
X71472898Y-72895394D01*
X71730314Y-73002019D01*
X71999446Y-73074132D01*
X72275687Y-73110500D01*
X72275694Y-73110500D01*
X72554306Y-73110500D01*
X72554313Y-73110500D01*
X72830554Y-73074132D01*
X73099686Y-73002019D01*
X73357102Y-72895394D01*
X73598398Y-72756081D01*
X73819447Y-72586465D01*
X74016465Y-72389447D01*
X74186081Y-72168398D01*
X74325394Y-71927102D01*
X74432019Y-71669686D01*
X74504132Y-71400554D01*
X74540500Y-71124313D01*
X74540500Y-70845687D01*
X74504132Y-70569446D01*
X74432019Y-70300314D01*
X74325394Y-70042898D01*
X74325392Y-70042895D01*
X74325390Y-70042890D01*
X74186085Y-69801609D01*
X74186081Y-69801602D01*
X74114117Y-69707816D01*
X74016466Y-69580554D01*
X74016460Y-69580547D01*
X73819452Y-69383539D01*
X73819445Y-69383533D01*
X73598406Y-69213925D01*
X73598404Y-69213923D01*
X73598398Y-69213919D01*
X73598393Y-69213916D01*
X73598390Y-69213914D01*
X73357109Y-69074609D01*
X73357098Y-69074604D01*
X73099695Y-68967984D01*
X73099688Y-68967982D01*
X73099686Y-68967981D01*
X72830554Y-68895868D01*
X72830548Y-68895867D01*
X72830543Y-68895866D01*
X72554322Y-68859501D01*
X72554319Y-68859500D01*
X72554313Y-68859500D01*
X72275687Y-68859500D01*
X72275681Y-68859500D01*
X72275677Y-68859501D01*
X71999456Y-68895866D01*
X71999449Y-68895867D01*
X71999446Y-68895868D01*
X71730314Y-68967981D01*
X71730304Y-68967984D01*
X71472901Y-69074604D01*
X71472890Y-69074609D01*
X71231609Y-69213914D01*
X71231593Y-69213925D01*
X71010554Y-69383533D01*
X71010547Y-69383539D01*
X70813539Y-69580547D01*
X70813533Y-69580554D01*
X70643925Y-69801593D01*
X70643914Y-69801609D01*
X70504609Y-70042890D01*
X70504604Y-70042901D01*
X70397984Y-70300304D01*
X70397981Y-70300314D01*
X70325869Y-70569443D01*
X70325866Y-70569456D01*
X70289501Y-70845677D01*
X70289500Y-70845693D01*
X67525500Y-70845693D01*
X67525500Y-59415693D01*
X70289500Y-59415693D01*
X70289500Y-59694306D01*
X70289501Y-59694322D01*
X70325866Y-59970543D01*
X70325867Y-59970548D01*
X70325868Y-59970554D01*
X70385470Y-60192993D01*
X70397981Y-60239685D01*
X70397984Y-60239695D01*
X70504604Y-60497098D01*
X70504609Y-60497109D01*
X70643914Y-60738390D01*
X70643925Y-60738406D01*
X70813533Y-60959445D01*
X70813539Y-60959452D01*
X71010547Y-61156460D01*
X71010554Y-61156466D01*
X71076659Y-61207190D01*
X71231602Y-61326081D01*
X71231609Y-61326085D01*
X71472890Y-61465390D01*
X71472895Y-61465392D01*
X71472898Y-61465394D01*
X71730314Y-61572019D01*
X71999446Y-61644132D01*
X72275687Y-61680500D01*
X72275694Y-61680500D01*
X72554306Y-61680500D01*
X72554313Y-61680500D01*
X72830554Y-61644132D01*
X73099686Y-61572019D01*
X73357102Y-61465394D01*
X73598398Y-61326081D01*
X73819447Y-61156465D01*
X74016465Y-60959447D01*
X74186081Y-60738398D01*
X74325394Y-60497102D01*
X74432019Y-60239686D01*
X74504132Y-59970554D01*
X74540500Y-59694313D01*
X74540500Y-59415687D01*
X74504132Y-59139446D01*
X74432019Y-58870314D01*
X74421512Y-58844949D01*
X74325395Y-58612901D01*
X74325390Y-58612890D01*
X74186085Y-58371609D01*
X74186081Y-58371602D01*
X74060196Y-58207544D01*
X74016466Y-58150554D01*
X74016460Y-58150547D01*
X73819452Y-57953539D01*
X73819445Y-57953533D01*
X73598406Y-57783925D01*
X73598404Y-57783923D01*
X73598398Y-57783919D01*
X73598393Y-57783916D01*
X73598390Y-57783914D01*
X73357109Y-57644609D01*
X73357098Y-57644604D01*
X73099695Y-57537984D01*
X73099688Y-57537982D01*
X73099686Y-57537981D01*
X72830554Y-57465868D01*
X72830548Y-57465867D01*
X72830543Y-57465866D01*
X72554322Y-57429501D01*
X72554319Y-57429500D01*
X72554313Y-57429500D01*
X72275687Y-57429500D01*
X72275681Y-57429500D01*
X72275677Y-57429501D01*
X71999456Y-57465866D01*
X71999449Y-57465867D01*
X71999446Y-57465868D01*
X71803347Y-57518412D01*
X71730314Y-57537981D01*
X71730304Y-57537984D01*
X71472901Y-57644604D01*
X71472890Y-57644609D01*
X71231609Y-57783914D01*
X71231593Y-57783925D01*
X71010554Y-57953533D01*
X71010547Y-57953539D01*
X70813539Y-58150547D01*
X70813533Y-58150554D01*
X70643925Y-58371593D01*
X70643914Y-58371609D01*
X70504609Y-58612890D01*
X70504604Y-58612901D01*
X70397984Y-58870304D01*
X70397981Y-58870314D01*
X70331022Y-59120213D01*
X70325869Y-59139443D01*
X70325866Y-59139456D01*
X70289501Y-59415677D01*
X70289500Y-59415693D01*
X67525500Y-59415693D01*
X67525500Y-50385693D01*
X70289500Y-50385693D01*
X70289500Y-50664306D01*
X70289501Y-50664322D01*
X70325866Y-50940543D01*
X70325867Y-50940548D01*
X70325868Y-50940554D01*
X70397951Y-51209574D01*
X70397981Y-51209685D01*
X70397984Y-51209695D01*
X70504604Y-51467098D01*
X70504609Y-51467109D01*
X70643914Y-51708390D01*
X70643925Y-51708406D01*
X70813533Y-51929445D01*
X70813539Y-51929452D01*
X71010547Y-52126460D01*
X71010554Y-52126466D01*
X71105737Y-52199502D01*
X71231602Y-52296081D01*
X71231609Y-52296085D01*
X71472890Y-52435390D01*
X71472895Y-52435392D01*
X71472898Y-52435394D01*
X71730314Y-52542019D01*
X71999446Y-52614132D01*
X72275687Y-52650500D01*
X72275694Y-52650500D01*
X72554306Y-52650500D01*
X72554313Y-52650500D01*
X72830554Y-52614132D01*
X73099686Y-52542019D01*
X73357102Y-52435394D01*
X73598398Y-52296081D01*
X73819447Y-52126465D01*
X74016465Y-51929447D01*
X74186081Y-51708398D01*
X74325394Y-51467102D01*
X74432019Y-51209686D01*
X74504132Y-50940554D01*
X74540500Y-50664313D01*
X74540500Y-50385687D01*
X74528713Y-50296153D01*
X83874500Y-50296153D01*
X83874500Y-50453846D01*
X83905261Y-50608489D01*
X83905264Y-50608501D01*
X83965602Y-50754172D01*
X83965609Y-50754185D01*
X84053210Y-50885288D01*
X84053213Y-50885292D01*
X84164707Y-50996786D01*
X84164711Y-50996789D01*
X84295814Y-51084390D01*
X84295827Y-51084397D01*
X84441498Y-51144735D01*
X84441503Y-51144737D01*
X84506147Y-51157595D01*
X84596849Y-51175638D01*
X84658760Y-51208023D01*
X84660339Y-51209574D01*
X86463181Y-53012416D01*
X86496666Y-53073739D01*
X86499500Y-53100097D01*
X86499500Y-65338330D01*
X86499499Y-65338348D01*
X86499499Y-65504054D01*
X86499498Y-65504054D01*
X86499499Y-65504057D01*
X86540423Y-65656785D01*
X86555997Y-65683760D01*
X86569358Y-65706900D01*
X86569359Y-65706904D01*
X86569360Y-65706904D01*
X86619479Y-65793714D01*
X86619481Y-65793717D01*
X86738349Y-65912585D01*
X86738355Y-65912590D01*
X88790139Y-67964374D01*
X88790149Y-67964385D01*
X88794479Y-67968715D01*
X88794480Y-67968716D01*
X88906284Y-68080520D01*
X88906286Y-68080521D01*
X88906290Y-68080524D01*
X89043209Y-68159573D01*
X89043216Y-68159577D01*
X89155019Y-68189534D01*
X89195942Y-68200500D01*
X89195943Y-68200500D01*
X89775500Y-68200500D01*
X89842539Y-68220185D01*
X89888294Y-68272989D01*
X89899500Y-68324500D01*
X89899500Y-69897870D01*
X89899501Y-69897876D01*
X89905908Y-69957483D01*
X89956202Y-70092328D01*
X89956206Y-70092335D01*
X90042452Y-70207544D01*
X90042455Y-70207547D01*
X90157664Y-70293793D01*
X90157671Y-70293797D01*
X90292517Y-70344091D01*
X90292516Y-70344091D01*
X90299444Y-70344835D01*
X90352127Y-70350500D01*
X92147872Y-70350499D01*
X92207483Y-70344091D01*
X92342331Y-70293796D01*
X92457546Y-70207546D01*
X92543796Y-70092331D01*
X92592810Y-69960916D01*
X92634681Y-69904984D01*
X92700145Y-69880566D01*
X92768418Y-69895417D01*
X92796673Y-69916569D01*
X92910213Y-70030109D01*
X93082179Y-70155048D01*
X93082181Y-70155049D01*
X93082184Y-70155051D01*
X93271588Y-70251557D01*
X93473757Y-70317246D01*
X93683713Y-70350500D01*
X93683714Y-70350500D01*
X93896286Y-70350500D01*
X93896287Y-70350500D01*
X94106243Y-70317246D01*
X94308412Y-70251557D01*
X94497816Y-70155051D01*
X94584138Y-70092335D01*
X94669786Y-70030109D01*
X94669788Y-70030106D01*
X94669792Y-70030104D01*
X94820104Y-69879792D01*
X94820106Y-69879788D01*
X94820109Y-69879786D01*
X94945048Y-69707820D01*
X94945047Y-69707820D01*
X94945051Y-69707816D01*
X95041557Y-69518412D01*
X95107246Y-69316243D01*
X95140500Y-69106287D01*
X95140500Y-68893713D01*
X95107246Y-68683757D01*
X95041557Y-68481588D01*
X94945051Y-68292184D01*
X94945049Y-68292181D01*
X94945048Y-68292179D01*
X94820109Y-68120213D01*
X94669786Y-67969890D01*
X94497820Y-67844951D01*
X94308414Y-67748444D01*
X94308413Y-67748443D01*
X94308412Y-67748443D01*
X94106243Y-67682754D01*
X94106241Y-67682753D01*
X94106240Y-67682753D01*
X93944957Y-67657208D01*
X93896287Y-67649500D01*
X93683713Y-67649500D01*
X93655006Y-67654046D01*
X93473757Y-67682753D01*
X93431473Y-67696492D01*
X93361632Y-67698486D01*
X93305476Y-67666241D01*
X93048802Y-67409567D01*
X93015317Y-67348244D01*
X93020301Y-67278552D01*
X93062173Y-67222619D01*
X93127637Y-67198202D01*
X93192776Y-67211400D01*
X93271588Y-67251557D01*
X93473757Y-67317246D01*
X93683713Y-67350500D01*
X93683714Y-67350500D01*
X93896286Y-67350500D01*
X93896287Y-67350500D01*
X94106243Y-67317246D01*
X94308412Y-67251557D01*
X94497816Y-67155051D01*
X94546776Y-67119480D01*
X94669786Y-67030109D01*
X94669788Y-67030106D01*
X94669792Y-67030104D01*
X94820104Y-66879792D01*
X94820106Y-66879788D01*
X94820109Y-66879786D01*
X94945048Y-66707820D01*
X94945047Y-66707820D01*
X94945051Y-66707816D01*
X95041557Y-66518412D01*
X95107246Y-66316243D01*
X95140500Y-66106287D01*
X95140500Y-65893713D01*
X95107246Y-65683757D01*
X95041557Y-65481588D01*
X94945051Y-65292184D01*
X94945049Y-65292181D01*
X94945048Y-65292179D01*
X94820109Y-65120213D01*
X94669786Y-64969890D01*
X94497820Y-64844951D01*
X94308414Y-64748444D01*
X94308413Y-64748443D01*
X94308412Y-64748443D01*
X94106243Y-64682754D01*
X94106241Y-64682753D01*
X94106240Y-64682753D01*
X93944957Y-64657208D01*
X93896287Y-64649500D01*
X93683713Y-64649500D01*
X93635042Y-64657208D01*
X93473760Y-64682753D01*
X93271585Y-64748444D01*
X93082179Y-64844951D01*
X92910215Y-64969889D01*
X92796673Y-65083431D01*
X92735350Y-65116915D01*
X92665658Y-65111931D01*
X92609725Y-65070059D01*
X92592810Y-65039082D01*
X92543797Y-64907671D01*
X92543793Y-64907664D01*
X92457547Y-64792455D01*
X92457544Y-64792452D01*
X92342335Y-64706206D01*
X92342328Y-64706202D01*
X92207482Y-64655908D01*
X92207483Y-64655908D01*
X92147883Y-64649501D01*
X92147881Y-64649500D01*
X92147873Y-64649500D01*
X92147864Y-64649500D01*
X90352129Y-64649500D01*
X90352123Y-64649501D01*
X90292516Y-64655908D01*
X90157671Y-64706202D01*
X90157664Y-64706206D01*
X90042455Y-64792452D01*
X90042452Y-64792455D01*
X89956206Y-64907664D01*
X89956202Y-64907671D01*
X89905908Y-65042517D01*
X89899501Y-65102116D01*
X89899500Y-65102135D01*
X89899500Y-65275500D01*
X89879815Y-65342539D01*
X89827011Y-65388294D01*
X89775500Y-65399500D01*
X89350097Y-65399500D01*
X89283058Y-65379815D01*
X89262416Y-65363181D01*
X88836819Y-64937584D01*
X88803334Y-64876261D01*
X88800500Y-64849903D01*
X88800500Y-62893713D01*
X89859500Y-62893713D01*
X89859500Y-63106286D01*
X89892753Y-63316239D01*
X89958444Y-63518414D01*
X90054951Y-63707820D01*
X90179890Y-63879786D01*
X90330213Y-64030109D01*
X90502179Y-64155048D01*
X90502181Y-64155049D01*
X90502184Y-64155051D01*
X90691588Y-64251557D01*
X90893757Y-64317246D01*
X91103713Y-64350500D01*
X91103714Y-64350500D01*
X91316286Y-64350500D01*
X91316287Y-64350500D01*
X91526243Y-64317246D01*
X91728412Y-64251557D01*
X91917816Y-64155051D01*
X92089792Y-64030104D01*
X92203329Y-63916566D01*
X92264648Y-63883084D01*
X92334340Y-63888068D01*
X92390274Y-63929939D01*
X92407189Y-63960917D01*
X92456202Y-64092328D01*
X92456206Y-64092335D01*
X92542452Y-64207544D01*
X92542455Y-64207547D01*
X92657664Y-64293793D01*
X92657671Y-64293797D01*
X92792517Y-64344091D01*
X92792516Y-64344091D01*
X92799444Y-64344835D01*
X92852127Y-64350500D01*
X94647872Y-64350499D01*
X94707483Y-64344091D01*
X94842331Y-64293796D01*
X94957546Y-64207546D01*
X95043796Y-64092331D01*
X95094091Y-63957483D01*
X95100500Y-63897873D01*
X95100499Y-62102128D01*
X95094091Y-62042517D01*
X95092810Y-62039083D01*
X95043797Y-61907671D01*
X95043793Y-61907664D01*
X94957547Y-61792455D01*
X94957544Y-61792452D01*
X94842335Y-61706206D01*
X94842328Y-61706202D01*
X94707482Y-61655908D01*
X94707483Y-61655908D01*
X94647883Y-61649501D01*
X94647881Y-61649500D01*
X94647873Y-61649500D01*
X94647864Y-61649500D01*
X92852129Y-61649500D01*
X92852123Y-61649501D01*
X92792516Y-61655908D01*
X92657671Y-61706202D01*
X92657664Y-61706206D01*
X92542455Y-61792452D01*
X92542452Y-61792455D01*
X92456206Y-61907664D01*
X92456203Y-61907669D01*
X92407189Y-62039083D01*
X92365317Y-62095016D01*
X92299853Y-62119433D01*
X92231580Y-62104581D01*
X92203326Y-62083430D01*
X92089786Y-61969890D01*
X91917820Y-61844951D01*
X91728414Y-61748444D01*
X91728413Y-61748443D01*
X91728412Y-61748443D01*
X91526243Y-61682754D01*
X91526241Y-61682753D01*
X91526240Y-61682753D01*
X91364957Y-61657208D01*
X91316287Y-61649500D01*
X91103713Y-61649500D01*
X91055042Y-61657208D01*
X90893760Y-61682753D01*
X90691585Y-61748444D01*
X90502179Y-61844951D01*
X90330213Y-61969890D01*
X90179890Y-62120213D01*
X90054951Y-62292179D01*
X89958444Y-62481585D01*
X89892753Y-62683760D01*
X89859500Y-62893713D01*
X88800500Y-62893713D01*
X88800500Y-59893713D01*
X89859500Y-59893713D01*
X89859500Y-60106287D01*
X89892754Y-60316243D01*
X89951521Y-60497109D01*
X89958444Y-60518414D01*
X90054951Y-60707820D01*
X90179890Y-60879786D01*
X90330213Y-61030109D01*
X90502179Y-61155048D01*
X90502181Y-61155049D01*
X90502184Y-61155051D01*
X90691588Y-61251557D01*
X90893757Y-61317246D01*
X91103713Y-61350500D01*
X91103714Y-61350500D01*
X91316286Y-61350500D01*
X91316287Y-61350500D01*
X91526243Y-61317246D01*
X91728412Y-61251557D01*
X91917816Y-61155051D01*
X92004478Y-61092088D01*
X92089784Y-61030110D01*
X92089784Y-61030109D01*
X92089792Y-61030104D01*
X92203717Y-60916178D01*
X92265036Y-60882696D01*
X92334728Y-60887680D01*
X92390662Y-60929551D01*
X92407577Y-60960528D01*
X92456646Y-61092088D01*
X92456649Y-61092093D01*
X92542809Y-61207187D01*
X92542812Y-61207190D01*
X92657906Y-61293350D01*
X92657913Y-61293354D01*
X92792620Y-61343596D01*
X92792627Y-61343598D01*
X92852155Y-61349999D01*
X92852172Y-61350000D01*
X93500000Y-61350000D01*
X93500000Y-60433012D01*
X93557007Y-60465925D01*
X93684174Y-60500000D01*
X93815826Y-60500000D01*
X93942993Y-60465925D01*
X94000000Y-60433012D01*
X94000000Y-61350000D01*
X94647828Y-61350000D01*
X94647844Y-61349999D01*
X94707372Y-61343598D01*
X94707379Y-61343596D01*
X94842086Y-61293354D01*
X94842093Y-61293350D01*
X94957187Y-61207190D01*
X94957190Y-61207187D01*
X95043350Y-61092093D01*
X95043354Y-61092086D01*
X95093596Y-60957379D01*
X95093598Y-60957372D01*
X95099999Y-60897844D01*
X95100000Y-60897827D01*
X95100000Y-60250000D01*
X94183012Y-60250000D01*
X94215925Y-60192993D01*
X94250000Y-60065826D01*
X94250000Y-59934174D01*
X94215925Y-59807007D01*
X94183012Y-59750000D01*
X95100000Y-59750000D01*
X95100000Y-59102172D01*
X95099999Y-59102155D01*
X95093598Y-59042627D01*
X95093596Y-59042620D01*
X95043354Y-58907913D01*
X95043350Y-58907906D01*
X94957190Y-58792812D01*
X94957187Y-58792809D01*
X94842093Y-58706649D01*
X94842086Y-58706645D01*
X94707379Y-58656403D01*
X94707372Y-58656401D01*
X94647844Y-58650000D01*
X94000000Y-58650000D01*
X94000000Y-59566988D01*
X93942993Y-59534075D01*
X93815826Y-59500000D01*
X93684174Y-59500000D01*
X93557007Y-59534075D01*
X93500000Y-59566988D01*
X93500000Y-58650000D01*
X92852155Y-58650000D01*
X92792627Y-58656401D01*
X92792620Y-58656403D01*
X92657913Y-58706645D01*
X92657906Y-58706649D01*
X92542812Y-58792809D01*
X92542809Y-58792812D01*
X92456649Y-58907906D01*
X92456646Y-58907912D01*
X92407577Y-59039471D01*
X92365705Y-59095404D01*
X92300241Y-59119821D01*
X92231968Y-59104969D01*
X92203714Y-59083818D01*
X92089786Y-58969890D01*
X91917820Y-58844951D01*
X91728414Y-58748444D01*
X91728413Y-58748443D01*
X91728412Y-58748443D01*
X91526243Y-58682754D01*
X91526241Y-58682753D01*
X91526240Y-58682753D01*
X91364957Y-58657208D01*
X91316287Y-58649500D01*
X91103713Y-58649500D01*
X91055042Y-58657208D01*
X90893760Y-58682753D01*
X90691585Y-58748444D01*
X90502179Y-58844951D01*
X90330213Y-58969890D01*
X90179890Y-59120213D01*
X90054951Y-59292179D01*
X89958444Y-59481585D01*
X89892753Y-59683760D01*
X89882262Y-59750000D01*
X89859500Y-59893713D01*
X88800500Y-59893713D01*
X88800500Y-56893713D01*
X89859500Y-56893713D01*
X89859500Y-57106287D01*
X89892754Y-57316243D01*
X89941370Y-57465868D01*
X89958444Y-57518414D01*
X90054951Y-57707820D01*
X90179890Y-57879786D01*
X90330213Y-58030109D01*
X90502179Y-58155048D01*
X90502181Y-58155049D01*
X90502184Y-58155051D01*
X90691588Y-58251557D01*
X90893757Y-58317246D01*
X91103713Y-58350500D01*
X91103714Y-58350500D01*
X91316286Y-58350500D01*
X91316287Y-58350500D01*
X91526243Y-58317246D01*
X91728412Y-58251557D01*
X91917816Y-58155051D01*
X92089792Y-58030104D01*
X92203329Y-57916566D01*
X92264648Y-57883084D01*
X92334340Y-57888068D01*
X92390274Y-57929939D01*
X92407189Y-57960917D01*
X92456202Y-58092328D01*
X92456206Y-58092335D01*
X92542452Y-58207544D01*
X92542455Y-58207547D01*
X92657664Y-58293793D01*
X92657671Y-58293797D01*
X92792517Y-58344091D01*
X92792516Y-58344091D01*
X92799444Y-58344835D01*
X92852127Y-58350500D01*
X94647872Y-58350499D01*
X94707483Y-58344091D01*
X94842331Y-58293796D01*
X94957546Y-58207546D01*
X95043796Y-58092331D01*
X95094091Y-57957483D01*
X95100500Y-57897873D01*
X95100499Y-56102128D01*
X95094091Y-56042517D01*
X95092810Y-56039083D01*
X95043797Y-55907671D01*
X95043793Y-55907664D01*
X94957547Y-55792455D01*
X94957544Y-55792452D01*
X94842335Y-55706206D01*
X94842328Y-55706202D01*
X94707482Y-55655908D01*
X94707483Y-55655908D01*
X94647883Y-55649501D01*
X94647881Y-55649500D01*
X94647873Y-55649500D01*
X94647864Y-55649500D01*
X92852129Y-55649500D01*
X92852123Y-55649501D01*
X92792516Y-55655908D01*
X92657671Y-55706202D01*
X92657664Y-55706206D01*
X92542455Y-55792452D01*
X92542452Y-55792455D01*
X92456206Y-55907664D01*
X92456203Y-55907669D01*
X92407189Y-56039083D01*
X92365317Y-56095016D01*
X92299853Y-56119433D01*
X92231580Y-56104581D01*
X92203326Y-56083430D01*
X92089786Y-55969890D01*
X91917820Y-55844951D01*
X91728414Y-55748444D01*
X91728413Y-55748443D01*
X91728412Y-55748443D01*
X91526243Y-55682754D01*
X91526241Y-55682753D01*
X91526240Y-55682753D01*
X91364957Y-55657208D01*
X91316287Y-55649500D01*
X91103713Y-55649500D01*
X91055042Y-55657208D01*
X90893760Y-55682753D01*
X90691585Y-55748444D01*
X90502179Y-55844951D01*
X90330213Y-55969890D01*
X90179890Y-56120213D01*
X90054951Y-56292179D01*
X89958444Y-56481585D01*
X89892753Y-56683760D01*
X89859500Y-56893713D01*
X88800500Y-56893713D01*
X88800500Y-53893713D01*
X89859500Y-53893713D01*
X89859500Y-54106286D01*
X89892753Y-54316239D01*
X89958444Y-54518414D01*
X90054951Y-54707820D01*
X90179890Y-54879786D01*
X90330213Y-55030109D01*
X90502179Y-55155048D01*
X90502181Y-55155049D01*
X90502184Y-55155051D01*
X90691588Y-55251557D01*
X90893757Y-55317246D01*
X91103713Y-55350500D01*
X91103714Y-55350500D01*
X91316286Y-55350500D01*
X91316287Y-55350500D01*
X91526243Y-55317246D01*
X91728412Y-55251557D01*
X91917816Y-55155051D01*
X92089792Y-55030104D01*
X92203329Y-54916566D01*
X92264648Y-54883084D01*
X92334340Y-54888068D01*
X92390274Y-54929939D01*
X92407189Y-54960917D01*
X92456202Y-55092328D01*
X92456206Y-55092335D01*
X92542452Y-55207544D01*
X92542455Y-55207547D01*
X92657664Y-55293793D01*
X92657671Y-55293797D01*
X92792517Y-55344091D01*
X92792516Y-55344091D01*
X92799444Y-55344835D01*
X92852127Y-55350500D01*
X94647872Y-55350499D01*
X94707483Y-55344091D01*
X94842331Y-55293796D01*
X94957546Y-55207546D01*
X95043796Y-55092331D01*
X95094091Y-54957483D01*
X95100500Y-54897873D01*
X95100499Y-53102128D01*
X95094091Y-53042517D01*
X95092810Y-53039083D01*
X95043797Y-52907671D01*
X95043793Y-52907664D01*
X94957547Y-52792455D01*
X94957544Y-52792452D01*
X94842335Y-52706206D01*
X94842328Y-52706202D01*
X94707482Y-52655908D01*
X94707483Y-52655908D01*
X94647883Y-52649501D01*
X94647881Y-52649500D01*
X94647873Y-52649500D01*
X94647864Y-52649500D01*
X92852129Y-52649500D01*
X92852123Y-52649501D01*
X92792516Y-52655908D01*
X92657671Y-52706202D01*
X92657664Y-52706206D01*
X92542455Y-52792452D01*
X92542452Y-52792455D01*
X92456206Y-52907664D01*
X92456203Y-52907669D01*
X92407189Y-53039083D01*
X92365317Y-53095016D01*
X92299853Y-53119433D01*
X92231580Y-53104581D01*
X92203326Y-53083430D01*
X92089786Y-52969890D01*
X91917820Y-52844951D01*
X91728414Y-52748444D01*
X91728413Y-52748443D01*
X91728412Y-52748443D01*
X91526243Y-52682754D01*
X91526241Y-52682753D01*
X91526240Y-52682753D01*
X91364957Y-52657208D01*
X91316287Y-52649500D01*
X91103713Y-52649500D01*
X91055042Y-52657208D01*
X90893760Y-52682753D01*
X90691585Y-52748444D01*
X90502179Y-52844951D01*
X90330213Y-52969890D01*
X90179890Y-53120213D01*
X90054951Y-53292179D01*
X89958444Y-53481585D01*
X89892753Y-53683760D01*
X89859500Y-53893713D01*
X88800500Y-53893713D01*
X88800500Y-52220943D01*
X88796910Y-52207546D01*
X88794754Y-52199500D01*
X88782844Y-52155051D01*
X88759577Y-52068216D01*
X88737573Y-52030104D01*
X88680524Y-51931290D01*
X88680521Y-51931286D01*
X88680520Y-51931284D01*
X88568716Y-51819480D01*
X88568715Y-51819479D01*
X88564385Y-51815149D01*
X88564374Y-51815139D01*
X87642948Y-50893713D01*
X89859500Y-50893713D01*
X89859500Y-51106286D01*
X89875613Y-51208023D01*
X89892754Y-51316243D01*
X89941771Y-51467102D01*
X89958444Y-51518414D01*
X90054951Y-51707820D01*
X90179890Y-51879786D01*
X90330213Y-52030109D01*
X90502179Y-52155048D01*
X90502181Y-52155049D01*
X90502184Y-52155051D01*
X90691588Y-52251557D01*
X90893757Y-52317246D01*
X91103713Y-52350500D01*
X91103714Y-52350500D01*
X91316286Y-52350500D01*
X91316287Y-52350500D01*
X91526243Y-52317246D01*
X91728412Y-52251557D01*
X91917816Y-52155051D01*
X92089792Y-52030104D01*
X92203329Y-51916566D01*
X92264648Y-51883084D01*
X92334340Y-51888068D01*
X92390274Y-51929939D01*
X92407189Y-51960917D01*
X92456202Y-52092328D01*
X92456206Y-52092335D01*
X92542452Y-52207544D01*
X92542455Y-52207547D01*
X92657664Y-52293793D01*
X92657671Y-52293797D01*
X92792517Y-52344091D01*
X92792516Y-52344091D01*
X92799444Y-52344835D01*
X92852127Y-52350500D01*
X94647872Y-52350499D01*
X94707483Y-52344091D01*
X94842331Y-52293796D01*
X94957546Y-52207546D01*
X95043796Y-52092331D01*
X95094091Y-51957483D01*
X95100500Y-51897873D01*
X95100499Y-50102128D01*
X95094091Y-50042517D01*
X95092810Y-50039083D01*
X95043797Y-49907671D01*
X95043793Y-49907664D01*
X94957547Y-49792455D01*
X94957544Y-49792452D01*
X94842335Y-49706206D01*
X94842328Y-49706202D01*
X94707482Y-49655908D01*
X94707483Y-49655908D01*
X94647883Y-49649501D01*
X94647881Y-49649500D01*
X94647873Y-49649500D01*
X94647864Y-49649500D01*
X92852129Y-49649500D01*
X92852123Y-49649501D01*
X92792516Y-49655908D01*
X92657671Y-49706202D01*
X92657664Y-49706206D01*
X92542455Y-49792452D01*
X92542452Y-49792455D01*
X92456206Y-49907664D01*
X92456203Y-49907669D01*
X92407189Y-50039083D01*
X92365317Y-50095016D01*
X92299853Y-50119433D01*
X92231580Y-50104581D01*
X92203326Y-50083430D01*
X92089786Y-49969890D01*
X91917820Y-49844951D01*
X91728414Y-49748444D01*
X91728413Y-49748443D01*
X91728412Y-49748443D01*
X91526243Y-49682754D01*
X91526241Y-49682753D01*
X91526240Y-49682753D01*
X91364957Y-49657208D01*
X91316287Y-49649500D01*
X91103713Y-49649500D01*
X91055042Y-49657208D01*
X90893760Y-49682753D01*
X90691585Y-49748444D01*
X90502179Y-49844951D01*
X90330213Y-49969890D01*
X90179890Y-50120213D01*
X90054951Y-50292179D01*
X89958444Y-50481585D01*
X89958443Y-50481587D01*
X89958443Y-50481588D01*
X89932855Y-50560339D01*
X89892753Y-50683760D01*
X89859500Y-50893713D01*
X87642948Y-50893713D01*
X87309574Y-50560339D01*
X87276089Y-50499016D01*
X87275638Y-50496849D01*
X87253015Y-50383121D01*
X87244737Y-50341503D01*
X87230135Y-50306251D01*
X87184397Y-50195827D01*
X87184390Y-50195814D01*
X87096789Y-50064711D01*
X87096786Y-50064707D01*
X86985292Y-49953213D01*
X86985288Y-49953210D01*
X86854185Y-49865609D01*
X86854172Y-49865602D01*
X86708501Y-49805264D01*
X86708489Y-49805261D01*
X86553845Y-49774500D01*
X86553842Y-49774500D01*
X86396158Y-49774500D01*
X86396155Y-49774500D01*
X86241510Y-49805261D01*
X86241498Y-49805264D01*
X86095827Y-49865602D01*
X86095814Y-49865609D01*
X85964711Y-49953210D01*
X85964707Y-49953213D01*
X85853213Y-50064707D01*
X85853210Y-50064711D01*
X85765609Y-50195814D01*
X85765604Y-50195824D01*
X85713447Y-50321742D01*
X85692859Y-50347289D01*
X85673196Y-50373556D01*
X85671046Y-50374357D01*
X85669606Y-50376145D01*
X85638475Y-50386506D01*
X85607732Y-50397973D01*
X85605489Y-50397485D01*
X85603311Y-50398210D01*
X85571509Y-50390093D01*
X85539459Y-50383121D01*
X85537010Y-50381287D01*
X85535612Y-50380931D01*
X85511205Y-50361970D01*
X85509574Y-50360339D01*
X85476089Y-50299016D01*
X85475638Y-50296849D01*
X85444738Y-50141510D01*
X85444737Y-50141503D01*
X85444735Y-50141498D01*
X85384397Y-49995827D01*
X85384390Y-49995814D01*
X85296789Y-49864711D01*
X85296786Y-49864707D01*
X85185292Y-49753213D01*
X85185288Y-49753210D01*
X85054185Y-49665609D01*
X85054172Y-49665602D01*
X84908501Y-49605264D01*
X84908489Y-49605261D01*
X84753845Y-49574500D01*
X84753842Y-49574500D01*
X84596158Y-49574500D01*
X84596155Y-49574500D01*
X84441510Y-49605261D01*
X84441498Y-49605264D01*
X84295827Y-49665602D01*
X84295814Y-49665609D01*
X84164711Y-49753210D01*
X84164707Y-49753213D01*
X84053213Y-49864707D01*
X84053210Y-49864711D01*
X83965609Y-49995814D01*
X83965602Y-49995827D01*
X83905264Y-50141498D01*
X83905261Y-50141510D01*
X83874500Y-50296153D01*
X74528713Y-50296153D01*
X74504132Y-50109446D01*
X74432019Y-49840314D01*
X74417500Y-49805263D01*
X74325395Y-49582901D01*
X74325390Y-49582890D01*
X74186085Y-49341609D01*
X74186081Y-49341602D01*
X74016465Y-49120553D01*
X74016460Y-49120547D01*
X73819452Y-48923539D01*
X73819445Y-48923533D01*
X73598406Y-48753925D01*
X73598404Y-48753923D01*
X73598398Y-48753919D01*
X73598393Y-48753916D01*
X73598390Y-48753914D01*
X73357109Y-48614609D01*
X73357098Y-48614604D01*
X73099695Y-48507984D01*
X73099688Y-48507982D01*
X73099686Y-48507981D01*
X72830554Y-48435868D01*
X72830548Y-48435867D01*
X72830543Y-48435866D01*
X72554322Y-48399501D01*
X72554319Y-48399500D01*
X72554313Y-48399500D01*
X72275687Y-48399500D01*
X72275681Y-48399500D01*
X72275677Y-48399501D01*
X71999456Y-48435866D01*
X71999449Y-48435867D01*
X71999446Y-48435868D01*
X71730314Y-48507981D01*
X71730304Y-48507984D01*
X71472901Y-48614604D01*
X71472890Y-48614609D01*
X71231609Y-48753914D01*
X71231593Y-48753925D01*
X71010554Y-48923533D01*
X71010547Y-48923539D01*
X70813539Y-49120547D01*
X70813533Y-49120554D01*
X70643925Y-49341593D01*
X70643914Y-49341609D01*
X70504609Y-49582890D01*
X70504604Y-49582901D01*
X70397984Y-49840304D01*
X70397981Y-49840314D01*
X70329735Y-50095016D01*
X70325869Y-50109443D01*
X70325866Y-50109456D01*
X70289501Y-50385677D01*
X70289500Y-50385693D01*
X67525500Y-50385693D01*
X67525500Y-47893713D01*
X89859500Y-47893713D01*
X89859500Y-48106287D01*
X89892754Y-48316243D01*
X89919806Y-48399501D01*
X89958444Y-48518414D01*
X90054951Y-48707820D01*
X90179890Y-48879786D01*
X90330213Y-49030109D01*
X90502179Y-49155048D01*
X90502181Y-49155049D01*
X90502184Y-49155051D01*
X90691588Y-49251557D01*
X90893757Y-49317246D01*
X91103713Y-49350500D01*
X91103714Y-49350500D01*
X91316286Y-49350500D01*
X91316287Y-49350500D01*
X91526243Y-49317246D01*
X91728412Y-49251557D01*
X91917816Y-49155051D01*
X92089792Y-49030104D01*
X92203329Y-48916566D01*
X92264648Y-48883084D01*
X92334340Y-48888068D01*
X92390274Y-48929939D01*
X92407189Y-48960917D01*
X92456202Y-49092328D01*
X92456206Y-49092335D01*
X92542452Y-49207544D01*
X92542455Y-49207547D01*
X92657664Y-49293793D01*
X92657671Y-49293797D01*
X92792517Y-49344091D01*
X92792516Y-49344091D01*
X92799444Y-49344835D01*
X92852127Y-49350500D01*
X94647872Y-49350499D01*
X94707483Y-49344091D01*
X94842331Y-49293796D01*
X94957546Y-49207546D01*
X95043796Y-49092331D01*
X95094091Y-48957483D01*
X95100500Y-48897873D01*
X95100499Y-47102128D01*
X95094091Y-47042517D01*
X95092810Y-47039083D01*
X95043797Y-46907671D01*
X95043793Y-46907664D01*
X94957547Y-46792455D01*
X94957544Y-46792452D01*
X94842335Y-46706206D01*
X94842328Y-46706202D01*
X94707482Y-46655908D01*
X94707483Y-46655908D01*
X94647883Y-46649501D01*
X94647881Y-46649500D01*
X94647873Y-46649500D01*
X94647864Y-46649500D01*
X92852129Y-46649500D01*
X92852123Y-46649501D01*
X92792516Y-46655908D01*
X92657671Y-46706202D01*
X92657664Y-46706206D01*
X92542455Y-46792452D01*
X92542452Y-46792455D01*
X92456206Y-46907664D01*
X92456203Y-46907669D01*
X92407189Y-47039083D01*
X92365317Y-47095016D01*
X92299853Y-47119433D01*
X92231580Y-47104581D01*
X92203326Y-47083430D01*
X92089786Y-46969890D01*
X91917820Y-46844951D01*
X91728414Y-46748444D01*
X91728413Y-46748443D01*
X91728412Y-46748443D01*
X91526243Y-46682754D01*
X91526241Y-46682753D01*
X91526240Y-46682753D01*
X91364957Y-46657208D01*
X91316287Y-46649500D01*
X91103713Y-46649500D01*
X91055042Y-46657208D01*
X90893760Y-46682753D01*
X90691585Y-46748444D01*
X90502179Y-46844951D01*
X90330213Y-46969890D01*
X90179890Y-47120213D01*
X90054951Y-47292179D01*
X89958444Y-47481585D01*
X89892753Y-47683760D01*
X89859500Y-47893713D01*
X67525500Y-47893713D01*
X67525500Y-44893713D01*
X89859500Y-44893713D01*
X89859500Y-45106286D01*
X89892753Y-45316239D01*
X89958444Y-45518414D01*
X90054951Y-45707820D01*
X90179890Y-45879786D01*
X90330213Y-46030109D01*
X90502179Y-46155048D01*
X90502181Y-46155049D01*
X90502184Y-46155051D01*
X90691588Y-46251557D01*
X90893757Y-46317246D01*
X91103713Y-46350500D01*
X91103714Y-46350500D01*
X91316286Y-46350500D01*
X91316287Y-46350500D01*
X91526243Y-46317246D01*
X91728412Y-46251557D01*
X91917816Y-46155051D01*
X92089792Y-46030104D01*
X92203329Y-45916566D01*
X92264648Y-45883084D01*
X92334340Y-45888068D01*
X92390274Y-45929939D01*
X92407189Y-45960917D01*
X92456202Y-46092328D01*
X92456206Y-46092335D01*
X92542452Y-46207544D01*
X92542455Y-46207547D01*
X92657664Y-46293793D01*
X92657671Y-46293797D01*
X92792517Y-46344091D01*
X92792516Y-46344091D01*
X92799444Y-46344835D01*
X92852127Y-46350500D01*
X94647872Y-46350499D01*
X94707483Y-46344091D01*
X94842331Y-46293796D01*
X94957546Y-46207546D01*
X95043796Y-46092331D01*
X95094091Y-45957483D01*
X95100500Y-45897873D01*
X95100499Y-44102128D01*
X95094091Y-44042517D01*
X95092810Y-44039083D01*
X95043797Y-43907671D01*
X95043793Y-43907664D01*
X94957547Y-43792455D01*
X94957544Y-43792452D01*
X94842335Y-43706206D01*
X94842328Y-43706202D01*
X94707482Y-43655908D01*
X94707483Y-43655908D01*
X94647883Y-43649501D01*
X94647881Y-43649500D01*
X94647873Y-43649500D01*
X94647864Y-43649500D01*
X92852129Y-43649500D01*
X92852123Y-43649501D01*
X92792516Y-43655908D01*
X92657671Y-43706202D01*
X92657664Y-43706206D01*
X92542455Y-43792452D01*
X92542452Y-43792455D01*
X92456206Y-43907664D01*
X92456203Y-43907669D01*
X92407189Y-44039083D01*
X92365317Y-44095016D01*
X92299853Y-44119433D01*
X92231580Y-44104581D01*
X92203326Y-44083430D01*
X92089786Y-43969890D01*
X91917820Y-43844951D01*
X91728414Y-43748444D01*
X91728413Y-43748443D01*
X91728412Y-43748443D01*
X91526243Y-43682754D01*
X91526241Y-43682753D01*
X91526240Y-43682753D01*
X91364957Y-43657208D01*
X91316287Y-43649500D01*
X91103713Y-43649500D01*
X91055042Y-43657208D01*
X90893760Y-43682753D01*
X90691585Y-43748444D01*
X90502179Y-43844951D01*
X90330213Y-43969890D01*
X90179890Y-44120213D01*
X90054951Y-44292179D01*
X89958444Y-44481585D01*
X89892753Y-44683760D01*
X89859500Y-44893713D01*
X67525500Y-44893713D01*
X67525500Y-41893713D01*
X89859500Y-41893713D01*
X89859500Y-42106286D01*
X89892753Y-42316239D01*
X89958444Y-42518414D01*
X90054951Y-42707820D01*
X90179890Y-42879786D01*
X90330213Y-43030109D01*
X90502179Y-43155048D01*
X90502181Y-43155049D01*
X90502184Y-43155051D01*
X90691588Y-43251557D01*
X90893757Y-43317246D01*
X91103713Y-43350500D01*
X91103714Y-43350500D01*
X91316286Y-43350500D01*
X91316287Y-43350500D01*
X91526243Y-43317246D01*
X91728412Y-43251557D01*
X91917816Y-43155051D01*
X92089792Y-43030104D01*
X92203329Y-42916566D01*
X92264648Y-42883084D01*
X92334340Y-42888068D01*
X92390274Y-42929939D01*
X92407189Y-42960917D01*
X92456202Y-43092328D01*
X92456206Y-43092335D01*
X92542452Y-43207544D01*
X92542455Y-43207547D01*
X92657664Y-43293793D01*
X92657671Y-43293797D01*
X92792517Y-43344091D01*
X92792516Y-43344091D01*
X92799444Y-43344835D01*
X92852127Y-43350500D01*
X94647872Y-43350499D01*
X94707483Y-43344091D01*
X94842331Y-43293796D01*
X94957546Y-43207546D01*
X95043796Y-43092331D01*
X95094091Y-42957483D01*
X95100500Y-42897873D01*
X95100499Y-41102128D01*
X95094091Y-41042517D01*
X95092810Y-41039083D01*
X95043797Y-40907671D01*
X95043793Y-40907664D01*
X94957547Y-40792455D01*
X94957544Y-40792452D01*
X94842335Y-40706206D01*
X94842328Y-40706202D01*
X94707482Y-40655908D01*
X94707483Y-40655908D01*
X94647883Y-40649501D01*
X94647881Y-40649500D01*
X94647873Y-40649500D01*
X94647864Y-40649500D01*
X92852129Y-40649500D01*
X92852123Y-40649501D01*
X92792516Y-40655908D01*
X92657671Y-40706202D01*
X92657664Y-40706206D01*
X92542455Y-40792452D01*
X92542452Y-40792455D01*
X92456206Y-40907664D01*
X92456203Y-40907669D01*
X92407189Y-41039083D01*
X92365317Y-41095016D01*
X92299853Y-41119433D01*
X92231580Y-41104581D01*
X92203326Y-41083430D01*
X92089786Y-40969890D01*
X91917820Y-40844951D01*
X91728414Y-40748444D01*
X91728413Y-40748443D01*
X91728412Y-40748443D01*
X91526243Y-40682754D01*
X91526241Y-40682753D01*
X91526240Y-40682753D01*
X91364957Y-40657208D01*
X91316287Y-40649500D01*
X91103713Y-40649500D01*
X91055042Y-40657208D01*
X90893760Y-40682753D01*
X90691585Y-40748444D01*
X90502179Y-40844951D01*
X90330213Y-40969890D01*
X90179890Y-41120213D01*
X90054951Y-41292179D01*
X89958444Y-41481585D01*
X89892753Y-41683760D01*
X89859500Y-41893713D01*
X67525500Y-41893713D01*
X67525500Y-38955693D01*
X70289500Y-38955693D01*
X70289500Y-39234306D01*
X70289501Y-39234322D01*
X70325866Y-39510543D01*
X70325867Y-39510548D01*
X70325868Y-39510554D01*
X70360608Y-39640205D01*
X70397981Y-39779685D01*
X70397984Y-39779695D01*
X70504604Y-40037098D01*
X70504609Y-40037109D01*
X70643914Y-40278390D01*
X70643925Y-40278406D01*
X70813533Y-40499445D01*
X70813539Y-40499452D01*
X71010547Y-40696460D01*
X71010554Y-40696466D01*
X71023245Y-40706204D01*
X71231602Y-40866081D01*
X71231609Y-40866085D01*
X71472890Y-41005390D01*
X71472895Y-41005392D01*
X71472898Y-41005394D01*
X71554231Y-41039083D01*
X71706432Y-41102127D01*
X71730314Y-41112019D01*
X71999446Y-41184132D01*
X72275687Y-41220500D01*
X72275694Y-41220500D01*
X72554306Y-41220500D01*
X72554313Y-41220500D01*
X72830554Y-41184132D01*
X73099686Y-41112019D01*
X73357102Y-41005394D01*
X73598398Y-40866081D01*
X73819447Y-40696465D01*
X74016465Y-40499447D01*
X74186081Y-40278398D01*
X74325394Y-40037102D01*
X74432019Y-39779686D01*
X74504132Y-39510554D01*
X74540500Y-39234313D01*
X74540500Y-38955687D01*
X74504132Y-38679446D01*
X74432019Y-38410314D01*
X74325394Y-38152898D01*
X74325389Y-38152890D01*
X74296086Y-38102135D01*
X89899500Y-38102135D01*
X89899500Y-39897870D01*
X89899501Y-39897876D01*
X89905908Y-39957483D01*
X89956202Y-40092328D01*
X89956206Y-40092335D01*
X90042452Y-40207544D01*
X90042455Y-40207547D01*
X90157664Y-40293793D01*
X90157671Y-40293797D01*
X90292517Y-40344091D01*
X90292516Y-40344091D01*
X90299444Y-40344835D01*
X90352127Y-40350500D01*
X92147872Y-40350499D01*
X92207483Y-40344091D01*
X92342331Y-40293796D01*
X92457546Y-40207546D01*
X92543796Y-40092331D01*
X92592810Y-39960916D01*
X92634681Y-39904984D01*
X92700145Y-39880566D01*
X92768418Y-39895417D01*
X92796673Y-39916569D01*
X92910213Y-40030109D01*
X93082179Y-40155048D01*
X93082181Y-40155049D01*
X93082184Y-40155051D01*
X93271588Y-40251557D01*
X93473757Y-40317246D01*
X93683713Y-40350500D01*
X93683714Y-40350500D01*
X93896286Y-40350500D01*
X93896287Y-40350500D01*
X94106243Y-40317246D01*
X94308412Y-40251557D01*
X94497816Y-40155051D01*
X94584138Y-40092335D01*
X94669786Y-40030109D01*
X94669788Y-40030106D01*
X94669792Y-40030104D01*
X94820104Y-39879792D01*
X94820106Y-39879788D01*
X94820109Y-39879786D01*
X94945048Y-39707820D01*
X94945047Y-39707820D01*
X94945051Y-39707816D01*
X95041557Y-39518412D01*
X95107246Y-39316243D01*
X95140500Y-39106287D01*
X95140500Y-38893713D01*
X95107246Y-38683757D01*
X95041557Y-38481588D01*
X94945051Y-38292184D01*
X94945049Y-38292181D01*
X94945048Y-38292179D01*
X94820109Y-38120213D01*
X94669786Y-37969890D01*
X94497820Y-37844951D01*
X94308414Y-37748444D01*
X94308413Y-37748443D01*
X94308412Y-37748443D01*
X94106243Y-37682754D01*
X94106241Y-37682753D01*
X94106240Y-37682753D01*
X93944957Y-37657208D01*
X93896287Y-37649500D01*
X93683713Y-37649500D01*
X93635042Y-37657208D01*
X93473760Y-37682753D01*
X93271585Y-37748444D01*
X93082179Y-37844951D01*
X92910215Y-37969889D01*
X92796673Y-38083431D01*
X92735350Y-38116915D01*
X92665658Y-38111931D01*
X92609725Y-38070059D01*
X92592810Y-38039082D01*
X92543797Y-37907671D01*
X92543793Y-37907664D01*
X92457547Y-37792455D01*
X92457544Y-37792452D01*
X92342335Y-37706206D01*
X92342328Y-37706202D01*
X92207482Y-37655908D01*
X92207483Y-37655908D01*
X92147883Y-37649501D01*
X92147881Y-37649500D01*
X92147873Y-37649500D01*
X92147864Y-37649500D01*
X90352129Y-37649500D01*
X90352123Y-37649501D01*
X90292516Y-37655908D01*
X90157671Y-37706202D01*
X90157664Y-37706206D01*
X90042455Y-37792452D01*
X90042452Y-37792455D01*
X89956206Y-37907664D01*
X89956202Y-37907671D01*
X89905908Y-38042517D01*
X89899501Y-38102116D01*
X89899500Y-38102135D01*
X74296086Y-38102135D01*
X74186085Y-37911609D01*
X74186081Y-37911602D01*
X74094656Y-37792454D01*
X74016466Y-37690554D01*
X74016460Y-37690547D01*
X73819452Y-37493539D01*
X73819445Y-37493533D01*
X73598406Y-37323925D01*
X73598404Y-37323923D01*
X73598398Y-37323919D01*
X73598393Y-37323916D01*
X73598390Y-37323914D01*
X73357109Y-37184609D01*
X73357098Y-37184604D01*
X73099695Y-37077984D01*
X73099688Y-37077982D01*
X73099686Y-37077981D01*
X72830554Y-37005868D01*
X72830548Y-37005867D01*
X72830543Y-37005866D01*
X72554322Y-36969501D01*
X72554319Y-36969500D01*
X72554313Y-36969500D01*
X72275687Y-36969500D01*
X72275681Y-36969500D01*
X72275677Y-36969501D01*
X71999456Y-37005866D01*
X71999449Y-37005867D01*
X71999446Y-37005868D01*
X71730314Y-37077981D01*
X71730304Y-37077984D01*
X71472901Y-37184604D01*
X71472890Y-37184609D01*
X71231609Y-37323914D01*
X71231593Y-37323925D01*
X71010554Y-37493533D01*
X71010547Y-37493539D01*
X70813539Y-37690547D01*
X70813533Y-37690554D01*
X70643925Y-37911593D01*
X70643914Y-37911609D01*
X70504609Y-38152890D01*
X70504604Y-38152901D01*
X70397984Y-38410304D01*
X70397981Y-38410314D01*
X70325869Y-38679443D01*
X70325866Y-38679456D01*
X70289501Y-38955677D01*
X70289500Y-38955693D01*
X67525500Y-38955693D01*
X67525500Y-33599500D01*
X67545185Y-33532461D01*
X67597989Y-33486706D01*
X67649500Y-33475500D01*
X97125500Y-33475500D01*
X97192539Y-33495185D01*
G37*
%TD.AperFunction*%
%TD*%
M02*
