G04 EAGLE Gerber RS-274X export*
G75*
%MOMM*%
%FSLAX34Y34*%
%LPD*%
%INBottom Copper*%
%IPPOS*%
%AMOC8*
5,1,8,0,0,1.08239X$1,22.5*%
G01*
%ADD10C,1.828800*%
%ADD11C,1.108000*%
%ADD12C,1.828800*%
%ADD13R,1.600200X1.168400*%
%ADD14C,2.160000*%
%ADD15C,0.502400*%
%ADD16C,0.200000*%
%ADD17C,0.609600*%
%ADD18C,0.406400*%
%ADD19C,0.552400*%
%ADD20C,0.400000*%
%ADD21C,1.050000*%
%ADD22C,1.016000*%
%ADD23C,0.452400*%

G36*
X172895Y724046D02*
X172895Y724046D01*
X172983Y724055D01*
X173005Y724065D01*
X173028Y724069D01*
X173105Y724115D01*
X173184Y724154D01*
X173201Y724171D01*
X173221Y724184D01*
X173277Y724253D01*
X173338Y724317D01*
X173348Y724339D01*
X173363Y724358D01*
X173391Y724442D01*
X173426Y724524D01*
X173427Y724548D01*
X173434Y724570D01*
X173432Y724659D01*
X173436Y724748D01*
X173429Y724771D01*
X173428Y724795D01*
X173394Y724877D01*
X173367Y724962D01*
X173351Y724983D01*
X173344Y725002D01*
X173310Y725040D01*
X173256Y725112D01*
X157988Y740380D01*
X157953Y740404D01*
X157925Y740436D01*
X157862Y740468D01*
X157804Y740508D01*
X157763Y740519D01*
X157725Y740538D01*
X157635Y740552D01*
X157587Y740564D01*
X157566Y740562D01*
X157540Y740566D01*
X153526Y740566D01*
X150566Y743526D01*
X150566Y747712D01*
X152475Y749621D01*
X152513Y749675D01*
X152558Y749723D01*
X152576Y749766D01*
X152603Y749805D01*
X152620Y749869D01*
X152645Y749929D01*
X152647Y749976D01*
X152659Y750022D01*
X152652Y750088D01*
X152655Y750153D01*
X152641Y750198D01*
X152636Y750245D01*
X152607Y750304D01*
X152587Y750367D01*
X152554Y750411D01*
X152536Y750446D01*
X152508Y750473D01*
X152475Y750518D01*
X124423Y778569D01*
X124350Y778620D01*
X124281Y778676D01*
X124259Y778684D01*
X124239Y778697D01*
X124153Y778719D01*
X124069Y778748D01*
X124045Y778747D01*
X124022Y778753D01*
X123933Y778744D01*
X123844Y778741D01*
X123822Y778732D01*
X123799Y778730D01*
X123719Y778690D01*
X123637Y778657D01*
X123619Y778641D01*
X123598Y778631D01*
X123537Y778566D01*
X123471Y778506D01*
X123460Y778485D01*
X123444Y778467D01*
X123409Y778385D01*
X123368Y778306D01*
X123365Y778280D01*
X123356Y778261D01*
X123354Y778210D01*
X123341Y778121D01*
X123341Y777782D01*
X121562Y773487D01*
X118275Y770200D01*
X113980Y768421D01*
X91044Y768421D01*
X86749Y770200D01*
X83462Y773487D01*
X81683Y777782D01*
X81683Y782430D01*
X83462Y786725D01*
X86749Y790012D01*
X91044Y791791D01*
X109671Y791791D01*
X109758Y791807D01*
X109847Y791816D01*
X109868Y791826D01*
X109892Y791830D01*
X109968Y791876D01*
X110048Y791915D01*
X110064Y791932D01*
X110085Y791945D01*
X110141Y792014D01*
X110202Y792078D01*
X110211Y792100D01*
X110226Y792119D01*
X110255Y792203D01*
X110289Y792285D01*
X110290Y792309D01*
X110298Y792331D01*
X110295Y792420D01*
X110299Y792509D01*
X110292Y792532D01*
X110291Y792556D01*
X110258Y792638D01*
X110231Y792723D01*
X110215Y792744D01*
X110207Y792763D01*
X110173Y792801D01*
X110119Y792873D01*
X98219Y804773D01*
X98184Y804798D01*
X98156Y804829D01*
X98093Y804861D01*
X98035Y804902D01*
X97994Y804912D01*
X97956Y804932D01*
X97866Y804945D01*
X97818Y804958D01*
X97797Y804955D01*
X97771Y804959D01*
X82533Y804959D01*
X34731Y852761D01*
X34696Y852786D01*
X34668Y852817D01*
X34605Y852849D01*
X34547Y852890D01*
X34506Y852900D01*
X34468Y852920D01*
X34378Y852933D01*
X34330Y852946D01*
X34309Y852943D01*
X34283Y852947D01*
X32407Y852947D01*
X29447Y855907D01*
X29447Y860093D01*
X32407Y863053D01*
X34825Y863053D01*
X34890Y863064D01*
X34956Y863066D01*
X34999Y863084D01*
X35046Y863092D01*
X35103Y863126D01*
X35163Y863151D01*
X35198Y863182D01*
X35239Y863207D01*
X35281Y863258D01*
X35329Y863302D01*
X35351Y863344D01*
X35380Y863381D01*
X35401Y863443D01*
X35432Y863502D01*
X35440Y863556D01*
X35452Y863593D01*
X35451Y863633D01*
X35459Y863687D01*
X35459Y879313D01*
X35448Y879378D01*
X35446Y879444D01*
X35428Y879487D01*
X35420Y879534D01*
X35386Y879591D01*
X35361Y879651D01*
X35330Y879686D01*
X35305Y879727D01*
X35254Y879769D01*
X35210Y879817D01*
X35168Y879839D01*
X35131Y879868D01*
X35069Y879889D01*
X35010Y879920D01*
X34956Y879928D01*
X34919Y879940D01*
X34879Y879939D01*
X34825Y879947D01*
X32125Y879947D01*
X29165Y882907D01*
X29165Y884783D01*
X29158Y884824D01*
X29160Y884867D01*
X29138Y884934D01*
X29126Y885003D01*
X29104Y885040D01*
X29091Y885080D01*
X29037Y885153D01*
X29011Y885197D01*
X28995Y885210D01*
X28979Y885231D01*
X24449Y889761D01*
X24414Y889786D01*
X24386Y889817D01*
X24323Y889849D01*
X24265Y889890D01*
X24224Y889900D01*
X24186Y889920D01*
X24096Y889933D01*
X24048Y889946D01*
X24027Y889943D01*
X24001Y889947D01*
X23907Y889947D01*
X20947Y892907D01*
X20947Y897093D01*
X23907Y900053D01*
X28093Y900053D01*
X31053Y897093D01*
X31053Y893435D01*
X31060Y893394D01*
X31058Y893351D01*
X31080Y893284D01*
X31092Y893215D01*
X31114Y893178D01*
X31127Y893138D01*
X31181Y893065D01*
X31207Y893021D01*
X31223Y893008D01*
X31238Y892987D01*
X32865Y891361D01*
X32938Y891310D01*
X33007Y891254D01*
X33029Y891246D01*
X33049Y891233D01*
X33135Y891211D01*
X33219Y891182D01*
X33243Y891183D01*
X33266Y891177D01*
X33355Y891186D01*
X33444Y891189D01*
X33466Y891198D01*
X33489Y891200D01*
X33569Y891240D01*
X33651Y891273D01*
X33669Y891289D01*
X33690Y891299D01*
X33751Y891364D01*
X33817Y891424D01*
X33828Y891445D01*
X33844Y891463D01*
X33879Y891545D01*
X33920Y891624D01*
X33923Y891650D01*
X33932Y891669D01*
X33934Y891720D01*
X33947Y891809D01*
X33947Y896093D01*
X36907Y899053D01*
X41093Y899053D01*
X44053Y896093D01*
X44053Y891907D01*
X42727Y890581D01*
X42702Y890546D01*
X42671Y890517D01*
X42639Y890454D01*
X42598Y890397D01*
X42588Y890356D01*
X42568Y890318D01*
X42555Y890228D01*
X42542Y890179D01*
X42545Y890159D01*
X42541Y890132D01*
X42541Y861729D01*
X42548Y861688D01*
X42546Y861645D01*
X42568Y861578D01*
X42580Y861509D01*
X42602Y861472D01*
X42615Y861432D01*
X42669Y861359D01*
X42695Y861315D01*
X42711Y861302D01*
X42727Y861281D01*
X48982Y855025D01*
X49036Y854987D01*
X49084Y854942D01*
X49128Y854924D01*
X49167Y854897D01*
X49230Y854880D01*
X49291Y854855D01*
X49338Y854853D01*
X49384Y854841D01*
X49449Y854848D01*
X49515Y854845D01*
X49560Y854859D01*
X49607Y854864D01*
X49666Y854893D01*
X49729Y854913D01*
X49773Y854946D01*
X49808Y854964D01*
X49835Y854992D01*
X49879Y855025D01*
X52976Y858122D01*
X57162Y858122D01*
X60122Y855162D01*
X60122Y853287D01*
X60129Y853245D01*
X60128Y853202D01*
X60149Y853135D01*
X60162Y853066D01*
X60183Y853029D01*
X60196Y852989D01*
X60250Y852916D01*
X60276Y852872D01*
X60292Y852859D01*
X60308Y852838D01*
X80850Y832296D01*
X80885Y832271D01*
X80914Y832240D01*
X80976Y832208D01*
X81034Y832168D01*
X81075Y832157D01*
X81113Y832138D01*
X81203Y832124D01*
X81252Y832112D01*
X81272Y832114D01*
X81299Y832110D01*
X108398Y832110D01*
X110657Y829850D01*
X139033Y801475D01*
X139106Y801424D01*
X139175Y801368D01*
X139197Y801360D01*
X139217Y801347D01*
X139303Y801325D01*
X139387Y801296D01*
X139411Y801297D01*
X139434Y801291D01*
X139523Y801300D01*
X139612Y801303D01*
X139634Y801312D01*
X139657Y801314D01*
X139737Y801354D01*
X139819Y801387D01*
X139837Y801403D01*
X139858Y801413D01*
X139919Y801478D01*
X139985Y801538D01*
X139996Y801559D01*
X140012Y801577D01*
X140047Y801659D01*
X140088Y801738D01*
X140091Y801764D01*
X140100Y801783D01*
X140102Y801834D01*
X140115Y801923D01*
X140115Y820468D01*
X141894Y824763D01*
X145181Y828050D01*
X149476Y829829D01*
X154124Y829829D01*
X158419Y828050D01*
X161706Y824763D01*
X163485Y820468D01*
X163485Y797532D01*
X161706Y793237D01*
X158419Y789950D01*
X154124Y788171D01*
X153867Y788171D01*
X153780Y788155D01*
X153691Y788146D01*
X153670Y788136D01*
X153646Y788132D01*
X153570Y788086D01*
X153490Y788047D01*
X153474Y788030D01*
X153453Y788017D01*
X153397Y787948D01*
X153336Y787884D01*
X153327Y787862D01*
X153312Y787843D01*
X153283Y787759D01*
X153249Y787677D01*
X153248Y787653D01*
X153240Y787631D01*
X153243Y787542D01*
X153239Y787453D01*
X153246Y787430D01*
X153247Y787406D01*
X153280Y787324D01*
X153307Y787239D01*
X153323Y787218D01*
X153331Y787199D01*
X153365Y787161D01*
X153419Y787089D01*
X190781Y749727D01*
X190816Y749702D01*
X190844Y749671D01*
X190907Y749639D01*
X190965Y749598D01*
X191006Y749588D01*
X191044Y749568D01*
X191134Y749555D01*
X191182Y749542D01*
X191203Y749545D01*
X191229Y749541D01*
X281651Y749541D01*
X281738Y749556D01*
X281827Y749566D01*
X281848Y749576D01*
X281872Y749580D01*
X281948Y749626D01*
X282028Y749665D01*
X282044Y749682D01*
X282065Y749695D01*
X282121Y749764D01*
X282182Y749828D01*
X282191Y749850D01*
X282206Y749869D01*
X282235Y749953D01*
X282269Y750035D01*
X282270Y750059D01*
X282278Y750081D01*
X282275Y750170D01*
X282279Y750259D01*
X282272Y750282D01*
X282271Y750306D01*
X282238Y750388D01*
X282211Y750473D01*
X282195Y750494D01*
X282187Y750513D01*
X282153Y750551D01*
X282099Y750623D01*
X280600Y752122D01*
X219029Y813693D01*
X218994Y813718D01*
X218966Y813749D01*
X218903Y813781D01*
X218845Y813822D01*
X218804Y813832D01*
X218766Y813852D01*
X218676Y813865D01*
X218628Y813878D01*
X218607Y813875D01*
X218581Y813879D01*
X218484Y813879D01*
X215683Y815039D01*
X192623Y838099D01*
X192550Y838150D01*
X192481Y838206D01*
X192459Y838214D01*
X192439Y838227D01*
X192353Y838249D01*
X192269Y838278D01*
X192245Y838277D01*
X192222Y838283D01*
X192133Y838274D01*
X192044Y838271D01*
X192022Y838262D01*
X191999Y838260D01*
X191919Y838221D01*
X191837Y838187D01*
X191819Y838171D01*
X191798Y838161D01*
X191737Y838096D01*
X191671Y838036D01*
X191660Y838015D01*
X191644Y837997D01*
X191609Y837915D01*
X191568Y837836D01*
X191565Y837810D01*
X191556Y837791D01*
X191554Y837740D01*
X191541Y837651D01*
X191541Y829868D01*
X191548Y829826D01*
X191546Y829783D01*
X191568Y829716D01*
X191580Y829647D01*
X191602Y829610D01*
X191615Y829570D01*
X191669Y829497D01*
X191695Y829454D01*
X191711Y829440D01*
X191727Y829419D01*
X193053Y828093D01*
X193053Y823907D01*
X190093Y820947D01*
X185907Y820947D01*
X182947Y823907D01*
X182947Y828093D01*
X184273Y829419D01*
X184298Y829454D01*
X184329Y829483D01*
X184361Y829545D01*
X184402Y829603D01*
X184412Y829644D01*
X184432Y829682D01*
X184445Y829772D01*
X184458Y829821D01*
X184455Y829841D01*
X184459Y829868D01*
X184459Y846001D01*
X184452Y846042D01*
X184454Y846085D01*
X184432Y846152D01*
X184420Y846222D01*
X184398Y846258D01*
X184385Y846298D01*
X184331Y846371D01*
X184305Y846415D01*
X184289Y846428D01*
X184273Y846449D01*
X138039Y892683D01*
X137989Y892805D01*
X137972Y892831D01*
X137963Y892860D01*
X137910Y892932D01*
X136709Y895830D01*
X136709Y898930D01*
X137895Y901793D01*
X140087Y903985D01*
X142950Y905171D01*
X146050Y905171D01*
X148913Y903985D01*
X151105Y901793D01*
X151495Y900851D01*
X151512Y900825D01*
X151521Y900795D01*
X151591Y900700D01*
X151616Y900662D01*
X151625Y900655D01*
X151633Y900645D01*
X178844Y873433D01*
X178898Y873396D01*
X178946Y873351D01*
X178989Y873332D01*
X179028Y873305D01*
X179092Y873289D01*
X179152Y873263D01*
X179200Y873261D01*
X179245Y873249D01*
X179311Y873256D01*
X179377Y873253D01*
X179422Y873268D01*
X179469Y873273D01*
X179527Y873302D01*
X179590Y873322D01*
X179634Y873355D01*
X179670Y873372D01*
X179697Y873401D01*
X179741Y873433D01*
X180106Y873799D01*
X180144Y873853D01*
X180189Y873901D01*
X180208Y873944D01*
X180234Y873983D01*
X180251Y874047D01*
X180277Y874108D01*
X180279Y874155D01*
X180290Y874200D01*
X180284Y874266D01*
X180287Y874332D01*
X180272Y874377D01*
X180267Y874424D01*
X180238Y874483D01*
X180218Y874545D01*
X180185Y874589D01*
X180168Y874625D01*
X180139Y874652D01*
X180106Y874696D01*
X179447Y875355D01*
X179447Y879541D01*
X182407Y882501D01*
X186593Y882501D01*
X189553Y879541D01*
X189553Y877665D01*
X189560Y877624D01*
X189558Y877581D01*
X189580Y877514D01*
X189592Y877445D01*
X189614Y877408D01*
X189627Y877368D01*
X189681Y877295D01*
X189707Y877251D01*
X189723Y877238D01*
X189739Y877217D01*
X193800Y873155D01*
X193800Y870989D01*
X193808Y870947D01*
X193806Y870905D01*
X193827Y870838D01*
X193840Y870768D01*
X193861Y870731D01*
X193874Y870691D01*
X193928Y870618D01*
X193954Y870575D01*
X193970Y870562D01*
X193986Y870540D01*
X293830Y770697D01*
X293865Y770672D01*
X293893Y770641D01*
X293956Y770609D01*
X294014Y770568D01*
X294055Y770558D01*
X294093Y770538D01*
X294183Y770525D01*
X294231Y770512D01*
X294252Y770515D01*
X294278Y770511D01*
X345251Y770511D01*
X345338Y770527D01*
X345427Y770536D01*
X345448Y770546D01*
X345472Y770550D01*
X345548Y770596D01*
X345628Y770635D01*
X345644Y770652D01*
X345665Y770665D01*
X345721Y770734D01*
X345782Y770798D01*
X345791Y770820D01*
X345806Y770839D01*
X345835Y770923D01*
X345869Y771005D01*
X345870Y771029D01*
X345878Y771051D01*
X345875Y771140D01*
X345879Y771229D01*
X345872Y771252D01*
X345871Y771276D01*
X345838Y771358D01*
X345811Y771443D01*
X345795Y771464D01*
X345787Y771483D01*
X345753Y771521D01*
X345699Y771593D01*
X330177Y787115D01*
X329017Y789916D01*
X329017Y846654D01*
X330177Y849455D01*
X332683Y851961D01*
X335484Y853121D01*
X338081Y853121D01*
X338122Y853128D01*
X338165Y853126D01*
X338232Y853148D01*
X338302Y853160D01*
X338338Y853182D01*
X338378Y853195D01*
X338451Y853249D01*
X338495Y853275D01*
X338508Y853291D01*
X338529Y853307D01*
X355019Y869797D01*
X355070Y869870D01*
X355126Y869939D01*
X355134Y869961D01*
X355147Y869981D01*
X355169Y870067D01*
X355198Y870151D01*
X355197Y870175D01*
X355203Y870198D01*
X355194Y870287D01*
X355191Y870376D01*
X355182Y870398D01*
X355180Y870421D01*
X355141Y870501D01*
X355107Y870583D01*
X355091Y870601D01*
X355081Y870622D01*
X355016Y870683D01*
X354956Y870749D01*
X354935Y870760D01*
X354917Y870776D01*
X354835Y870811D01*
X354756Y870852D01*
X354730Y870855D01*
X354711Y870864D01*
X354660Y870866D01*
X354571Y870879D01*
X336984Y870879D01*
X334183Y872039D01*
X321940Y884283D01*
X321915Y884300D01*
X321895Y884324D01*
X321793Y884385D01*
X321756Y884411D01*
X321746Y884413D01*
X321734Y884420D01*
X320587Y884895D01*
X318395Y887087D01*
X317209Y889950D01*
X317209Y893050D01*
X318395Y895913D01*
X320587Y898105D01*
X323450Y899291D01*
X326550Y899291D01*
X326844Y899169D01*
X326874Y899162D01*
X326901Y899148D01*
X326976Y899137D01*
X329817Y897961D01*
X341471Y886307D01*
X341506Y886282D01*
X341534Y886251D01*
X341597Y886219D01*
X341655Y886178D01*
X341696Y886168D01*
X341734Y886148D01*
X341824Y886135D01*
X341872Y886122D01*
X341893Y886125D01*
X341919Y886121D01*
X376016Y886121D01*
X378817Y884961D01*
X380961Y882817D01*
X382121Y880016D01*
X382121Y876984D01*
X380961Y874183D01*
X345487Y838709D01*
X344650Y838363D01*
X344605Y838334D01*
X344555Y838313D01*
X344511Y838274D01*
X344461Y838242D01*
X344429Y838198D01*
X344389Y838162D01*
X344362Y838110D01*
X344327Y838062D01*
X344311Y838011D01*
X344286Y837962D01*
X344276Y837892D01*
X344263Y837847D01*
X344265Y837817D01*
X344259Y837777D01*
X344259Y825797D01*
X344275Y825710D01*
X344284Y825621D01*
X344294Y825600D01*
X344298Y825576D01*
X344344Y825500D01*
X344383Y825420D01*
X344400Y825404D01*
X344413Y825383D01*
X344482Y825327D01*
X344546Y825266D01*
X344568Y825257D01*
X344587Y825242D01*
X344671Y825213D01*
X344753Y825179D01*
X344777Y825178D01*
X344799Y825170D01*
X344888Y825173D01*
X344977Y825169D01*
X345000Y825176D01*
X345024Y825177D01*
X345106Y825210D01*
X345191Y825237D01*
X345212Y825253D01*
X345231Y825261D01*
X345269Y825295D01*
X345341Y825349D01*
X356602Y836609D01*
X400201Y836609D01*
X400242Y836616D01*
X400285Y836615D01*
X400352Y836636D01*
X400421Y836649D01*
X400458Y836670D01*
X400498Y836683D01*
X400571Y836737D01*
X400615Y836763D01*
X400628Y836779D01*
X400649Y836795D01*
X401975Y838121D01*
X406161Y838121D01*
X409121Y835161D01*
X409121Y830975D01*
X406161Y828015D01*
X401975Y828015D01*
X400649Y829342D01*
X400614Y829366D01*
X400586Y829397D01*
X400523Y829430D01*
X400465Y829470D01*
X400424Y829480D01*
X400386Y829500D01*
X400296Y829513D01*
X400248Y829526D01*
X400227Y829524D01*
X400201Y829527D01*
X359798Y829527D01*
X359756Y829520D01*
X359713Y829522D01*
X359646Y829500D01*
X359577Y829488D01*
X359540Y829466D01*
X359500Y829453D01*
X359427Y829399D01*
X359384Y829374D01*
X359370Y829357D01*
X359349Y829342D01*
X350739Y820731D01*
X350714Y820696D01*
X350683Y820668D01*
X350651Y820605D01*
X350610Y820547D01*
X350600Y820506D01*
X350580Y820468D01*
X350567Y820378D01*
X350554Y820330D01*
X350557Y820309D01*
X350553Y820283D01*
X350553Y817883D01*
X347593Y814923D01*
X344893Y814923D01*
X344828Y814912D01*
X344762Y814910D01*
X344719Y814892D01*
X344672Y814884D01*
X344615Y814850D01*
X344555Y814825D01*
X344520Y814794D01*
X344479Y814769D01*
X344437Y814718D01*
X344389Y814674D01*
X344367Y814632D01*
X344338Y814595D01*
X344317Y814533D01*
X344286Y814474D01*
X344278Y814420D01*
X344266Y814383D01*
X344267Y814343D01*
X344259Y814289D01*
X344259Y794851D01*
X344266Y794810D01*
X344264Y794767D01*
X344286Y794700D01*
X344298Y794630D01*
X344320Y794594D01*
X344333Y794554D01*
X344387Y794481D01*
X344413Y794437D01*
X344429Y794424D01*
X344445Y794403D01*
X356721Y782127D01*
X356756Y782102D01*
X356784Y782071D01*
X356847Y782039D01*
X356905Y781998D01*
X356946Y781988D01*
X356984Y781968D01*
X357074Y781955D01*
X357122Y781942D01*
X357143Y781945D01*
X357169Y781941D01*
X414109Y781941D01*
X416910Y780781D01*
X418451Y779240D01*
X418476Y779222D01*
X418496Y779199D01*
X418598Y779138D01*
X418635Y779112D01*
X418646Y779109D01*
X418657Y779102D01*
X419361Y778811D01*
X473956Y724216D01*
X473991Y724191D01*
X474020Y724160D01*
X474083Y724128D01*
X474141Y724087D01*
X474182Y724077D01*
X474219Y724057D01*
X474309Y724044D01*
X474358Y724032D01*
X474379Y724034D01*
X474405Y724030D01*
X486825Y724030D01*
X486890Y724041D01*
X486956Y724043D01*
X486999Y724061D01*
X487046Y724069D01*
X487103Y724103D01*
X487163Y724128D01*
X487198Y724159D01*
X487239Y724184D01*
X487281Y724235D01*
X487329Y724279D01*
X487351Y724321D01*
X487380Y724358D01*
X487401Y724420D01*
X487432Y724479D01*
X487440Y724533D01*
X487452Y724570D01*
X487451Y724610D01*
X487459Y724664D01*
X487459Y936785D01*
X487445Y936867D01*
X487438Y936949D01*
X487425Y936976D01*
X487420Y937006D01*
X487377Y937077D01*
X487342Y937152D01*
X487321Y937173D01*
X487305Y937199D01*
X487241Y937251D01*
X487182Y937309D01*
X487154Y937322D01*
X487131Y937340D01*
X487053Y937367D01*
X486977Y937401D01*
X486947Y937403D01*
X486919Y937412D01*
X486836Y937410D01*
X486753Y937415D01*
X486724Y937406D01*
X486694Y937406D01*
X486618Y937374D01*
X486538Y937350D01*
X486514Y937332D01*
X486487Y937321D01*
X486425Y937265D01*
X486359Y937215D01*
X486340Y937187D01*
X486321Y937170D01*
X486299Y937126D01*
X486254Y937060D01*
X485512Y935519D01*
X476758Y926086D01*
X465613Y919651D01*
X453066Y916787D01*
X440233Y917749D01*
X428253Y922451D01*
X418192Y930475D01*
X410942Y941108D01*
X407149Y953405D01*
X407149Y966275D01*
X410942Y978572D01*
X418192Y989205D01*
X427124Y996329D01*
X427132Y996338D01*
X427143Y996345D01*
X427206Y996423D01*
X427272Y996498D01*
X427277Y996509D01*
X427284Y996519D01*
X427316Y996614D01*
X427352Y996708D01*
X427352Y996720D01*
X427356Y996731D01*
X427353Y996831D01*
X427354Y996932D01*
X427350Y996943D01*
X427350Y996956D01*
X427312Y997048D01*
X427278Y997143D01*
X427270Y997152D01*
X427265Y997163D01*
X427198Y997237D01*
X427133Y997314D01*
X427122Y997320D01*
X427114Y997329D01*
X427024Y997375D01*
X426937Y997424D01*
X426925Y997426D01*
X426914Y997432D01*
X426729Y997459D01*
X211000Y997459D01*
X210935Y997448D01*
X210869Y997446D01*
X210826Y997428D01*
X210779Y997420D01*
X210722Y997386D01*
X210662Y997361D01*
X210627Y997330D01*
X210586Y997305D01*
X210545Y997254D01*
X210496Y997210D01*
X210474Y997168D01*
X210445Y997131D01*
X210424Y997069D01*
X210393Y997010D01*
X210385Y996956D01*
X210373Y996919D01*
X210374Y996879D01*
X210366Y996825D01*
X210366Y940634D01*
X4675Y940634D01*
X4610Y940623D01*
X4544Y940621D01*
X4501Y940603D01*
X4454Y940595D01*
X4397Y940561D01*
X4337Y940536D01*
X4302Y940505D01*
X4261Y940480D01*
X4219Y940429D01*
X4171Y940385D01*
X4149Y940343D01*
X4120Y940306D01*
X4099Y940244D01*
X4068Y940185D01*
X4060Y940131D01*
X4048Y940094D01*
X4049Y940054D01*
X4041Y940000D01*
X4041Y724664D01*
X4052Y724599D01*
X4054Y724533D01*
X4072Y724490D01*
X4080Y724443D01*
X4114Y724386D01*
X4139Y724326D01*
X4170Y724291D01*
X4195Y724250D01*
X4246Y724209D01*
X4290Y724160D01*
X4332Y724138D01*
X4369Y724109D01*
X4431Y724088D01*
X4490Y724057D01*
X4544Y724049D01*
X4581Y724037D01*
X4621Y724038D01*
X4675Y724030D01*
X172807Y724030D01*
X172895Y724046D01*
G37*
G36*
X336228Y4013D02*
X336228Y4013D01*
X336295Y4015D01*
X336338Y4032D01*
X336383Y4040D01*
X336441Y4074D01*
X336503Y4100D01*
X336537Y4131D01*
X336576Y4155D01*
X336618Y4206D01*
X336668Y4252D01*
X336688Y4293D01*
X336718Y4329D01*
X336739Y4392D01*
X336769Y4452D01*
X336777Y4505D01*
X336789Y4541D01*
X336788Y4581D01*
X336796Y4637D01*
X336298Y148441D01*
X336288Y148493D01*
X336289Y148547D01*
X336268Y148603D01*
X336257Y148662D01*
X336230Y148707D01*
X336212Y148757D01*
X336173Y148803D01*
X336143Y148855D01*
X336101Y148888D01*
X336067Y148929D01*
X336005Y148966D01*
X335968Y148996D01*
X335940Y149005D01*
X335906Y149025D01*
X334811Y149479D01*
X332979Y151311D01*
X331987Y153705D01*
X331987Y156295D01*
X332419Y157338D01*
X332426Y157368D01*
X332440Y157395D01*
X332457Y157512D01*
X332467Y157557D01*
X332465Y157568D01*
X332467Y157580D01*
X332467Y225646D01*
X332460Y225688D01*
X332462Y225730D01*
X332440Y225797D01*
X332428Y225867D01*
X332406Y225903D01*
X332393Y225944D01*
X332339Y226016D01*
X332313Y226060D01*
X332297Y226073D01*
X332281Y226094D01*
X331074Y227301D01*
X331040Y227326D01*
X331011Y227357D01*
X330948Y227389D01*
X330890Y227430D01*
X330849Y227440D01*
X330811Y227460D01*
X330722Y227473D01*
X330673Y227486D01*
X330652Y227483D01*
X330626Y227487D01*
X330153Y227487D01*
X327759Y228479D01*
X325927Y230311D01*
X324935Y232705D01*
X324935Y235295D01*
X325927Y237689D01*
X327759Y239521D01*
X330153Y240513D01*
X331833Y240513D01*
X331898Y240524D01*
X331964Y240526D01*
X332007Y240544D01*
X332054Y240552D01*
X332111Y240586D01*
X332171Y240611D01*
X332206Y240642D01*
X332247Y240667D01*
X332289Y240718D01*
X332337Y240762D01*
X332359Y240804D01*
X332388Y240841D01*
X332409Y240903D01*
X332440Y240962D01*
X332448Y241016D01*
X332460Y241053D01*
X332459Y241093D01*
X332467Y241147D01*
X332467Y241200D01*
X333386Y243417D01*
X376583Y286614D01*
X378800Y287533D01*
X474238Y287533D01*
X474280Y287540D01*
X474323Y287538D01*
X474390Y287560D01*
X474459Y287572D01*
X474496Y287594D01*
X474536Y287607D01*
X474609Y287661D01*
X474653Y287687D01*
X474666Y287703D01*
X474687Y287719D01*
X479281Y292313D01*
X479306Y292348D01*
X479337Y292377D01*
X479369Y292439D01*
X479410Y292497D01*
X479420Y292538D01*
X479440Y292576D01*
X479453Y292666D01*
X479466Y292715D01*
X479463Y292735D01*
X479467Y292762D01*
X479467Y448238D01*
X479460Y448280D01*
X479462Y448323D01*
X479440Y448390D01*
X479428Y448459D01*
X479406Y448496D01*
X479393Y448536D01*
X479339Y448609D01*
X479313Y448652D01*
X479297Y448666D01*
X479281Y448687D01*
X469187Y458781D01*
X469152Y458806D01*
X469123Y458837D01*
X469061Y458869D01*
X469003Y458910D01*
X468962Y458920D01*
X468924Y458940D01*
X468834Y458953D01*
X468785Y458966D01*
X468765Y458963D01*
X468738Y458967D01*
X437300Y458967D01*
X435083Y459886D01*
X425802Y469167D01*
X424883Y471384D01*
X424883Y493116D01*
X425802Y495333D01*
X431141Y500672D01*
X431172Y500717D01*
X431210Y500755D01*
X431235Y500808D01*
X431269Y500857D01*
X431282Y500909D01*
X431305Y500958D01*
X431310Y501017D01*
X431325Y501074D01*
X431319Y501128D01*
X431324Y501182D01*
X431306Y501251D01*
X431302Y501297D01*
X431288Y501324D01*
X431278Y501364D01*
X430217Y503925D01*
X430217Y509155D01*
X432218Y513986D01*
X435916Y517684D01*
X438259Y518654D01*
X438334Y518702D01*
X438412Y518745D01*
X438428Y518762D01*
X438448Y518775D01*
X438501Y518846D01*
X438560Y518913D01*
X438568Y518936D01*
X438583Y518955D01*
X438608Y519040D01*
X438640Y519123D01*
X438640Y519147D01*
X438647Y519170D01*
X438641Y519259D01*
X438641Y519347D01*
X438633Y519370D01*
X438632Y519393D01*
X438595Y519475D01*
X438565Y519558D01*
X438550Y519577D01*
X438540Y519598D01*
X438477Y519662D01*
X438420Y519729D01*
X438397Y519743D01*
X438382Y519758D01*
X438337Y519779D01*
X438259Y519826D01*
X435916Y520796D01*
X432218Y524494D01*
X431368Y526548D01*
X431339Y526593D01*
X431318Y526643D01*
X431278Y526687D01*
X431247Y526737D01*
X431203Y526769D01*
X431167Y526809D01*
X431114Y526836D01*
X431067Y526871D01*
X431015Y526887D01*
X430967Y526912D01*
X430897Y526922D01*
X430852Y526935D01*
X430822Y526933D01*
X430782Y526939D01*
X429435Y526939D01*
X387229Y569145D01*
X387229Y718200D01*
X387218Y718265D01*
X387216Y718331D01*
X387198Y718374D01*
X387190Y718421D01*
X387156Y718478D01*
X387131Y718538D01*
X387100Y718573D01*
X387075Y718614D01*
X387024Y718656D01*
X386980Y718704D01*
X386938Y718726D01*
X386901Y718755D01*
X386839Y718776D01*
X386780Y718807D01*
X386726Y718815D01*
X386689Y718827D01*
X386649Y718826D01*
X386595Y718834D01*
X14231Y718834D01*
X14166Y718823D01*
X14100Y718821D01*
X14057Y718803D01*
X14010Y718795D01*
X13953Y718761D01*
X13893Y718736D01*
X13858Y718705D01*
X13817Y718680D01*
X13775Y718629D01*
X13727Y718585D01*
X13705Y718543D01*
X13676Y718506D01*
X13655Y718444D01*
X13624Y718385D01*
X13616Y718331D01*
X13604Y718294D01*
X13605Y718263D01*
X13604Y718260D01*
X13604Y718249D01*
X13597Y718200D01*
X13597Y443417D01*
X13613Y443330D01*
X13622Y443241D01*
X13632Y443220D01*
X13636Y443197D01*
X13682Y443120D01*
X13721Y443040D01*
X13738Y443024D01*
X13751Y443003D01*
X13820Y442947D01*
X13884Y442886D01*
X13906Y442877D01*
X13925Y442862D01*
X14009Y442833D01*
X14091Y442799D01*
X14115Y442798D01*
X14137Y442790D01*
X14226Y442793D01*
X14315Y442789D01*
X14338Y442796D01*
X14362Y442797D01*
X14444Y442830D01*
X14529Y442857D01*
X14550Y442873D01*
X14569Y442881D01*
X14607Y442915D01*
X14679Y442969D01*
X16854Y445144D01*
X21685Y447145D01*
X26915Y447145D01*
X31746Y445144D01*
X35444Y441446D01*
X36414Y439103D01*
X36462Y439028D01*
X36504Y438950D01*
X36522Y438934D01*
X36535Y438914D01*
X36606Y438861D01*
X36673Y438802D01*
X36696Y438794D01*
X36715Y438779D01*
X36800Y438754D01*
X36883Y438722D01*
X36907Y438722D01*
X36930Y438715D01*
X37018Y438721D01*
X37107Y438721D01*
X37130Y438729D01*
X37153Y438730D01*
X37235Y438767D01*
X37318Y438797D01*
X37336Y438813D01*
X37358Y438822D01*
X37421Y438885D01*
X37489Y438942D01*
X37503Y438965D01*
X37518Y438980D01*
X37539Y439025D01*
X37586Y439103D01*
X38563Y441463D01*
X38587Y441484D01*
X38619Y441547D01*
X38660Y441605D01*
X38670Y441646D01*
X38690Y441684D01*
X38703Y441774D01*
X38716Y441822D01*
X38713Y441843D01*
X38717Y441869D01*
X38717Y454044D01*
X38712Y454074D01*
X38714Y454105D01*
X38686Y454220D01*
X38678Y454265D01*
X38672Y454274D01*
X38669Y454287D01*
X37895Y456155D01*
X37895Y458845D01*
X38925Y461331D01*
X40827Y463233D01*
X43313Y464263D01*
X46003Y464263D01*
X48489Y463233D01*
X50391Y461331D01*
X51421Y458845D01*
X51421Y456155D01*
X50767Y454577D01*
X50760Y454547D01*
X50746Y454519D01*
X50734Y454437D01*
X50726Y454412D01*
X50726Y454390D01*
X50719Y454357D01*
X50721Y454347D01*
X50719Y454334D01*
X50719Y447779D01*
X50730Y447714D01*
X50732Y447648D01*
X50750Y447605D01*
X50758Y447558D01*
X50792Y447501D01*
X50817Y447441D01*
X50848Y447406D01*
X50873Y447365D01*
X50924Y447323D01*
X50968Y447275D01*
X51010Y447253D01*
X51047Y447224D01*
X51109Y447203D01*
X51168Y447172D01*
X51222Y447164D01*
X51259Y447152D01*
X51299Y447153D01*
X51353Y447145D01*
X52315Y447145D01*
X57146Y445144D01*
X60844Y441446D01*
X62845Y436615D01*
X62845Y431385D01*
X60844Y426554D01*
X57146Y422856D01*
X52315Y420855D01*
X47085Y420855D01*
X42254Y422856D01*
X38556Y426554D01*
X37586Y428897D01*
X37538Y428972D01*
X37495Y429050D01*
X37478Y429066D01*
X37465Y429086D01*
X37394Y429139D01*
X37327Y429198D01*
X37304Y429206D01*
X37285Y429221D01*
X37200Y429246D01*
X37117Y429278D01*
X37093Y429278D01*
X37070Y429285D01*
X36981Y429279D01*
X36893Y429279D01*
X36870Y429271D01*
X36847Y429270D01*
X36765Y429233D01*
X36682Y429203D01*
X36663Y429187D01*
X36642Y429178D01*
X36578Y429115D01*
X36511Y429058D01*
X36497Y429035D01*
X36482Y429020D01*
X36461Y428975D01*
X36414Y428897D01*
X35444Y426554D01*
X31746Y422856D01*
X26915Y420855D01*
X21685Y420855D01*
X16854Y422856D01*
X14679Y425031D01*
X14606Y425082D01*
X14537Y425138D01*
X14515Y425146D01*
X14495Y425159D01*
X14409Y425181D01*
X14325Y425210D01*
X14301Y425209D01*
X14278Y425215D01*
X14189Y425206D01*
X14100Y425203D01*
X14078Y425194D01*
X14055Y425192D01*
X13975Y425152D01*
X13893Y425119D01*
X13875Y425103D01*
X13854Y425092D01*
X13793Y425028D01*
X13727Y424968D01*
X13716Y424946D01*
X13700Y424929D01*
X13665Y424847D01*
X13624Y424768D01*
X13621Y424742D01*
X13612Y424723D01*
X13610Y424672D01*
X13597Y424583D01*
X13597Y413417D01*
X13613Y413330D01*
X13622Y413241D01*
X13632Y413220D01*
X13636Y413197D01*
X13682Y413120D01*
X13721Y413040D01*
X13738Y413024D01*
X13751Y413003D01*
X13820Y412947D01*
X13884Y412886D01*
X13906Y412877D01*
X13925Y412862D01*
X14009Y412833D01*
X14091Y412799D01*
X14115Y412798D01*
X14137Y412790D01*
X14226Y412793D01*
X14315Y412789D01*
X14338Y412796D01*
X14362Y412797D01*
X14444Y412830D01*
X14529Y412857D01*
X14550Y412873D01*
X14569Y412881D01*
X14607Y412915D01*
X14679Y412969D01*
X16854Y415144D01*
X21685Y417145D01*
X26915Y417145D01*
X31746Y415144D01*
X35444Y411446D01*
X36414Y409103D01*
X36462Y409028D01*
X36505Y408950D01*
X36522Y408934D01*
X36535Y408914D01*
X36606Y408861D01*
X36673Y408802D01*
X36696Y408794D01*
X36715Y408779D01*
X36800Y408754D01*
X36883Y408722D01*
X36907Y408722D01*
X36930Y408715D01*
X37019Y408721D01*
X37107Y408721D01*
X37130Y408729D01*
X37153Y408730D01*
X37235Y408767D01*
X37318Y408797D01*
X37337Y408813D01*
X37358Y408822D01*
X37422Y408885D01*
X37489Y408942D01*
X37503Y408965D01*
X37518Y408980D01*
X37539Y409025D01*
X37586Y409103D01*
X38556Y411446D01*
X42254Y415144D01*
X47085Y417145D01*
X52315Y417145D01*
X57146Y415144D01*
X60844Y411446D01*
X62845Y406615D01*
X62845Y401385D01*
X60844Y396554D01*
X57146Y392856D01*
X52315Y390855D01*
X47085Y390855D01*
X42254Y392856D01*
X38556Y396554D01*
X37586Y398897D01*
X37538Y398972D01*
X37496Y399050D01*
X37478Y399066D01*
X37465Y399086D01*
X37394Y399139D01*
X37327Y399198D01*
X37304Y399206D01*
X37285Y399221D01*
X37200Y399246D01*
X37117Y399278D01*
X37093Y399278D01*
X37070Y399285D01*
X36982Y399279D01*
X36893Y399279D01*
X36870Y399271D01*
X36847Y399270D01*
X36765Y399233D01*
X36682Y399203D01*
X36664Y399187D01*
X36642Y399178D01*
X36579Y399115D01*
X36511Y399058D01*
X36497Y399035D01*
X36482Y399020D01*
X36461Y398975D01*
X36414Y398897D01*
X35444Y396554D01*
X31746Y392856D01*
X26915Y390855D01*
X21685Y390855D01*
X16854Y392856D01*
X14679Y395031D01*
X14606Y395082D01*
X14537Y395138D01*
X14515Y395146D01*
X14495Y395159D01*
X14409Y395181D01*
X14325Y395210D01*
X14301Y395209D01*
X14278Y395215D01*
X14189Y395206D01*
X14100Y395203D01*
X14078Y395194D01*
X14055Y395192D01*
X13975Y395152D01*
X13893Y395119D01*
X13875Y395103D01*
X13854Y395092D01*
X13793Y395028D01*
X13727Y394968D01*
X13716Y394946D01*
X13700Y394929D01*
X13665Y394847D01*
X13624Y394768D01*
X13621Y394742D01*
X13612Y394723D01*
X13610Y394672D01*
X13597Y394583D01*
X13597Y383417D01*
X13613Y383330D01*
X13622Y383241D01*
X13632Y383220D01*
X13636Y383197D01*
X13682Y383120D01*
X13721Y383040D01*
X13738Y383024D01*
X13751Y383003D01*
X13820Y382947D01*
X13884Y382886D01*
X13906Y382877D01*
X13925Y382862D01*
X14009Y382833D01*
X14091Y382799D01*
X14115Y382798D01*
X14137Y382790D01*
X14226Y382793D01*
X14315Y382789D01*
X14338Y382796D01*
X14362Y382797D01*
X14444Y382830D01*
X14529Y382857D01*
X14550Y382873D01*
X14569Y382881D01*
X14607Y382915D01*
X14679Y382969D01*
X16854Y385144D01*
X21685Y387145D01*
X26915Y387145D01*
X31746Y385144D01*
X35444Y381446D01*
X36414Y379103D01*
X36462Y379028D01*
X36505Y378950D01*
X36522Y378934D01*
X36535Y378914D01*
X36606Y378861D01*
X36673Y378802D01*
X36696Y378794D01*
X36715Y378779D01*
X36800Y378754D01*
X36883Y378722D01*
X36907Y378722D01*
X36930Y378715D01*
X37019Y378721D01*
X37107Y378721D01*
X37130Y378729D01*
X37153Y378730D01*
X37235Y378767D01*
X37318Y378797D01*
X37337Y378813D01*
X37358Y378822D01*
X37422Y378885D01*
X37489Y378942D01*
X37503Y378965D01*
X37518Y378980D01*
X37539Y379025D01*
X37586Y379103D01*
X38556Y381446D01*
X42254Y385144D01*
X47085Y387145D01*
X52315Y387145D01*
X57146Y385144D01*
X60844Y381446D01*
X62845Y376615D01*
X62845Y371385D01*
X60844Y366554D01*
X57146Y362856D01*
X52315Y360855D01*
X47085Y360855D01*
X42254Y362856D01*
X38556Y366554D01*
X37586Y368897D01*
X37538Y368972D01*
X37496Y369050D01*
X37478Y369066D01*
X37465Y369086D01*
X37394Y369139D01*
X37327Y369198D01*
X37304Y369206D01*
X37285Y369221D01*
X37200Y369246D01*
X37117Y369278D01*
X37093Y369278D01*
X37070Y369285D01*
X36982Y369279D01*
X36893Y369279D01*
X36870Y369271D01*
X36847Y369270D01*
X36765Y369233D01*
X36682Y369203D01*
X36664Y369187D01*
X36642Y369178D01*
X36579Y369115D01*
X36511Y369058D01*
X36497Y369035D01*
X36482Y369020D01*
X36461Y368975D01*
X36414Y368897D01*
X35444Y366554D01*
X31746Y362856D01*
X26915Y360855D01*
X21685Y360855D01*
X16854Y362856D01*
X14679Y365031D01*
X14606Y365082D01*
X14537Y365138D01*
X14515Y365146D01*
X14495Y365159D01*
X14409Y365181D01*
X14325Y365210D01*
X14301Y365209D01*
X14278Y365215D01*
X14189Y365206D01*
X14100Y365203D01*
X14078Y365194D01*
X14055Y365192D01*
X13975Y365152D01*
X13893Y365119D01*
X13875Y365103D01*
X13854Y365092D01*
X13793Y365028D01*
X13727Y364968D01*
X13716Y364946D01*
X13700Y364929D01*
X13665Y364847D01*
X13624Y364768D01*
X13621Y364742D01*
X13612Y364723D01*
X13610Y364672D01*
X13597Y364583D01*
X13597Y353417D01*
X13613Y353330D01*
X13622Y353241D01*
X13632Y353220D01*
X13636Y353197D01*
X13682Y353120D01*
X13721Y353040D01*
X13738Y353024D01*
X13751Y353003D01*
X13820Y352947D01*
X13884Y352886D01*
X13906Y352877D01*
X13925Y352862D01*
X14009Y352833D01*
X14091Y352799D01*
X14115Y352798D01*
X14137Y352790D01*
X14226Y352793D01*
X14315Y352789D01*
X14338Y352796D01*
X14362Y352797D01*
X14444Y352830D01*
X14529Y352857D01*
X14550Y352873D01*
X14569Y352881D01*
X14607Y352915D01*
X14679Y352969D01*
X16854Y355144D01*
X21685Y357145D01*
X26915Y357145D01*
X31746Y355144D01*
X35444Y351446D01*
X36414Y349103D01*
X36462Y349028D01*
X36505Y348950D01*
X36522Y348934D01*
X36535Y348914D01*
X36606Y348861D01*
X36673Y348802D01*
X36696Y348794D01*
X36715Y348779D01*
X36800Y348754D01*
X36883Y348722D01*
X36907Y348722D01*
X36930Y348715D01*
X37019Y348721D01*
X37107Y348721D01*
X37130Y348729D01*
X37153Y348730D01*
X37235Y348767D01*
X37318Y348797D01*
X37337Y348813D01*
X37358Y348822D01*
X37422Y348885D01*
X37489Y348942D01*
X37503Y348965D01*
X37518Y348980D01*
X37539Y349025D01*
X37586Y349103D01*
X38556Y351446D01*
X42254Y355144D01*
X47085Y357145D01*
X52315Y357145D01*
X57146Y355144D01*
X60844Y351446D01*
X62845Y346615D01*
X62845Y341385D01*
X60844Y336554D01*
X57146Y332856D01*
X52315Y330855D01*
X47085Y330855D01*
X42254Y332856D01*
X38556Y336554D01*
X37586Y338897D01*
X37538Y338972D01*
X37496Y339050D01*
X37478Y339066D01*
X37465Y339086D01*
X37394Y339139D01*
X37327Y339198D01*
X37304Y339206D01*
X37285Y339221D01*
X37200Y339246D01*
X37117Y339278D01*
X37093Y339278D01*
X37070Y339285D01*
X36982Y339279D01*
X36893Y339279D01*
X36870Y339271D01*
X36847Y339270D01*
X36765Y339233D01*
X36682Y339203D01*
X36664Y339187D01*
X36642Y339178D01*
X36579Y339115D01*
X36511Y339058D01*
X36497Y339035D01*
X36482Y339020D01*
X36461Y338975D01*
X36414Y338897D01*
X35444Y336554D01*
X31746Y332856D01*
X26915Y330855D01*
X21685Y330855D01*
X16854Y332856D01*
X14679Y335031D01*
X14606Y335082D01*
X14537Y335138D01*
X14515Y335146D01*
X14495Y335159D01*
X14409Y335181D01*
X14325Y335210D01*
X14301Y335209D01*
X14278Y335215D01*
X14189Y335206D01*
X14100Y335203D01*
X14078Y335194D01*
X14055Y335192D01*
X13975Y335152D01*
X13893Y335119D01*
X13875Y335103D01*
X13854Y335092D01*
X13793Y335028D01*
X13727Y334968D01*
X13716Y334946D01*
X13700Y334929D01*
X13665Y334847D01*
X13624Y334768D01*
X13621Y334742D01*
X13612Y334723D01*
X13610Y334672D01*
X13597Y334583D01*
X13597Y323417D01*
X13613Y323330D01*
X13622Y323241D01*
X13632Y323220D01*
X13636Y323197D01*
X13682Y323120D01*
X13721Y323040D01*
X13738Y323024D01*
X13751Y323003D01*
X13820Y322947D01*
X13884Y322886D01*
X13906Y322877D01*
X13925Y322862D01*
X14009Y322833D01*
X14091Y322799D01*
X14115Y322798D01*
X14137Y322790D01*
X14226Y322793D01*
X14315Y322789D01*
X14338Y322796D01*
X14362Y322797D01*
X14444Y322830D01*
X14529Y322857D01*
X14550Y322873D01*
X14569Y322881D01*
X14607Y322915D01*
X14679Y322969D01*
X16854Y325144D01*
X21685Y327145D01*
X26915Y327145D01*
X31746Y325144D01*
X35444Y321446D01*
X36414Y319103D01*
X36462Y319028D01*
X36505Y318950D01*
X36522Y318934D01*
X36535Y318914D01*
X36606Y318861D01*
X36673Y318802D01*
X36696Y318794D01*
X36715Y318779D01*
X36800Y318754D01*
X36883Y318722D01*
X36907Y318722D01*
X36930Y318715D01*
X37019Y318721D01*
X37107Y318721D01*
X37130Y318729D01*
X37153Y318730D01*
X37235Y318767D01*
X37318Y318797D01*
X37337Y318813D01*
X37358Y318822D01*
X37422Y318885D01*
X37489Y318942D01*
X37503Y318965D01*
X37518Y318980D01*
X37539Y319025D01*
X37586Y319103D01*
X38556Y321446D01*
X42254Y325144D01*
X47085Y327145D01*
X52315Y327145D01*
X57146Y325144D01*
X60844Y321446D01*
X62845Y316615D01*
X62845Y311385D01*
X60844Y306554D01*
X57146Y302856D01*
X52315Y300855D01*
X47085Y300855D01*
X42254Y302856D01*
X38556Y306554D01*
X37586Y308897D01*
X37538Y308972D01*
X37496Y309050D01*
X37478Y309066D01*
X37465Y309086D01*
X37394Y309139D01*
X37327Y309198D01*
X37304Y309206D01*
X37285Y309221D01*
X37200Y309246D01*
X37117Y309278D01*
X37093Y309278D01*
X37070Y309285D01*
X36982Y309279D01*
X36893Y309279D01*
X36870Y309271D01*
X36847Y309270D01*
X36765Y309233D01*
X36682Y309203D01*
X36664Y309187D01*
X36642Y309178D01*
X36579Y309115D01*
X36511Y309058D01*
X36497Y309035D01*
X36482Y309020D01*
X36461Y308975D01*
X36414Y308897D01*
X35444Y306554D01*
X31746Y302856D01*
X26915Y300855D01*
X21685Y300855D01*
X16854Y302856D01*
X14679Y305031D01*
X14606Y305082D01*
X14537Y305138D01*
X14515Y305146D01*
X14495Y305159D01*
X14409Y305181D01*
X14325Y305210D01*
X14301Y305209D01*
X14278Y305215D01*
X14189Y305206D01*
X14100Y305203D01*
X14078Y305194D01*
X14055Y305192D01*
X13975Y305152D01*
X13893Y305119D01*
X13875Y305103D01*
X13854Y305092D01*
X13793Y305028D01*
X13727Y304968D01*
X13716Y304946D01*
X13700Y304929D01*
X13665Y304847D01*
X13624Y304768D01*
X13621Y304742D01*
X13612Y304723D01*
X13610Y304672D01*
X13597Y304583D01*
X13597Y293417D01*
X13613Y293330D01*
X13622Y293241D01*
X13632Y293220D01*
X13636Y293197D01*
X13682Y293120D01*
X13721Y293040D01*
X13738Y293024D01*
X13751Y293003D01*
X13820Y292947D01*
X13884Y292886D01*
X13906Y292877D01*
X13925Y292862D01*
X14009Y292833D01*
X14091Y292799D01*
X14115Y292798D01*
X14137Y292790D01*
X14226Y292793D01*
X14315Y292789D01*
X14338Y292796D01*
X14362Y292797D01*
X14444Y292830D01*
X14529Y292857D01*
X14550Y292873D01*
X14569Y292881D01*
X14607Y292915D01*
X14679Y292969D01*
X16854Y295144D01*
X21685Y297145D01*
X26915Y297145D01*
X31746Y295144D01*
X35444Y291446D01*
X36414Y289103D01*
X36462Y289028D01*
X36505Y288950D01*
X36522Y288934D01*
X36535Y288914D01*
X36606Y288861D01*
X36673Y288802D01*
X36696Y288794D01*
X36715Y288779D01*
X36800Y288754D01*
X36883Y288722D01*
X36907Y288722D01*
X36930Y288715D01*
X37019Y288721D01*
X37107Y288721D01*
X37130Y288729D01*
X37153Y288730D01*
X37235Y288767D01*
X37318Y288797D01*
X37337Y288812D01*
X37358Y288822D01*
X37422Y288885D01*
X37489Y288942D01*
X37503Y288965D01*
X37518Y288980D01*
X37539Y289025D01*
X37586Y289103D01*
X38556Y291446D01*
X42254Y295144D01*
X47085Y297145D01*
X52315Y297145D01*
X57146Y295144D01*
X60844Y291446D01*
X62845Y286615D01*
X62845Y281385D01*
X60844Y276554D01*
X57146Y272856D01*
X52315Y270855D01*
X47085Y270855D01*
X42254Y272856D01*
X38556Y276554D01*
X37586Y278897D01*
X37557Y278942D01*
X37546Y278969D01*
X37529Y278988D01*
X37496Y279050D01*
X37478Y279066D01*
X37465Y279086D01*
X37394Y279139D01*
X37327Y279198D01*
X37304Y279206D01*
X37285Y279221D01*
X37200Y279246D01*
X37117Y279278D01*
X37093Y279278D01*
X37070Y279285D01*
X36982Y279279D01*
X36893Y279279D01*
X36870Y279271D01*
X36847Y279270D01*
X36765Y279233D01*
X36682Y279203D01*
X36664Y279188D01*
X36642Y279178D01*
X36579Y279115D01*
X36511Y279058D01*
X36497Y279035D01*
X36482Y279020D01*
X36461Y278975D01*
X36448Y278953D01*
X36435Y278937D01*
X36431Y278925D01*
X36414Y278897D01*
X35444Y276554D01*
X31746Y272856D01*
X26915Y270855D01*
X21685Y270855D01*
X16854Y272856D01*
X14679Y275031D01*
X14606Y275082D01*
X14537Y275138D01*
X14515Y275146D01*
X14495Y275159D01*
X14409Y275181D01*
X14325Y275210D01*
X14301Y275209D01*
X14278Y275215D01*
X14189Y275206D01*
X14100Y275203D01*
X14078Y275194D01*
X14055Y275192D01*
X13975Y275152D01*
X13893Y275119D01*
X13875Y275103D01*
X13854Y275092D01*
X13793Y275028D01*
X13727Y274968D01*
X13716Y274946D01*
X13700Y274929D01*
X13665Y274847D01*
X13624Y274768D01*
X13621Y274742D01*
X13612Y274723D01*
X13610Y274672D01*
X13597Y274583D01*
X13597Y263417D01*
X13613Y263330D01*
X13622Y263241D01*
X13632Y263220D01*
X13636Y263197D01*
X13682Y263120D01*
X13721Y263040D01*
X13738Y263024D01*
X13751Y263003D01*
X13820Y262947D01*
X13884Y262886D01*
X13906Y262877D01*
X13925Y262862D01*
X14009Y262833D01*
X14091Y262799D01*
X14115Y262798D01*
X14137Y262790D01*
X14226Y262793D01*
X14315Y262789D01*
X14338Y262796D01*
X14362Y262797D01*
X14444Y262830D01*
X14529Y262857D01*
X14550Y262873D01*
X14569Y262881D01*
X14607Y262915D01*
X14679Y262969D01*
X16854Y265144D01*
X21685Y267145D01*
X26915Y267145D01*
X31746Y265144D01*
X35444Y261446D01*
X36414Y259103D01*
X36462Y259028D01*
X36505Y258950D01*
X36522Y258934D01*
X36535Y258914D01*
X36606Y258861D01*
X36673Y258802D01*
X36696Y258794D01*
X36715Y258779D01*
X36800Y258754D01*
X36883Y258722D01*
X36907Y258722D01*
X36930Y258715D01*
X37019Y258721D01*
X37107Y258721D01*
X37130Y258729D01*
X37153Y258730D01*
X37235Y258767D01*
X37318Y258797D01*
X37337Y258812D01*
X37358Y258822D01*
X37422Y258885D01*
X37489Y258942D01*
X37503Y258965D01*
X37518Y258980D01*
X37539Y259025D01*
X37586Y259103D01*
X38556Y261446D01*
X42254Y265144D01*
X47085Y267145D01*
X52315Y267145D01*
X57146Y265144D01*
X60844Y261446D01*
X62845Y256615D01*
X62845Y251385D01*
X60844Y246554D01*
X57146Y242856D01*
X52315Y240855D01*
X47085Y240855D01*
X42738Y242656D01*
X42640Y242677D01*
X42542Y242702D01*
X42531Y242701D01*
X42519Y242704D01*
X42419Y242690D01*
X42319Y242679D01*
X42309Y242674D01*
X42297Y242672D01*
X42208Y242624D01*
X42118Y242580D01*
X42110Y242571D01*
X42099Y242565D01*
X42033Y242490D01*
X41964Y242417D01*
X41960Y242406D01*
X41952Y242397D01*
X41916Y242303D01*
X41877Y242210D01*
X41876Y242198D01*
X41872Y242187D01*
X41871Y242086D01*
X41867Y241986D01*
X41870Y241975D01*
X41870Y241963D01*
X41905Y241868D01*
X41935Y241772D01*
X41943Y241762D01*
X41947Y241752D01*
X41976Y241717D01*
X42047Y241622D01*
X46389Y237280D01*
X46433Y237249D01*
X46471Y237210D01*
X46524Y237185D01*
X46573Y237152D01*
X46625Y237138D01*
X46674Y237115D01*
X46733Y237111D01*
X46790Y237096D01*
X46844Y237101D01*
X46898Y237097D01*
X46967Y237114D01*
X47013Y237119D01*
X47041Y237133D01*
X47080Y237142D01*
X47085Y237145D01*
X52315Y237145D01*
X57146Y235144D01*
X60844Y231446D01*
X62845Y226615D01*
X62845Y221385D01*
X60844Y216554D01*
X57146Y212856D01*
X52315Y210855D01*
X47085Y210855D01*
X42254Y212856D01*
X38556Y216554D01*
X37586Y218897D01*
X37538Y218972D01*
X37496Y219050D01*
X37478Y219066D01*
X37465Y219086D01*
X37394Y219139D01*
X37327Y219198D01*
X37304Y219206D01*
X37285Y219221D01*
X37200Y219246D01*
X37117Y219278D01*
X37093Y219278D01*
X37070Y219285D01*
X36982Y219279D01*
X36893Y219279D01*
X36870Y219271D01*
X36847Y219270D01*
X36765Y219233D01*
X36682Y219203D01*
X36664Y219188D01*
X36642Y219178D01*
X36579Y219115D01*
X36511Y219058D01*
X36497Y219035D01*
X36482Y219020D01*
X36461Y218975D01*
X36414Y218897D01*
X35444Y216554D01*
X31746Y212856D01*
X26915Y210855D01*
X21685Y210855D01*
X16854Y212856D01*
X13156Y216554D01*
X11155Y221385D01*
X11155Y226615D01*
X13156Y231446D01*
X14173Y232462D01*
X14210Y232516D01*
X14255Y232564D01*
X14274Y232607D01*
X14301Y232646D01*
X14317Y232710D01*
X14343Y232771D01*
X14345Y232818D01*
X14357Y232864D01*
X14350Y232929D01*
X14353Y232995D01*
X14338Y233040D01*
X14333Y233087D01*
X14304Y233146D01*
X14284Y233208D01*
X14251Y233253D01*
X14234Y233288D01*
X14205Y233315D01*
X14173Y233359D01*
X6583Y240948D01*
X6510Y240999D01*
X6441Y241055D01*
X6419Y241063D01*
X6399Y241076D01*
X6313Y241098D01*
X6229Y241127D01*
X6205Y241126D01*
X6182Y241132D01*
X6093Y241123D01*
X6004Y241120D01*
X5982Y241111D01*
X5959Y241109D01*
X5879Y241069D01*
X5797Y241036D01*
X5779Y241020D01*
X5758Y241009D01*
X5697Y240945D01*
X5631Y240885D01*
X5620Y240863D01*
X5604Y240846D01*
X5569Y240764D01*
X5528Y240685D01*
X5525Y240659D01*
X5516Y240640D01*
X5514Y240589D01*
X5501Y240500D01*
X5501Y69326D01*
X5512Y69261D01*
X5514Y69198D01*
X5531Y69157D01*
X5540Y69107D01*
X5540Y69106D01*
X5540Y69105D01*
X5577Y69043D01*
X5599Y68990D01*
X5626Y68960D01*
X5653Y68913D01*
X5654Y68913D01*
X5655Y68912D01*
X5714Y68864D01*
X5750Y68824D01*
X5783Y68807D01*
X5827Y68772D01*
X5828Y68771D01*
X5829Y68771D01*
X5905Y68745D01*
X5950Y68722D01*
X5991Y68716D01*
X6040Y68699D01*
X6041Y68699D01*
X6094Y68700D01*
X6135Y68694D01*
X6137Y68694D01*
X6186Y68703D01*
X6264Y68705D01*
X6265Y68705D01*
X6266Y68705D01*
X6318Y68727D01*
X6358Y68734D01*
X6406Y68762D01*
X6472Y68789D01*
X6473Y68789D01*
X6473Y68790D01*
X6479Y68795D01*
X6519Y68829D01*
X6551Y68848D01*
X6574Y68876D01*
X6614Y68911D01*
X10931Y73892D01*
X21618Y80761D01*
X33808Y84340D01*
X46512Y84340D01*
X58392Y80852D01*
X58459Y80844D01*
X58524Y80828D01*
X58569Y80832D01*
X58615Y80827D01*
X58680Y80844D01*
X58747Y80851D01*
X58788Y80871D01*
X58833Y80883D01*
X58888Y80921D01*
X58948Y80950D01*
X58980Y80984D01*
X59017Y81010D01*
X59056Y81065D01*
X59102Y81114D01*
X59120Y81156D01*
X59146Y81194D01*
X59163Y81258D01*
X59189Y81320D01*
X59191Y81366D01*
X59203Y81411D01*
X59196Y81477D01*
X59199Y81544D01*
X59185Y81588D01*
X59181Y81634D01*
X59151Y81694D01*
X59131Y81758D01*
X59099Y81801D01*
X59082Y81835D01*
X59053Y81863D01*
X59019Y81909D01*
X40699Y100229D01*
X40699Y124149D01*
X40692Y124190D01*
X40694Y124233D01*
X40672Y124300D01*
X40660Y124369D01*
X40638Y124406D01*
X40625Y124446D01*
X40571Y124519D01*
X40545Y124563D01*
X40529Y124576D01*
X40513Y124597D01*
X38556Y126554D01*
X37586Y128897D01*
X37538Y128972D01*
X37496Y129050D01*
X37478Y129066D01*
X37465Y129086D01*
X37394Y129139D01*
X37327Y129198D01*
X37304Y129206D01*
X37285Y129221D01*
X37200Y129246D01*
X37117Y129278D01*
X37093Y129278D01*
X37070Y129285D01*
X36982Y129279D01*
X36893Y129279D01*
X36870Y129271D01*
X36847Y129270D01*
X36765Y129233D01*
X36682Y129203D01*
X36664Y129188D01*
X36642Y129178D01*
X36579Y129115D01*
X36511Y129058D01*
X36497Y129035D01*
X36482Y129020D01*
X36461Y128975D01*
X36414Y128897D01*
X35444Y126554D01*
X31746Y122856D01*
X26915Y120855D01*
X21685Y120855D01*
X16854Y122856D01*
X13156Y126554D01*
X11155Y131385D01*
X11155Y136615D01*
X13156Y141446D01*
X16854Y145144D01*
X21685Y147145D01*
X26915Y147145D01*
X31746Y145144D01*
X34239Y142650D01*
X34293Y142613D01*
X34341Y142567D01*
X34385Y142549D01*
X34423Y142522D01*
X34487Y142506D01*
X34548Y142480D01*
X34595Y142478D01*
X34641Y142466D01*
X34706Y142473D01*
X34772Y142470D01*
X34817Y142485D01*
X34864Y142489D01*
X34923Y142519D01*
X34986Y142539D01*
X35030Y142571D01*
X35065Y142589D01*
X35092Y142618D01*
X35136Y142650D01*
X39786Y147300D01*
X42901Y150415D01*
X44960Y150415D01*
X45059Y150433D01*
X45159Y150447D01*
X45169Y150452D01*
X45181Y150454D01*
X45268Y150505D01*
X45356Y150553D01*
X45364Y150562D01*
X45374Y150569D01*
X45438Y150646D01*
X45504Y150722D01*
X45508Y150734D01*
X45516Y150743D01*
X45548Y150838D01*
X45584Y150932D01*
X45584Y150944D01*
X45588Y150955D01*
X45585Y151055D01*
X45585Y151156D01*
X45581Y151168D01*
X45581Y151180D01*
X45543Y151272D01*
X45509Y151367D01*
X45501Y151376D01*
X45497Y151387D01*
X45429Y151462D01*
X45364Y151538D01*
X45353Y151545D01*
X45345Y151553D01*
X45304Y151574D01*
X45203Y151635D01*
X42254Y152856D01*
X38556Y156554D01*
X37706Y158608D01*
X37677Y158653D01*
X37656Y158703D01*
X37616Y158747D01*
X37585Y158797D01*
X37541Y158829D01*
X37505Y158869D01*
X37452Y158896D01*
X37405Y158931D01*
X37353Y158947D01*
X37305Y158972D01*
X37235Y158982D01*
X37190Y158995D01*
X37160Y158993D01*
X37120Y158999D01*
X36880Y158999D01*
X36827Y158990D01*
X36773Y158990D01*
X36717Y158970D01*
X36659Y158960D01*
X36613Y158932D01*
X36562Y158914D01*
X36517Y158875D01*
X36466Y158845D01*
X36432Y158803D01*
X36391Y158768D01*
X36354Y158707D01*
X36325Y158671D01*
X36315Y158642D01*
X36294Y158608D01*
X35444Y156554D01*
X31746Y152856D01*
X26915Y150855D01*
X21685Y150855D01*
X16854Y152856D01*
X13156Y156554D01*
X11155Y161385D01*
X11155Y166615D01*
X13156Y171446D01*
X16854Y175144D01*
X21685Y177145D01*
X26915Y177145D01*
X31746Y175144D01*
X35444Y171446D01*
X36294Y169392D01*
X36323Y169347D01*
X36344Y169297D01*
X36384Y169253D01*
X36415Y169203D01*
X36459Y169171D01*
X36495Y169131D01*
X36548Y169104D01*
X36595Y169069D01*
X36647Y169053D01*
X36695Y169028D01*
X36765Y169018D01*
X36810Y169005D01*
X36840Y169007D01*
X36880Y169001D01*
X37120Y169001D01*
X37173Y169010D01*
X37227Y169010D01*
X37283Y169030D01*
X37341Y169040D01*
X37387Y169068D01*
X37438Y169086D01*
X37483Y169125D01*
X37534Y169155D01*
X37568Y169197D01*
X37609Y169232D01*
X37646Y169293D01*
X37675Y169329D01*
X37685Y169358D01*
X37706Y169392D01*
X38556Y171446D01*
X42254Y175144D01*
X47085Y177145D01*
X52315Y177145D01*
X57146Y175144D01*
X60844Y171446D01*
X61694Y169392D01*
X61723Y169347D01*
X61744Y169297D01*
X61784Y169253D01*
X61815Y169203D01*
X61859Y169171D01*
X61895Y169131D01*
X61948Y169104D01*
X61995Y169069D01*
X62047Y169053D01*
X62095Y169028D01*
X62165Y169018D01*
X62210Y169005D01*
X62240Y169007D01*
X62280Y169001D01*
X67366Y169001D01*
X67408Y169008D01*
X67450Y169006D01*
X67517Y169028D01*
X67587Y169040D01*
X67623Y169062D01*
X67664Y169075D01*
X67737Y169129D01*
X67780Y169155D01*
X67793Y169171D01*
X67814Y169186D01*
X69313Y170686D01*
X69338Y170720D01*
X69369Y170749D01*
X69401Y170812D01*
X69442Y170870D01*
X69452Y170911D01*
X69472Y170949D01*
X69485Y171038D01*
X69498Y171087D01*
X69495Y171108D01*
X69499Y171134D01*
X69499Y174871D01*
X72614Y177986D01*
X72614Y177987D01*
X77813Y183186D01*
X77838Y183220D01*
X77869Y183249D01*
X77901Y183312D01*
X77942Y183370D01*
X77952Y183411D01*
X77972Y183449D01*
X77985Y183538D01*
X77998Y183587D01*
X77995Y183608D01*
X77999Y183634D01*
X77999Y236080D01*
X78017Y236106D01*
X78062Y236153D01*
X78081Y236197D01*
X78107Y236236D01*
X78124Y236299D01*
X78150Y236360D01*
X78152Y236407D01*
X78163Y236453D01*
X78157Y236518D01*
X78160Y236584D01*
X78145Y236629D01*
X78140Y236676D01*
X78113Y236731D01*
X78113Y433280D01*
X78106Y433322D01*
X78108Y433364D01*
X78086Y433431D01*
X78074Y433501D01*
X78052Y433537D01*
X78039Y433578D01*
X77985Y433650D01*
X77959Y433694D01*
X77943Y433707D01*
X77927Y433728D01*
X63232Y448423D01*
X63207Y448441D01*
X63187Y448464D01*
X63174Y448473D01*
X63167Y448480D01*
X63130Y448499D01*
X63086Y448525D01*
X63048Y448552D01*
X63038Y448554D01*
X63027Y448561D01*
X60811Y449479D01*
X58979Y451311D01*
X57987Y453705D01*
X57987Y456295D01*
X58979Y458689D01*
X60811Y460521D01*
X63205Y461513D01*
X65795Y461513D01*
X68189Y460521D01*
X70021Y458689D01*
X71013Y456295D01*
X71013Y455050D01*
X71020Y455008D01*
X71018Y454966D01*
X71040Y454899D01*
X71052Y454829D01*
X71074Y454793D01*
X71087Y454752D01*
X71141Y454680D01*
X71167Y454636D01*
X71183Y454623D01*
X71199Y454602D01*
X82155Y443646D01*
X82228Y443595D01*
X82297Y443539D01*
X82319Y443531D01*
X82339Y443517D01*
X82425Y443495D01*
X82509Y443467D01*
X82533Y443467D01*
X82556Y443462D01*
X82645Y443471D01*
X82734Y443473D01*
X82756Y443482D01*
X82779Y443485D01*
X82859Y443524D01*
X82941Y443558D01*
X82959Y443574D01*
X82980Y443584D01*
X83041Y443649D01*
X83107Y443709D01*
X83118Y443730D01*
X83134Y443747D01*
X83169Y443829D01*
X83210Y443909D01*
X83213Y443935D01*
X83222Y443954D01*
X83224Y444004D01*
X83237Y444094D01*
X83237Y644290D01*
X83230Y644331D01*
X83232Y644374D01*
X83210Y644441D01*
X83198Y644510D01*
X83176Y644547D01*
X83163Y644587D01*
X83109Y644660D01*
X83083Y644704D01*
X83067Y644717D01*
X83051Y644738D01*
X81979Y645811D01*
X80987Y648205D01*
X80987Y650795D01*
X81979Y653189D01*
X83051Y654262D01*
X83076Y654297D01*
X83107Y654325D01*
X83139Y654388D01*
X83180Y654446D01*
X83190Y654487D01*
X83210Y654525D01*
X83223Y654615D01*
X83236Y654663D01*
X83233Y654684D01*
X83237Y654710D01*
X83237Y708973D01*
X86027Y711763D01*
X290973Y711763D01*
X293763Y708973D01*
X293763Y664197D01*
X293770Y664155D01*
X293768Y664112D01*
X293790Y664045D01*
X293802Y663976D01*
X293824Y663939D01*
X293837Y663899D01*
X293891Y663826D01*
X293917Y663783D01*
X293933Y663769D01*
X293949Y663748D01*
X296656Y661041D01*
X299771Y657926D01*
X299771Y603813D01*
X299778Y603771D01*
X299776Y603729D01*
X299798Y603662D01*
X299810Y603592D01*
X299832Y603556D01*
X299845Y603515D01*
X299899Y603443D01*
X299925Y603399D01*
X299941Y603386D01*
X299957Y603365D01*
X303041Y600280D01*
X303041Y547419D01*
X303048Y547377D01*
X303046Y547334D01*
X303068Y547267D01*
X303080Y547198D01*
X303102Y547161D01*
X303115Y547121D01*
X303169Y547048D01*
X303195Y547005D01*
X303211Y546991D01*
X303227Y546970D01*
X306123Y544074D01*
X306123Y492336D01*
X306130Y492295D01*
X306129Y492252D01*
X306150Y492185D01*
X306163Y492116D01*
X306184Y492079D01*
X306197Y492039D01*
X306251Y491966D01*
X306277Y491922D01*
X306293Y491909D01*
X306309Y491888D01*
X309081Y489116D01*
X309081Y437517D01*
X309088Y437475D01*
X309086Y437433D01*
X309108Y437366D01*
X309120Y437296D01*
X309142Y437260D01*
X309155Y437219D01*
X309209Y437146D01*
X309235Y437103D01*
X309251Y437090D01*
X309267Y437068D01*
X340283Y406052D01*
X340283Y350052D01*
X340290Y350010D01*
X340288Y349968D01*
X340310Y349901D01*
X340322Y349831D01*
X340344Y349795D01*
X340357Y349754D01*
X340411Y349682D01*
X340437Y349638D01*
X340453Y349625D01*
X340469Y349604D01*
X352886Y337187D01*
X352920Y337162D01*
X352949Y337131D01*
X353012Y337099D01*
X353070Y337058D01*
X353111Y337048D01*
X353149Y337028D01*
X353238Y337015D01*
X353287Y337002D01*
X353308Y337005D01*
X353334Y337001D01*
X396528Y337001D01*
X396569Y337008D01*
X396612Y337006D01*
X396679Y337028D01*
X396748Y337040D01*
X396785Y337062D01*
X396825Y337075D01*
X396898Y337129D01*
X396942Y337155D01*
X396955Y337171D01*
X396976Y337187D01*
X397311Y337521D01*
X399705Y338513D01*
X402295Y338513D01*
X404689Y337521D01*
X406521Y335689D01*
X407513Y333295D01*
X407513Y331493D01*
X407524Y331428D01*
X407526Y331362D01*
X407544Y331319D01*
X407552Y331272D01*
X407586Y331215D01*
X407611Y331155D01*
X407642Y331120D01*
X407667Y331079D01*
X407718Y331037D01*
X407762Y330989D01*
X407804Y330967D01*
X407841Y330938D01*
X407903Y330917D01*
X407962Y330886D01*
X408016Y330878D01*
X408053Y330866D01*
X408093Y330867D01*
X408147Y330859D01*
X417524Y330859D01*
X417566Y330866D01*
X417608Y330864D01*
X417675Y330886D01*
X417745Y330898D01*
X417781Y330920D01*
X417822Y330933D01*
X417894Y330987D01*
X417938Y331013D01*
X417951Y331029D01*
X417972Y331045D01*
X421801Y334874D01*
X421826Y334908D01*
X421857Y334937D01*
X421889Y335000D01*
X421930Y335058D01*
X421940Y335099D01*
X421960Y335137D01*
X421973Y335226D01*
X421986Y335275D01*
X421983Y335296D01*
X421987Y335322D01*
X421987Y335795D01*
X422979Y338189D01*
X424811Y340021D01*
X427205Y341013D01*
X429795Y341013D01*
X432189Y340021D01*
X434021Y338189D01*
X435013Y335795D01*
X435013Y333205D01*
X434021Y330811D01*
X432189Y328979D01*
X429795Y327987D01*
X429322Y327987D01*
X429280Y327980D01*
X429238Y327982D01*
X429171Y327960D01*
X429101Y327948D01*
X429065Y327926D01*
X429024Y327913D01*
X428952Y327859D01*
X428908Y327833D01*
X428895Y327817D01*
X428874Y327801D01*
X421929Y320857D01*
X392559Y320857D01*
X392505Y320848D01*
X392451Y320848D01*
X392396Y320828D01*
X392338Y320818D01*
X392291Y320790D01*
X392240Y320772D01*
X392195Y320733D01*
X392145Y320703D01*
X392111Y320661D01*
X392069Y320626D01*
X392032Y320565D01*
X392003Y320529D01*
X391993Y320500D01*
X391973Y320466D01*
X391021Y318169D01*
X389189Y316337D01*
X386795Y315345D01*
X384205Y315345D01*
X381811Y316337D01*
X379979Y318169D01*
X378987Y320563D01*
X378987Y323153D01*
X379979Y325547D01*
X380348Y325917D01*
X380399Y325990D01*
X380455Y326059D01*
X380463Y326081D01*
X380476Y326101D01*
X380498Y326187D01*
X380527Y326271D01*
X380526Y326295D01*
X380532Y326318D01*
X380523Y326407D01*
X380520Y326496D01*
X380511Y326517D01*
X380509Y326541D01*
X380469Y326621D01*
X380436Y326703D01*
X380420Y326721D01*
X380410Y326742D01*
X380345Y326803D01*
X380285Y326869D01*
X380264Y326880D01*
X380246Y326896D01*
X380164Y326931D01*
X380085Y326972D01*
X380059Y326975D01*
X380040Y326984D01*
X379989Y326986D01*
X379900Y326999D01*
X348929Y326999D01*
X337160Y338768D01*
X337096Y338812D01*
X337038Y338863D01*
X337005Y338876D01*
X336976Y338896D01*
X336901Y338915D01*
X336828Y338943D01*
X336793Y338943D01*
X336758Y338952D01*
X336681Y338944D01*
X336604Y338945D01*
X336570Y338933D01*
X336535Y338929D01*
X336466Y338895D01*
X336393Y338868D01*
X336366Y338845D01*
X336334Y338829D01*
X336281Y338773D01*
X336222Y338723D01*
X336201Y338688D01*
X336180Y338666D01*
X336162Y338623D01*
X336125Y338562D01*
X336021Y338311D01*
X335159Y337448D01*
X335121Y337394D01*
X335076Y337347D01*
X335058Y337303D01*
X335031Y337264D01*
X335014Y337201D01*
X334989Y337140D01*
X334987Y337093D01*
X334975Y337047D01*
X334982Y336982D01*
X334979Y336916D01*
X334993Y336871D01*
X334998Y336824D01*
X335027Y336765D01*
X335047Y336702D01*
X335080Y336658D01*
X335098Y336623D01*
X335126Y336596D01*
X335159Y336551D01*
X336021Y335689D01*
X337013Y333295D01*
X337013Y330705D01*
X336021Y328311D01*
X335159Y327449D01*
X335121Y327394D01*
X335076Y327347D01*
X335058Y327303D01*
X335031Y327264D01*
X335014Y327201D01*
X334989Y327140D01*
X334987Y327093D01*
X334975Y327047D01*
X334982Y326982D01*
X334979Y326916D01*
X334993Y326871D01*
X334998Y326824D01*
X335027Y326765D01*
X335047Y326702D01*
X335080Y326658D01*
X335098Y326623D01*
X335126Y326596D01*
X335159Y326552D01*
X336021Y325689D01*
X337013Y323295D01*
X337013Y320705D01*
X336021Y318311D01*
X335159Y317448D01*
X335121Y317394D01*
X335076Y317347D01*
X335058Y317303D01*
X335031Y317264D01*
X335014Y317201D01*
X334989Y317140D01*
X334987Y317093D01*
X334975Y317047D01*
X334982Y316982D01*
X334979Y316916D01*
X334993Y316871D01*
X334998Y316824D01*
X335027Y316765D01*
X335047Y316702D01*
X335080Y316658D01*
X335098Y316623D01*
X335126Y316596D01*
X335159Y316551D01*
X336021Y315689D01*
X337013Y313295D01*
X337013Y310705D01*
X336021Y308311D01*
X335687Y307976D01*
X335662Y307941D01*
X335631Y307913D01*
X335599Y307850D01*
X335558Y307792D01*
X335548Y307751D01*
X335528Y307713D01*
X335515Y307623D01*
X335502Y307575D01*
X335505Y307554D01*
X335501Y307528D01*
X335501Y306472D01*
X335508Y306431D01*
X335506Y306388D01*
X335528Y306321D01*
X335540Y306252D01*
X335562Y306215D01*
X335575Y306175D01*
X335629Y306102D01*
X335655Y306058D01*
X335671Y306045D01*
X335687Y306024D01*
X336021Y305689D01*
X336558Y304392D01*
X336588Y304347D01*
X336608Y304297D01*
X336648Y304253D01*
X336680Y304203D01*
X336723Y304171D01*
X336759Y304131D01*
X336812Y304104D01*
X336859Y304069D01*
X336911Y304053D01*
X336959Y304028D01*
X337029Y304018D01*
X337074Y304005D01*
X337105Y304007D01*
X337144Y304001D01*
X427571Y304001D01*
X427874Y303699D01*
X427908Y303674D01*
X427937Y303643D01*
X428000Y303611D01*
X428058Y303570D01*
X428099Y303560D01*
X428137Y303540D01*
X428226Y303527D01*
X428275Y303514D01*
X428296Y303517D01*
X428322Y303513D01*
X428795Y303513D01*
X431189Y302521D01*
X433021Y300689D01*
X434013Y298295D01*
X434013Y295705D01*
X433021Y293311D01*
X431189Y291479D01*
X428795Y290487D01*
X426205Y290487D01*
X423811Y291479D01*
X421979Y293311D01*
X421856Y293608D01*
X421827Y293653D01*
X421806Y293703D01*
X421766Y293747D01*
X421735Y293797D01*
X421691Y293829D01*
X421655Y293869D01*
X421602Y293896D01*
X421555Y293931D01*
X421503Y293947D01*
X421455Y293972D01*
X421385Y293982D01*
X421340Y293995D01*
X421310Y293993D01*
X421270Y293999D01*
X336604Y293999D01*
X336562Y293992D01*
X336520Y293994D01*
X336453Y293972D01*
X336383Y293960D01*
X336347Y293938D01*
X336306Y293925D01*
X336234Y293871D01*
X336190Y293845D01*
X336177Y293829D01*
X336156Y293813D01*
X322957Y280614D01*
X322932Y280580D01*
X322901Y280551D01*
X322869Y280488D01*
X322828Y280430D01*
X322818Y280389D01*
X322798Y280351D01*
X322785Y280262D01*
X322772Y280213D01*
X322775Y280192D01*
X322771Y280166D01*
X322771Y34493D01*
X296687Y8408D01*
X293949Y5670D01*
X293924Y5636D01*
X293893Y5607D01*
X293861Y5544D01*
X293820Y5486D01*
X293810Y5445D01*
X293790Y5407D01*
X293777Y5318D01*
X293764Y5269D01*
X293767Y5248D01*
X293763Y5222D01*
X293763Y4635D01*
X293774Y4570D01*
X293776Y4504D01*
X293794Y4461D01*
X293802Y4414D01*
X293836Y4357D01*
X293861Y4297D01*
X293892Y4262D01*
X293917Y4221D01*
X293968Y4179D01*
X294012Y4131D01*
X294054Y4109D01*
X294091Y4080D01*
X294153Y4059D01*
X294212Y4028D01*
X294266Y4020D01*
X294303Y4008D01*
X294343Y4009D01*
X294397Y4001D01*
X336162Y4001D01*
X336228Y4013D01*
G37*
G36*
X289020Y355292D02*
X289020Y355292D01*
X289039Y355290D01*
X289141Y355312D01*
X289243Y355329D01*
X289260Y355338D01*
X289280Y355342D01*
X289369Y355395D01*
X289460Y355444D01*
X289474Y355458D01*
X289491Y355468D01*
X289558Y355547D01*
X289630Y355622D01*
X289638Y355640D01*
X289651Y355655D01*
X289690Y355751D01*
X289733Y355845D01*
X289735Y355865D01*
X289743Y355883D01*
X289761Y356050D01*
X289761Y358712D01*
X289747Y358802D01*
X289739Y358893D01*
X289727Y358923D01*
X289722Y358955D01*
X289679Y359036D01*
X289643Y359119D01*
X289617Y359152D01*
X289606Y359172D01*
X289583Y359194D01*
X289538Y359250D01*
X288282Y360506D01*
X288208Y360559D01*
X288139Y360619D01*
X288109Y360631D01*
X288083Y360650D01*
X287995Y360677D01*
X287911Y360711D01*
X287870Y360715D01*
X287848Y360722D01*
X287815Y360721D01*
X287744Y360729D01*
X260894Y360729D01*
X260804Y360715D01*
X260713Y360707D01*
X260683Y360695D01*
X260651Y360690D01*
X260571Y360647D01*
X260487Y360611D01*
X260455Y360585D01*
X260434Y360574D01*
X260412Y360551D01*
X260356Y360506D01*
X259067Y359217D01*
X255933Y359217D01*
X253717Y361433D01*
X253717Y364567D01*
X255933Y366783D01*
X259067Y366783D01*
X260356Y365494D01*
X260430Y365441D01*
X260499Y365381D01*
X260529Y365369D01*
X260556Y365350D01*
X260643Y365323D01*
X260727Y365289D01*
X260768Y365285D01*
X260791Y365278D01*
X260823Y365279D01*
X260894Y365271D01*
X289000Y365271D01*
X289020Y365274D01*
X289039Y365272D01*
X289141Y365294D01*
X289243Y365310D01*
X289260Y365320D01*
X289280Y365324D01*
X289369Y365377D01*
X289460Y365426D01*
X289474Y365440D01*
X289491Y365450D01*
X289558Y365529D01*
X289630Y365604D01*
X289638Y365622D01*
X289651Y365637D01*
X289690Y365733D01*
X289733Y365827D01*
X289735Y365847D01*
X289743Y365865D01*
X289761Y366032D01*
X289761Y412000D01*
X289758Y412020D01*
X289760Y412039D01*
X289738Y412141D01*
X289722Y412243D01*
X289712Y412260D01*
X289708Y412280D01*
X289655Y412369D01*
X289606Y412460D01*
X289592Y412474D01*
X289582Y412491D01*
X289503Y412558D01*
X289428Y412630D01*
X289410Y412638D01*
X289395Y412651D01*
X289299Y412690D01*
X289205Y412733D01*
X289185Y412735D01*
X289167Y412743D01*
X289000Y412761D01*
X88000Y412761D01*
X87980Y412758D01*
X87961Y412760D01*
X87859Y412738D01*
X87757Y412722D01*
X87740Y412712D01*
X87720Y412708D01*
X87631Y412655D01*
X87540Y412606D01*
X87526Y412592D01*
X87509Y412582D01*
X87442Y412503D01*
X87371Y412428D01*
X87362Y412410D01*
X87349Y412395D01*
X87310Y412299D01*
X87267Y412205D01*
X87265Y412185D01*
X87257Y412167D01*
X87239Y412000D01*
X87239Y356050D01*
X87242Y356030D01*
X87240Y356011D01*
X87262Y355909D01*
X87279Y355807D01*
X87288Y355790D01*
X87292Y355770D01*
X87345Y355681D01*
X87394Y355590D01*
X87408Y355576D01*
X87418Y355559D01*
X87497Y355492D01*
X87572Y355421D01*
X87590Y355412D01*
X87605Y355399D01*
X87701Y355360D01*
X87795Y355317D01*
X87815Y355315D01*
X87833Y355307D01*
X88000Y355289D01*
X289000Y355289D01*
X289020Y355292D01*
G37*
G36*
X289020Y296292D02*
X289020Y296292D01*
X289039Y296290D01*
X289141Y296312D01*
X289243Y296329D01*
X289260Y296338D01*
X289280Y296342D01*
X289369Y296395D01*
X289460Y296444D01*
X289474Y296458D01*
X289491Y296468D01*
X289558Y296547D01*
X289630Y296622D01*
X289638Y296640D01*
X289651Y296655D01*
X289690Y296751D01*
X289733Y296845D01*
X289735Y296865D01*
X289743Y296883D01*
X289761Y297050D01*
X289761Y300968D01*
X289758Y300988D01*
X289760Y301007D01*
X289738Y301109D01*
X289722Y301211D01*
X289712Y301228D01*
X289708Y301248D01*
X289655Y301337D01*
X289606Y301428D01*
X289592Y301442D01*
X289582Y301459D01*
X289503Y301526D01*
X289428Y301598D01*
X289410Y301606D01*
X289395Y301619D01*
X289299Y301658D01*
X289205Y301701D01*
X289185Y301703D01*
X289167Y301711D01*
X289000Y301729D01*
X260394Y301729D01*
X260304Y301715D01*
X260213Y301707D01*
X260183Y301695D01*
X260151Y301690D01*
X260071Y301647D01*
X259987Y301611D01*
X259955Y301585D01*
X259934Y301574D01*
X259912Y301551D01*
X259856Y301506D01*
X258567Y300217D01*
X255433Y300217D01*
X253217Y302433D01*
X253217Y305567D01*
X255433Y307783D01*
X258567Y307783D01*
X259856Y306494D01*
X259930Y306441D01*
X259999Y306381D01*
X260029Y306369D01*
X260056Y306350D01*
X260143Y306323D01*
X260227Y306289D01*
X260268Y306285D01*
X260291Y306278D01*
X260323Y306279D01*
X260394Y306271D01*
X288152Y306271D01*
X288242Y306285D01*
X288333Y306293D01*
X288363Y306305D01*
X288395Y306310D01*
X288475Y306353D01*
X288559Y306389D01*
X288592Y306415D01*
X288612Y306426D01*
X288634Y306449D01*
X288690Y306494D01*
X289538Y307342D01*
X289591Y307416D01*
X289651Y307485D01*
X289663Y307515D01*
X289682Y307541D01*
X289709Y307628D01*
X289743Y307713D01*
X289747Y307754D01*
X289754Y307776D01*
X289753Y307809D01*
X289761Y307880D01*
X289761Y353000D01*
X289758Y353020D01*
X289760Y353039D01*
X289738Y353141D01*
X289722Y353243D01*
X289712Y353260D01*
X289708Y353280D01*
X289655Y353369D01*
X289606Y353460D01*
X289592Y353474D01*
X289582Y353491D01*
X289503Y353558D01*
X289428Y353630D01*
X289410Y353638D01*
X289395Y353651D01*
X289299Y353690D01*
X289205Y353733D01*
X289185Y353735D01*
X289167Y353743D01*
X289000Y353761D01*
X88000Y353761D01*
X87980Y353758D01*
X87961Y353760D01*
X87859Y353738D01*
X87757Y353722D01*
X87740Y353712D01*
X87720Y353708D01*
X87631Y353655D01*
X87540Y353606D01*
X87526Y353592D01*
X87509Y353582D01*
X87442Y353503D01*
X87371Y353428D01*
X87362Y353410D01*
X87349Y353395D01*
X87310Y353299D01*
X87267Y353205D01*
X87265Y353185D01*
X87257Y353167D01*
X87239Y353000D01*
X87239Y297050D01*
X87242Y297030D01*
X87240Y297011D01*
X87262Y296909D01*
X87279Y296807D01*
X87288Y296790D01*
X87292Y296770D01*
X87345Y296681D01*
X87394Y296590D01*
X87408Y296576D01*
X87418Y296559D01*
X87497Y296492D01*
X87572Y296421D01*
X87590Y296412D01*
X87605Y296399D01*
X87701Y296360D01*
X87795Y296317D01*
X87815Y296315D01*
X87833Y296307D01*
X88000Y296289D01*
X289000Y296289D01*
X289020Y296292D01*
G37*
G36*
X288300Y532292D02*
X288300Y532292D01*
X288320Y532290D01*
X288421Y532312D01*
X288523Y532329D01*
X288541Y532338D01*
X288560Y532342D01*
X288649Y532395D01*
X288740Y532444D01*
X288754Y532458D01*
X288771Y532468D01*
X288839Y532547D01*
X288910Y532622D01*
X288918Y532640D01*
X288931Y532655D01*
X288970Y532751D01*
X289013Y532845D01*
X289016Y532865D01*
X289023Y532883D01*
X289042Y533050D01*
X289042Y535932D01*
X289027Y536022D01*
X289020Y536113D01*
X289007Y536143D01*
X289002Y536175D01*
X288959Y536255D01*
X288923Y536339D01*
X288898Y536371D01*
X288887Y536392D01*
X288863Y536414D01*
X288819Y536470D01*
X287782Y537506D01*
X287708Y537559D01*
X287639Y537619D01*
X287609Y537631D01*
X287583Y537650D01*
X287496Y537677D01*
X287411Y537711D01*
X287370Y537715D01*
X287348Y537722D01*
X287315Y537721D01*
X287244Y537729D01*
X260394Y537729D01*
X260304Y537715D01*
X260213Y537707D01*
X260183Y537695D01*
X260151Y537690D01*
X260071Y537647D01*
X259987Y537611D01*
X259955Y537585D01*
X259934Y537574D01*
X259912Y537551D01*
X259856Y537506D01*
X258567Y536217D01*
X255433Y536217D01*
X253217Y538433D01*
X253217Y541567D01*
X255433Y543783D01*
X258567Y543783D01*
X259856Y542494D01*
X259930Y542441D01*
X259999Y542381D01*
X260029Y542369D01*
X260056Y542350D01*
X260143Y542323D01*
X260227Y542289D01*
X260268Y542285D01*
X260291Y542278D01*
X260323Y542279D01*
X260394Y542271D01*
X288468Y542271D01*
X288488Y542274D01*
X288507Y542272D01*
X288609Y542294D01*
X288711Y542310D01*
X288728Y542320D01*
X288748Y542324D01*
X288837Y542377D01*
X288928Y542426D01*
X288942Y542440D01*
X288959Y542450D01*
X289026Y542529D01*
X289098Y542604D01*
X289106Y542622D01*
X289119Y542637D01*
X289158Y542733D01*
X289201Y542827D01*
X289203Y542847D01*
X289211Y542865D01*
X289229Y543032D01*
X289229Y589000D01*
X289226Y589020D01*
X289228Y589039D01*
X289206Y589141D01*
X289190Y589243D01*
X289180Y589260D01*
X289176Y589280D01*
X289123Y589369D01*
X289074Y589460D01*
X289060Y589474D01*
X289050Y589491D01*
X288971Y589558D01*
X288896Y589630D01*
X288878Y589638D01*
X288863Y589651D01*
X288767Y589690D01*
X288673Y589733D01*
X288653Y589735D01*
X288635Y589743D01*
X288468Y589761D01*
X88000Y589761D01*
X87980Y589758D01*
X87961Y589760D01*
X87859Y589738D01*
X87757Y589722D01*
X87740Y589712D01*
X87720Y589708D01*
X87631Y589655D01*
X87540Y589606D01*
X87526Y589592D01*
X87509Y589582D01*
X87442Y589503D01*
X87371Y589428D01*
X87362Y589410D01*
X87349Y589395D01*
X87310Y589299D01*
X87267Y589205D01*
X87265Y589185D01*
X87257Y589167D01*
X87239Y589000D01*
X87239Y533050D01*
X87242Y533030D01*
X87240Y533011D01*
X87262Y532909D01*
X87279Y532807D01*
X87288Y532790D01*
X87292Y532770D01*
X87345Y532681D01*
X87394Y532590D01*
X87408Y532576D01*
X87418Y532559D01*
X87497Y532492D01*
X87572Y532421D01*
X87590Y532412D01*
X87605Y532399D01*
X87701Y532360D01*
X87795Y532317D01*
X87815Y532315D01*
X87833Y532307D01*
X88000Y532289D01*
X288280Y532289D01*
X288300Y532292D01*
G37*
G36*
X287988Y473292D02*
X287988Y473292D01*
X288007Y473290D01*
X288109Y473312D01*
X288211Y473329D01*
X288228Y473338D01*
X288248Y473342D01*
X288337Y473395D01*
X288428Y473444D01*
X288442Y473458D01*
X288459Y473468D01*
X288526Y473547D01*
X288598Y473622D01*
X288606Y473640D01*
X288619Y473655D01*
X288658Y473751D01*
X288701Y473845D01*
X288703Y473865D01*
X288711Y473883D01*
X288729Y474050D01*
X288729Y476244D01*
X288715Y476334D01*
X288707Y476425D01*
X288695Y476455D01*
X288690Y476487D01*
X288647Y476568D01*
X288611Y476651D01*
X288585Y476684D01*
X288574Y476704D01*
X288551Y476726D01*
X288506Y476782D01*
X286782Y478506D01*
X286708Y478559D01*
X286639Y478619D01*
X286609Y478631D01*
X286583Y478650D01*
X286496Y478677D01*
X286411Y478711D01*
X286370Y478715D01*
X286348Y478722D01*
X286315Y478721D01*
X286244Y478729D01*
X258894Y478729D01*
X258804Y478715D01*
X258713Y478707D01*
X258683Y478695D01*
X258651Y478690D01*
X258571Y478647D01*
X258487Y478611D01*
X258455Y478585D01*
X258434Y478574D01*
X258412Y478551D01*
X258356Y478506D01*
X257067Y477217D01*
X253933Y477217D01*
X251717Y479433D01*
X251717Y482567D01*
X253933Y484783D01*
X257067Y484783D01*
X258356Y483494D01*
X258430Y483441D01*
X258499Y483381D01*
X258529Y483369D01*
X258556Y483350D01*
X258643Y483323D01*
X258727Y483289D01*
X258768Y483285D01*
X258791Y483278D01*
X258823Y483279D01*
X258894Y483271D01*
X288280Y483271D01*
X288300Y483274D01*
X288320Y483272D01*
X288421Y483294D01*
X288523Y483310D01*
X288541Y483320D01*
X288560Y483324D01*
X288649Y483377D01*
X288740Y483426D01*
X288754Y483440D01*
X288771Y483450D01*
X288839Y483529D01*
X288910Y483604D01*
X288918Y483622D01*
X288931Y483637D01*
X288970Y483733D01*
X289013Y483827D01*
X289016Y483847D01*
X289023Y483865D01*
X289042Y484032D01*
X289042Y530000D01*
X289038Y530020D01*
X289040Y530039D01*
X289018Y530141D01*
X289002Y530243D01*
X288992Y530260D01*
X288988Y530280D01*
X288935Y530369D01*
X288887Y530460D01*
X288872Y530474D01*
X288862Y530491D01*
X288783Y530558D01*
X288708Y530630D01*
X288690Y530638D01*
X288675Y530651D01*
X288579Y530690D01*
X288485Y530733D01*
X288466Y530735D01*
X288447Y530743D01*
X288280Y530761D01*
X88000Y530761D01*
X87980Y530758D01*
X87961Y530760D01*
X87859Y530738D01*
X87757Y530722D01*
X87740Y530712D01*
X87720Y530708D01*
X87631Y530655D01*
X87540Y530606D01*
X87526Y530592D01*
X87509Y530582D01*
X87442Y530503D01*
X87371Y530428D01*
X87362Y530410D01*
X87349Y530395D01*
X87310Y530299D01*
X87267Y530205D01*
X87265Y530185D01*
X87257Y530167D01*
X87239Y530000D01*
X87239Y474050D01*
X87242Y474030D01*
X87240Y474011D01*
X87262Y473909D01*
X87279Y473807D01*
X87288Y473790D01*
X87292Y473770D01*
X87345Y473681D01*
X87394Y473590D01*
X87408Y473576D01*
X87418Y473559D01*
X87497Y473492D01*
X87572Y473421D01*
X87590Y473412D01*
X87605Y473399D01*
X87701Y473360D01*
X87795Y473317D01*
X87815Y473315D01*
X87833Y473307D01*
X88000Y473289D01*
X287968Y473289D01*
X287988Y473292D01*
G37*
G36*
X289020Y414292D02*
X289020Y414292D01*
X289039Y414290D01*
X289141Y414312D01*
X289243Y414329D01*
X289260Y414338D01*
X289280Y414342D01*
X289369Y414395D01*
X289460Y414444D01*
X289474Y414458D01*
X289491Y414468D01*
X289558Y414547D01*
X289630Y414622D01*
X289638Y414640D01*
X289651Y414655D01*
X289690Y414751D01*
X289733Y414845D01*
X289735Y414865D01*
X289743Y414883D01*
X289761Y415050D01*
X289761Y416212D01*
X289747Y416302D01*
X289739Y416393D01*
X289727Y416423D01*
X289722Y416455D01*
X289679Y416536D01*
X289643Y416619D01*
X289617Y416652D01*
X289606Y416672D01*
X289583Y416694D01*
X289538Y416750D01*
X286782Y419506D01*
X286708Y419559D01*
X286639Y419619D01*
X286609Y419631D01*
X286583Y419650D01*
X286495Y419677D01*
X286411Y419711D01*
X286370Y419715D01*
X286348Y419722D01*
X286315Y419721D01*
X286244Y419729D01*
X260894Y419729D01*
X260804Y419715D01*
X260713Y419707D01*
X260683Y419695D01*
X260651Y419690D01*
X260571Y419647D01*
X260487Y419611D01*
X260455Y419585D01*
X260434Y419574D01*
X260412Y419551D01*
X260356Y419506D01*
X259067Y418217D01*
X255933Y418217D01*
X253717Y420433D01*
X253717Y423567D01*
X255933Y425783D01*
X259067Y425783D01*
X260356Y424494D01*
X260430Y424441D01*
X260499Y424381D01*
X260529Y424369D01*
X260556Y424350D01*
X260643Y424323D01*
X260727Y424289D01*
X260768Y424285D01*
X260791Y424278D01*
X260823Y424279D01*
X260894Y424271D01*
X287968Y424271D01*
X287988Y424274D01*
X288007Y424272D01*
X288109Y424294D01*
X288211Y424310D01*
X288228Y424320D01*
X288248Y424324D01*
X288337Y424377D01*
X288428Y424426D01*
X288442Y424440D01*
X288459Y424450D01*
X288526Y424529D01*
X288598Y424604D01*
X288606Y424622D01*
X288619Y424637D01*
X288658Y424733D01*
X288701Y424827D01*
X288703Y424847D01*
X288711Y424865D01*
X288729Y425032D01*
X288729Y471000D01*
X288726Y471020D01*
X288728Y471039D01*
X288706Y471141D01*
X288690Y471243D01*
X288680Y471260D01*
X288676Y471280D01*
X288623Y471369D01*
X288574Y471460D01*
X288560Y471474D01*
X288550Y471491D01*
X288471Y471558D01*
X288396Y471630D01*
X288378Y471638D01*
X288363Y471651D01*
X288267Y471690D01*
X288173Y471733D01*
X288153Y471735D01*
X288135Y471743D01*
X287968Y471761D01*
X88000Y471761D01*
X87980Y471758D01*
X87961Y471760D01*
X87859Y471738D01*
X87757Y471722D01*
X87740Y471712D01*
X87720Y471708D01*
X87631Y471655D01*
X87540Y471606D01*
X87526Y471592D01*
X87509Y471582D01*
X87442Y471503D01*
X87371Y471428D01*
X87362Y471410D01*
X87349Y471395D01*
X87310Y471299D01*
X87267Y471205D01*
X87265Y471185D01*
X87257Y471167D01*
X87239Y471000D01*
X87239Y415050D01*
X87242Y415030D01*
X87240Y415011D01*
X87262Y414909D01*
X87279Y414807D01*
X87288Y414790D01*
X87292Y414770D01*
X87345Y414681D01*
X87394Y414590D01*
X87408Y414576D01*
X87418Y414559D01*
X87497Y414492D01*
X87572Y414421D01*
X87590Y414412D01*
X87605Y414399D01*
X87701Y414360D01*
X87795Y414317D01*
X87815Y414315D01*
X87833Y414307D01*
X88000Y414289D01*
X289000Y414289D01*
X289020Y414292D01*
G37*
G36*
X288488Y591292D02*
X288488Y591292D01*
X288507Y591290D01*
X288609Y591312D01*
X288711Y591329D01*
X288728Y591338D01*
X288748Y591342D01*
X288837Y591395D01*
X288928Y591444D01*
X288942Y591458D01*
X288959Y591468D01*
X289026Y591547D01*
X289098Y591622D01*
X289106Y591640D01*
X289119Y591655D01*
X289158Y591751D01*
X289201Y591845D01*
X289203Y591865D01*
X289211Y591883D01*
X289229Y592050D01*
X289229Y594244D01*
X289215Y594334D01*
X289207Y594425D01*
X289195Y594455D01*
X289190Y594487D01*
X289147Y594568D01*
X289111Y594651D01*
X289085Y594684D01*
X289074Y594704D01*
X289051Y594726D01*
X289006Y594782D01*
X287282Y596506D01*
X287208Y596559D01*
X287139Y596619D01*
X287109Y596631D01*
X287083Y596650D01*
X286995Y596677D01*
X286911Y596711D01*
X286870Y596715D01*
X286848Y596722D01*
X286815Y596721D01*
X286744Y596729D01*
X260394Y596729D01*
X260304Y596715D01*
X260213Y596707D01*
X260183Y596695D01*
X260151Y596690D01*
X260071Y596647D01*
X259987Y596611D01*
X259955Y596585D01*
X259934Y596574D01*
X259912Y596551D01*
X259856Y596506D01*
X258567Y595217D01*
X255433Y595217D01*
X253217Y597433D01*
X253217Y600567D01*
X255433Y602783D01*
X258567Y602783D01*
X259856Y601494D01*
X259930Y601441D01*
X259999Y601381D01*
X260029Y601369D01*
X260056Y601350D01*
X260143Y601323D01*
X260227Y601289D01*
X260268Y601285D01*
X260291Y601278D01*
X260323Y601279D01*
X260394Y601271D01*
X288468Y601271D01*
X288488Y601274D01*
X288507Y601272D01*
X288609Y601294D01*
X288711Y601310D01*
X288728Y601320D01*
X288748Y601324D01*
X288837Y601377D01*
X288928Y601426D01*
X288942Y601440D01*
X288959Y601450D01*
X289026Y601529D01*
X289098Y601604D01*
X289106Y601622D01*
X289119Y601637D01*
X289158Y601733D01*
X289201Y601827D01*
X289203Y601847D01*
X289211Y601865D01*
X289229Y602032D01*
X289229Y648000D01*
X289226Y648020D01*
X289228Y648039D01*
X289206Y648141D01*
X289190Y648243D01*
X289180Y648260D01*
X289176Y648280D01*
X289123Y648369D01*
X289074Y648460D01*
X289060Y648474D01*
X289050Y648491D01*
X288971Y648558D01*
X288896Y648630D01*
X288878Y648638D01*
X288863Y648651D01*
X288767Y648690D01*
X288673Y648733D01*
X288653Y648735D01*
X288635Y648743D01*
X288468Y648761D01*
X251288Y648761D01*
X251198Y648747D01*
X251107Y648739D01*
X251077Y648727D01*
X251045Y648722D01*
X250964Y648679D01*
X250881Y648643D01*
X250848Y648617D01*
X250828Y648606D01*
X250806Y648583D01*
X250750Y648538D01*
X249441Y647229D01*
X90894Y647229D01*
X90804Y647215D01*
X90713Y647207D01*
X90683Y647195D01*
X90651Y647190D01*
X90571Y647147D01*
X90487Y647111D01*
X90455Y647085D01*
X90434Y647074D01*
X90412Y647051D01*
X90356Y647006D01*
X89067Y645717D01*
X88000Y645717D01*
X87980Y645714D01*
X87961Y645716D01*
X87859Y645694D01*
X87757Y645678D01*
X87740Y645668D01*
X87720Y645664D01*
X87631Y645611D01*
X87540Y645562D01*
X87526Y645548D01*
X87509Y645538D01*
X87442Y645459D01*
X87371Y645384D01*
X87362Y645366D01*
X87349Y645351D01*
X87310Y645255D01*
X87267Y645161D01*
X87265Y645141D01*
X87257Y645123D01*
X87239Y644956D01*
X87239Y592050D01*
X87242Y592030D01*
X87240Y592011D01*
X87262Y591909D01*
X87279Y591807D01*
X87288Y591790D01*
X87292Y591770D01*
X87345Y591681D01*
X87394Y591590D01*
X87408Y591576D01*
X87418Y591559D01*
X87497Y591492D01*
X87572Y591421D01*
X87590Y591412D01*
X87605Y591399D01*
X87701Y591360D01*
X87795Y591317D01*
X87815Y591315D01*
X87833Y591307D01*
X88000Y591289D01*
X288468Y591289D01*
X288488Y591292D01*
G37*
G36*
X289020Y238774D02*
X289020Y238774D01*
X289039Y238772D01*
X289141Y238794D01*
X289243Y238810D01*
X289260Y238820D01*
X289280Y238824D01*
X289369Y238877D01*
X289460Y238926D01*
X289474Y238940D01*
X289491Y238950D01*
X289558Y239029D01*
X289630Y239104D01*
X289638Y239122D01*
X289651Y239137D01*
X289690Y239233D01*
X289733Y239327D01*
X289735Y239347D01*
X289743Y239365D01*
X289761Y239532D01*
X289761Y241968D01*
X289758Y241988D01*
X289760Y242007D01*
X289738Y242109D01*
X289722Y242211D01*
X289712Y242228D01*
X289708Y242248D01*
X289655Y242337D01*
X289606Y242428D01*
X289592Y242442D01*
X289582Y242459D01*
X289503Y242526D01*
X289428Y242598D01*
X289410Y242606D01*
X289395Y242619D01*
X289299Y242658D01*
X289205Y242701D01*
X289185Y242703D01*
X289167Y242711D01*
X289000Y242729D01*
X259394Y242729D01*
X259304Y242715D01*
X259213Y242707D01*
X259183Y242695D01*
X259151Y242690D01*
X259071Y242647D01*
X258987Y242611D01*
X258955Y242585D01*
X258934Y242574D01*
X258912Y242551D01*
X258856Y242506D01*
X257567Y241217D01*
X254433Y241217D01*
X252217Y243433D01*
X252217Y246567D01*
X254433Y248783D01*
X257567Y248783D01*
X258856Y247494D01*
X258930Y247441D01*
X258999Y247381D01*
X259029Y247369D01*
X259056Y247350D01*
X259143Y247323D01*
X259227Y247289D01*
X259268Y247285D01*
X259291Y247278D01*
X259323Y247279D01*
X259394Y247271D01*
X288744Y247271D01*
X288834Y247285D01*
X288925Y247293D01*
X288955Y247305D01*
X288987Y247310D01*
X289068Y247353D01*
X289151Y247389D01*
X289184Y247415D01*
X289204Y247426D01*
X289226Y247449D01*
X289282Y247494D01*
X289538Y247750D01*
X289591Y247824D01*
X289651Y247893D01*
X289663Y247923D01*
X289682Y247949D01*
X289709Y248036D01*
X289743Y248121D01*
X289747Y248162D01*
X289754Y248184D01*
X289753Y248217D01*
X289761Y248288D01*
X289761Y294000D01*
X289758Y294020D01*
X289760Y294039D01*
X289738Y294141D01*
X289722Y294243D01*
X289712Y294260D01*
X289708Y294280D01*
X289655Y294369D01*
X289606Y294460D01*
X289592Y294474D01*
X289582Y294491D01*
X289503Y294558D01*
X289428Y294630D01*
X289410Y294638D01*
X289395Y294651D01*
X289299Y294690D01*
X289205Y294733D01*
X289185Y294735D01*
X289167Y294743D01*
X289000Y294761D01*
X88000Y294761D01*
X87980Y294758D01*
X87961Y294760D01*
X87859Y294738D01*
X87757Y294722D01*
X87740Y294712D01*
X87720Y294708D01*
X87631Y294655D01*
X87540Y294606D01*
X87526Y294592D01*
X87509Y294582D01*
X87442Y294503D01*
X87371Y294428D01*
X87362Y294410D01*
X87349Y294395D01*
X87310Y294299D01*
X87267Y294205D01*
X87265Y294185D01*
X87257Y294167D01*
X87239Y294000D01*
X87239Y239532D01*
X87242Y239512D01*
X87240Y239493D01*
X87262Y239391D01*
X87279Y239289D01*
X87288Y239272D01*
X87292Y239252D01*
X87345Y239163D01*
X87394Y239072D01*
X87408Y239058D01*
X87418Y239041D01*
X87497Y238974D01*
X87572Y238902D01*
X87590Y238894D01*
X87605Y238881D01*
X87701Y238842D01*
X87795Y238799D01*
X87815Y238797D01*
X87833Y238789D01*
X88000Y238771D01*
X289000Y238771D01*
X289020Y238774D01*
G37*
G36*
X289020Y179774D02*
X289020Y179774D01*
X289039Y179772D01*
X289141Y179794D01*
X289243Y179810D01*
X289260Y179820D01*
X289280Y179824D01*
X289369Y179877D01*
X289460Y179926D01*
X289474Y179940D01*
X289491Y179950D01*
X289558Y180029D01*
X289630Y180104D01*
X289638Y180122D01*
X289651Y180137D01*
X289690Y180233D01*
X289733Y180327D01*
X289735Y180347D01*
X289743Y180365D01*
X289761Y180532D01*
X289761Y182968D01*
X289758Y182988D01*
X289760Y183007D01*
X289738Y183109D01*
X289722Y183211D01*
X289712Y183228D01*
X289708Y183248D01*
X289655Y183337D01*
X289606Y183428D01*
X289592Y183442D01*
X289582Y183459D01*
X289503Y183526D01*
X289428Y183598D01*
X289410Y183606D01*
X289395Y183619D01*
X289299Y183658D01*
X289205Y183701D01*
X289185Y183703D01*
X289167Y183711D01*
X289000Y183729D01*
X260394Y183729D01*
X260304Y183715D01*
X260213Y183707D01*
X260183Y183695D01*
X260151Y183690D01*
X260071Y183647D01*
X259987Y183611D01*
X259955Y183585D01*
X259934Y183574D01*
X259912Y183551D01*
X259856Y183506D01*
X258567Y182217D01*
X255433Y182217D01*
X253217Y184433D01*
X253217Y187567D01*
X255433Y189783D01*
X258567Y189783D01*
X259856Y188494D01*
X259930Y188441D01*
X259999Y188381D01*
X260029Y188369D01*
X260056Y188350D01*
X260143Y188323D01*
X260227Y188289D01*
X260268Y188285D01*
X260291Y188278D01*
X260323Y188279D01*
X260394Y188271D01*
X287744Y188271D01*
X287834Y188285D01*
X287925Y188293D01*
X287955Y188305D01*
X287987Y188310D01*
X288067Y188353D01*
X288151Y188389D01*
X288184Y188415D01*
X288204Y188426D01*
X288226Y188449D01*
X288282Y188494D01*
X289538Y189750D01*
X289591Y189824D01*
X289651Y189893D01*
X289663Y189923D01*
X289682Y189949D01*
X289709Y190036D01*
X289743Y190121D01*
X289747Y190162D01*
X289754Y190184D01*
X289753Y190217D01*
X289761Y190288D01*
X289761Y233468D01*
X289758Y233488D01*
X289760Y233507D01*
X289738Y233609D01*
X289722Y233711D01*
X289712Y233728D01*
X289708Y233748D01*
X289655Y233837D01*
X289606Y233928D01*
X289592Y233942D01*
X289582Y233959D01*
X289503Y234026D01*
X289428Y234098D01*
X289410Y234106D01*
X289395Y234119D01*
X289299Y234158D01*
X289205Y234201D01*
X289185Y234203D01*
X289167Y234211D01*
X289000Y234229D01*
X88000Y234229D01*
X87980Y234226D01*
X87961Y234228D01*
X87859Y234206D01*
X87757Y234190D01*
X87740Y234180D01*
X87720Y234176D01*
X87631Y234123D01*
X87540Y234074D01*
X87526Y234060D01*
X87509Y234050D01*
X87442Y233971D01*
X87371Y233896D01*
X87362Y233878D01*
X87349Y233863D01*
X87310Y233767D01*
X87267Y233673D01*
X87265Y233653D01*
X87257Y233635D01*
X87239Y233468D01*
X87239Y180532D01*
X87242Y180512D01*
X87240Y180493D01*
X87262Y180391D01*
X87278Y180289D01*
X87288Y180272D01*
X87292Y180252D01*
X87345Y180163D01*
X87394Y180072D01*
X87408Y180058D01*
X87418Y180041D01*
X87497Y179974D01*
X87572Y179902D01*
X87590Y179894D01*
X87605Y179881D01*
X87701Y179842D01*
X87795Y179799D01*
X87815Y179797D01*
X87833Y179789D01*
X88000Y179771D01*
X289000Y179771D01*
X289020Y179774D01*
G37*
G36*
X289020Y61774D02*
X289020Y61774D01*
X289039Y61772D01*
X289141Y61794D01*
X289243Y61810D01*
X289260Y61820D01*
X289280Y61824D01*
X289369Y61877D01*
X289460Y61926D01*
X289474Y61940D01*
X289491Y61950D01*
X289558Y62029D01*
X289630Y62104D01*
X289638Y62122D01*
X289651Y62137D01*
X289690Y62233D01*
X289733Y62327D01*
X289735Y62347D01*
X289743Y62365D01*
X289761Y62532D01*
X289761Y64968D01*
X289758Y64988D01*
X289760Y65007D01*
X289738Y65109D01*
X289722Y65211D01*
X289712Y65228D01*
X289708Y65248D01*
X289655Y65337D01*
X289606Y65428D01*
X289592Y65442D01*
X289582Y65459D01*
X289503Y65526D01*
X289428Y65598D01*
X289410Y65606D01*
X289395Y65619D01*
X289299Y65658D01*
X289205Y65701D01*
X289185Y65703D01*
X289167Y65711D01*
X289000Y65729D01*
X259894Y65729D01*
X259804Y65715D01*
X259713Y65707D01*
X259683Y65695D01*
X259651Y65690D01*
X259571Y65647D01*
X259487Y65611D01*
X259455Y65585D01*
X259434Y65574D01*
X259412Y65551D01*
X259356Y65506D01*
X258067Y64217D01*
X254933Y64217D01*
X252717Y66433D01*
X252717Y69567D01*
X254933Y71783D01*
X258067Y71783D01*
X259356Y70494D01*
X259430Y70441D01*
X259499Y70381D01*
X259529Y70369D01*
X259556Y70350D01*
X259643Y70323D01*
X259727Y70289D01*
X259768Y70285D01*
X259791Y70278D01*
X259823Y70279D01*
X259894Y70271D01*
X289000Y70271D01*
X289020Y70274D01*
X289039Y70272D01*
X289141Y70294D01*
X289243Y70310D01*
X289260Y70320D01*
X289280Y70324D01*
X289369Y70377D01*
X289460Y70426D01*
X289474Y70440D01*
X289491Y70450D01*
X289558Y70529D01*
X289630Y70604D01*
X289638Y70622D01*
X289651Y70637D01*
X289690Y70733D01*
X289733Y70827D01*
X289735Y70847D01*
X289743Y70865D01*
X289761Y71032D01*
X289761Y115468D01*
X289758Y115488D01*
X289760Y115507D01*
X289738Y115609D01*
X289722Y115711D01*
X289712Y115728D01*
X289708Y115748D01*
X289655Y115837D01*
X289606Y115928D01*
X289592Y115942D01*
X289582Y115959D01*
X289503Y116026D01*
X289428Y116098D01*
X289410Y116106D01*
X289395Y116119D01*
X289299Y116158D01*
X289205Y116201D01*
X289185Y116203D01*
X289167Y116211D01*
X289000Y116229D01*
X88000Y116229D01*
X87980Y116226D01*
X87961Y116228D01*
X87859Y116206D01*
X87757Y116190D01*
X87740Y116180D01*
X87720Y116176D01*
X87631Y116123D01*
X87540Y116074D01*
X87526Y116060D01*
X87509Y116050D01*
X87442Y115971D01*
X87371Y115896D01*
X87362Y115878D01*
X87349Y115863D01*
X87310Y115767D01*
X87267Y115673D01*
X87265Y115653D01*
X87257Y115635D01*
X87239Y115468D01*
X87239Y64288D01*
X87254Y64198D01*
X87261Y64107D01*
X87273Y64077D01*
X87279Y64045D01*
X87321Y63964D01*
X87357Y63881D01*
X87383Y63848D01*
X87394Y63828D01*
X87417Y63806D01*
X87462Y63750D01*
X89218Y61994D01*
X89292Y61941D01*
X89361Y61881D01*
X89391Y61869D01*
X89417Y61850D01*
X89504Y61823D01*
X89589Y61789D01*
X89630Y61785D01*
X89652Y61778D01*
X89685Y61779D01*
X89756Y61771D01*
X289000Y61771D01*
X289020Y61774D01*
G37*
G36*
X287834Y120785D02*
X287834Y120785D01*
X287925Y120793D01*
X287955Y120805D01*
X287987Y120810D01*
X288067Y120853D01*
X288151Y120889D01*
X288184Y120915D01*
X288204Y120926D01*
X288226Y120949D01*
X288282Y120994D01*
X289538Y122250D01*
X289591Y122324D01*
X289651Y122393D01*
X289663Y122423D01*
X289682Y122449D01*
X289709Y122536D01*
X289743Y122621D01*
X289747Y122662D01*
X289754Y122684D01*
X289753Y122717D01*
X289761Y122788D01*
X289761Y123468D01*
X289758Y123488D01*
X289760Y123507D01*
X289738Y123609D01*
X289722Y123711D01*
X289712Y123728D01*
X289708Y123748D01*
X289655Y123837D01*
X289606Y123928D01*
X289592Y123942D01*
X289582Y123959D01*
X289503Y124026D01*
X289428Y124098D01*
X289410Y124106D01*
X289395Y124119D01*
X289299Y124158D01*
X289205Y124201D01*
X289185Y124203D01*
X289167Y124211D01*
X289000Y124229D01*
X260394Y124229D01*
X260304Y124215D01*
X260213Y124207D01*
X260183Y124195D01*
X260151Y124190D01*
X260071Y124147D01*
X259987Y124111D01*
X259955Y124085D01*
X259934Y124074D01*
X259912Y124051D01*
X259856Y124006D01*
X258567Y122717D01*
X255433Y122717D01*
X253217Y124933D01*
X253217Y128067D01*
X255433Y130283D01*
X258567Y130283D01*
X259856Y128994D01*
X259930Y128941D01*
X259999Y128881D01*
X260029Y128869D01*
X260056Y128850D01*
X260143Y128823D01*
X260227Y128789D01*
X260268Y128785D01*
X260291Y128778D01*
X260323Y128779D01*
X260394Y128771D01*
X288744Y128771D01*
X288834Y128785D01*
X288925Y128793D01*
X288955Y128805D01*
X288987Y128810D01*
X289067Y128853D01*
X289151Y128889D01*
X289184Y128915D01*
X289204Y128926D01*
X289226Y128949D01*
X289282Y128994D01*
X289538Y129250D01*
X289591Y129324D01*
X289651Y129393D01*
X289663Y129423D01*
X289682Y129449D01*
X289709Y129536D01*
X289743Y129621D01*
X289747Y129662D01*
X289754Y129684D01*
X289753Y129717D01*
X289761Y129788D01*
X289761Y174468D01*
X289758Y174488D01*
X289760Y174507D01*
X289738Y174609D01*
X289722Y174711D01*
X289712Y174728D01*
X289708Y174748D01*
X289655Y174837D01*
X289606Y174928D01*
X289592Y174942D01*
X289582Y174959D01*
X289503Y175026D01*
X289428Y175098D01*
X289410Y175106D01*
X289395Y175119D01*
X289299Y175158D01*
X289205Y175201D01*
X289185Y175203D01*
X289167Y175211D01*
X289000Y175229D01*
X88032Y175229D01*
X88012Y175226D01*
X87993Y175228D01*
X87891Y175206D01*
X87789Y175190D01*
X87772Y175180D01*
X87752Y175176D01*
X87663Y175123D01*
X87572Y175074D01*
X87558Y175060D01*
X87541Y175050D01*
X87474Y174971D01*
X87402Y174896D01*
X87394Y174878D01*
X87381Y174863D01*
X87342Y174767D01*
X87299Y174673D01*
X87297Y174653D01*
X87289Y174635D01*
X87271Y174468D01*
X87271Y131894D01*
X87285Y131804D01*
X87293Y131713D01*
X87305Y131683D01*
X87310Y131651D01*
X87353Y131571D01*
X87389Y131487D01*
X87415Y131455D01*
X87426Y131434D01*
X87449Y131412D01*
X87494Y131356D01*
X89283Y129567D01*
X89283Y126433D01*
X87462Y124612D01*
X87409Y124538D01*
X87349Y124469D01*
X87337Y124439D01*
X87318Y124412D01*
X87291Y124325D01*
X87257Y124241D01*
X87253Y124200D01*
X87246Y124177D01*
X87247Y124145D01*
X87239Y124074D01*
X87239Y121532D01*
X87242Y121512D01*
X87240Y121493D01*
X87262Y121391D01*
X87279Y121289D01*
X87288Y121272D01*
X87292Y121252D01*
X87345Y121163D01*
X87394Y121072D01*
X87408Y121058D01*
X87418Y121041D01*
X87497Y120974D01*
X87572Y120902D01*
X87590Y120894D01*
X87605Y120881D01*
X87701Y120842D01*
X87795Y120799D01*
X87815Y120797D01*
X87833Y120789D01*
X88000Y120771D01*
X287744Y120771D01*
X287834Y120785D01*
G37*
G36*
X247334Y651785D02*
X247334Y651785D01*
X247425Y651793D01*
X247455Y651805D01*
X247487Y651810D01*
X247568Y651853D01*
X247651Y651889D01*
X247684Y651915D01*
X247704Y651926D01*
X247726Y651949D01*
X247782Y651994D01*
X248724Y652936D01*
X248777Y653010D01*
X248837Y653079D01*
X248849Y653109D01*
X248868Y653135D01*
X248895Y653222D01*
X248929Y653307D01*
X248933Y653348D01*
X248940Y653370D01*
X248939Y653403D01*
X248947Y653474D01*
X248947Y660921D01*
X250500Y662474D01*
X250500Y662475D01*
X251525Y663500D01*
X251526Y663500D01*
X253079Y665053D01*
X289000Y665053D01*
X289020Y665056D01*
X289039Y665054D01*
X289141Y665076D01*
X289243Y665092D01*
X289260Y665102D01*
X289280Y665106D01*
X289369Y665159D01*
X289460Y665208D01*
X289474Y665222D01*
X289491Y665232D01*
X289558Y665311D01*
X289630Y665386D01*
X289638Y665404D01*
X289651Y665419D01*
X289690Y665515D01*
X289733Y665609D01*
X289735Y665629D01*
X289743Y665647D01*
X289761Y665814D01*
X289761Y707000D01*
X289758Y707020D01*
X289760Y707039D01*
X289738Y707141D01*
X289722Y707243D01*
X289712Y707260D01*
X289708Y707280D01*
X289655Y707369D01*
X289606Y707460D01*
X289592Y707474D01*
X289582Y707491D01*
X289503Y707558D01*
X289428Y707630D01*
X289410Y707638D01*
X289395Y707651D01*
X289299Y707690D01*
X289205Y707733D01*
X289185Y707735D01*
X289167Y707743D01*
X289000Y707761D01*
X88000Y707761D01*
X87980Y707758D01*
X87961Y707760D01*
X87859Y707738D01*
X87757Y707722D01*
X87740Y707712D01*
X87720Y707708D01*
X87631Y707655D01*
X87540Y707606D01*
X87526Y707592D01*
X87509Y707582D01*
X87442Y707503D01*
X87371Y707428D01*
X87362Y707410D01*
X87349Y707395D01*
X87310Y707299D01*
X87267Y707205D01*
X87265Y707185D01*
X87257Y707167D01*
X87239Y707000D01*
X87239Y654044D01*
X87241Y654029D01*
X87240Y654015D01*
X87241Y654011D01*
X87240Y654005D01*
X87262Y653903D01*
X87279Y653801D01*
X87288Y653784D01*
X87292Y653764D01*
X87345Y653675D01*
X87394Y653584D01*
X87408Y653570D01*
X87418Y653553D01*
X87497Y653486D01*
X87572Y653414D01*
X87590Y653406D01*
X87605Y653393D01*
X87701Y653354D01*
X87795Y653311D01*
X87815Y653309D01*
X87833Y653301D01*
X88000Y653283D01*
X89067Y653283D01*
X90356Y651994D01*
X90430Y651941D01*
X90499Y651881D01*
X90529Y651869D01*
X90556Y651850D01*
X90643Y651823D01*
X90727Y651789D01*
X90768Y651785D01*
X90791Y651778D01*
X90823Y651779D01*
X90894Y651771D01*
X247244Y651771D01*
X247334Y651785D01*
G37*
G36*
X219061Y7346D02*
X219061Y7346D01*
X219133Y7348D01*
X219181Y7366D01*
X219233Y7374D01*
X219296Y7408D01*
X219364Y7433D01*
X219404Y7465D01*
X219450Y7490D01*
X219499Y7542D01*
X219556Y7587D01*
X219584Y7630D01*
X219619Y7668D01*
X219650Y7733D01*
X219688Y7794D01*
X219701Y7844D01*
X219723Y7891D01*
X219731Y7962D01*
X219748Y8032D01*
X219744Y8084D01*
X219750Y8135D01*
X219735Y8206D01*
X219729Y8277D01*
X219717Y8305D01*
X219717Y11579D01*
X221933Y13795D01*
X225067Y13795D01*
X226356Y12506D01*
X226430Y12453D01*
X226499Y12393D01*
X226529Y12381D01*
X226556Y12362D01*
X226643Y12335D01*
X226727Y12301D01*
X226768Y12297D01*
X226791Y12290D01*
X226823Y12291D01*
X226894Y12283D01*
X248199Y12283D01*
X248289Y12297D01*
X248380Y12305D01*
X248410Y12317D01*
X248442Y12322D01*
X248523Y12365D01*
X248607Y12401D01*
X248639Y12427D01*
X248659Y12438D01*
X248682Y12461D01*
X248738Y12506D01*
X253579Y17347D01*
X262320Y17347D01*
X262410Y17361D01*
X262501Y17369D01*
X262531Y17381D01*
X262563Y17386D01*
X262644Y17429D01*
X262727Y17465D01*
X262760Y17491D01*
X262780Y17502D01*
X262802Y17525D01*
X262858Y17570D01*
X270494Y25206D01*
X270547Y25280D01*
X270607Y25349D01*
X270619Y25379D01*
X270638Y25405D01*
X270665Y25492D01*
X270699Y25577D01*
X270703Y25618D01*
X270710Y25640D01*
X270709Y25673D01*
X270717Y25744D01*
X270717Y27567D01*
X272933Y29783D01*
X276067Y29783D01*
X278283Y27567D01*
X278283Y24433D01*
X276067Y22217D01*
X274244Y22217D01*
X274154Y22203D01*
X274063Y22195D01*
X274033Y22183D01*
X274001Y22178D01*
X273920Y22135D01*
X273837Y22099D01*
X273804Y22073D01*
X273784Y22062D01*
X273762Y22039D01*
X273706Y21994D01*
X266070Y14359D01*
X266070Y14358D01*
X265576Y13864D01*
X265534Y13806D01*
X265484Y13754D01*
X265462Y13707D01*
X265432Y13665D01*
X265411Y13596D01*
X265381Y13531D01*
X265375Y13479D01*
X265360Y13429D01*
X265362Y13358D01*
X265354Y13287D01*
X265365Y13236D01*
X265366Y13184D01*
X265391Y13116D01*
X265406Y13046D01*
X265433Y13001D01*
X265450Y12953D01*
X265495Y12897D01*
X265532Y12835D01*
X265572Y12801D01*
X265604Y12761D01*
X265664Y12722D01*
X265719Y12675D01*
X265767Y12656D01*
X265811Y12628D01*
X265880Y12610D01*
X265947Y12583D01*
X266018Y12575D01*
X266050Y12567D01*
X266073Y12569D01*
X266114Y12565D01*
X289000Y12565D01*
X289020Y12568D01*
X289039Y12566D01*
X289141Y12588D01*
X289243Y12604D01*
X289260Y12614D01*
X289280Y12618D01*
X289369Y12671D01*
X289460Y12720D01*
X289474Y12734D01*
X289491Y12744D01*
X289558Y12823D01*
X289630Y12898D01*
X289638Y12916D01*
X289651Y12931D01*
X289690Y13027D01*
X289733Y13121D01*
X289735Y13141D01*
X289743Y13159D01*
X289761Y13326D01*
X289761Y56468D01*
X289758Y56488D01*
X289760Y56507D01*
X289738Y56609D01*
X289722Y56711D01*
X289712Y56728D01*
X289708Y56748D01*
X289655Y56837D01*
X289606Y56928D01*
X289592Y56942D01*
X289582Y56959D01*
X289503Y57026D01*
X289428Y57098D01*
X289410Y57106D01*
X289395Y57119D01*
X289299Y57158D01*
X289205Y57201D01*
X289185Y57203D01*
X289167Y57211D01*
X289000Y57229D01*
X88064Y57229D01*
X88044Y57226D01*
X88025Y57228D01*
X87923Y57206D01*
X87821Y57190D01*
X87804Y57180D01*
X87784Y57176D01*
X87695Y57123D01*
X87604Y57074D01*
X87590Y57060D01*
X87573Y57050D01*
X87506Y56971D01*
X87434Y56896D01*
X87426Y56878D01*
X87413Y56863D01*
X87374Y56767D01*
X87331Y56673D01*
X87329Y56653D01*
X87321Y56635D01*
X87303Y56468D01*
X87303Y8096D01*
X87306Y8076D01*
X87304Y8057D01*
X87326Y7955D01*
X87342Y7853D01*
X87352Y7836D01*
X87356Y7816D01*
X87409Y7727D01*
X87458Y7636D01*
X87472Y7622D01*
X87482Y7605D01*
X87561Y7538D01*
X87636Y7466D01*
X87654Y7458D01*
X87669Y7445D01*
X87765Y7406D01*
X87859Y7363D01*
X87879Y7361D01*
X87897Y7353D01*
X88064Y7335D01*
X218990Y7335D01*
X219061Y7346D01*
G37*
%LPC*%
G36*
X86407Y840665D02*
X86407Y840665D01*
X83447Y843625D01*
X83447Y847811D01*
X84773Y849137D01*
X84798Y849172D01*
X84829Y849201D01*
X84861Y849264D01*
X84902Y849321D01*
X84912Y849362D01*
X84932Y849400D01*
X84945Y849490D01*
X84951Y849515D01*
X84952Y849518D01*
X84958Y849539D01*
X84955Y849559D01*
X84959Y849586D01*
X84959Y888591D01*
X122179Y925811D01*
X208271Y925811D01*
X208312Y925818D01*
X208355Y925816D01*
X208422Y925838D01*
X208491Y925850D01*
X208528Y925872D01*
X208568Y925885D01*
X208641Y925939D01*
X208685Y925965D01*
X208698Y925981D01*
X208719Y925997D01*
X217763Y935041D01*
X221914Y935041D01*
X221956Y935048D01*
X221999Y935046D01*
X222066Y935068D01*
X222135Y935080D01*
X222172Y935102D01*
X222212Y935115D01*
X222285Y935169D01*
X222328Y935195D01*
X222342Y935211D01*
X222363Y935227D01*
X223689Y936553D01*
X227875Y936553D01*
X230835Y933593D01*
X230835Y929407D01*
X227875Y926447D01*
X223689Y926447D01*
X222363Y927773D01*
X222328Y927798D01*
X222299Y927829D01*
X222236Y927861D01*
X222179Y927902D01*
X222138Y927912D01*
X222100Y927932D01*
X222010Y927945D01*
X221961Y927958D01*
X221941Y927955D01*
X221914Y927959D01*
X220959Y927959D01*
X220918Y927952D01*
X220875Y927954D01*
X220808Y927932D01*
X220739Y927920D01*
X220702Y927898D01*
X220662Y927885D01*
X220589Y927831D01*
X220545Y927805D01*
X220532Y927789D01*
X220511Y927773D01*
X216361Y923623D01*
X216310Y923550D01*
X216254Y923481D01*
X216246Y923459D01*
X216233Y923439D01*
X216211Y923353D01*
X216182Y923269D01*
X216183Y923245D01*
X216177Y923222D01*
X216186Y923133D01*
X216189Y923044D01*
X216198Y923022D01*
X216200Y922999D01*
X216240Y922919D01*
X216273Y922837D01*
X216289Y922819D01*
X216299Y922798D01*
X216364Y922737D01*
X216424Y922671D01*
X216445Y922660D01*
X216463Y922644D01*
X216545Y922609D01*
X216624Y922568D01*
X216650Y922565D01*
X216669Y922556D01*
X216720Y922554D01*
X216809Y922541D01*
X284271Y922541D01*
X284312Y922548D01*
X284355Y922546D01*
X284422Y922568D01*
X284491Y922580D01*
X284528Y922602D01*
X284568Y922615D01*
X284641Y922669D01*
X284685Y922695D01*
X284691Y922702D01*
X284694Y922704D01*
X284702Y922714D01*
X284719Y922727D01*
X289273Y927281D01*
X289298Y927316D01*
X289329Y927344D01*
X289361Y927407D01*
X289402Y927465D01*
X289412Y927506D01*
X289432Y927544D01*
X289445Y927634D01*
X289458Y927682D01*
X289455Y927703D01*
X289459Y927729D01*
X289459Y941632D01*
X289452Y941674D01*
X289454Y941717D01*
X289432Y941784D01*
X289420Y941853D01*
X289398Y941890D01*
X289385Y941930D01*
X289331Y942003D01*
X289305Y942046D01*
X289289Y942060D01*
X289273Y942081D01*
X287947Y943407D01*
X287947Y947593D01*
X290907Y950553D01*
X295093Y950553D01*
X298053Y947593D01*
X298053Y943407D01*
X296727Y942081D01*
X296702Y942046D01*
X296671Y942017D01*
X296639Y941954D01*
X296598Y941897D01*
X296588Y941856D01*
X296568Y941818D01*
X296555Y941728D01*
X296542Y941679D01*
X296545Y941659D01*
X296541Y941632D01*
X296541Y924533D01*
X292361Y920353D01*
X292310Y920280D01*
X292254Y920211D01*
X292246Y920189D01*
X292233Y920169D01*
X292211Y920083D01*
X292182Y919999D01*
X292183Y919975D01*
X292177Y919952D01*
X292186Y919863D01*
X292189Y919774D01*
X292198Y919752D01*
X292200Y919729D01*
X292240Y919649D01*
X292273Y919567D01*
X292289Y919549D01*
X292299Y919528D01*
X292364Y919467D01*
X292424Y919401D01*
X292445Y919390D01*
X292463Y919374D01*
X292545Y919339D01*
X292624Y919298D01*
X292650Y919295D01*
X292669Y919286D01*
X292720Y919284D01*
X292809Y919271D01*
X297501Y919271D01*
X297542Y919278D01*
X297585Y919276D01*
X297652Y919298D01*
X297721Y919310D01*
X297758Y919332D01*
X297798Y919345D01*
X297871Y919399D01*
X297915Y919425D01*
X297928Y919441D01*
X297949Y919457D01*
X299761Y921269D01*
X299786Y921304D01*
X299817Y921332D01*
X299849Y921395D01*
X299890Y921453D01*
X299900Y921494D01*
X299920Y921532D01*
X299933Y921622D01*
X299946Y921670D01*
X299943Y921691D01*
X299947Y921717D01*
X299947Y923593D01*
X302907Y926553D01*
X307093Y926553D01*
X310053Y923593D01*
X310053Y919407D01*
X307093Y916447D01*
X305217Y916447D01*
X305176Y916440D01*
X305133Y916442D01*
X305066Y916420D01*
X304997Y916408D01*
X304960Y916386D01*
X304920Y916373D01*
X304847Y916319D01*
X304803Y916293D01*
X304790Y916277D01*
X304769Y916261D01*
X300697Y912189D01*
X129084Y912189D01*
X129042Y912182D01*
X129000Y912184D01*
X128933Y912162D01*
X128863Y912150D01*
X128826Y912128D01*
X128786Y912115D01*
X128713Y912061D01*
X128670Y912035D01*
X128657Y912019D01*
X128635Y912003D01*
X102227Y885595D01*
X102202Y885560D01*
X102171Y885531D01*
X102139Y885468D01*
X102098Y885410D01*
X102088Y885369D01*
X102068Y885332D01*
X102056Y885247D01*
X102048Y885223D01*
X102048Y885214D01*
X102042Y885193D01*
X102045Y885172D01*
X102041Y885146D01*
X102041Y851368D01*
X102048Y851326D01*
X102046Y851283D01*
X102068Y851216D01*
X102080Y851147D01*
X102102Y851110D01*
X102115Y851070D01*
X102169Y850997D01*
X102195Y850954D01*
X102211Y850940D01*
X102227Y850919D01*
X104053Y849093D01*
X104053Y844907D01*
X101093Y841947D01*
X96907Y841947D01*
X94635Y844219D01*
X94562Y844270D01*
X94493Y844326D01*
X94471Y844333D01*
X94451Y844347D01*
X94365Y844369D01*
X94281Y844398D01*
X94257Y844397D01*
X94234Y844403D01*
X94145Y844394D01*
X94056Y844391D01*
X94034Y844382D01*
X94011Y844380D01*
X93931Y844340D01*
X93849Y844307D01*
X93831Y844291D01*
X93810Y844280D01*
X93749Y844215D01*
X93683Y844155D01*
X93672Y844134D01*
X93656Y844117D01*
X93621Y844035D01*
X93580Y843956D01*
X93577Y843930D01*
X93568Y843910D01*
X93566Y843860D01*
X93553Y843770D01*
X93553Y843625D01*
X90593Y840665D01*
X86407Y840665D01*
G37*
%LPD*%
%LPC*%
G36*
X397158Y349749D02*
X397158Y349749D01*
X393758Y351158D01*
X391156Y353760D01*
X389747Y357160D01*
X389747Y360840D01*
X391156Y364240D01*
X393758Y366842D01*
X395028Y367368D01*
X395073Y367398D01*
X395123Y367418D01*
X395167Y367458D01*
X395217Y367490D01*
X395249Y367533D01*
X395289Y367569D01*
X395316Y367622D01*
X395351Y367669D01*
X395367Y367721D01*
X395392Y367769D01*
X395402Y367839D01*
X395415Y367884D01*
X395413Y367915D01*
X395419Y367954D01*
X395419Y458123D01*
X395414Y458154D01*
X395416Y458184D01*
X395406Y458224D01*
X395405Y458254D01*
X395388Y458297D01*
X395388Y458299D01*
X395380Y458344D01*
X395374Y458353D01*
X395371Y458366D01*
X395249Y458660D01*
X395249Y462340D01*
X396658Y465740D01*
X399260Y468342D01*
X402660Y469751D01*
X406340Y469751D01*
X409740Y468342D01*
X412342Y465740D01*
X413751Y462340D01*
X413751Y458660D01*
X413629Y458366D01*
X413622Y458336D01*
X413608Y458309D01*
X413600Y458254D01*
X413588Y458217D01*
X413589Y458182D01*
X413581Y458147D01*
X413583Y458136D01*
X413581Y458123D01*
X413581Y361694D01*
X412198Y358356D01*
X405144Y351302D01*
X401806Y349919D01*
X401375Y349919D01*
X401344Y349914D01*
X401314Y349916D01*
X401199Y349888D01*
X401154Y349880D01*
X401145Y349874D01*
X401132Y349871D01*
X400838Y349749D01*
X397158Y349749D01*
G37*
%LPD*%
G36*
X82645Y72743D02*
X82645Y72743D01*
X82734Y72745D01*
X82756Y72754D01*
X82779Y72757D01*
X82859Y72796D01*
X82941Y72830D01*
X82959Y72846D01*
X82980Y72856D01*
X83041Y72921D01*
X83107Y72981D01*
X83118Y73002D01*
X83134Y73019D01*
X83169Y73101D01*
X83210Y73181D01*
X83213Y73207D01*
X83222Y73226D01*
X83224Y73276D01*
X83237Y73366D01*
X83237Y112865D01*
X83226Y112930D01*
X83224Y112996D01*
X83206Y113039D01*
X83198Y113086D01*
X83164Y113143D01*
X83139Y113203D01*
X83108Y113238D01*
X83083Y113279D01*
X83032Y113321D01*
X82988Y113369D01*
X82946Y113391D01*
X82909Y113420D01*
X82847Y113441D01*
X82788Y113472D01*
X82734Y113480D01*
X82697Y113492D01*
X82657Y113491D01*
X82603Y113499D01*
X80429Y113499D01*
X63427Y130500D01*
X63364Y130545D01*
X63306Y130596D01*
X63272Y130608D01*
X63243Y130629D01*
X63168Y130648D01*
X63096Y130675D01*
X63060Y130676D01*
X63026Y130684D01*
X62949Y130676D01*
X62871Y130677D01*
X62838Y130665D01*
X62803Y130661D01*
X62733Y130627D01*
X62661Y130601D01*
X62633Y130578D01*
X62602Y130562D01*
X62549Y130506D01*
X62489Y130455D01*
X62469Y130421D01*
X62448Y130399D01*
X62430Y130356D01*
X62393Y130295D01*
X60844Y126554D01*
X57146Y122856D01*
X52315Y120855D01*
X51335Y120855D01*
X51270Y120844D01*
X51204Y120842D01*
X51161Y120824D01*
X51114Y120816D01*
X51057Y120782D01*
X50997Y120757D01*
X50962Y120726D01*
X50921Y120701D01*
X50879Y120650D01*
X50831Y120606D01*
X50809Y120564D01*
X50780Y120527D01*
X50759Y120465D01*
X50728Y120406D01*
X50720Y120352D01*
X50708Y120315D01*
X50709Y120275D01*
X50701Y120221D01*
X50701Y104634D01*
X50708Y104592D01*
X50706Y104550D01*
X50728Y104483D01*
X50740Y104413D01*
X50762Y104377D01*
X50775Y104336D01*
X50829Y104264D01*
X50855Y104220D01*
X50871Y104207D01*
X50887Y104186D01*
X82155Y72918D01*
X82228Y72867D01*
X82297Y72811D01*
X82319Y72803D01*
X82339Y72789D01*
X82425Y72767D01*
X82509Y72739D01*
X82533Y72739D01*
X82556Y72734D01*
X82645Y72743D01*
G37*
%LPC*%
G36*
X21685Y180855D02*
X21685Y180855D01*
X16854Y182856D01*
X13156Y186554D01*
X11155Y191385D01*
X11155Y196615D01*
X13156Y201446D01*
X16854Y205144D01*
X21685Y207145D01*
X26915Y207145D01*
X31746Y205144D01*
X35444Y201446D01*
X36414Y199103D01*
X36443Y199057D01*
X36462Y199011D01*
X36485Y198987D01*
X36505Y198950D01*
X36522Y198934D01*
X36535Y198914D01*
X36585Y198877D01*
X36613Y198846D01*
X36638Y198833D01*
X36673Y198802D01*
X36696Y198794D01*
X36715Y198779D01*
X36781Y198759D01*
X36813Y198743D01*
X36838Y198739D01*
X36883Y198722D01*
X36907Y198722D01*
X36930Y198715D01*
X36978Y198719D01*
X36998Y198715D01*
X37002Y198715D01*
X37033Y198721D01*
X37107Y198721D01*
X37130Y198729D01*
X37153Y198730D01*
X37200Y198751D01*
X37223Y198755D01*
X37254Y198774D01*
X37318Y198797D01*
X37337Y198812D01*
X37358Y198822D01*
X37391Y198855D01*
X37416Y198869D01*
X37443Y198903D01*
X37489Y198942D01*
X37503Y198965D01*
X37518Y198980D01*
X37535Y199017D01*
X37557Y199043D01*
X37566Y199070D01*
X37586Y199103D01*
X38556Y201446D01*
X42254Y205144D01*
X47085Y207145D01*
X52315Y207145D01*
X57146Y205144D01*
X60844Y201446D01*
X62845Y196615D01*
X62845Y191385D01*
X60844Y186554D01*
X57146Y182856D01*
X52315Y180855D01*
X47085Y180855D01*
X42254Y182856D01*
X38556Y186554D01*
X37586Y188897D01*
X37538Y188972D01*
X37496Y189050D01*
X37478Y189066D01*
X37465Y189086D01*
X37394Y189139D01*
X37327Y189198D01*
X37304Y189206D01*
X37285Y189221D01*
X37200Y189246D01*
X37117Y189278D01*
X37093Y189278D01*
X37070Y189285D01*
X36982Y189279D01*
X36893Y189279D01*
X36870Y189271D01*
X36847Y189270D01*
X36765Y189233D01*
X36682Y189203D01*
X36664Y189188D01*
X36642Y189178D01*
X36579Y189115D01*
X36511Y189058D01*
X36497Y189035D01*
X36482Y189020D01*
X36461Y188975D01*
X36414Y188897D01*
X35444Y186554D01*
X31746Y182856D01*
X26915Y180855D01*
X21685Y180855D01*
G37*
%LPD*%
%LPC*%
G36*
X26020Y768421D02*
X26020Y768421D01*
X21725Y770200D01*
X18438Y773487D01*
X16659Y777782D01*
X16659Y782430D01*
X18438Y786725D01*
X21725Y790012D01*
X26020Y791791D01*
X48956Y791791D01*
X53251Y790012D01*
X56538Y786725D01*
X58317Y782430D01*
X58317Y777782D01*
X56538Y773487D01*
X53251Y770200D01*
X48956Y768421D01*
X26020Y768421D01*
G37*
%LPD*%
%LPC*%
G36*
X323668Y936177D02*
X323668Y936177D01*
X321631Y937021D01*
X320073Y938579D01*
X319229Y940616D01*
X319229Y942820D01*
X320073Y944857D01*
X321631Y946415D01*
X323668Y947259D01*
X325872Y947259D01*
X327909Y946415D01*
X329467Y944857D01*
X330311Y942820D01*
X330311Y940616D01*
X329467Y938579D01*
X327909Y937021D01*
X325872Y936177D01*
X323668Y936177D01*
G37*
%LPD*%
%LPC*%
G36*
X265868Y936177D02*
X265868Y936177D01*
X263831Y937021D01*
X262273Y938579D01*
X261429Y940616D01*
X261429Y942820D01*
X262273Y944857D01*
X263831Y946415D01*
X265868Y947259D01*
X268072Y947259D01*
X270109Y946415D01*
X271667Y944857D01*
X272511Y942820D01*
X272511Y940616D01*
X271667Y938579D01*
X270109Y937021D01*
X268072Y936177D01*
X265868Y936177D01*
G37*
%LPD*%
D10*
X443362Y658940D02*
X461650Y658940D01*
X461650Y633540D02*
X443362Y633540D01*
X443362Y608140D02*
X461650Y608140D01*
X461650Y582740D02*
X443362Y582740D01*
X443362Y557340D02*
X461650Y557340D01*
X461650Y531940D02*
X443362Y531940D01*
X443362Y506540D02*
X461650Y506540D01*
X461650Y481140D02*
X443362Y481140D01*
D11*
X339120Y936818D03*
X252620Y936818D03*
X339120Y978518D03*
X252620Y978518D03*
D12*
X24300Y434000D03*
X49700Y434000D03*
X49700Y404000D03*
X24300Y404000D03*
X49700Y374000D03*
X24300Y374000D03*
X49700Y344000D03*
X24300Y344000D03*
X49700Y314000D03*
X24300Y314000D03*
X49700Y284000D03*
X24300Y284000D03*
X49700Y254000D03*
X24300Y254000D03*
X49700Y224000D03*
X24300Y224000D03*
X49700Y194000D03*
X24300Y194000D03*
X24300Y164000D03*
X49700Y164000D03*
X49700Y134000D03*
X24300Y134000D03*
D13*
X424500Y583120D03*
X424500Y567880D03*
X424500Y640880D03*
X424500Y656120D03*
D14*
X469500Y202000D03*
X469500Y125800D03*
X469500Y151200D03*
X469500Y176600D03*
D10*
X46632Y780106D02*
X28344Y780106D01*
X28344Y734894D02*
X46632Y734894D01*
X93368Y780106D02*
X111656Y780106D01*
X111656Y734894D02*
X93368Y734894D01*
X151800Y799856D02*
X151800Y818144D01*
X177200Y818144D02*
X177200Y799856D01*
D15*
X416619Y609881D03*
D16*
X409119Y617381D02*
X409119Y734881D01*
X409119Y617381D02*
X416619Y609881D01*
X409119Y734881D02*
X401500Y742500D01*
X188376Y742500D01*
X108876Y822000D01*
X103000Y822000D01*
X101500Y823500D01*
D15*
X101500Y823500D03*
D16*
X424500Y640880D02*
X424500Y634500D01*
X433782Y617019D02*
X430981Y614218D01*
X420955Y614218D02*
X416619Y609881D01*
X420955Y614218D02*
X430981Y614218D01*
X433782Y617019D02*
X433782Y625218D01*
X424500Y634500D01*
D17*
X35700Y238000D02*
X49700Y224000D01*
X35700Y238000D02*
X19500Y238000D01*
X6548Y250952D01*
D15*
X385500Y877500D03*
X376500Y847500D03*
X353500Y842000D03*
X327500Y854000D03*
X370000Y801000D03*
X354000Y801000D03*
X31500Y829000D03*
X82500Y794000D03*
X98500Y794500D03*
X62000Y801000D03*
X73500Y906000D03*
X58000Y874500D03*
X69000Y891500D03*
X154000Y873500D03*
X154000Y863000D03*
X137000Y809000D03*
X201500Y897000D03*
X126000Y929000D03*
X150000Y929000D03*
D17*
X6548Y740048D02*
X6548Y250952D01*
D15*
X257500Y813000D03*
X239000Y790500D03*
X249000Y780500D03*
X221500Y847500D03*
X251500Y872500D03*
X249500Y896000D03*
X267000Y755500D03*
X343500Y890500D03*
X325000Y875500D03*
X333000Y903500D03*
X268500Y953500D03*
X286000Y967000D03*
X320500Y968000D03*
X307500Y946000D03*
X352000Y946500D03*
X240000Y993500D03*
X287500Y992000D03*
X353000Y992500D03*
X412500Y991000D03*
X214500Y992500D03*
X383000Y949000D03*
X366000Y929500D03*
X154500Y852000D03*
X141000Y863000D03*
X116500Y850000D03*
X119500Y826000D03*
X205500Y877500D03*
X7000Y936500D03*
X118000Y929000D03*
X31000Y936000D03*
X38500Y936500D03*
X177500Y938000D03*
X184000Y938000D03*
X190500Y938000D03*
X197000Y938000D03*
X203000Y938000D03*
X209500Y938000D03*
X14500Y936000D03*
X23000Y936000D03*
X110000Y929000D03*
X141000Y851500D03*
X62000Y929000D03*
X47500Y823500D03*
X68500Y774000D03*
X129500Y763000D03*
X137500Y735000D03*
X59500Y761000D03*
X221500Y774500D03*
D18*
X445540Y506540D02*
X452506Y506540D01*
X430916Y491916D02*
X430916Y472584D01*
X485500Y290000D02*
X477000Y281500D01*
X338500Y240000D02*
X338500Y221000D01*
D15*
X338500Y155000D03*
D18*
X338500Y221000D01*
X430916Y491916D02*
X445540Y506540D01*
X430916Y472584D02*
X438500Y465000D01*
X471500Y465000D01*
X485500Y451000D01*
X485500Y290000D01*
X477000Y281500D02*
X380000Y281500D01*
X338500Y240000D01*
D15*
X331448Y234000D03*
D16*
X338500Y226948D01*
X338500Y221000D01*
D15*
X211000Y817500D03*
X224500Y804500D03*
X224000Y753000D03*
X298500Y834500D03*
X277500Y834500D03*
X300500Y868000D03*
X350000Y868000D03*
X208000Y788000D03*
X435500Y913500D03*
X463500Y886000D03*
X482000Y920500D03*
X435500Y836500D03*
X478000Y837000D03*
X223000Y906500D03*
X183000Y908000D03*
X13500Y817500D03*
X60000Y859000D03*
X69000Y875000D03*
X70500Y859000D03*
X29000Y757000D03*
X14000Y794500D03*
X46000Y794000D03*
X94500Y762000D03*
X242500Y828000D03*
X206000Y861000D03*
X134000Y929000D03*
X142000Y929000D03*
X102000Y929000D03*
X94000Y929000D03*
X86000Y929000D03*
X78000Y929000D03*
X70000Y929000D03*
X58000Y891500D03*
X141000Y874000D03*
X140500Y886000D03*
X128000Y851000D03*
X155500Y900000D03*
X155500Y910500D03*
X176000Y852000D03*
X158000Y785500D03*
X178000Y774000D03*
X175500Y841500D03*
X182500Y841500D03*
D16*
X32334Y740048D02*
X6548Y740048D01*
X32334Y740048D02*
X37488Y734894D01*
D15*
X137500Y826000D03*
X231500Y942000D03*
X381000Y985500D03*
X317000Y903000D03*
X246500Y909000D03*
X220500Y961500D03*
X252000Y909000D03*
X24000Y862500D03*
D16*
X296500Y126000D02*
X289000Y118500D01*
D15*
X296500Y126000D03*
D16*
X289000Y118500D02*
X82500Y118500D01*
X33558Y134000D02*
X24300Y134000D01*
X33558Y134000D02*
X44972Y145414D01*
X55586Y145414D01*
X82500Y118500D01*
X45700Y102300D02*
X88500Y59500D01*
X290500Y59500D02*
X294000Y63000D01*
D15*
X294000Y63000D03*
D16*
X290500Y59500D02*
X88500Y59500D01*
X45700Y130000D02*
X49700Y134000D01*
X45700Y130000D02*
X45700Y102300D01*
D15*
X415500Y602000D03*
D16*
X417000Y602000D02*
X423140Y608140D01*
X417000Y602000D02*
X415500Y602000D01*
X423140Y608140D02*
X452506Y608140D01*
X415500Y602237D02*
X415500Y602000D01*
X415500Y602237D02*
X405837Y611901D01*
X405837Y731393D02*
X398000Y739230D01*
X405837Y731393D02*
X405837Y611901D01*
X80500Y818500D02*
X39000Y860000D01*
X39000Y894000D01*
X187021Y739230D02*
X398000Y739230D01*
X187021Y739230D02*
X107751Y818500D01*
X80500Y818500D01*
D15*
X39000Y894000D03*
D16*
X49700Y164000D02*
X24300Y164000D01*
X49700Y164000D02*
X69700Y164000D01*
X74500Y172800D02*
X83000Y181300D01*
X74500Y168800D02*
X69700Y164000D01*
X83000Y181300D02*
X83000Y234000D01*
X85500Y236500D01*
X296000Y236500D02*
X303000Y243500D01*
D15*
X303000Y243500D03*
D16*
X296000Y236500D02*
X85500Y236500D01*
D15*
X64500Y455000D03*
D16*
X83114Y238886D02*
X85500Y236500D01*
X83114Y435614D02*
X64500Y454228D01*
X64500Y455000D01*
X83114Y435614D02*
X83114Y238886D01*
X74500Y172800D02*
X74500Y168800D01*
X74500Y162000D01*
D15*
X74500Y162000D03*
X385500Y321858D03*
D16*
X389500Y325858D02*
X419858Y325858D01*
X389500Y325858D02*
X385500Y321858D01*
X419858Y325858D02*
X428500Y334500D01*
D15*
X428500Y334500D03*
D16*
X452506Y557340D02*
X452006Y557840D01*
X411660Y557840D01*
X395500Y574000D01*
X395500Y722500D01*
X388580Y729420D01*
X178580Y729420D01*
X99500Y808500D01*
X84000Y808500D01*
X34500Y858000D01*
D15*
X34500Y858000D03*
D16*
X431506Y531940D02*
X452506Y531940D01*
X431506Y531940D02*
X392230Y571216D01*
X392230Y721146D01*
X387226Y726150D01*
X177226Y726150D01*
X156688Y746688D01*
X155619Y745619D01*
D15*
X155619Y745619D03*
D16*
X424500Y567880D02*
X429380Y567880D01*
X430254Y568754D01*
X466378Y568754D01*
X473094Y562038D01*
X473094Y552528D01*
X452506Y531940D01*
D15*
X257000Y10294D03*
X427500Y297000D03*
D16*
X425500Y299000D01*
X334270Y299000D01*
X317770Y282500D01*
X317770Y36564D02*
X291500Y10294D01*
X257000Y10294D01*
X317770Y36564D02*
X317770Y282500D01*
D15*
X330500Y302000D03*
X256500Y68000D03*
D16*
X314500Y286000D02*
X330500Y302000D01*
X303000Y68000D02*
X256500Y68000D01*
X303000Y68000D02*
X314500Y79500D01*
X314500Y286000D01*
D15*
X330500Y312000D03*
X257000Y126500D03*
D16*
X330500Y308763D02*
X330500Y312000D01*
X330500Y308763D02*
X311218Y289481D01*
X311218Y147718D02*
X290000Y126500D01*
X311218Y147718D02*
X311218Y289481D01*
X290000Y126500D02*
X257000Y126500D01*
D15*
X330500Y322000D03*
X257000Y186000D03*
D16*
X307948Y299448D02*
X330500Y322000D01*
X307948Y204948D02*
X289000Y186000D01*
X257000Y186000D01*
X307948Y204948D02*
X307948Y299448D01*
D15*
X330500Y332000D03*
X256000Y245000D03*
D16*
X292178Y293678D02*
X330500Y332000D01*
X292178Y247178D02*
X290000Y245000D01*
X256000Y245000D01*
X292178Y247178D02*
X292178Y293678D01*
D15*
X330500Y342000D03*
X257000Y304000D03*
D16*
X327408Y342000D02*
X330500Y342000D01*
X327408Y342000D02*
X289408Y304000D01*
X257000Y304000D01*
D15*
X330500Y352000D03*
D16*
X300000Y352000D01*
X289000Y363000D01*
X257500Y363000D01*
D15*
X257500Y363000D03*
X330500Y362000D03*
D16*
X287500Y422000D02*
X257500Y422000D01*
D15*
X257500Y422000D03*
D16*
X318500Y391000D02*
X318500Y374000D01*
X330500Y362000D01*
X318500Y391000D02*
X287500Y422000D01*
D15*
X330500Y372000D03*
D16*
X322000Y380500D02*
X322000Y392125D01*
X322000Y380500D02*
X330500Y372000D01*
X322000Y392125D02*
X291000Y423125D01*
X291000Y477500D01*
X287500Y481000D01*
X255500Y481000D01*
D15*
X255500Y481000D03*
X330500Y382000D03*
D16*
X325500Y387000D01*
X325500Y393249D01*
X294270Y424479D01*
X294270Y478855D01*
X291312Y481812D01*
X291312Y537188D01*
X288500Y540000D01*
X257000Y540000D01*
D15*
X257000Y540000D03*
X330500Y392294D03*
D16*
X330500Y392874D01*
X297540Y425834D01*
X297540Y480209D01*
X294582Y483167D01*
X291500Y595500D02*
X288000Y599000D01*
X257000Y599000D01*
D15*
X257000Y599000D03*
D16*
X294582Y538542D02*
X294582Y483167D01*
X294582Y538542D02*
X291500Y541625D01*
X291500Y595500D01*
D15*
X330500Y402000D03*
D16*
X325998Y402000D01*
X300810Y427188D01*
X300810Y485690D02*
X297852Y488648D01*
X297852Y540648D02*
X294770Y543730D01*
X291500Y654500D02*
X288000Y658000D01*
X256000Y658000D01*
D15*
X256000Y658000D03*
D16*
X300810Y485690D02*
X300810Y427188D01*
X297852Y488648D02*
X297852Y540648D01*
X294770Y543730D02*
X294770Y596855D01*
X291500Y600125D01*
X291500Y654500D01*
D19*
X44658Y457500D03*
D20*
X44718Y438982D02*
X49700Y434000D01*
X44718Y457440D02*
X44658Y457500D01*
X44718Y457440D02*
X44718Y438982D01*
D15*
X412678Y586500D03*
D16*
X412678Y588559D01*
X399230Y602007D01*
X399230Y728751D01*
X395291Y732690D02*
X184312Y732690D01*
X395291Y732690D02*
X399230Y728751D01*
X155320Y761682D02*
X153182Y761682D01*
D15*
X153182Y761682D03*
D16*
X155320Y761682D02*
X184312Y732690D01*
X412678Y586500D02*
X421120Y586500D01*
X424500Y583120D01*
D15*
X223500Y10012D03*
X274500Y26000D03*
D16*
X249455Y10012D02*
X223500Y10012D01*
X263576Y15076D02*
X274500Y26000D01*
X254519Y15076D02*
X249455Y10012D01*
X254519Y15076D02*
X263576Y15076D01*
D21*
X222000Y821500D03*
D22*
X220000Y821500D01*
X144500Y897000D02*
X144500Y897380D01*
X189250Y852250D02*
X220000Y821500D01*
D21*
X144500Y897380D03*
D22*
X144500Y897000D02*
X189250Y852250D01*
X452506Y708994D02*
X452506Y658940D01*
X452506Y708994D02*
X405150Y756350D01*
X287150Y756350D02*
X222000Y821500D01*
X287150Y756350D02*
X405150Y756350D01*
D15*
X34218Y885000D03*
D16*
X26000Y893218D01*
X26000Y895000D01*
D15*
X26000Y895000D03*
X188000Y826000D03*
D16*
X188000Y851000D01*
X189250Y852250D01*
D21*
X404500Y460500D03*
D22*
X404500Y363500D01*
X400000Y359000D02*
X398998Y359000D01*
D21*
X398998Y359000D03*
D22*
X400000Y359000D02*
X404500Y363500D01*
D15*
X337000Y845500D03*
X374500Y878500D03*
D17*
X484952Y501304D02*
X464788Y481140D01*
X452506Y481140D01*
X458000Y726872D02*
X458149Y726872D01*
X458000Y726872D02*
X457649Y726872D01*
X337000Y845500D02*
X336670Y845170D01*
X337000Y845500D02*
X341500Y845500D01*
D21*
X325000Y891500D03*
D15*
X458000Y726872D03*
D17*
X481760Y703260D02*
X484952Y700069D01*
X484952Y501304D01*
D22*
X325500Y891500D02*
X325000Y891500D01*
X325500Y891500D02*
X338500Y878500D01*
X374500Y878500D01*
X341500Y845500D01*
X341170Y845170D01*
X336670Y845170D01*
X336638Y845138D02*
X337000Y845500D01*
X336638Y845138D02*
X336638Y791432D01*
X353750Y774320D01*
X412594Y774320D01*
X414564Y772350D02*
X415045Y772350D01*
X462197Y725197D02*
X482920Y704475D01*
X462197Y725197D02*
X415045Y772350D01*
X414564Y772350D02*
X412594Y774320D01*
D17*
X484952Y702443D02*
X484952Y700069D01*
X484952Y702443D02*
X482920Y704475D01*
X460523Y726872D02*
X458000Y726872D01*
X460523Y726872D02*
X462197Y725197D01*
D15*
X329500Y685500D03*
X336000Y603000D03*
X332500Y530000D03*
X69000Y674000D03*
X80000Y95000D03*
X37500Y116000D03*
X37500Y89500D03*
X53500Y116500D03*
X53500Y105500D03*
X12000Y148500D03*
X11500Y180500D03*
X10000Y209500D03*
X37000Y178500D03*
X37000Y148500D03*
X67500Y209500D03*
X69500Y244500D03*
X72500Y276000D03*
X37000Y298500D03*
X72000Y343500D03*
X71500Y315000D03*
X20000Y457500D03*
X39000Y475000D03*
X38500Y525500D03*
X38500Y576500D03*
X38500Y624500D03*
X38500Y666500D03*
X62000Y711000D03*
X18000Y703000D03*
X17500Y666500D03*
X17500Y623000D03*
X19500Y576000D03*
X19500Y522500D03*
X19500Y484000D03*
X390500Y556500D03*
X391500Y519500D03*
X388500Y467000D03*
X390000Y440500D03*
X434500Y455500D03*
X423000Y434000D03*
X469000Y437500D03*
X461000Y389000D03*
X462500Y358500D03*
X463000Y348000D03*
X463000Y337000D03*
X393000Y343000D03*
X389500Y374000D03*
X362500Y341500D03*
X360500Y321000D03*
X372000Y322500D03*
X457500Y307000D03*
X374500Y675000D03*
X375500Y629500D03*
X377500Y576500D03*
X447500Y430500D03*
X317500Y462000D03*
X316500Y495500D03*
X329000Y110500D03*
X331000Y47500D03*
X322000Y26500D03*
X332500Y26500D03*
X330000Y77500D03*
X457500Y317500D03*
X434000Y376500D03*
X428500Y323000D03*
X462000Y297500D03*
X360500Y419000D03*
X378000Y341500D03*
X335000Y288000D03*
X326000Y276500D03*
D18*
X44168Y82832D02*
X37500Y89500D01*
X44168Y82832D02*
X57835Y82832D01*
X84000Y56667D01*
X84000Y6000D01*
X85968Y4032D01*
X310032Y4032D02*
X332500Y26500D01*
X310032Y4032D02*
X85968Y4032D01*
D15*
X404068Y833068D03*
D16*
X358068Y833068D01*
X345500Y820500D01*
X344976Y820500D01*
X345500Y819976D01*
D15*
X345500Y819976D03*
D23*
X118000Y46000D03*
X126000Y46000D03*
X134000Y46000D03*
X142000Y46000D03*
X142000Y38000D03*
X142000Y30000D03*
X142000Y22000D03*
X142000Y14000D03*
X134000Y14000D03*
X126000Y14000D03*
X180000Y46000D03*
X172000Y46000D03*
X164000Y46000D03*
X156000Y46000D03*
X156000Y38000D03*
X156000Y30000D03*
X156000Y22000D03*
X156000Y14000D03*
X164000Y14000D03*
X172000Y14000D03*
X118000Y14000D03*
X180000Y14000D03*
X118000Y105000D03*
X126000Y105000D03*
X134000Y105000D03*
X142000Y105000D03*
X142000Y97000D03*
X142000Y89000D03*
X142000Y81000D03*
X142000Y73000D03*
X134000Y73000D03*
X126000Y73000D03*
X180000Y105000D03*
X172000Y105000D03*
X164000Y105000D03*
X156000Y105000D03*
X156000Y97000D03*
X156000Y89000D03*
X156000Y81000D03*
X156000Y73000D03*
X164000Y73000D03*
X172000Y73000D03*
X118000Y73000D03*
X180000Y73000D03*
X118000Y164000D03*
X126000Y164000D03*
X134000Y164000D03*
X142000Y164000D03*
X142000Y156000D03*
X142000Y148000D03*
X142000Y140000D03*
X142000Y132000D03*
X134000Y132000D03*
X126000Y132000D03*
X180000Y164000D03*
X172000Y164000D03*
X164000Y164000D03*
X156000Y164000D03*
X156000Y156000D03*
X156000Y148000D03*
X156000Y140000D03*
X156000Y132000D03*
X164000Y132000D03*
X172000Y132000D03*
X118000Y132000D03*
X180000Y132000D03*
X118000Y223000D03*
X126000Y223000D03*
X134000Y223000D03*
X142000Y223000D03*
X142000Y215000D03*
X142000Y207000D03*
X142000Y199000D03*
X142000Y191000D03*
X134000Y191000D03*
X126000Y191000D03*
X180000Y223000D03*
X172000Y223000D03*
X164000Y223000D03*
X156000Y223000D03*
X156000Y215000D03*
X156000Y207000D03*
X156000Y199000D03*
X156000Y191000D03*
X164000Y191000D03*
X172000Y191000D03*
X118000Y191000D03*
X180000Y191000D03*
X118000Y282000D03*
X126000Y282000D03*
X134000Y282000D03*
X142000Y282000D03*
X142000Y274000D03*
X142000Y266000D03*
X142000Y258000D03*
X142000Y250000D03*
X134000Y250000D03*
X126000Y250000D03*
X180000Y282000D03*
X172000Y282000D03*
X164000Y282000D03*
X156000Y282000D03*
X156000Y274000D03*
X156000Y266000D03*
X156000Y258000D03*
X156000Y250000D03*
X164000Y250000D03*
X172000Y250000D03*
X118000Y250000D03*
X180000Y250000D03*
X118000Y341000D03*
X126000Y341000D03*
X134000Y341000D03*
X142000Y341000D03*
X142000Y333000D03*
X142000Y325000D03*
X142000Y317000D03*
X142000Y309000D03*
X134000Y309000D03*
X126000Y309000D03*
X180000Y341000D03*
X172000Y341000D03*
X164000Y341000D03*
X156000Y341000D03*
X156000Y333000D03*
X156000Y325000D03*
X156000Y317000D03*
X156000Y309000D03*
X164000Y309000D03*
X172000Y309000D03*
X118000Y309000D03*
X180000Y309000D03*
X118000Y400000D03*
X126000Y400000D03*
X134000Y400000D03*
X142000Y400000D03*
X142000Y392000D03*
X142000Y384000D03*
X142000Y376000D03*
X142000Y368000D03*
X134000Y368000D03*
X126000Y368000D03*
X180000Y400000D03*
X172000Y400000D03*
X164000Y400000D03*
X156000Y400000D03*
X156000Y392000D03*
X156000Y384000D03*
X156000Y376000D03*
X156000Y368000D03*
X164000Y368000D03*
X172000Y368000D03*
X118000Y368000D03*
X180000Y368000D03*
X118000Y459000D03*
X126000Y459000D03*
X134000Y459000D03*
X142000Y459000D03*
X142000Y451000D03*
X142000Y443000D03*
X142000Y435000D03*
X142000Y427000D03*
X134000Y427000D03*
X126000Y427000D03*
X180000Y459000D03*
X172000Y459000D03*
X164000Y459000D03*
X156000Y459000D03*
X156000Y451000D03*
X156000Y443000D03*
X156000Y435000D03*
X156000Y427000D03*
X164000Y427000D03*
X172000Y427000D03*
X118000Y427000D03*
X180000Y427000D03*
X118000Y518000D03*
X126000Y518000D03*
X134000Y518000D03*
X142000Y518000D03*
X142000Y510000D03*
X142000Y502000D03*
X142000Y494000D03*
X142000Y486000D03*
X134000Y486000D03*
X126000Y486000D03*
X180000Y518000D03*
X172000Y518000D03*
X164000Y518000D03*
X156000Y518000D03*
X156000Y510000D03*
X156000Y502000D03*
X156000Y494000D03*
X156000Y486000D03*
X164000Y486000D03*
X172000Y486000D03*
X118000Y486000D03*
X180000Y486000D03*
X118000Y577000D03*
X126000Y577000D03*
X134000Y577000D03*
X142000Y577000D03*
X142000Y569000D03*
X142000Y561000D03*
X142000Y553000D03*
X142000Y545000D03*
X134000Y545000D03*
X126000Y545000D03*
X180000Y577000D03*
X172000Y577000D03*
X164000Y577000D03*
X156000Y577000D03*
X156000Y569000D03*
X156000Y561000D03*
X156000Y553000D03*
X156000Y545000D03*
X164000Y545000D03*
X172000Y545000D03*
X118000Y545000D03*
X180000Y545000D03*
X118000Y636000D03*
X126000Y636000D03*
X134000Y636000D03*
X142000Y636000D03*
X142000Y628000D03*
X142000Y620000D03*
X142000Y612000D03*
X142000Y604000D03*
X134000Y604000D03*
X126000Y604000D03*
X180000Y636000D03*
X172000Y636000D03*
X164000Y636000D03*
X156000Y636000D03*
X156000Y628000D03*
X156000Y620000D03*
X156000Y612000D03*
X156000Y604000D03*
X164000Y604000D03*
X172000Y604000D03*
X118000Y604000D03*
X180000Y604000D03*
X118000Y695000D03*
X126000Y695000D03*
X134000Y695000D03*
X142000Y695000D03*
X142000Y687000D03*
X142000Y679000D03*
X142000Y671000D03*
X142000Y663000D03*
X134000Y663000D03*
X126000Y663000D03*
X180000Y695000D03*
X172000Y695000D03*
X164000Y695000D03*
X156000Y695000D03*
X156000Y687000D03*
X156000Y679000D03*
X156000Y671000D03*
X156000Y663000D03*
X164000Y663000D03*
X172000Y663000D03*
X118000Y663000D03*
X180000Y663000D03*
D15*
X401000Y332000D03*
D16*
X351000Y332000D01*
X335282Y403981D02*
X304080Y435183D01*
X335282Y403981D02*
X335282Y347718D01*
X304080Y435183D02*
X304080Y487045D01*
X301122Y490002D01*
X301122Y542002D02*
X298040Y545085D01*
X298040Y598209D01*
X294770Y601479D01*
X335282Y347718D02*
X351000Y332000D01*
X301122Y490002D02*
X301122Y542002D01*
X294770Y601479D02*
X294770Y655855D01*
X248500Y649500D02*
X87500Y649500D01*
X251218Y659981D02*
X254019Y662782D01*
X287843Y662782D02*
X294770Y655855D01*
X287843Y662782D02*
X254019Y662782D01*
X251218Y659981D02*
X251218Y652218D01*
X248500Y649500D01*
D15*
X87500Y649500D03*
D16*
X300000Y181000D02*
X296500Y177500D01*
D15*
X300000Y181000D03*
D16*
X296500Y177500D02*
X86500Y177500D01*
X85000Y176000D01*
X85000Y128500D02*
X85500Y128000D01*
D15*
X85500Y128000D03*
D16*
X85000Y128500D02*
X85000Y176000D01*
D15*
X293000Y945500D03*
D16*
X293000Y926000D01*
X286000Y919000D01*
X126000Y919000D01*
X93718Y886718D02*
X93718Y852218D01*
D15*
X93718Y852218D03*
D16*
X93718Y886718D02*
X126000Y919000D01*
D15*
X305000Y921500D03*
D16*
X299230Y915730D01*
X127355Y915730D01*
X98500Y886876D02*
X98500Y847500D01*
X99000Y847000D01*
D15*
X99000Y847000D03*
D16*
X98500Y886876D02*
X127355Y915730D01*
D15*
X225782Y931500D03*
D16*
X219230Y931500D01*
X210000Y922270D01*
X123646Y922270D01*
D15*
X88500Y845718D03*
D16*
X88500Y887125D02*
X123646Y922270D01*
X88500Y887125D02*
X88500Y845718D01*
D15*
X414000Y594000D03*
D16*
X415500Y595500D01*
X414000Y594000D02*
X402500Y605500D01*
X402500Y730106D02*
X396646Y735960D01*
X402500Y730106D02*
X402500Y605500D01*
X396646Y735960D02*
X185667Y735960D01*
X106397Y815230D01*
X96500Y815230D01*
X96500Y813718D01*
D15*
X96500Y813718D03*
D16*
X452506Y633540D02*
X453506Y633540D01*
X465152Y595500D02*
X415500Y595500D01*
X465152Y595500D02*
X473094Y603442D01*
X473094Y609906D02*
X473064Y609936D01*
X473064Y613982D02*
X453506Y633540D01*
X473064Y613982D02*
X473064Y609936D01*
X473094Y609906D02*
X473094Y603442D01*
X403000Y746000D02*
X189500Y746000D01*
D15*
X429000Y619000D03*
D16*
X412500Y661000D02*
X412500Y736500D01*
X412500Y661000D02*
X412500Y633000D01*
X426500Y619000D02*
X429000Y619000D01*
X426500Y619000D02*
X412500Y633000D01*
X412500Y736500D02*
X403000Y746000D01*
X189500Y746000D02*
X106931Y828569D01*
X79569Y828569D01*
X55069Y853069D01*
D15*
X55069Y853069D03*
D16*
X417380Y656120D02*
X424500Y656120D01*
X417380Y656120D02*
X412500Y661000D01*
D15*
X183948Y870495D03*
D16*
X290695Y763700D02*
X408195Y763700D01*
X458395Y713500D02*
X458500Y713500D01*
X458395Y713500D02*
X408195Y763700D01*
X458500Y713500D02*
X476364Y695636D01*
X476364Y512209D02*
X474852Y510697D01*
D15*
X474852Y510697D03*
D16*
X476364Y512209D02*
X476364Y695636D01*
X290695Y763700D02*
X183948Y870447D01*
X183948Y870495D01*
D15*
X184500Y877448D03*
D16*
X411519Y765000D02*
X412000Y765000D01*
X411519Y765000D02*
X409549Y766970D01*
X412000Y765000D02*
X479634Y697366D01*
X479634Y505645D02*
X478122Y504133D01*
D15*
X478122Y504133D03*
D16*
X479634Y505645D02*
X479634Y697366D01*
X292549Y766970D02*
X190260Y869260D01*
X292549Y766970D02*
X409549Y766970D01*
X190260Y871689D02*
X184500Y877448D01*
X190260Y871689D02*
X190260Y869260D01*
M02*
