G04 EAGLE Gerber RS-274X export*
G75*
%MOMM*%
%FSLAX34Y34*%
%LPD*%
%IN*%
%IPPOS*%
%AMOC8*
5,1,8,0,0,1.08239X$1,22.5*%
G01*
%ADD10C,0.254000*%


D10*
X1500Y0D02*
X490000Y0D01*
X490000Y1000000D01*
X1500Y1000000D01*
X1500Y0D01*
X249620Y974518D02*
X249631Y974257D01*
X249666Y973997D01*
X249722Y973742D01*
X249801Y973492D01*
X249901Y973250D01*
X250022Y973018D01*
X250163Y972797D01*
X250322Y972590D01*
X250499Y972397D01*
X250692Y972220D01*
X250899Y972061D01*
X251120Y971920D01*
X251352Y971799D01*
X251594Y971699D01*
X251844Y971620D01*
X252099Y971564D01*
X252359Y971529D01*
X252620Y971518D01*
X252881Y971529D01*
X253141Y971564D01*
X253396Y971620D01*
X253646Y971699D01*
X253888Y971799D01*
X254120Y971920D01*
X254341Y972061D01*
X254548Y972220D01*
X254741Y972397D01*
X254918Y972590D01*
X255077Y972797D01*
X255218Y973018D01*
X255339Y973250D01*
X255439Y973492D01*
X255518Y973742D01*
X255574Y973997D01*
X255609Y974257D01*
X255620Y974518D01*
X255620Y982518D01*
X255609Y982779D01*
X255574Y983039D01*
X255518Y983294D01*
X255439Y983544D01*
X255339Y983786D01*
X255218Y984018D01*
X255077Y984239D01*
X254918Y984446D01*
X254741Y984639D01*
X254548Y984816D01*
X254341Y984975D01*
X254120Y985116D01*
X253888Y985237D01*
X253646Y985337D01*
X253396Y985416D01*
X253141Y985472D01*
X252881Y985507D01*
X252620Y985518D01*
X252359Y985507D01*
X252099Y985472D01*
X251844Y985416D01*
X251594Y985337D01*
X251352Y985237D01*
X251120Y985116D01*
X250899Y984975D01*
X250692Y984816D01*
X250499Y984639D01*
X250322Y984446D01*
X250163Y984239D01*
X250022Y984018D01*
X249901Y983786D01*
X249801Y983544D01*
X249722Y983294D01*
X249666Y983039D01*
X249631Y982779D01*
X249620Y982518D01*
X249620Y974518D01*
X336120Y974518D02*
X336131Y974257D01*
X336166Y973997D01*
X336222Y973742D01*
X336301Y973492D01*
X336401Y973250D01*
X336522Y973018D01*
X336663Y972797D01*
X336822Y972590D01*
X336999Y972397D01*
X337192Y972220D01*
X337399Y972061D01*
X337620Y971920D01*
X337852Y971799D01*
X338094Y971699D01*
X338344Y971620D01*
X338599Y971564D01*
X338859Y971529D01*
X339120Y971518D01*
X339381Y971529D01*
X339641Y971564D01*
X339896Y971620D01*
X340146Y971699D01*
X340388Y971799D01*
X340620Y971920D01*
X340841Y972061D01*
X341048Y972220D01*
X341241Y972397D01*
X341418Y972590D01*
X341577Y972797D01*
X341718Y973018D01*
X341839Y973250D01*
X341939Y973492D01*
X342018Y973742D01*
X342074Y973997D01*
X342109Y974257D01*
X342120Y974518D01*
X342120Y982518D01*
X342109Y982779D01*
X342074Y983039D01*
X342018Y983294D01*
X341939Y983544D01*
X341839Y983786D01*
X341718Y984018D01*
X341577Y984239D01*
X341418Y984446D01*
X341241Y984639D01*
X341048Y984816D01*
X340841Y984975D01*
X340620Y985116D01*
X340388Y985237D01*
X340146Y985337D01*
X339896Y985416D01*
X339641Y985472D01*
X339381Y985507D01*
X339120Y985518D01*
X338859Y985507D01*
X338599Y985472D01*
X338344Y985416D01*
X338094Y985337D01*
X337852Y985237D01*
X337620Y985116D01*
X337399Y984975D01*
X337192Y984816D01*
X336999Y984639D01*
X336822Y984446D01*
X336663Y984239D01*
X336522Y984018D01*
X336401Y983786D01*
X336301Y983544D01*
X336222Y983294D01*
X336166Y983039D01*
X336131Y982779D01*
X336120Y982518D01*
X336120Y974518D01*
X249620Y931318D02*
X249631Y931057D01*
X249666Y930797D01*
X249722Y930542D01*
X249801Y930292D01*
X249901Y930050D01*
X250022Y929818D01*
X250163Y929597D01*
X250322Y929390D01*
X250499Y929197D01*
X250692Y929020D01*
X250899Y928861D01*
X251120Y928720D01*
X251352Y928599D01*
X251594Y928499D01*
X251844Y928420D01*
X252099Y928364D01*
X252359Y928329D01*
X252620Y928318D01*
X252881Y928329D01*
X253141Y928364D01*
X253396Y928420D01*
X253646Y928499D01*
X253888Y928599D01*
X254120Y928720D01*
X254341Y928861D01*
X254548Y929020D01*
X254741Y929197D01*
X254918Y929390D01*
X255077Y929597D01*
X255218Y929818D01*
X255339Y930050D01*
X255439Y930292D01*
X255518Y930542D01*
X255574Y930797D01*
X255609Y931057D01*
X255620Y931318D01*
X255620Y942318D01*
X255609Y942579D01*
X255574Y942839D01*
X255518Y943094D01*
X255439Y943344D01*
X255339Y943586D01*
X255218Y943818D01*
X255077Y944039D01*
X254918Y944246D01*
X254741Y944439D01*
X254548Y944616D01*
X254341Y944775D01*
X254120Y944916D01*
X253888Y945037D01*
X253646Y945137D01*
X253396Y945216D01*
X253141Y945272D01*
X252881Y945307D01*
X252620Y945318D01*
X252359Y945307D01*
X252099Y945272D01*
X251844Y945216D01*
X251594Y945137D01*
X251352Y945037D01*
X251120Y944916D01*
X250899Y944775D01*
X250692Y944616D01*
X250499Y944439D01*
X250322Y944246D01*
X250163Y944039D01*
X250022Y943818D01*
X249901Y943586D01*
X249801Y943344D01*
X249722Y943094D01*
X249666Y942839D01*
X249631Y942579D01*
X249620Y942318D01*
X249620Y931318D01*
X336120Y931318D02*
X336131Y931057D01*
X336166Y930797D01*
X336222Y930542D01*
X336301Y930292D01*
X336401Y930050D01*
X336522Y929818D01*
X336663Y929597D01*
X336822Y929390D01*
X336999Y929197D01*
X337192Y929020D01*
X337399Y928861D01*
X337620Y928720D01*
X337852Y928599D01*
X338094Y928499D01*
X338344Y928420D01*
X338599Y928364D01*
X338859Y928329D01*
X339120Y928318D01*
X339381Y928329D01*
X339641Y928364D01*
X339896Y928420D01*
X340146Y928499D01*
X340388Y928599D01*
X340620Y928720D01*
X340841Y928861D01*
X341048Y929020D01*
X341241Y929197D01*
X341418Y929390D01*
X341577Y929597D01*
X341718Y929818D01*
X341839Y930050D01*
X341939Y930292D01*
X342018Y930542D01*
X342074Y930797D01*
X342109Y931057D01*
X342120Y931318D01*
X342120Y942318D01*
X342109Y942579D01*
X342074Y942839D01*
X342018Y943094D01*
X341939Y943344D01*
X341839Y943586D01*
X341718Y943818D01*
X341577Y944039D01*
X341418Y944246D01*
X341241Y944439D01*
X341048Y944616D01*
X340841Y944775D01*
X340620Y944916D01*
X340388Y945037D01*
X340146Y945137D01*
X339896Y945216D01*
X339641Y945272D01*
X339381Y945307D01*
X339120Y945318D01*
X338859Y945307D01*
X338599Y945272D01*
X338344Y945216D01*
X338094Y945137D01*
X337852Y945037D01*
X337620Y944916D01*
X337399Y944775D01*
X337192Y944616D01*
X336999Y944439D01*
X336822Y944246D01*
X336663Y944039D01*
X336522Y943818D01*
X336401Y943586D01*
X336301Y943344D01*
X336222Y943094D01*
X336166Y942839D01*
X336131Y942579D01*
X336120Y942318D01*
X336120Y931318D01*
X56160Y39636D02*
X56092Y38591D01*
X55955Y37552D01*
X55750Y36525D01*
X55479Y35513D01*
X55143Y34521D01*
X54742Y33553D01*
X54278Y32614D01*
X53755Y31706D01*
X53173Y30835D01*
X52535Y30004D01*
X51844Y29217D01*
X51103Y28476D01*
X50316Y27785D01*
X49485Y27148D01*
X48614Y26566D01*
X47706Y26042D01*
X46767Y25578D01*
X45799Y25177D01*
X44807Y24841D01*
X43795Y24570D01*
X42768Y24365D01*
X41729Y24229D01*
X40684Y24160D01*
X39636Y24160D01*
X38591Y24229D01*
X37552Y24365D01*
X36525Y24570D01*
X35513Y24841D01*
X34521Y25177D01*
X33553Y25578D01*
X32614Y26042D01*
X31706Y26566D01*
X30835Y27148D01*
X30004Y27785D01*
X29217Y28476D01*
X28476Y29217D01*
X27785Y30004D01*
X27148Y30835D01*
X26566Y31706D01*
X26042Y32614D01*
X25578Y33553D01*
X25177Y34521D01*
X24841Y35513D01*
X24570Y36525D01*
X24365Y37552D01*
X24229Y38591D01*
X24160Y39636D01*
X24160Y40684D01*
X24229Y41729D01*
X24365Y42768D01*
X24570Y43795D01*
X24841Y44807D01*
X25177Y45799D01*
X25578Y46767D01*
X26042Y47706D01*
X26566Y48614D01*
X27148Y49485D01*
X27785Y50316D01*
X28476Y51103D01*
X29217Y51844D01*
X30004Y52535D01*
X30835Y53173D01*
X31706Y53755D01*
X32614Y54278D01*
X33553Y54742D01*
X34521Y55143D01*
X35513Y55479D01*
X36525Y55750D01*
X37552Y55955D01*
X38591Y56092D01*
X39636Y56160D01*
X40684Y56160D01*
X41729Y56092D01*
X42768Y55955D01*
X43795Y55750D01*
X44807Y55479D01*
X45799Y55143D01*
X46767Y54742D01*
X47706Y54278D01*
X48614Y53755D01*
X49485Y53173D01*
X50316Y52535D01*
X51103Y51844D01*
X51844Y51103D01*
X52535Y50316D01*
X53173Y49485D01*
X53755Y48614D01*
X54278Y47706D01*
X54742Y46767D01*
X55143Y45799D01*
X55479Y44807D01*
X55750Y43795D01*
X55955Y42768D01*
X56092Y41729D01*
X56160Y40684D01*
X56160Y39636D01*
X465840Y39636D02*
X465772Y38591D01*
X465635Y37552D01*
X465430Y36525D01*
X465159Y35513D01*
X464823Y34521D01*
X464422Y33553D01*
X463958Y32614D01*
X463435Y31706D01*
X462853Y30835D01*
X462215Y30004D01*
X461524Y29217D01*
X460783Y28476D01*
X459996Y27785D01*
X459165Y27148D01*
X458294Y26566D01*
X457386Y26042D01*
X456447Y25578D01*
X455479Y25177D01*
X454487Y24841D01*
X453475Y24570D01*
X452448Y24365D01*
X451409Y24229D01*
X450364Y24160D01*
X449316Y24160D01*
X448271Y24229D01*
X447232Y24365D01*
X446205Y24570D01*
X445193Y24841D01*
X444201Y25177D01*
X443233Y25578D01*
X442294Y26042D01*
X441386Y26566D01*
X440515Y27148D01*
X439684Y27785D01*
X438897Y28476D01*
X438156Y29217D01*
X437465Y30004D01*
X436828Y30835D01*
X436246Y31706D01*
X435722Y32614D01*
X435258Y33553D01*
X434857Y34521D01*
X434521Y35513D01*
X434250Y36525D01*
X434045Y37552D01*
X433909Y38591D01*
X433840Y39636D01*
X433840Y40684D01*
X433909Y41729D01*
X434045Y42768D01*
X434250Y43795D01*
X434521Y44807D01*
X434857Y45799D01*
X435258Y46767D01*
X435722Y47706D01*
X436246Y48614D01*
X436828Y49485D01*
X437465Y50316D01*
X438156Y51103D01*
X438897Y51844D01*
X439684Y52535D01*
X440515Y53173D01*
X441386Y53755D01*
X442294Y54278D01*
X443233Y54742D01*
X444201Y55143D01*
X445193Y55479D01*
X446205Y55750D01*
X447232Y55955D01*
X448271Y56092D01*
X449316Y56160D01*
X450364Y56160D01*
X451409Y56092D01*
X452448Y55955D01*
X453475Y55750D01*
X454487Y55479D01*
X455479Y55143D01*
X456447Y54742D01*
X457386Y54278D01*
X458294Y53755D01*
X459165Y53173D01*
X459996Y52535D01*
X460783Y51844D01*
X461524Y51103D01*
X462215Y50316D01*
X462853Y49485D01*
X463435Y48614D01*
X463958Y47706D01*
X464422Y46767D01*
X464823Y45799D01*
X465159Y44807D01*
X465430Y43795D01*
X465635Y42768D01*
X465772Y41729D01*
X465840Y40684D01*
X465840Y39636D01*
X465840Y959316D02*
X465772Y958271D01*
X465635Y957232D01*
X465430Y956205D01*
X465159Y955193D01*
X464823Y954201D01*
X464422Y953233D01*
X463958Y952294D01*
X463435Y951386D01*
X462853Y950515D01*
X462215Y949684D01*
X461524Y948897D01*
X460783Y948156D01*
X459996Y947465D01*
X459165Y946828D01*
X458294Y946246D01*
X457386Y945722D01*
X456447Y945258D01*
X455479Y944857D01*
X454487Y944521D01*
X453475Y944250D01*
X452448Y944045D01*
X451409Y943909D01*
X450364Y943840D01*
X449316Y943840D01*
X448271Y943909D01*
X447232Y944045D01*
X446205Y944250D01*
X445193Y944521D01*
X444201Y944857D01*
X443233Y945258D01*
X442294Y945722D01*
X441386Y946246D01*
X440515Y946828D01*
X439684Y947465D01*
X438897Y948156D01*
X438156Y948897D01*
X437465Y949684D01*
X436828Y950515D01*
X436246Y951386D01*
X435722Y952294D01*
X435258Y953233D01*
X434857Y954201D01*
X434521Y955193D01*
X434250Y956205D01*
X434045Y957232D01*
X433909Y958271D01*
X433840Y959316D01*
X433840Y960364D01*
X433909Y961409D01*
X434045Y962448D01*
X434250Y963475D01*
X434521Y964487D01*
X434857Y965479D01*
X435258Y966447D01*
X435722Y967386D01*
X436246Y968294D01*
X436828Y969165D01*
X437465Y969996D01*
X438156Y970783D01*
X438897Y971524D01*
X439684Y972215D01*
X440515Y972853D01*
X441386Y973435D01*
X442294Y973958D01*
X443233Y974422D01*
X444201Y974823D01*
X445193Y975159D01*
X446205Y975430D01*
X447232Y975635D01*
X448271Y975772D01*
X449316Y975840D01*
X450364Y975840D01*
X451409Y975772D01*
X452448Y975635D01*
X453475Y975430D01*
X454487Y975159D01*
X455479Y974823D01*
X456447Y974422D01*
X457386Y973958D01*
X458294Y973435D01*
X459165Y972853D01*
X459996Y972215D01*
X460783Y971524D01*
X461524Y970783D01*
X462215Y969996D01*
X462853Y969165D01*
X463435Y968294D01*
X463958Y967386D01*
X464422Y966447D01*
X464823Y965479D01*
X465159Y964487D01*
X465430Y963475D01*
X465635Y962448D01*
X465772Y961409D01*
X465840Y960364D01*
X465840Y959316D01*
X321770Y941954D02*
X321844Y942421D01*
X321990Y942870D01*
X322204Y943290D01*
X322482Y943672D01*
X322816Y944006D01*
X323198Y944284D01*
X323618Y944498D01*
X324068Y944644D01*
X324534Y944718D01*
X325006Y944718D01*
X325473Y944644D01*
X325922Y944498D01*
X326342Y944284D01*
X326724Y944006D01*
X327058Y943672D01*
X327336Y943290D01*
X327550Y942870D01*
X327696Y942421D01*
X327770Y941954D01*
X327770Y941482D01*
X327696Y941016D01*
X327550Y940566D01*
X327336Y940146D01*
X327058Y939764D01*
X326724Y939430D01*
X326342Y939152D01*
X325922Y938938D01*
X325473Y938792D01*
X325006Y938718D01*
X324534Y938718D01*
X324068Y938792D01*
X323618Y938938D01*
X323198Y939152D01*
X322816Y939430D01*
X322482Y939764D01*
X322204Y940146D01*
X321990Y940566D01*
X321844Y941016D01*
X321770Y941482D01*
X321770Y941954D01*
X263970Y941954D02*
X264044Y942421D01*
X264190Y942870D01*
X264404Y943290D01*
X264682Y943672D01*
X265016Y944006D01*
X265398Y944284D01*
X265818Y944498D01*
X266268Y944644D01*
X266734Y944718D01*
X267206Y944718D01*
X267673Y944644D01*
X268122Y944498D01*
X268542Y944284D01*
X268924Y944006D01*
X269258Y943672D01*
X269536Y943290D01*
X269750Y942870D01*
X269896Y942421D01*
X269970Y941954D01*
X269970Y941482D01*
X269896Y941016D01*
X269750Y940566D01*
X269536Y940146D01*
X269258Y939764D01*
X268924Y939430D01*
X268542Y939152D01*
X268122Y938938D01*
X267673Y938792D01*
X267206Y938718D01*
X266734Y938718D01*
X266268Y938792D01*
X265818Y938938D01*
X265398Y939152D01*
X265016Y939430D01*
X264682Y939764D01*
X264404Y940146D01*
X264190Y940566D01*
X264044Y941016D01*
X263970Y941482D01*
X263970Y941954D01*
M02*
