G04 EAGLE Gerber RS-274X export*
G75*
%MOMM*%
%FSLAX34Y34*%
%LPD*%
%INSilkscreen Bottom*%
%IPPOS*%
%AMOC8*
5,1,8,0,0,1.08239X$1,22.5*%
G01*
%ADD10C,0.152400*%
%ADD11C,0.127000*%


D10*
X434660Y561530D02*
X434660Y589470D01*
X414340Y561530D02*
X414342Y561430D01*
X414348Y561331D01*
X414358Y561231D01*
X414371Y561133D01*
X414389Y561034D01*
X414410Y560937D01*
X414435Y560841D01*
X414464Y560745D01*
X414497Y560651D01*
X414533Y560558D01*
X414573Y560467D01*
X414617Y560377D01*
X414664Y560289D01*
X414714Y560203D01*
X414768Y560119D01*
X414825Y560037D01*
X414885Y559958D01*
X414949Y559880D01*
X415015Y559806D01*
X415084Y559734D01*
X415156Y559665D01*
X415230Y559599D01*
X415308Y559535D01*
X415387Y559475D01*
X415469Y559418D01*
X415553Y559364D01*
X415639Y559314D01*
X415727Y559267D01*
X415817Y559223D01*
X415908Y559183D01*
X416001Y559147D01*
X416095Y559114D01*
X416191Y559085D01*
X416287Y559060D01*
X416384Y559039D01*
X416483Y559021D01*
X416581Y559008D01*
X416681Y558998D01*
X416780Y558992D01*
X416880Y558990D01*
X414340Y589470D02*
X414342Y589570D01*
X414348Y589669D01*
X414358Y589769D01*
X414371Y589867D01*
X414389Y589966D01*
X414410Y590063D01*
X414435Y590159D01*
X414464Y590255D01*
X414497Y590349D01*
X414533Y590442D01*
X414573Y590533D01*
X414617Y590623D01*
X414664Y590711D01*
X414714Y590797D01*
X414768Y590881D01*
X414825Y590963D01*
X414885Y591042D01*
X414949Y591120D01*
X415015Y591194D01*
X415084Y591266D01*
X415156Y591335D01*
X415230Y591401D01*
X415308Y591465D01*
X415387Y591525D01*
X415469Y591582D01*
X415553Y591636D01*
X415639Y591686D01*
X415727Y591733D01*
X415817Y591777D01*
X415908Y591817D01*
X416001Y591853D01*
X416095Y591886D01*
X416191Y591915D01*
X416287Y591940D01*
X416384Y591961D01*
X416483Y591979D01*
X416581Y591992D01*
X416681Y592002D01*
X416780Y592008D01*
X416880Y592010D01*
X432120Y592010D02*
X432220Y592008D01*
X432319Y592002D01*
X432419Y591992D01*
X432517Y591979D01*
X432616Y591961D01*
X432713Y591940D01*
X432809Y591915D01*
X432905Y591886D01*
X432999Y591853D01*
X433092Y591817D01*
X433183Y591777D01*
X433273Y591733D01*
X433361Y591686D01*
X433447Y591636D01*
X433531Y591582D01*
X433613Y591525D01*
X433692Y591465D01*
X433770Y591401D01*
X433844Y591335D01*
X433916Y591266D01*
X433985Y591194D01*
X434051Y591120D01*
X434115Y591042D01*
X434175Y590963D01*
X434232Y590881D01*
X434286Y590797D01*
X434336Y590711D01*
X434383Y590623D01*
X434427Y590533D01*
X434467Y590442D01*
X434503Y590349D01*
X434536Y590255D01*
X434565Y590159D01*
X434590Y590063D01*
X434611Y589966D01*
X434629Y589867D01*
X434642Y589769D01*
X434652Y589669D01*
X434658Y589570D01*
X434660Y589470D01*
X434660Y561530D02*
X434658Y561430D01*
X434652Y561331D01*
X434642Y561231D01*
X434629Y561133D01*
X434611Y561034D01*
X434590Y560937D01*
X434565Y560841D01*
X434536Y560745D01*
X434503Y560651D01*
X434467Y560558D01*
X434427Y560467D01*
X434383Y560377D01*
X434336Y560289D01*
X434286Y560203D01*
X434232Y560119D01*
X434175Y560037D01*
X434115Y559958D01*
X434051Y559880D01*
X433985Y559806D01*
X433916Y559734D01*
X433844Y559665D01*
X433770Y559599D01*
X433692Y559535D01*
X433613Y559475D01*
X433531Y559418D01*
X433447Y559364D01*
X433361Y559314D01*
X433273Y559267D01*
X433183Y559223D01*
X433092Y559183D01*
X432999Y559147D01*
X432905Y559114D01*
X432809Y559085D01*
X432713Y559060D01*
X432616Y559039D01*
X432517Y559021D01*
X432419Y559008D01*
X432319Y558998D01*
X432220Y558992D01*
X432120Y558990D01*
X416880Y558990D01*
X416880Y592010D02*
X432120Y592010D01*
X414340Y589470D02*
X414340Y561530D01*
D11*
X399005Y559370D02*
X399005Y556830D01*
X399007Y556730D01*
X399013Y556631D01*
X399023Y556531D01*
X399036Y556433D01*
X399054Y556334D01*
X399075Y556237D01*
X399100Y556141D01*
X399129Y556045D01*
X399162Y555951D01*
X399198Y555858D01*
X399238Y555767D01*
X399282Y555677D01*
X399329Y555589D01*
X399379Y555503D01*
X399433Y555419D01*
X399490Y555337D01*
X399550Y555258D01*
X399614Y555180D01*
X399680Y555106D01*
X399749Y555034D01*
X399821Y554965D01*
X399895Y554899D01*
X399973Y554835D01*
X400052Y554775D01*
X400134Y554718D01*
X400218Y554664D01*
X400304Y554614D01*
X400392Y554567D01*
X400482Y554523D01*
X400573Y554483D01*
X400666Y554447D01*
X400760Y554414D01*
X400856Y554385D01*
X400952Y554360D01*
X401049Y554339D01*
X401148Y554321D01*
X401246Y554308D01*
X401346Y554298D01*
X401445Y554292D01*
X401545Y554290D01*
X407895Y554290D01*
X407995Y554292D01*
X408094Y554298D01*
X408194Y554308D01*
X408292Y554321D01*
X408391Y554339D01*
X408488Y554360D01*
X408584Y554385D01*
X408680Y554414D01*
X408774Y554447D01*
X408867Y554483D01*
X408958Y554523D01*
X409048Y554567D01*
X409136Y554614D01*
X409222Y554664D01*
X409306Y554718D01*
X409388Y554775D01*
X409467Y554835D01*
X409545Y554899D01*
X409619Y554965D01*
X409691Y555034D01*
X409760Y555106D01*
X409826Y555180D01*
X409890Y555258D01*
X409950Y555337D01*
X410007Y555419D01*
X410061Y555503D01*
X410111Y555589D01*
X410158Y555677D01*
X410202Y555767D01*
X410242Y555858D01*
X410278Y555951D01*
X410311Y556045D01*
X410340Y556141D01*
X410365Y556237D01*
X410386Y556334D01*
X410404Y556433D01*
X410417Y556531D01*
X410427Y556631D01*
X410433Y556730D01*
X410435Y556830D01*
X410435Y559370D01*
X401545Y569821D02*
X401445Y569819D01*
X401346Y569813D01*
X401246Y569803D01*
X401148Y569790D01*
X401049Y569772D01*
X400952Y569751D01*
X400856Y569726D01*
X400760Y569697D01*
X400666Y569664D01*
X400573Y569628D01*
X400482Y569588D01*
X400392Y569544D01*
X400304Y569497D01*
X400218Y569447D01*
X400134Y569393D01*
X400052Y569336D01*
X399973Y569276D01*
X399895Y569212D01*
X399821Y569146D01*
X399749Y569077D01*
X399680Y569005D01*
X399614Y568931D01*
X399550Y568853D01*
X399490Y568774D01*
X399433Y568692D01*
X399379Y568608D01*
X399329Y568522D01*
X399282Y568434D01*
X399238Y568344D01*
X399198Y568253D01*
X399162Y568160D01*
X399129Y568066D01*
X399100Y567970D01*
X399075Y567874D01*
X399054Y567777D01*
X399036Y567678D01*
X399023Y567580D01*
X399013Y567480D01*
X399007Y567381D01*
X399005Y567281D01*
X399007Y567140D01*
X399012Y566999D01*
X399022Y566858D01*
X399035Y566717D01*
X399051Y566577D01*
X399072Y566437D01*
X399096Y566298D01*
X399124Y566159D01*
X399155Y566022D01*
X399190Y565885D01*
X399228Y565749D01*
X399270Y565614D01*
X399316Y565481D01*
X399365Y565348D01*
X399418Y565217D01*
X399474Y565088D01*
X399533Y564959D01*
X399596Y564833D01*
X399662Y564708D01*
X399731Y564585D01*
X399804Y564464D01*
X399880Y564345D01*
X399959Y564227D01*
X400040Y564112D01*
X400125Y564000D01*
X400213Y563889D01*
X400304Y563781D01*
X400397Y563675D01*
X400494Y563572D01*
X400593Y563471D01*
X407895Y563789D02*
X407995Y563791D01*
X408094Y563797D01*
X408194Y563807D01*
X408292Y563820D01*
X408391Y563838D01*
X408488Y563859D01*
X408584Y563884D01*
X408680Y563913D01*
X408774Y563946D01*
X408867Y563982D01*
X408958Y564022D01*
X409048Y564066D01*
X409136Y564113D01*
X409222Y564163D01*
X409306Y564217D01*
X409388Y564274D01*
X409467Y564334D01*
X409545Y564398D01*
X409619Y564464D01*
X409691Y564533D01*
X409760Y564605D01*
X409826Y564679D01*
X409890Y564757D01*
X409950Y564836D01*
X410007Y564918D01*
X410061Y565002D01*
X410111Y565088D01*
X410158Y565176D01*
X410202Y565266D01*
X410242Y565357D01*
X410278Y565450D01*
X410311Y565544D01*
X410340Y565640D01*
X410365Y565736D01*
X410386Y565833D01*
X410404Y565932D01*
X410417Y566030D01*
X410427Y566130D01*
X410433Y566229D01*
X410435Y566329D01*
X410436Y566329D02*
X410434Y566462D01*
X410429Y566595D01*
X410419Y566728D01*
X410406Y566861D01*
X410389Y566993D01*
X410369Y567125D01*
X410345Y567256D01*
X410317Y567386D01*
X410286Y567516D01*
X410251Y567644D01*
X410212Y567772D01*
X410170Y567898D01*
X410124Y568023D01*
X410075Y568147D01*
X410023Y568270D01*
X409967Y568391D01*
X409907Y568510D01*
X409845Y568628D01*
X409779Y568743D01*
X409710Y568857D01*
X409637Y568969D01*
X409562Y569079D01*
X409483Y569187D01*
X405672Y565059D02*
X405724Y564975D01*
X405779Y564892D01*
X405838Y564812D01*
X405899Y564734D01*
X405963Y564659D01*
X406031Y564586D01*
X406101Y564515D01*
X406173Y564448D01*
X406248Y564383D01*
X406326Y564321D01*
X406406Y564262D01*
X406488Y564206D01*
X406572Y564154D01*
X406658Y564105D01*
X406746Y564059D01*
X406836Y564016D01*
X406927Y563977D01*
X407020Y563942D01*
X407114Y563910D01*
X407209Y563882D01*
X407305Y563857D01*
X407402Y563837D01*
X407500Y563819D01*
X407598Y563806D01*
X407697Y563797D01*
X407796Y563791D01*
X407895Y563789D01*
X403768Y568552D02*
X403716Y568636D01*
X403661Y568719D01*
X403602Y568799D01*
X403541Y568877D01*
X403477Y568952D01*
X403409Y569025D01*
X403339Y569096D01*
X403267Y569163D01*
X403192Y569228D01*
X403114Y569290D01*
X403034Y569349D01*
X402952Y569405D01*
X402868Y569457D01*
X402782Y569506D01*
X402694Y569552D01*
X402604Y569595D01*
X402513Y569634D01*
X402420Y569669D01*
X402326Y569701D01*
X402231Y569729D01*
X402135Y569754D01*
X402038Y569774D01*
X401940Y569792D01*
X401842Y569805D01*
X401743Y569814D01*
X401644Y569820D01*
X401545Y569822D01*
X403768Y568551D02*
X405673Y565059D01*
X410435Y574927D02*
X399005Y574927D01*
X399005Y580007D01*
X399005Y586839D02*
X410435Y586839D01*
X410435Y583664D02*
X410435Y590014D01*
X399005Y596835D02*
X399005Y599375D01*
X399005Y596835D02*
X399007Y596735D01*
X399013Y596636D01*
X399023Y596536D01*
X399036Y596438D01*
X399054Y596339D01*
X399075Y596242D01*
X399100Y596146D01*
X399129Y596050D01*
X399162Y595956D01*
X399198Y595863D01*
X399238Y595772D01*
X399282Y595682D01*
X399329Y595594D01*
X399379Y595508D01*
X399433Y595424D01*
X399490Y595342D01*
X399550Y595263D01*
X399614Y595185D01*
X399680Y595111D01*
X399749Y595039D01*
X399821Y594970D01*
X399895Y594904D01*
X399973Y594840D01*
X400052Y594780D01*
X400134Y594723D01*
X400218Y594669D01*
X400304Y594619D01*
X400392Y594572D01*
X400482Y594528D01*
X400573Y594488D01*
X400666Y594452D01*
X400760Y594419D01*
X400856Y594390D01*
X400952Y594365D01*
X401049Y594344D01*
X401148Y594326D01*
X401246Y594313D01*
X401346Y594303D01*
X401445Y594297D01*
X401545Y594295D01*
X407895Y594295D01*
X407995Y594297D01*
X408094Y594303D01*
X408194Y594313D01*
X408292Y594326D01*
X408391Y594344D01*
X408488Y594365D01*
X408584Y594390D01*
X408680Y594419D01*
X408774Y594452D01*
X408867Y594488D01*
X408958Y594528D01*
X409048Y594572D01*
X409136Y594619D01*
X409222Y594669D01*
X409306Y594723D01*
X409388Y594780D01*
X409467Y594840D01*
X409545Y594904D01*
X409619Y594970D01*
X409691Y595039D01*
X409760Y595111D01*
X409826Y595185D01*
X409890Y595263D01*
X409950Y595342D01*
X410007Y595424D01*
X410061Y595508D01*
X410111Y595594D01*
X410158Y595682D01*
X410202Y595772D01*
X410242Y595863D01*
X410278Y595956D01*
X410311Y596050D01*
X410340Y596146D01*
X410365Y596242D01*
X410386Y596339D01*
X410404Y596438D01*
X410417Y596536D01*
X410427Y596636D01*
X410433Y596735D01*
X410435Y596835D01*
X410435Y599375D01*
D10*
X414340Y634530D02*
X414340Y662470D01*
X432120Y665010D02*
X432220Y665008D01*
X432319Y665002D01*
X432419Y664992D01*
X432517Y664979D01*
X432616Y664961D01*
X432713Y664940D01*
X432809Y664915D01*
X432905Y664886D01*
X432999Y664853D01*
X433092Y664817D01*
X433183Y664777D01*
X433273Y664733D01*
X433361Y664686D01*
X433447Y664636D01*
X433531Y664582D01*
X433613Y664525D01*
X433692Y664465D01*
X433770Y664401D01*
X433844Y664335D01*
X433916Y664266D01*
X433985Y664194D01*
X434051Y664120D01*
X434115Y664042D01*
X434175Y663963D01*
X434232Y663881D01*
X434286Y663797D01*
X434336Y663711D01*
X434383Y663623D01*
X434427Y663533D01*
X434467Y663442D01*
X434503Y663349D01*
X434536Y663255D01*
X434565Y663159D01*
X434590Y663063D01*
X434611Y662966D01*
X434629Y662867D01*
X434642Y662769D01*
X434652Y662669D01*
X434658Y662570D01*
X434660Y662470D01*
X434660Y634530D02*
X434658Y634430D01*
X434652Y634331D01*
X434642Y634231D01*
X434629Y634133D01*
X434611Y634034D01*
X434590Y633937D01*
X434565Y633841D01*
X434536Y633745D01*
X434503Y633651D01*
X434467Y633558D01*
X434427Y633467D01*
X434383Y633377D01*
X434336Y633289D01*
X434286Y633203D01*
X434232Y633119D01*
X434175Y633037D01*
X434115Y632958D01*
X434051Y632880D01*
X433985Y632806D01*
X433916Y632734D01*
X433844Y632665D01*
X433770Y632599D01*
X433692Y632535D01*
X433613Y632475D01*
X433531Y632418D01*
X433447Y632364D01*
X433361Y632314D01*
X433273Y632267D01*
X433183Y632223D01*
X433092Y632183D01*
X432999Y632147D01*
X432905Y632114D01*
X432809Y632085D01*
X432713Y632060D01*
X432616Y632039D01*
X432517Y632021D01*
X432419Y632008D01*
X432319Y631998D01*
X432220Y631992D01*
X432120Y631990D01*
X416880Y631990D02*
X416780Y631992D01*
X416681Y631998D01*
X416581Y632008D01*
X416483Y632021D01*
X416384Y632039D01*
X416287Y632060D01*
X416191Y632085D01*
X416095Y632114D01*
X416001Y632147D01*
X415908Y632183D01*
X415817Y632223D01*
X415727Y632267D01*
X415639Y632314D01*
X415553Y632364D01*
X415469Y632418D01*
X415387Y632475D01*
X415308Y632535D01*
X415230Y632599D01*
X415156Y632665D01*
X415084Y632734D01*
X415015Y632806D01*
X414949Y632880D01*
X414885Y632958D01*
X414825Y633037D01*
X414768Y633119D01*
X414714Y633203D01*
X414664Y633289D01*
X414617Y633377D01*
X414573Y633467D01*
X414533Y633558D01*
X414497Y633651D01*
X414464Y633745D01*
X414435Y633841D01*
X414410Y633937D01*
X414389Y634034D01*
X414371Y634133D01*
X414358Y634231D01*
X414348Y634331D01*
X414342Y634430D01*
X414340Y634530D01*
X414340Y662470D02*
X414342Y662570D01*
X414348Y662669D01*
X414358Y662769D01*
X414371Y662867D01*
X414389Y662966D01*
X414410Y663063D01*
X414435Y663159D01*
X414464Y663255D01*
X414497Y663349D01*
X414533Y663442D01*
X414573Y663533D01*
X414617Y663623D01*
X414664Y663711D01*
X414714Y663797D01*
X414768Y663881D01*
X414825Y663963D01*
X414885Y664042D01*
X414949Y664120D01*
X415015Y664194D01*
X415084Y664266D01*
X415156Y664335D01*
X415230Y664401D01*
X415308Y664465D01*
X415387Y664525D01*
X415469Y664582D01*
X415553Y664636D01*
X415639Y664686D01*
X415727Y664733D01*
X415817Y664777D01*
X415908Y664817D01*
X416001Y664853D01*
X416095Y664886D01*
X416191Y664915D01*
X416287Y664940D01*
X416384Y664961D01*
X416483Y664979D01*
X416581Y664992D01*
X416681Y665002D01*
X416780Y665008D01*
X416880Y665010D01*
X432120Y665010D01*
X432120Y631990D02*
X416880Y631990D01*
X434660Y634530D02*
X434660Y662470D01*
D11*
X411495Y629125D02*
X400065Y629125D01*
X405145Y632935D02*
X411495Y629125D01*
X405145Y632935D02*
X411495Y636745D01*
X400065Y636745D01*
X400065Y643222D02*
X411495Y643222D01*
X400065Y641952D02*
X400065Y644492D01*
X411495Y644492D02*
X411495Y641952D01*
X400065Y652620D02*
X400067Y652720D01*
X400073Y652819D01*
X400083Y652919D01*
X400096Y653017D01*
X400114Y653116D01*
X400135Y653213D01*
X400160Y653309D01*
X400189Y653405D01*
X400222Y653499D01*
X400258Y653592D01*
X400298Y653683D01*
X400342Y653773D01*
X400389Y653861D01*
X400439Y653947D01*
X400493Y654031D01*
X400550Y654113D01*
X400610Y654192D01*
X400674Y654270D01*
X400740Y654344D01*
X400809Y654416D01*
X400881Y654485D01*
X400955Y654551D01*
X401033Y654615D01*
X401112Y654675D01*
X401194Y654732D01*
X401278Y654786D01*
X401364Y654836D01*
X401452Y654883D01*
X401542Y654927D01*
X401633Y654967D01*
X401726Y655003D01*
X401820Y655036D01*
X401916Y655065D01*
X402012Y655090D01*
X402109Y655111D01*
X402208Y655129D01*
X402306Y655142D01*
X402406Y655152D01*
X402505Y655158D01*
X402605Y655160D01*
X400065Y652620D02*
X400067Y652479D01*
X400072Y652338D01*
X400082Y652197D01*
X400095Y652056D01*
X400111Y651916D01*
X400132Y651776D01*
X400156Y651637D01*
X400184Y651498D01*
X400215Y651361D01*
X400250Y651224D01*
X400288Y651088D01*
X400330Y650953D01*
X400376Y650820D01*
X400425Y650687D01*
X400478Y650556D01*
X400534Y650427D01*
X400593Y650298D01*
X400656Y650172D01*
X400722Y650047D01*
X400791Y649924D01*
X400864Y649803D01*
X400940Y649684D01*
X401019Y649566D01*
X401100Y649451D01*
X401185Y649339D01*
X401273Y649228D01*
X401364Y649120D01*
X401457Y649014D01*
X401554Y648911D01*
X401653Y648810D01*
X408955Y649128D02*
X409055Y649130D01*
X409154Y649136D01*
X409254Y649146D01*
X409352Y649159D01*
X409451Y649177D01*
X409548Y649198D01*
X409644Y649223D01*
X409740Y649252D01*
X409834Y649285D01*
X409927Y649321D01*
X410018Y649361D01*
X410108Y649405D01*
X410196Y649452D01*
X410282Y649502D01*
X410366Y649556D01*
X410448Y649613D01*
X410527Y649673D01*
X410605Y649737D01*
X410679Y649803D01*
X410751Y649872D01*
X410820Y649944D01*
X410886Y650018D01*
X410950Y650096D01*
X411010Y650175D01*
X411067Y650257D01*
X411121Y650341D01*
X411171Y650427D01*
X411218Y650515D01*
X411262Y650605D01*
X411302Y650696D01*
X411338Y650789D01*
X411371Y650883D01*
X411400Y650979D01*
X411425Y651075D01*
X411446Y651172D01*
X411464Y651271D01*
X411477Y651369D01*
X411487Y651469D01*
X411493Y651568D01*
X411495Y651668D01*
X411496Y651668D02*
X411494Y651801D01*
X411489Y651934D01*
X411479Y652067D01*
X411466Y652200D01*
X411449Y652332D01*
X411429Y652464D01*
X411405Y652595D01*
X411377Y652725D01*
X411346Y652855D01*
X411311Y652983D01*
X411272Y653111D01*
X411230Y653237D01*
X411184Y653362D01*
X411135Y653486D01*
X411083Y653609D01*
X411027Y653730D01*
X410967Y653849D01*
X410905Y653967D01*
X410839Y654082D01*
X410770Y654196D01*
X410697Y654308D01*
X410622Y654418D01*
X410543Y654526D01*
X406732Y650397D02*
X406784Y650313D01*
X406839Y650230D01*
X406898Y650150D01*
X406959Y650072D01*
X407023Y649997D01*
X407091Y649924D01*
X407161Y649853D01*
X407233Y649786D01*
X407308Y649721D01*
X407386Y649659D01*
X407466Y649600D01*
X407548Y649544D01*
X407632Y649492D01*
X407718Y649443D01*
X407806Y649397D01*
X407896Y649354D01*
X407987Y649315D01*
X408080Y649280D01*
X408174Y649248D01*
X408269Y649220D01*
X408365Y649195D01*
X408462Y649175D01*
X408560Y649157D01*
X408658Y649144D01*
X408757Y649135D01*
X408856Y649129D01*
X408955Y649127D01*
X404828Y653890D02*
X404776Y653974D01*
X404721Y654057D01*
X404662Y654137D01*
X404601Y654215D01*
X404537Y654290D01*
X404469Y654363D01*
X404399Y654434D01*
X404327Y654501D01*
X404252Y654566D01*
X404174Y654628D01*
X404094Y654687D01*
X404012Y654743D01*
X403928Y654795D01*
X403842Y654844D01*
X403754Y654890D01*
X403664Y654933D01*
X403573Y654972D01*
X403480Y655007D01*
X403386Y655039D01*
X403291Y655067D01*
X403195Y655092D01*
X403098Y655112D01*
X403000Y655130D01*
X402902Y655143D01*
X402803Y655152D01*
X402704Y655158D01*
X402605Y655160D01*
X404828Y653890D02*
X406733Y650398D01*
X408320Y659859D02*
X403240Y659859D01*
X408320Y659859D02*
X408431Y659861D01*
X408541Y659867D01*
X408652Y659876D01*
X408762Y659890D01*
X408871Y659907D01*
X408980Y659928D01*
X409088Y659953D01*
X409195Y659982D01*
X409301Y660014D01*
X409406Y660050D01*
X409509Y660090D01*
X409611Y660133D01*
X409712Y660180D01*
X409811Y660231D01*
X409908Y660284D01*
X410002Y660341D01*
X410095Y660402D01*
X410186Y660465D01*
X410275Y660532D01*
X410361Y660602D01*
X410444Y660675D01*
X410526Y660750D01*
X410604Y660828D01*
X410679Y660910D01*
X410752Y660993D01*
X410822Y661079D01*
X410889Y661168D01*
X410952Y661259D01*
X411013Y661352D01*
X411070Y661447D01*
X411123Y661543D01*
X411174Y661642D01*
X411221Y661743D01*
X411264Y661845D01*
X411304Y661948D01*
X411340Y662053D01*
X411372Y662159D01*
X411401Y662266D01*
X411426Y662374D01*
X411447Y662483D01*
X411464Y662592D01*
X411478Y662702D01*
X411487Y662813D01*
X411493Y662923D01*
X411495Y663034D01*
X411493Y663145D01*
X411487Y663255D01*
X411478Y663366D01*
X411464Y663476D01*
X411447Y663585D01*
X411426Y663694D01*
X411401Y663802D01*
X411372Y663909D01*
X411340Y664015D01*
X411304Y664120D01*
X411264Y664223D01*
X411221Y664325D01*
X411174Y664426D01*
X411123Y664525D01*
X411070Y664621D01*
X411013Y664716D01*
X410952Y664809D01*
X410889Y664900D01*
X410822Y664989D01*
X410752Y665075D01*
X410679Y665158D01*
X410604Y665240D01*
X410526Y665318D01*
X410444Y665393D01*
X410361Y665466D01*
X410275Y665536D01*
X410186Y665603D01*
X410095Y665666D01*
X410002Y665727D01*
X409908Y665784D01*
X409811Y665837D01*
X409712Y665888D01*
X409611Y665935D01*
X409509Y665978D01*
X409406Y666018D01*
X409301Y666054D01*
X409195Y666086D01*
X409088Y666115D01*
X408980Y666140D01*
X408871Y666161D01*
X408762Y666178D01*
X408652Y666192D01*
X408541Y666201D01*
X408431Y666207D01*
X408320Y666209D01*
X403240Y666209D01*
X403129Y666207D01*
X403019Y666201D01*
X402908Y666192D01*
X402798Y666178D01*
X402689Y666161D01*
X402580Y666140D01*
X402472Y666115D01*
X402365Y666086D01*
X402259Y666054D01*
X402154Y666018D01*
X402051Y665978D01*
X401949Y665935D01*
X401848Y665888D01*
X401749Y665837D01*
X401653Y665784D01*
X401558Y665727D01*
X401465Y665666D01*
X401374Y665603D01*
X401285Y665536D01*
X401199Y665466D01*
X401116Y665393D01*
X401034Y665318D01*
X400956Y665240D01*
X400881Y665158D01*
X400808Y665075D01*
X400738Y664989D01*
X400671Y664900D01*
X400608Y664809D01*
X400547Y664716D01*
X400490Y664622D01*
X400437Y664525D01*
X400386Y664426D01*
X400339Y664325D01*
X400296Y664223D01*
X400256Y664120D01*
X400220Y664015D01*
X400188Y663909D01*
X400159Y663802D01*
X400134Y663694D01*
X400113Y663585D01*
X400096Y663476D01*
X400082Y663366D01*
X400073Y663255D01*
X400067Y663145D01*
X400065Y663034D01*
X400067Y662923D01*
X400073Y662813D01*
X400082Y662702D01*
X400096Y662592D01*
X400113Y662483D01*
X400134Y662374D01*
X400159Y662266D01*
X400188Y662159D01*
X400220Y662053D01*
X400256Y661948D01*
X400296Y661845D01*
X400339Y661743D01*
X400386Y661642D01*
X400437Y661543D01*
X400490Y661447D01*
X400547Y661352D01*
X400608Y661259D01*
X400671Y661168D01*
X400738Y661079D01*
X400808Y660993D01*
X400881Y660910D01*
X400956Y660828D01*
X401034Y660750D01*
X401116Y660675D01*
X401199Y660602D01*
X401285Y660532D01*
X401374Y660465D01*
X401465Y660402D01*
X401558Y660341D01*
X401653Y660284D01*
X401749Y660231D01*
X401848Y660180D01*
X401949Y660133D01*
X402051Y660090D01*
X402154Y660050D01*
X402259Y660014D01*
X402365Y659982D01*
X402472Y659953D01*
X402580Y659928D01*
X402689Y659907D01*
X402798Y659890D01*
X402908Y659876D01*
X403019Y659867D01*
X403129Y659861D01*
X403240Y659859D01*
M02*
