G04 EAGLE Gerber RS-274X export*
G75*
%MOMM*%
%FSLAX34Y34*%
%LPD*%
%INSoldermask Top*%
%IPPOS*%
%AMOC8*
5,1,8,0,0,1.08239X$1,22.5*%
G01*
%ADD10R,0.903200X0.803200*%
%ADD11R,0.903200X1.103200*%
%ADD12R,0.803200X0.903200*%
%ADD13R,1.503200X1.703200*%
%ADD14C,3.403200*%
%ADD15R,1.203200X1.303200*%
%ADD16R,2.003200X0.503200*%
%ADD17R,2.006200X1.803200*%
%ADD18R,2.003200X1.903200*%
%ADD19C,2.032000*%
%ADD20R,3.703200X1.803200*%
%ADD21R,1.728200X0.853200*%
%ADD22R,2.483200X2.483200*%
%ADD23R,7.703200X3.203200*%
%ADD24R,1.703200X1.503200*%
%ADD25R,1.803200X3.703200*%
%ADD26R,1.103200X0.903200*%
%ADD27R,0.400000X1.240000*%
%ADD28R,0.700000X1.240000*%
%ADD29C,0.803200*%
%ADD30R,1.803200X2.006200*%
%ADD31R,1.103200X1.003200*%
%ADD32R,2.003200X1.603200*%
%ADD33C,2.032000*%
%ADD34R,1.303200X1.203200*%
%ADD35R,0.853200X0.653200*%
%ADD36R,1.903200X2.003200*%
%ADD37R,2.209800X1.701800*%
%ADD38R,2.209800X4.013200*%
%ADD39R,0.903200X0.903200*%
%ADD40R,1.003200X0.603200*%
%ADD41R,0.603200X1.003200*%
%ADD42R,1.653200X1.653200*%
%ADD43C,2.743200*%
%ADD44R,2.053200X0.853200*%
%ADD45C,2.363200*%
%ADD46R,1.371600X1.803400*%
%ADD47R,0.152400X1.828800*%
%ADD48R,2.003200X1.803200*%
%ADD49R,1.203200X2.003200*%

G36*
X94547Y897987D02*
X94547Y897987D01*
X94542Y897994D01*
X94549Y898000D01*
X94549Y914500D01*
X94513Y914547D01*
X94506Y914542D01*
X94500Y914549D01*
X84500Y914549D01*
X84479Y914533D01*
X84465Y914535D01*
X77965Y908035D01*
X77963Y908019D01*
X77953Y908011D01*
X77957Y908005D01*
X77951Y908000D01*
X77951Y898000D01*
X77987Y897953D01*
X77994Y897958D01*
X78000Y897951D01*
X94500Y897951D01*
X94547Y897987D01*
G37*
G36*
X253728Y926382D02*
X253728Y926382D01*
X253734Y926388D01*
X253739Y926384D01*
X254788Y926740D01*
X254793Y926747D01*
X254798Y926745D01*
X255743Y927325D01*
X255746Y927332D01*
X255752Y927332D01*
X256543Y928107D01*
X256545Y928116D01*
X256550Y928116D01*
X257150Y929049D01*
X257149Y929057D01*
X257154Y929058D01*
X257531Y930101D01*
X257529Y930109D01*
X257534Y930112D01*
X257669Y931212D01*
X257667Y931216D01*
X257669Y931218D01*
X257669Y942218D01*
X257667Y942221D01*
X257669Y942223D01*
X257554Y943348D01*
X257548Y943354D01*
X257551Y943359D01*
X257188Y944430D01*
X257181Y944434D01*
X257184Y944440D01*
X256591Y945403D01*
X256584Y945406D01*
X256585Y945412D01*
X255793Y946220D01*
X255785Y946221D01*
X255784Y946227D01*
X254833Y946838D01*
X254825Y946837D01*
X254823Y946843D01*
X253759Y947227D01*
X253751Y947224D01*
X253748Y947229D01*
X252626Y947367D01*
X252619Y947363D01*
X252615Y947367D01*
X251502Y947242D01*
X251496Y947236D01*
X251491Y947239D01*
X250434Y946869D01*
X250430Y946863D01*
X250424Y946865D01*
X249476Y946269D01*
X249473Y946261D01*
X249468Y946262D01*
X248676Y945470D01*
X248675Y945462D01*
X248669Y945462D01*
X248073Y944514D01*
X248074Y944507D01*
X248070Y944505D01*
X248070Y944504D01*
X248069Y944504D01*
X247699Y943447D01*
X247701Y943439D01*
X247696Y943436D01*
X247571Y942324D01*
X247573Y942320D01*
X247571Y942318D01*
X247571Y931318D01*
X247573Y931315D01*
X247571Y931313D01*
X247696Y930200D01*
X247702Y930194D01*
X247699Y930189D01*
X248069Y929132D01*
X248076Y929128D01*
X248073Y929122D01*
X248669Y928174D01*
X248677Y928171D01*
X248676Y928166D01*
X249468Y927374D01*
X249476Y927373D01*
X249476Y927367D01*
X250424Y926771D01*
X250433Y926772D01*
X250434Y926767D01*
X251491Y926397D01*
X251499Y926399D01*
X251502Y926394D01*
X252615Y926269D01*
X252621Y926273D01*
X252625Y926269D01*
X253728Y926382D01*
G37*
G36*
X340238Y926394D02*
X340238Y926394D01*
X340244Y926400D01*
X340249Y926397D01*
X341306Y926767D01*
X341310Y926774D01*
X341316Y926771D01*
X342264Y927367D01*
X342267Y927375D01*
X342272Y927374D01*
X343064Y928166D01*
X343065Y928174D01*
X343071Y928174D01*
X343667Y929122D01*
X343666Y929131D01*
X343671Y929132D01*
X344041Y930189D01*
X344040Y930193D01*
X344042Y930195D01*
X344040Y930198D01*
X344044Y930200D01*
X344169Y931313D01*
X344167Y931316D01*
X344169Y931318D01*
X344169Y942318D01*
X344167Y942321D01*
X344169Y942324D01*
X344044Y943436D01*
X344038Y943442D01*
X344041Y943447D01*
X343671Y944504D01*
X343665Y944508D01*
X343667Y944514D01*
X343071Y945462D01*
X343063Y945465D01*
X343064Y945470D01*
X342272Y946262D01*
X342264Y946263D01*
X342264Y946269D01*
X341316Y946865D01*
X341307Y946864D01*
X341306Y946869D01*
X340249Y947239D01*
X340241Y947237D01*
X340238Y947242D01*
X339126Y947367D01*
X339118Y947363D01*
X339115Y947367D01*
X338002Y947242D01*
X337996Y947236D01*
X337991Y947239D01*
X336934Y946869D01*
X336930Y946863D01*
X336924Y946865D01*
X335976Y946269D01*
X335973Y946261D01*
X335968Y946262D01*
X335176Y945470D01*
X335175Y945462D01*
X335169Y945462D01*
X334573Y944514D01*
X334574Y944507D01*
X334570Y944505D01*
X334570Y944504D01*
X334569Y944504D01*
X334199Y943447D01*
X334201Y943439D01*
X334196Y943436D01*
X334071Y942324D01*
X334073Y942320D01*
X334071Y942318D01*
X334071Y931318D01*
X334073Y931315D01*
X334071Y931313D01*
X334196Y930200D01*
X334202Y930194D01*
X334199Y930189D01*
X334569Y929132D01*
X334576Y929128D01*
X334573Y929122D01*
X335169Y928174D01*
X335177Y928171D01*
X335176Y928166D01*
X335968Y927374D01*
X335976Y927373D01*
X335976Y927367D01*
X336924Y926771D01*
X336933Y926772D01*
X336934Y926767D01*
X337991Y926397D01*
X337999Y926399D01*
X338002Y926394D01*
X339115Y926269D01*
X339122Y926273D01*
X339126Y926269D01*
X340238Y926394D01*
G37*
G36*
X253738Y969594D02*
X253738Y969594D01*
X253744Y969600D01*
X253749Y969597D01*
X254806Y969967D01*
X254810Y969974D01*
X254816Y969971D01*
X255764Y970567D01*
X255767Y970575D01*
X255772Y970574D01*
X256564Y971366D01*
X256565Y971374D01*
X256571Y971374D01*
X257167Y972322D01*
X257166Y972331D01*
X257171Y972332D01*
X257541Y973389D01*
X257540Y973393D01*
X257542Y973395D01*
X257540Y973398D01*
X257544Y973400D01*
X257669Y974513D01*
X257667Y974516D01*
X257669Y974518D01*
X257669Y982518D01*
X257667Y982521D01*
X257669Y982524D01*
X257544Y983636D01*
X257538Y983642D01*
X257541Y983647D01*
X257171Y984704D01*
X257165Y984708D01*
X257167Y984714D01*
X256571Y985662D01*
X256563Y985665D01*
X256564Y985670D01*
X255772Y986462D01*
X255764Y986463D01*
X255764Y986469D01*
X254816Y987065D01*
X254807Y987064D01*
X254806Y987069D01*
X253749Y987439D01*
X253741Y987437D01*
X253738Y987442D01*
X252626Y987567D01*
X252618Y987563D01*
X252615Y987567D01*
X251502Y987442D01*
X251496Y987436D01*
X251491Y987439D01*
X250434Y987069D01*
X250430Y987063D01*
X250424Y987065D01*
X249476Y986469D01*
X249473Y986461D01*
X249468Y986462D01*
X248676Y985670D01*
X248675Y985662D01*
X248669Y985662D01*
X248073Y984714D01*
X248074Y984705D01*
X248069Y984704D01*
X247699Y983647D01*
X247701Y983639D01*
X247696Y983636D01*
X247571Y982524D01*
X247573Y982520D01*
X247571Y982518D01*
X247571Y974518D01*
X247573Y974515D01*
X247571Y974513D01*
X247696Y973400D01*
X247702Y973394D01*
X247699Y973389D01*
X248069Y972332D01*
X248076Y972328D01*
X248073Y972322D01*
X248669Y971374D01*
X248677Y971371D01*
X248676Y971366D01*
X249468Y970574D01*
X249476Y970573D01*
X249476Y970567D01*
X250424Y969971D01*
X250433Y969972D01*
X250434Y969967D01*
X251491Y969597D01*
X251499Y969599D01*
X251502Y969594D01*
X252615Y969469D01*
X252622Y969473D01*
X252626Y969469D01*
X253738Y969594D01*
G37*
G36*
X340238Y969594D02*
X340238Y969594D01*
X340244Y969600D01*
X340249Y969597D01*
X341306Y969967D01*
X341310Y969974D01*
X341316Y969971D01*
X342264Y970567D01*
X342267Y970575D01*
X342272Y970574D01*
X343064Y971366D01*
X343065Y971374D01*
X343071Y971374D01*
X343667Y972322D01*
X343666Y972331D01*
X343671Y972332D01*
X344041Y973389D01*
X344040Y973393D01*
X344042Y973395D01*
X344040Y973398D01*
X344044Y973400D01*
X344169Y974513D01*
X344167Y974516D01*
X344169Y974518D01*
X344169Y982518D01*
X344167Y982521D01*
X344169Y982524D01*
X344044Y983636D01*
X344038Y983642D01*
X344041Y983647D01*
X343671Y984704D01*
X343665Y984708D01*
X343667Y984714D01*
X343071Y985662D01*
X343063Y985665D01*
X343064Y985670D01*
X342272Y986462D01*
X342264Y986463D01*
X342264Y986469D01*
X341316Y987065D01*
X341307Y987064D01*
X341306Y987069D01*
X340249Y987439D01*
X340241Y987437D01*
X340238Y987442D01*
X339126Y987567D01*
X339118Y987563D01*
X339115Y987567D01*
X338002Y987442D01*
X337996Y987436D01*
X337991Y987439D01*
X336934Y987069D01*
X336930Y987063D01*
X336924Y987065D01*
X335976Y986469D01*
X335973Y986461D01*
X335968Y986462D01*
X335176Y985670D01*
X335175Y985662D01*
X335169Y985662D01*
X334573Y984714D01*
X334574Y984705D01*
X334569Y984704D01*
X334199Y983647D01*
X334201Y983639D01*
X334196Y983636D01*
X334071Y982524D01*
X334073Y982520D01*
X334071Y982518D01*
X334071Y974518D01*
X334073Y974515D01*
X334071Y974513D01*
X334196Y973400D01*
X334202Y973394D01*
X334199Y973389D01*
X334569Y972332D01*
X334576Y972328D01*
X334573Y972322D01*
X335169Y971374D01*
X335177Y971371D01*
X335176Y971366D01*
X335968Y970574D01*
X335976Y970573D01*
X335976Y970567D01*
X336924Y969971D01*
X336933Y969972D01*
X336934Y969967D01*
X337991Y969597D01*
X337999Y969599D01*
X338002Y969594D01*
X339115Y969469D01*
X339122Y969473D01*
X339126Y969469D01*
X340238Y969594D01*
G37*
D10*
X9292Y872308D03*
X9292Y862308D03*
X21612Y862308D03*
X21612Y872308D03*
D11*
X438000Y337500D03*
X451000Y337500D03*
X438000Y358500D03*
X451000Y358500D03*
D12*
X341986Y430228D03*
X331986Y430228D03*
D13*
X323000Y447222D03*
X342000Y447222D03*
D12*
X448000Y307000D03*
X438000Y307000D03*
X448000Y317500D03*
X438000Y317500D03*
D14*
X40160Y40160D03*
X449840Y40160D03*
X449840Y959840D03*
D11*
X438000Y348000D03*
X451000Y348000D03*
D15*
X433000Y410000D03*
X450000Y410000D03*
X450000Y389500D03*
X433000Y389500D03*
D16*
X343518Y412076D03*
X343518Y407076D03*
X343518Y402076D03*
X343518Y397076D03*
X343518Y392076D03*
X343518Y387076D03*
X343518Y382076D03*
X343518Y377076D03*
X343518Y372076D03*
X343518Y367076D03*
X343518Y362076D03*
X343518Y357076D03*
X343518Y352076D03*
X343518Y347076D03*
X343518Y342076D03*
X343518Y337076D03*
X343518Y332076D03*
X343518Y327076D03*
X343518Y322076D03*
X343518Y317076D03*
X343518Y312076D03*
X343518Y307076D03*
X343518Y302076D03*
X343518Y297076D03*
X414518Y297076D03*
X414518Y302076D03*
X414518Y307076D03*
X414518Y312076D03*
X414518Y317076D03*
X414518Y322076D03*
X414518Y327076D03*
X414518Y332076D03*
X414518Y337076D03*
X414518Y342076D03*
X414518Y347076D03*
X414518Y352076D03*
X414518Y357076D03*
X414518Y362076D03*
X414518Y367076D03*
X414518Y372076D03*
X414518Y377076D03*
X414518Y382076D03*
X414518Y387076D03*
X414518Y392076D03*
X414518Y397076D03*
X414518Y402076D03*
X414518Y407076D03*
X414518Y412076D03*
D17*
X445050Y706882D03*
X445050Y735322D03*
D18*
X397908Y965544D03*
X356908Y965544D03*
D19*
X443362Y658940D02*
X461650Y658940D01*
X461650Y633540D02*
X443362Y633540D01*
X443362Y608140D02*
X461650Y608140D01*
X461650Y582740D02*
X443362Y582740D01*
X443362Y557340D02*
X461650Y557340D01*
X461650Y531940D02*
X443362Y531940D01*
X443362Y506540D02*
X461650Y506540D01*
X461650Y481140D02*
X443362Y481140D01*
D10*
X424166Y645938D03*
X424166Y655938D03*
D20*
X394012Y495790D03*
X340012Y495790D03*
D21*
X335276Y838844D03*
X335276Y826144D03*
X335276Y813444D03*
X335276Y800744D03*
X389516Y800744D03*
X389516Y813444D03*
X389516Y826144D03*
X389516Y838844D03*
D22*
X362396Y819794D03*
D18*
X409538Y778210D03*
X368538Y778210D03*
D23*
X448772Y811122D03*
X448772Y861122D03*
D12*
X437264Y889552D03*
X427264Y889552D03*
D20*
X408220Y913922D03*
X354220Y913922D03*
D24*
X334688Y776616D03*
X334688Y757616D03*
D10*
X392500Y858500D03*
X392500Y868500D03*
X381696Y868660D03*
X381696Y858660D03*
D15*
X312666Y817636D03*
X312666Y834636D03*
D25*
X289596Y801550D03*
X289596Y747550D03*
D17*
X243964Y734450D03*
X243964Y762890D03*
D26*
X375448Y714834D03*
X375448Y727834D03*
D27*
X313370Y931018D03*
X308370Y931018D03*
X303370Y931018D03*
X278370Y931018D03*
X283370Y931018D03*
X288370Y931018D03*
X298370Y931018D03*
X293370Y931018D03*
D28*
X327870Y931018D03*
X263870Y931018D03*
X319870Y931018D03*
X271870Y931018D03*
D29*
X324770Y941718D03*
X266970Y941718D03*
D30*
X127220Y30000D03*
X98780Y30000D03*
D31*
X235000Y20000D03*
X235000Y40000D03*
X215000Y30000D03*
D30*
X199220Y30000D03*
X170780Y30000D03*
D12*
X247000Y9000D03*
X237000Y9000D03*
D26*
X250000Y36500D03*
X250000Y23500D03*
D12*
X247000Y51000D03*
X237000Y51000D03*
D32*
X273000Y47000D03*
X273000Y13000D03*
D30*
X329720Y12500D03*
X301280Y12500D03*
X127220Y89000D03*
X98780Y89000D03*
D31*
X235000Y79000D03*
X235000Y99000D03*
X215000Y89000D03*
D30*
X199220Y89000D03*
X170780Y89000D03*
D12*
X247000Y68000D03*
X237000Y68000D03*
D26*
X250000Y95500D03*
X250000Y82500D03*
D12*
X247000Y110000D03*
X237000Y110000D03*
D32*
X273000Y106000D03*
X273000Y72000D03*
D30*
X127220Y148000D03*
X98780Y148000D03*
D31*
X235000Y138000D03*
X235000Y158000D03*
X215000Y148000D03*
D30*
X199220Y148000D03*
X170780Y148000D03*
D12*
X247000Y127000D03*
X237000Y127000D03*
D26*
X250000Y154500D03*
X250000Y141500D03*
D12*
X247000Y169000D03*
X237000Y169000D03*
D32*
X273000Y165000D03*
X273000Y131000D03*
D30*
X127220Y207000D03*
X98780Y207000D03*
D31*
X235000Y197000D03*
X235000Y217000D03*
X215000Y207000D03*
D30*
X199220Y207000D03*
X170780Y207000D03*
D12*
X247000Y186000D03*
X237000Y186000D03*
D26*
X250000Y213500D03*
X250000Y200500D03*
D12*
X247000Y228000D03*
X237000Y228000D03*
D32*
X273000Y224000D03*
X273000Y190000D03*
D30*
X127220Y266000D03*
X98780Y266000D03*
D31*
X235000Y256000D03*
X235000Y276000D03*
X215000Y266000D03*
D30*
X199220Y266000D03*
X170780Y266000D03*
D12*
X247000Y245000D03*
X237000Y245000D03*
D26*
X250000Y272500D03*
X250000Y259500D03*
D12*
X247000Y287000D03*
X237000Y287000D03*
D32*
X273000Y283000D03*
X273000Y249000D03*
D30*
X127220Y325000D03*
X98780Y325000D03*
D31*
X235000Y315000D03*
X235000Y335000D03*
X215000Y325000D03*
D30*
X199220Y325000D03*
X170780Y325000D03*
D12*
X247000Y304000D03*
X237000Y304000D03*
D26*
X250000Y331500D03*
X250000Y318500D03*
D12*
X247000Y346000D03*
X237000Y346000D03*
D32*
X273000Y342000D03*
X273000Y308000D03*
D30*
X127220Y384000D03*
X98780Y384000D03*
D31*
X235000Y374000D03*
X235000Y394000D03*
X215000Y384000D03*
D30*
X199220Y384000D03*
X170780Y384000D03*
D12*
X247000Y363000D03*
X237000Y363000D03*
D26*
X250000Y390500D03*
X250000Y377500D03*
D12*
X247000Y405000D03*
X237000Y405000D03*
D32*
X273000Y401000D03*
X273000Y367000D03*
D30*
X127220Y443000D03*
X98780Y443000D03*
D31*
X235000Y433000D03*
X235000Y453000D03*
X215000Y443000D03*
D30*
X199220Y443000D03*
X170780Y443000D03*
D12*
X247000Y422000D03*
X237000Y422000D03*
D26*
X250000Y449500D03*
X250000Y436500D03*
D12*
X247000Y464000D03*
X237000Y464000D03*
D32*
X273000Y460000D03*
X273000Y426000D03*
D30*
X127220Y502000D03*
X98780Y502000D03*
D31*
X235000Y492000D03*
X235000Y512000D03*
X215000Y502000D03*
D30*
X199220Y502000D03*
X170780Y502000D03*
D12*
X247000Y481000D03*
X237000Y481000D03*
D26*
X250000Y508500D03*
X250000Y495500D03*
D12*
X247000Y523000D03*
X237000Y523000D03*
D32*
X273000Y519000D03*
X273000Y485000D03*
D30*
X127220Y561000D03*
X98780Y561000D03*
D31*
X235000Y551000D03*
X235000Y571000D03*
X215000Y561000D03*
D30*
X199220Y561000D03*
X170780Y561000D03*
D12*
X247000Y540000D03*
X237000Y540000D03*
D26*
X250000Y567500D03*
X250000Y554500D03*
D12*
X247000Y582000D03*
X237000Y582000D03*
D32*
X273000Y578000D03*
X273000Y544000D03*
D30*
X127220Y620000D03*
X98780Y620000D03*
D31*
X235000Y610000D03*
X235000Y630000D03*
X215000Y620000D03*
D30*
X199220Y620000D03*
X170780Y620000D03*
D12*
X247000Y599000D03*
X237000Y599000D03*
D26*
X250000Y626500D03*
X250000Y613500D03*
D12*
X247000Y641000D03*
X237000Y641000D03*
D32*
X273000Y637000D03*
X273000Y603000D03*
D30*
X127220Y679000D03*
X98780Y679000D03*
D31*
X235000Y669000D03*
X235000Y689000D03*
X215000Y679000D03*
D30*
X199220Y679000D03*
X170780Y679000D03*
D12*
X247000Y658000D03*
X237000Y658000D03*
D26*
X250000Y685500D03*
X250000Y672500D03*
D12*
X247000Y700000D03*
X237000Y700000D03*
D32*
X273000Y696000D03*
X273000Y662000D03*
D10*
X301500Y43500D03*
X301500Y33500D03*
D11*
X436500Y296500D03*
X449500Y296500D03*
D33*
X24300Y434000D03*
X49700Y434000D03*
X49700Y404000D03*
X24300Y404000D03*
X49700Y374000D03*
X24300Y374000D03*
X49700Y344000D03*
X24300Y344000D03*
X49700Y314000D03*
X24300Y314000D03*
X49700Y284000D03*
X24300Y284000D03*
X49700Y254000D03*
X24300Y254000D03*
X49700Y224000D03*
X24300Y224000D03*
X49700Y194000D03*
X24300Y194000D03*
X24300Y164000D03*
X49700Y164000D03*
X49700Y134000D03*
X24300Y134000D03*
D34*
X77500Y639500D03*
X77500Y622500D03*
X77500Y670000D03*
X77500Y653000D03*
X77500Y134500D03*
X77500Y151500D03*
X77500Y104000D03*
X77500Y121000D03*
D12*
X320000Y916500D03*
X310000Y916500D03*
X267000Y917000D03*
X277000Y917000D03*
D35*
X222300Y981200D03*
X230700Y981200D03*
X230700Y968800D03*
X222300Y968800D03*
D36*
X394000Y743500D03*
X394000Y702500D03*
X420500Y701500D03*
X420500Y742500D03*
D26*
X370500Y870000D03*
X370500Y857000D03*
X403000Y870000D03*
X403000Y857000D03*
D37*
X285996Y856894D03*
X285996Y879754D03*
X285996Y902614D03*
D38*
X223004Y879500D03*
D26*
X308500Y893500D03*
X308500Y880500D03*
D11*
X244000Y841000D03*
X257000Y841000D03*
D39*
X46500Y936000D03*
X46500Y837000D03*
X165500Y936000D03*
X165500Y837000D03*
D40*
X47000Y926500D03*
X47000Y918500D03*
X47000Y910500D03*
X47000Y902500D03*
X47000Y894500D03*
X47000Y886500D03*
X47000Y878500D03*
X47000Y870500D03*
X47000Y862500D03*
X47000Y854500D03*
X47000Y846500D03*
D41*
X58000Y837500D03*
X66000Y837500D03*
X74000Y837500D03*
X82000Y837500D03*
X90000Y837500D03*
X98000Y837500D03*
X106000Y837500D03*
X114000Y837500D03*
X122000Y837500D03*
X130000Y837500D03*
X138000Y837500D03*
X146000Y837500D03*
X154000Y837500D03*
D40*
X165000Y846500D03*
X165000Y854500D03*
X165000Y862500D03*
X165000Y870500D03*
X165000Y878500D03*
X165000Y886500D03*
X165000Y894500D03*
X165000Y902500D03*
X165000Y910500D03*
X165000Y918500D03*
X165000Y926500D03*
D41*
X154000Y935500D03*
X146000Y935500D03*
X138000Y935500D03*
X130000Y935500D03*
X122000Y935500D03*
X114000Y935500D03*
X106000Y935500D03*
X98000Y935500D03*
X90000Y935500D03*
D42*
X106000Y886500D03*
X106000Y906250D03*
X125750Y906250D03*
X125750Y886500D03*
X125750Y866750D03*
X106000Y866750D03*
X86250Y866750D03*
X86250Y886500D03*
D41*
X82000Y935500D03*
X74000Y935500D03*
X66000Y935500D03*
X58000Y935500D03*
D43*
X200500Y751500D03*
X171500Y751000D03*
D44*
X323250Y197050D03*
X323250Y184350D03*
X323250Y171650D03*
X323250Y158950D03*
X429750Y158950D03*
X429750Y171650D03*
X429750Y184350D03*
X429750Y197050D03*
D26*
X327500Y213500D03*
X327500Y226500D03*
D11*
X416500Y140000D03*
X429500Y140000D03*
D45*
X469500Y202000D03*
X469500Y125800D03*
X469500Y151200D03*
X469500Y176600D03*
D10*
X439500Y102500D03*
X439500Y92500D03*
D46*
X471120Y97500D03*
X455880Y97500D03*
D47*
X463500Y97500D03*
D48*
X423500Y95500D03*
X423500Y123500D03*
D10*
X32000Y868500D03*
X32000Y878500D03*
D26*
X32000Y850500D03*
X32000Y837500D03*
D48*
X14500Y891500D03*
X14500Y919500D03*
D26*
X31500Y903000D03*
X31500Y916000D03*
D12*
X177500Y833000D03*
X187500Y833000D03*
D19*
X46632Y780106D02*
X28344Y780106D01*
X28344Y734894D02*
X46632Y734894D01*
X93368Y780106D02*
X111656Y780106D01*
X111656Y734894D02*
X93368Y734894D01*
D49*
X74500Y807500D03*
X49500Y807500D03*
D26*
X38000Y819000D03*
X38000Y806000D03*
X86500Y819000D03*
X86500Y806000D03*
D12*
X58500Y822000D03*
X68500Y822000D03*
D19*
X151800Y818144D02*
X151800Y799856D01*
X177200Y799856D02*
X177200Y818144D01*
M02*
