G04 EAGLE Gerber RS-274X export*
G75*
%MOMM*%
%FSLAX34Y34*%
%LPD*%
%INSolderpaste Top*%
%IPPOS*%
%AMOC8*
5,1,8,0,0,1.08239X$1,22.5*%
G01*
%ADD10R,0.700000X0.600000*%
%ADD11R,0.700000X0.900000*%
%ADD12R,0.600000X0.700000*%
%ADD13R,1.300000X1.500000*%
%ADD14R,1.000000X1.100000*%
%ADD15R,1.800000X0.300000*%
%ADD16R,1.803000X1.600000*%
%ADD17R,1.800000X1.700000*%
%ADD18R,3.500000X1.600000*%
%ADD19R,1.525000X0.650000*%
%ADD20R,2.280000X2.280000*%
%ADD21R,7.500000X3.000000*%
%ADD22R,1.500000X1.300000*%
%ADD23R,1.600000X3.500000*%
%ADD24R,0.900000X0.700000*%
%ADD25R,0.600000X1.140000*%
%ADD26R,0.300000X1.140000*%
%ADD27R,1.600000X1.803000*%
%ADD28R,0.900000X0.800000*%
%ADD29R,1.800000X1.400000*%
%ADD30R,1.100000X1.000000*%
%ADD31R,0.650000X0.450000*%
%ADD32R,1.700000X1.800000*%
%ADD33R,2.006600X1.498600*%
%ADD34R,2.006600X3.810000*%
%ADD35R,0.700000X0.700000*%
%ADD36R,0.800000X0.400000*%
%ADD37R,0.400000X0.800000*%
%ADD38R,1.450000X1.450000*%
%ADD39R,1.850000X0.650000*%
%ADD40R,1.168400X1.600200*%
%ADD41R,1.800000X1.600000*%
%ADD42R,1.000000X1.800000*%
%ADD43R,0.700000X0.500000*%
%ADD44R,0.783900X1.127200*%

G36*
X93547Y898987D02*
X93547Y898987D01*
X93542Y898994D01*
X93549Y899000D01*
X93549Y913500D01*
X93513Y913547D01*
X93506Y913542D01*
X93500Y913549D01*
X85000Y913549D01*
X84979Y913533D01*
X84965Y913535D01*
X78965Y907535D01*
X78962Y907508D01*
X78951Y907500D01*
X78951Y899000D01*
X78987Y898953D01*
X78994Y898958D01*
X79000Y898951D01*
X93500Y898951D01*
X93547Y898987D01*
G37*
D10*
X9292Y872308D03*
X9292Y862308D03*
X21612Y862308D03*
X21612Y872308D03*
D11*
X438000Y337500D03*
X451000Y337500D03*
X438000Y358500D03*
X451000Y358500D03*
D12*
X341986Y430228D03*
X331986Y430228D03*
D13*
X323000Y447222D03*
X342000Y447222D03*
D12*
X448000Y307000D03*
X438000Y307000D03*
X448000Y317500D03*
X438000Y317500D03*
D11*
X438000Y348000D03*
X451000Y348000D03*
D14*
X433000Y410000D03*
X450000Y410000D03*
X450000Y389500D03*
X433000Y389500D03*
D15*
X343518Y412076D03*
X343518Y407076D03*
X343518Y402076D03*
X343518Y397076D03*
X343518Y392076D03*
X343518Y387076D03*
X343518Y382076D03*
X343518Y377076D03*
X343518Y372076D03*
X343518Y367076D03*
X343518Y362076D03*
X343518Y357076D03*
X343518Y352076D03*
X343518Y347076D03*
X343518Y342076D03*
X343518Y337076D03*
X343518Y332076D03*
X343518Y327076D03*
X343518Y322076D03*
X343518Y317076D03*
X343518Y312076D03*
X343518Y307076D03*
X343518Y302076D03*
X343518Y297076D03*
X414518Y297076D03*
X414518Y302076D03*
X414518Y307076D03*
X414518Y312076D03*
X414518Y317076D03*
X414518Y322076D03*
X414518Y327076D03*
X414518Y332076D03*
X414518Y337076D03*
X414518Y342076D03*
X414518Y347076D03*
X414518Y352076D03*
X414518Y357076D03*
X414518Y362076D03*
X414518Y367076D03*
X414518Y372076D03*
X414518Y377076D03*
X414518Y382076D03*
X414518Y387076D03*
X414518Y392076D03*
X414518Y397076D03*
X414518Y402076D03*
X414518Y407076D03*
X414518Y412076D03*
D16*
X445050Y706882D03*
X445050Y735322D03*
D17*
X397908Y965544D03*
X356908Y965544D03*
D10*
X424166Y645938D03*
X424166Y655938D03*
D18*
X394012Y495790D03*
X340012Y495790D03*
D19*
X335276Y838844D03*
X335276Y826144D03*
X335276Y813444D03*
X335276Y800744D03*
X389516Y800744D03*
X389516Y813444D03*
X389516Y826144D03*
X389516Y838844D03*
D20*
X362396Y819794D03*
D17*
X409538Y778210D03*
X368538Y778210D03*
D21*
X448772Y811122D03*
X448772Y861122D03*
D12*
X437264Y889552D03*
X427264Y889552D03*
D18*
X408220Y913922D03*
X354220Y913922D03*
D22*
X334688Y776616D03*
X334688Y757616D03*
D10*
X392500Y858500D03*
X392500Y868500D03*
X381696Y868660D03*
X381696Y858660D03*
D14*
X312666Y817636D03*
X312666Y834636D03*
D23*
X289596Y801550D03*
X289596Y747550D03*
D16*
X243964Y734450D03*
X243964Y762890D03*
D24*
X375448Y714834D03*
X375448Y727834D03*
D25*
X327870Y931018D03*
X319870Y931018D03*
D26*
X298370Y931018D03*
X303370Y931018D03*
X308370Y931018D03*
X313370Y931018D03*
X293370Y931018D03*
X288370Y931018D03*
X283370Y931018D03*
X278370Y931018D03*
D25*
X271870Y931018D03*
X263870Y931018D03*
D27*
X127220Y30000D03*
X98780Y30000D03*
D28*
X235000Y20000D03*
X235000Y40000D03*
X215000Y30000D03*
D27*
X199220Y30000D03*
X170780Y30000D03*
D12*
X247000Y9000D03*
X237000Y9000D03*
D24*
X250000Y36500D03*
X250000Y23500D03*
D12*
X247000Y51000D03*
X237000Y51000D03*
D29*
X273000Y47000D03*
X273000Y13000D03*
D27*
X329720Y12500D03*
X301280Y12500D03*
X127220Y89000D03*
X98780Y89000D03*
D28*
X235000Y79000D03*
X235000Y99000D03*
X215000Y89000D03*
D27*
X199220Y89000D03*
X170780Y89000D03*
D12*
X247000Y68000D03*
X237000Y68000D03*
D24*
X250000Y95500D03*
X250000Y82500D03*
D12*
X247000Y110000D03*
X237000Y110000D03*
D29*
X273000Y106000D03*
X273000Y72000D03*
D27*
X127220Y148000D03*
X98780Y148000D03*
D28*
X235000Y138000D03*
X235000Y158000D03*
X215000Y148000D03*
D27*
X199220Y148000D03*
X170780Y148000D03*
D12*
X247000Y127000D03*
X237000Y127000D03*
D24*
X250000Y154500D03*
X250000Y141500D03*
D12*
X247000Y169000D03*
X237000Y169000D03*
D29*
X273000Y165000D03*
X273000Y131000D03*
D27*
X127220Y207000D03*
X98780Y207000D03*
D28*
X235000Y197000D03*
X235000Y217000D03*
X215000Y207000D03*
D27*
X199220Y207000D03*
X170780Y207000D03*
D12*
X247000Y186000D03*
X237000Y186000D03*
D24*
X250000Y213500D03*
X250000Y200500D03*
D12*
X247000Y228000D03*
X237000Y228000D03*
D29*
X273000Y224000D03*
X273000Y190000D03*
D27*
X127220Y266000D03*
X98780Y266000D03*
D28*
X235000Y256000D03*
X235000Y276000D03*
X215000Y266000D03*
D27*
X199220Y266000D03*
X170780Y266000D03*
D12*
X247000Y245000D03*
X237000Y245000D03*
D24*
X250000Y272500D03*
X250000Y259500D03*
D12*
X247000Y287000D03*
X237000Y287000D03*
D29*
X273000Y283000D03*
X273000Y249000D03*
D27*
X127220Y325000D03*
X98780Y325000D03*
D28*
X235000Y315000D03*
X235000Y335000D03*
X215000Y325000D03*
D27*
X199220Y325000D03*
X170780Y325000D03*
D12*
X247000Y304000D03*
X237000Y304000D03*
D24*
X250000Y331500D03*
X250000Y318500D03*
D12*
X247000Y346000D03*
X237000Y346000D03*
D29*
X273000Y342000D03*
X273000Y308000D03*
D27*
X127220Y384000D03*
X98780Y384000D03*
D28*
X235000Y374000D03*
X235000Y394000D03*
X215000Y384000D03*
D27*
X199220Y384000D03*
X170780Y384000D03*
D12*
X247000Y363000D03*
X237000Y363000D03*
D24*
X250000Y390500D03*
X250000Y377500D03*
D12*
X247000Y405000D03*
X237000Y405000D03*
D29*
X273000Y401000D03*
X273000Y367000D03*
D27*
X127220Y443000D03*
X98780Y443000D03*
D28*
X235000Y433000D03*
X235000Y453000D03*
X215000Y443000D03*
D27*
X199220Y443000D03*
X170780Y443000D03*
D12*
X247000Y422000D03*
X237000Y422000D03*
D24*
X250000Y449500D03*
X250000Y436500D03*
D12*
X247000Y464000D03*
X237000Y464000D03*
D29*
X273000Y460000D03*
X273000Y426000D03*
D27*
X127220Y502000D03*
X98780Y502000D03*
D28*
X235000Y492000D03*
X235000Y512000D03*
X215000Y502000D03*
D27*
X199220Y502000D03*
X170780Y502000D03*
D12*
X247000Y481000D03*
X237000Y481000D03*
D24*
X250000Y508500D03*
X250000Y495500D03*
D12*
X247000Y523000D03*
X237000Y523000D03*
D29*
X273000Y519000D03*
X273000Y485000D03*
D27*
X127220Y561000D03*
X98780Y561000D03*
D28*
X235000Y551000D03*
X235000Y571000D03*
X215000Y561000D03*
D27*
X199220Y561000D03*
X170780Y561000D03*
D12*
X247000Y540000D03*
X237000Y540000D03*
D24*
X250000Y567500D03*
X250000Y554500D03*
D12*
X247000Y582000D03*
X237000Y582000D03*
D29*
X273000Y578000D03*
X273000Y544000D03*
D27*
X127220Y620000D03*
X98780Y620000D03*
D28*
X235000Y610000D03*
X235000Y630000D03*
X215000Y620000D03*
D27*
X199220Y620000D03*
X170780Y620000D03*
D12*
X247000Y599000D03*
X237000Y599000D03*
D24*
X250000Y626500D03*
X250000Y613500D03*
D12*
X247000Y641000D03*
X237000Y641000D03*
D29*
X273000Y637000D03*
X273000Y603000D03*
D27*
X127220Y679000D03*
X98780Y679000D03*
D28*
X235000Y669000D03*
X235000Y689000D03*
X215000Y679000D03*
D27*
X199220Y679000D03*
X170780Y679000D03*
D12*
X247000Y658000D03*
X237000Y658000D03*
D24*
X250000Y685500D03*
X250000Y672500D03*
D12*
X247000Y700000D03*
X237000Y700000D03*
D29*
X273000Y696000D03*
X273000Y662000D03*
D10*
X301500Y43500D03*
X301500Y33500D03*
D11*
X436500Y296500D03*
X449500Y296500D03*
D30*
X77500Y639500D03*
X77500Y622500D03*
X77500Y670000D03*
X77500Y653000D03*
X77500Y134500D03*
X77500Y151500D03*
X77500Y104000D03*
X77500Y121000D03*
D12*
X331500Y916500D03*
X321500Y916500D03*
X254000Y916500D03*
X264000Y916500D03*
D31*
X232300Y985700D03*
X240700Y985700D03*
X240700Y973300D03*
X232300Y973300D03*
D32*
X394000Y743500D03*
X394000Y702500D03*
X420500Y701500D03*
X420500Y742500D03*
D24*
X370500Y870000D03*
X370500Y857000D03*
X403000Y870000D03*
X403000Y857000D03*
D33*
X285996Y856894D03*
X285996Y879754D03*
X285996Y902614D03*
D34*
X223004Y879500D03*
D24*
X308500Y893500D03*
X308500Y880500D03*
D30*
X243500Y839000D03*
X260500Y839000D03*
D35*
X46500Y936000D03*
X46500Y837000D03*
X165500Y936000D03*
X165500Y837000D03*
D36*
X47000Y926500D03*
X47000Y918500D03*
X47000Y910500D03*
X47000Y902500D03*
X47000Y894500D03*
X47000Y886500D03*
X47000Y878500D03*
X47000Y870500D03*
X47000Y862500D03*
X47000Y854500D03*
X47000Y846500D03*
D37*
X58000Y837500D03*
X66000Y837500D03*
X74000Y837500D03*
X82000Y837500D03*
X90000Y837500D03*
X98000Y837500D03*
X106000Y837500D03*
X114000Y837500D03*
X122000Y837500D03*
X130000Y837500D03*
X138000Y837500D03*
X146000Y837500D03*
X154000Y837500D03*
D36*
X165000Y846500D03*
X165000Y854500D03*
X165000Y862500D03*
X165000Y870500D03*
X165000Y878500D03*
X165000Y886500D03*
X165000Y894500D03*
X165000Y902500D03*
X165000Y910500D03*
X165000Y918500D03*
X165000Y926500D03*
D37*
X154000Y935500D03*
X146000Y935500D03*
X138000Y935500D03*
X130000Y935500D03*
X122000Y935500D03*
X114000Y935500D03*
X106000Y935500D03*
X98000Y935500D03*
X90000Y935500D03*
D38*
X106000Y886500D03*
X106000Y906250D03*
X125750Y906250D03*
X125750Y886500D03*
X125750Y866750D03*
X106000Y866750D03*
X86250Y866750D03*
X86250Y886500D03*
D37*
X82000Y935500D03*
X74000Y935500D03*
X66000Y935500D03*
X58000Y935500D03*
D39*
X323250Y197050D03*
X323250Y184350D03*
X323250Y171650D03*
X323250Y158950D03*
X429750Y158950D03*
X429750Y171650D03*
X429750Y184350D03*
X429750Y197050D03*
D24*
X327500Y213500D03*
X327500Y226500D03*
D11*
X416500Y140000D03*
X429500Y140000D03*
D10*
X439500Y102500D03*
X439500Y92500D03*
D40*
X471120Y97500D03*
X455880Y97500D03*
D41*
X423500Y95000D03*
X423500Y123000D03*
D10*
X32000Y868500D03*
X32000Y878500D03*
D24*
X32000Y850500D03*
X32000Y837500D03*
D22*
X14500Y895500D03*
X14500Y914500D03*
D24*
X31500Y903000D03*
X31500Y916000D03*
D12*
X177500Y833000D03*
X187500Y833000D03*
D42*
X74500Y807500D03*
X49500Y807500D03*
D24*
X38000Y819000D03*
X38000Y806000D03*
X86500Y819000D03*
X86500Y806000D03*
D12*
X58500Y822000D03*
X68500Y822000D03*
D24*
X220000Y982000D03*
X220000Y969000D03*
D43*
X370500Y984500D03*
X357500Y984500D03*
X312000Y916000D03*
X299000Y916000D03*
X277000Y916000D03*
X290000Y916000D03*
D44*
X234500Y929285D03*
X234500Y963715D03*
D10*
X220500Y953500D03*
X220500Y943500D03*
M02*
